<svg width="18" height="20" viewBox="0 0 18 20" fill="none" xmlns="http://www.w3.org/2000/svg">
<path fill-rule="evenodd" clip-rule="evenodd" d="M1.70966 16.2322C4.12824 16.2407 6.54707 16.235 8.96577 16.2351L10.8653 16.2347C12.6509 16.2342 14.4363 16.2336 16.2219 16.2375C16.8038 16.2387 17.3023 16.092 17.5776 15.5323C17.8521 14.9743 17.6977 14.4774 17.3017 14.04C14.0014 10.3938 16.5825 3.57949 10.6366 2.1208C10.2705 2.03104 10.1912 1.82399 10.2042 1.48874C10.2243 0.972619 10.1445 0.487411 9.63717 0.191338C8.76235 -0.3189 7.8357 0.236907 7.77788 1.31825C7.77555 1.36146 7.77445 1.40405 7.77335 1.4458C7.7659 1.74103 7.75942 1.99459 7.33154 2.13257C1.36535 4.05553 4.12867 10.218 0.688389 14.0643C0.492667 14.2831 0.330931 14.5953 0.29499 14.882C0.194256 15.6877 0.775308 16.229 1.70966 16.2322ZM11.4142 17.5448H6.54719C6.56455 18.5948 7.0703 19.2704 7.89377 19.7056C8.76394 20.1651 9.63619 20.0801 10.4254 19.4968C11.0648 19.0238 11.4649 18.4064 11.4142 17.5448Z" fill="#4C4E61"/>
</svg>
