<svg width="20" height="20" viewBox="0 0 20 20" fill="none" xmlns="http://www.w3.org/2000/svg">
<path fill-rule="evenodd" clip-rule="evenodd" d="M5.51892 0.511194C4.64036 0.703448 3.97642 1.39646 3.83781 2.27054C3.82887 2.33314 3.81099 2.35773 3.77522 2.36667C3.74839 2.37114 3.28341 2.38008 2.74241 2.38455C1.82585 2.39349 1.74761 2.39796 1.6023 2.44044C1.32286 2.52315 1.16191 2.59692 0.942827 2.74447C0.473369 3.05744 0.155927 3.5336 0.0352093 4.1059C-0.0117364 4.33392 -0.0117364 16.1955 0.0352093 16.4169C0.225228 17.2932 0.853406 17.9214 1.72526 18.1069C1.84597 18.1337 2.56357 18.1382 6.05544 18.1382C7.36814 18.1158 6.83494 18.1158 6.83494 18.1158C6.83494 18.1158 7.27028 17.2141 7.5074 16.6672L5.61505 16.7298L1.95998 16.7186L1.83703 16.6561C1.67607 16.5733 1.56653 16.4638 1.48829 16.3095L1.42346 16.1821V9.56501V4.33392L1.47488 4.23108C1.54641 4.08578 1.66937 3.94941 1.77891 3.89352C1.97787 3.79069 2.03599 3.78622 3.11798 3.78622H4.14408L4.21338 3.86893C4.36763 4.05001 4.55541 4.23779 4.66272 4.3205C4.87956 4.48593 5.19477 4.63124 5.50327 4.70725C5.68435 4.74972 9.57637 4.74972 9.73956 4.70501C10.2895 4.55523 10.6539 4.32721 10.9579 3.94494C11.0004 3.89129 11.0496 3.83316 11.0652 3.81751C11.0898 3.79069 11.2754 3.78622 12.1114 3.78622C12.7642 3.78622 13.1666 3.79516 13.2337 3.81081C13.4796 3.8667 13.6651 4.01871 13.7657 4.24673L13.8194 4.36969V5.35108V7.72072H13.8842C13.9177 7.72072 14.0027 7.70954 14.0675 7.69613C14.1346 7.68271 14.4252 7.6693 14.7136 7.66706L15.2389 7.66259L15.2456 5.36002C15.2486 4.33688 15.24 3.26005 14.2218 2.69305C14.0385 2.59022 13.8618 2.50974 13.7635 2.48068L13.7281 2.47021C13.6713 2.45345 13.6026 2.43314 13.5623 2.42032C13.4975 2.4002 13.1957 2.39126 12.4892 2.38455C11.9482 2.38008 11.4833 2.37114 11.4564 2.36667C11.4184 2.35773 11.405 2.33761 11.405 2.2996C11.405 2.18783 11.3156 1.89498 11.2083 1.66248C11.1368 1.506 10.9467 1.24668 10.7925 1.09019C10.4885 0.790632 10.1643 0.616263 9.71721 0.511194C9.58978 0.482132 9.30364 0.477661 7.60912 0.479896C6.12921 0.482132 5.61728 0.491074 5.51892 0.511194ZM9.58084 1.95086C9.87816 2.10064 10.0615 2.43373 9.99665 2.71764C9.92735 3.03285 9.71721 3.24969 9.41541 3.31676C9.27234 3.34806 5.95931 3.34582 5.82071 3.31452C5.47421 3.23405 5.23501 2.9479 5.23501 2.61257C5.23501 2.47621 5.24395 2.44491 5.31772 2.27278C5.35796 2.17888 5.52339 2.01569 5.63069 1.96428C5.67764 1.93969 5.75588 1.91509 5.80506 1.90615C5.85424 1.89721 6.69927 1.89274 7.68289 1.89497L9.4713 1.89721L9.58084 1.95086ZM9.06891 7.85767C10.3856 6.54096 11.4793 5.4302 11.4793 5.4302C11.9461 4.87571 13.0935 5.67497 12.5049 6.27807L7.22125 11.8861C6.98923 12.0295 6.54684 12.0146 6.30806 11.8861C6.23205 11.8458 3.77075 9.39124 3.69474 9.27946C3.60309 9.14533 3.57403 9.02908 3.5852 8.8413C3.59414 8.65352 3.63662 8.55292 3.75957 8.41432C3.98536 8.155 4.3721 8.10582 4.66272 8.29584C4.72531 8.33607 5.19477 8.78765 5.70447 9.29958C6.21416 9.81151 6.64785 10.2296 6.66574 10.2296C6.68362 10.2296 7.76561 9.16321 9.06891 7.85767ZM12.7938 19.5196C13.2375 19.5191 13.6811 19.5187 14.1247 19.5187L14.1247 19.5203L15.1147 19.5205H15.1161H15.1179C16.2278 19.5207 17.3377 19.521 18.4476 19.5183C18.6121 19.5179 18.7829 19.5135 18.9399 19.471C19.9792 19.1903 20.2333 18.1261 19.7943 17.3211C19.353 16.5118 18.8908 15.7139 18.4286 14.916L18.4269 14.9132L18.4265 14.9125L18.4258 14.9113C18.2285 14.5707 18.0311 14.2301 17.8354 13.8886C17.594 13.4672 17.3506 13.0469 17.1073 12.6266C16.5462 11.6577 15.9852 10.6888 15.4475 9.70706C14.8224 8.56573 13.4129 8.66701 12.9004 9.55882C12.4688 10.3099 12.036 11.0611 11.6035 11.8116C10.5392 13.6589 9.47488 15.5062 8.42348 17.3608C7.8533 18.3666 8.54721 19.5118 9.70204 19.5171C10.7315 19.5217 11.7609 19.5206 12.7904 19.5196L12.7938 19.5196ZM14.7972 13.2786L14.8129 13.2796L14.7982 13.5106L14.7766 13.8519C14.7475 14.3126 14.7184 14.7734 14.6867 15.234C14.6642 15.5609 14.447 15.7903 14.1524 15.8109C13.8702 15.8307 13.6014 15.6159 13.5758 15.2886C13.5027 14.351 13.4406 13.4122 13.4011 12.4727C13.3841 12.0671 13.7236 11.75 14.1102 11.7431C14.5205 11.7357 14.8325 12.0435 14.8369 12.483C14.8387 12.6658 14.8259 12.8488 14.8132 13.0317L14.8132 13.0318L14.8074 13.1144C14.8037 13.1691 14.8002 13.2238 14.7972 13.2786ZM13.3274 17.0106C13.3181 16.5705 13.675 16.2082 14.1202 16.2059C14.5694 16.2035 14.9148 16.5506 14.9133 17.0028C14.9119 17.4344 14.5701 17.788 14.1443 17.7983C13.7065 17.809 13.3368 17.4525 13.3274 17.0106Z" fill="currentColor"/>
</svg>
