<svg width="20" height="20" viewBox="0 0 20 20" fill="none" xmlns="http://www.w3.org/2000/svg">
<path fill-rule="evenodd" clip-rule="evenodd" d="M19.9998 4.33824C19.9865 5.10215 19.7068 5.93622 19.2482 6.67407C18.3449 8.12764 17.3859 9.5472 16.4164 10.9575C15.9813 11.5904 15.5499 11.5732 15.0831 10.9664C13.9062 9.43701 12.7988 7.86165 11.9677 6.10742C10.7435 3.52342 12.1686 1.2014 13.9851 0.383714C16.7943 -0.880974 19.9499 1.12035 19.9998 4.33824ZM15.7573 5.72686C16.5248 5.723 17.1844 5.0526 17.1791 4.28153C17.1739 3.50594 16.5118 2.84507 15.7444 2.84922C14.9767 2.85345 14.3171 3.52385 14.3224 4.29456C14.3277 5.07014 14.9895 5.73073 15.7573 5.72686ZM8.70631 9.51152C8.69265 10.2949 8.40578 11.1503 7.93549 11.907C7.00907 13.3977 6.02561 14.8536 5.03133 16.2998C4.58507 16.949 4.14268 16.9313 3.66391 16.309C2.45699 14.7406 1.32128 13.1249 0.46894 11.3259C-0.786491 8.67589 0.675013 6.29455 2.53792 5.45597C5.41886 4.15898 8.6551 6.21142 8.70631 9.51152ZM4.3554 10.9356C5.14251 10.9317 5.81895 10.2441 5.81354 9.45336C5.80814 8.65797 5.12914 7.98021 4.3421 7.98447C3.55485 7.9888 2.87841 8.67633 2.88381 9.46673C2.88922 10.2621 3.56793 10.9396 4.3554 10.9356ZM15.1369 12.9219C15.5711 12.7098 16.095 12.89 16.3071 13.3242C16.5191 13.7585 16.3389 14.2824 15.9047 14.4944L4.81095 19.9111C4.3767 20.1231 3.85278 19.943 3.64075 19.5087C3.42873 19.0745 3.60887 18.5506 4.04312 18.3385L15.1369 12.9219Z" fill="currentColor"/>
</svg>
