<svg width="20" height="20" viewBox="0 0 20 20" fill="none" xmlns="http://www.w3.org/2000/svg">
<path fill-rule="evenodd" clip-rule="evenodd" d="M4.28296 14.887C5.62499 14.8917 6.96711 14.8908 8.30923 14.8899C8.86378 14.8896 9.41832 14.8892 9.97286 14.8892L11.4624 14.8889L11.4774 14.8889H11.4774C12.8725 14.8885 14.2676 14.8881 15.6628 14.8911C16.1191 14.8921 16.51 14.777 16.7259 14.3382C16.9411 13.9006 16.82 13.5109 16.5095 13.168C15.4625 12.0113 15.1704 10.448 14.8849 8.92062C14.4648 6.67264 14.0593 4.50257 11.283 3.82148C10.996 3.75109 10.9338 3.58874 10.9439 3.32585C10.9598 2.92113 10.8972 2.54065 10.4993 2.30849C9.81334 1.90838 9.08671 2.34422 9.04136 3.19216C9.03958 3.22543 9.03871 3.25824 9.03786 3.29041L9.03782 3.29218C9.03197 3.52368 9.02689 3.72251 8.69137 3.83071C5.93456 4.71925 5.55464 6.76214 5.15565 8.90753C4.87754 10.403 4.59017 11.9482 3.48212 13.187C3.32865 13.3586 3.20182 13.6034 3.17364 13.8282C3.09465 14.46 3.55028 14.8844 4.28296 14.887ZM11.8928 15.9162H8.07632C8.08993 16.7396 8.48651 17.2694 9.13224 17.6106C9.81459 17.971 10.4986 17.9043 11.1175 17.4469C11.6188 17.076 11.9326 16.5919 11.8928 15.9162ZM0 7.67179C0.0152528 8.9883 0.390165 10.1847 1.1935 11.2369C1.38282 11.4848 1.61283 11.6613 1.94813 11.564C2.42885 11.4246 2.53511 10.9671 2.24633 10.4832C2.21378 10.4286 2.18078 10.374 2.14772 10.3192L2.14674 10.3176L2.14578 10.3161L2.14482 10.3146L2.14039 10.3071L2.14026 10.3069L2.14026 10.3069C1.90536 9.91773 1.66676 9.52245 1.52868 9.09836C1.04495 7.61299 1.27951 6.21372 2.185 4.93461C2.37553 4.66547 2.53152 4.3903 2.33343 4.06277C2.07086 3.62859 1.54329 3.64854 1.19293 4.10654C0.388627 5.15807 0.0150606 6.35534 0 7.67179ZM2.29683 7.66536C2.31048 8.56109 2.58888 9.35876 3.18823 10.032C3.36492 10.2303 3.61088 10.3739 3.85589 10.2391C4.04508 10.135 4.26285 9.9259 4.29393 9.73512C4.32591 9.53779 4.18588 9.27981 4.05539 9.09455C3.58788 8.43075 3.46585 7.71386 3.70464 6.95148C3.78336 6.70022 3.93369 6.46781 4.08048 6.24088L4.08077 6.24043L4.13794 6.15184C4.39217 5.75474 4.37993 5.43251 4.07347 5.19672C3.76572 4.96001 3.40785 5.03509 3.10882 5.39924C2.56799 6.05786 2.31132 6.81807 2.29683 7.66536ZM18.8065 11.2369C19.6098 10.1847 19.9847 8.9883 20 7.67179C19.9849 6.35534 19.6114 5.15807 18.8071 4.10654C18.4567 3.64854 17.9291 3.62859 17.6666 4.06277C17.4685 4.3903 17.6245 4.66547 17.815 4.93461C18.7205 6.21372 18.9551 7.61299 18.4713 9.09836C18.3332 9.52245 18.0946 9.91773 17.8597 10.3069L17.8596 10.3071L17.8552 10.3146L17.8542 10.3161L17.8533 10.3176L17.8522 10.3194C17.8191 10.3741 17.7862 10.4287 17.7537 10.4832C17.4649 10.9671 17.5711 11.4246 18.0519 11.564C18.3872 11.6613 18.6172 11.4848 18.8065 11.2369ZM16.8118 10.032C17.4111 9.35876 17.6895 8.56109 17.7032 7.66536C17.6887 6.81807 17.432 6.05786 16.8912 5.39924C16.5921 5.03509 16.2343 4.96001 15.9265 5.19672C15.6201 5.43251 15.6078 5.75474 15.8621 6.15184L15.9192 6.24043L15.9195 6.24089C16.0663 6.46782 16.2166 6.70022 16.2954 6.95148C16.5341 7.71386 16.4121 8.43075 15.9446 9.09455C15.8141 9.27981 15.6741 9.53779 15.7061 9.73512C15.7372 9.9259 15.9549 10.135 16.1441 10.2391C16.3891 10.3739 16.6351 10.2303 16.8118 10.032Z" fill="currentColor"/>
</svg>
