<svg width="20" height="20" viewBox="0 0 20 20" fill="none" xmlns="http://www.w3.org/2000/svg">
<path fill-rule="evenodd" clip-rule="evenodd" d="M12.8471 9.38653C14.1129 8.30488 14.671 6.88029 14.7165 5.35498C14.7047 3.93249 14.3181 2.75538 13.5058 1.72835C11.7676 -0.46952 8.62148 -0.587767 6.71981 1.46868C4.84663 3.49431 4.80394 6.73954 6.62244 8.86627C8.2285 10.7446 10.9727 10.9882 12.8471 9.38653ZM8.2958 19.9995C8.8726 19.9992 9.44939 19.9989 10.0262 19.9989C10.5674 19.9989 11.1087 19.999 11.6499 19.9991C13.4096 19.9994 15.1693 19.9998 16.9291 19.9966C17.2134 19.9961 17.4994 19.9788 17.7817 19.9446C19.198 19.7732 20.0854 18.6992 19.9935 17.2931C19.9137 16.0726 19.3832 15.0776 18.4868 14.2673C17.5234 13.3965 16.3768 12.8578 15.1437 12.4958C12.3114 11.6643 9.43491 11.5748 6.53724 12.0556C5.04894 12.3027 3.61303 12.7302 2.33329 13.566C0.944299 14.4731 0.0422408 15.6758 0.000916453 17.4061C-0.0296202 18.6841 0.704572 19.6406 1.96268 19.8893C2.31445 19.9589 2.67884 19.9929 3.03768 19.9943C4.7904 20.0011 6.54311 20.0003 8.2958 19.9995Z" fill="currentColor"/>
</svg>
