<svg width="20" height="20" viewBox="0 0 20 20" fill="none" xmlns="http://www.w3.org/2000/svg">
<path fill-rule="evenodd" clip-rule="evenodd" d="M7.47047 15.0181C7.47047 15.5155 7.48251 15.9503 7.46784 16.3842C7.44163 17.1589 7.12739 17.4635 6.34016 17.4839C5.90754 17.4952 5.4743 17.4859 4.96181 17.4859C4.96181 18.0088 4.97561 18.4629 4.95868 18.9158C4.93184 19.6332 4.62801 19.9648 3.92893 19.9822C2.96853 20.0061 2.0065 20.0058 1.0461 19.982C0.368339 19.9652 0.042811 19.6438 0.0263843 18.974C0.0024338 17.9946 -0.0254018 17.0108 0.0434401 16.0356C0.068143 15.6861 0.298868 15.288 0.553922 15.0278C2.40952 13.1351 4.29019 11.2665 6.17727 9.40487C6.47282 9.11326 6.56938 8.86133 6.47458 8.42754C5.54515 4.1807 8.46297 0.32634 12.8142 0.0153323C16.3019 -0.233849 19.6238 2.58699 19.9658 6.08905C20.327 9.78371 17.7845 13.1595 14.2342 13.5936C13.3415 13.7029 12.4159 13.5247 11.5054 13.5242C11.2296 13.5239 10.9507 13.6694 10.6792 13.7649C10.6082 13.7898 10.5512 13.8717 10.5016 13.9378C9.87191 14.7752 9.05245 15.1519 7.99863 14.9876C7.85894 14.9658 7.71035 15.0024 7.47047 15.0181ZM16.2933 5.32773C16.3098 4.44678 15.612 3.73252 14.7278 3.72539C13.8661 3.71838 13.1754 4.37857 13.1412 5.24163C13.1062 6.12184 13.7888 6.84998 14.6724 6.87501C15.5528 6.90004 16.2767 6.20907 16.2933 5.32773Z" fill="currentColor"/>
</svg>
