<svg width="20" height="20" viewBox="0 0 20 20" fill="none" xmlns="http://www.w3.org/2000/svg">
<path fill-rule="evenodd" clip-rule="evenodd" d="M15.4163 18.4061C14.9715 18.6928 14.3905 18.5046 14.1477 18.0344C13.905 17.5642 14.0934 16.9907 14.5316 16.6941C15.5304 16.0179 16.3687 15.1244 16.9809 14.0758C17.7548 12.7504 18.1353 11.2321 18.0781 9.69839C18.0208 8.16469 17.5281 6.67897 16.6576 5.41496C15.7871 4.15095 14.5747 3.16088 13.1622 2.5605C11.7498 1.96011 10.1956 1.77424 8.68134 2.0246C7.16712 2.27496 5.75547 2.95121 4.61143 3.97429C3.46738 4.99737 2.63822 6.32499 2.2209 7.80193C1.89074 8.97039 1.82913 10.1941 2.0354 11.3825C2.1259 11.9038 1.84376 12.4374 1.33674 12.589C0.829719 12.7405 0.291021 12.4527 0.188702 11.9335C-0.114728 10.3939 -0.0523596 8.79963 0.376784 7.28086C0.893041 5.45379 1.91876 3.81144 3.33401 2.54584C4.74926 1.28023 6.49556 0.443664 8.36874 0.133952C10.2419 -0.17576 12.1646 0.0541805 13.9119 0.796889C15.6592 1.5396 17.1589 2.76438 18.2358 4.32804C19.3127 5.89169 19.9222 7.72961 19.993 9.62689C20.0639 11.5242 19.5931 13.4024 18.6358 15.042C17.8401 16.405 16.7355 17.5562 15.4163 18.4061ZM4.92922 19.9989C5.40732 19.9984 5.88546 19.9979 6.3636 19.9979L6.36353 19.9997L7.43198 19.9998C8.62884 20.0001 9.8257 20.0004 11.0226 19.9975C11.1998 19.9971 11.3839 19.9923 11.5531 19.9465C12.6732 19.644 12.947 18.497 12.474 17.6295C11.9984 16.7572 11.5002 15.8973 11.0021 15.0374L10.9998 15.0336C10.7869 14.666 10.574 14.2985 10.3628 13.93C10.1026 13.4759 9.84029 13.023 9.57803 12.57C8.97336 11.5257 8.36872 10.4815 7.78921 9.42344C7.11549 8.19337 5.59636 8.30252 5.04402 9.26367C4.57911 10.0727 4.11288 10.8819 3.64702 11.6905L3.64637 11.6916C2.49928 13.6825 1.35222 15.6734 0.219067 17.6722C-0.395446 18.7562 0.352422 19.9905 1.59704 19.9961C2.70651 20.0012 3.81601 20 4.92552 19.9989L4.92922 19.9989ZM7.08838 13.2726L7.1053 13.2737L7.0894 13.5227L7.0661 13.8905C7.03475 14.3871 7.00337 14.8837 6.96921 15.3801C6.94504 15.7324 6.71091 15.9796 6.39344 16.0018C6.08929 16.0232 5.79953 15.7917 5.77196 15.4389C5.69315 14.4284 5.62627 13.4167 5.58371 12.4041C5.56536 11.967 5.93131 11.6252 6.34798 11.6177C6.79018 11.6098 7.12635 11.9415 7.13108 12.4152C7.13308 12.6122 7.11931 12.8094 7.10555 13.0066L7.09938 13.0956C7.09535 13.1546 7.09153 13.2136 7.08838 13.2726ZM5.5043 17.2948C5.49428 16.8205 5.87887 16.43 6.35866 16.4275C6.84283 16.425 7.21508 16.799 7.21344 17.2864C7.21193 17.7516 6.84353 18.1327 6.38469 18.1438C5.91288 18.1553 5.51443 17.771 5.5043 17.2948ZM14.8534 5.87236C14.3354 5.22182 13.9106 5.416 13.5554 5.57837C13.1572 5.89543 12.4876 6.40917 11.7658 6.96308C10.9215 7.61096 10.0055 8.31378 9.36834 8.8211C8.332 9.64623 9.75076 11.1945 10.6732 10.46C11.1133 10.1096 11.7829 9.60539 12.4832 9.07795C13.251 8.49972 14.0558 7.89363 14.6357 7.43197C15.0729 7.04276 15.4525 6.62484 14.8534 5.87236Z" fill="currentColor"/>
</svg>
