<svg width="20" height="20" viewBox="0 0 20 20" fill="none" xmlns="http://www.w3.org/2000/svg">
<path fill-rule="evenodd" clip-rule="evenodd" d="M15.4163 18.4061C14.9715 18.6928 14.3905 18.5046 14.1477 18.0344C13.905 17.5642 14.0934 16.9907 14.5316 16.6941C15.5304 16.0179 16.3687 15.1244 16.9809 14.0758C17.7548 12.7504 18.1353 11.2321 18.0781 9.69839C18.0208 8.16469 17.5281 6.67898 16.6576 5.41496C15.7871 4.15095 14.5747 3.16088 13.1622 2.5605C11.7498 1.96011 10.1956 1.77424 8.68134 2.0246C7.16712 2.27496 5.75547 2.95121 4.61143 3.97429C3.46738 4.99737 2.63822 6.32499 2.2209 7.80193C1.89074 8.97039 1.82913 10.1941 2.0354 11.3825C2.1259 11.9038 1.84376 12.4374 1.33674 12.589C0.829719 12.7405 0.291022 12.4527 0.188702 11.9335C-0.114728 10.3939 -0.0523596 8.79963 0.376784 7.28086C0.893041 5.45379 1.91876 3.81144 3.33401 2.54584C4.74926 1.28023 6.49556 0.443664 8.36874 0.133952C10.2419 -0.17576 12.1646 0.0541805 13.9119 0.796889C15.6592 1.5396 17.1589 2.76438 18.2358 4.32804C19.3127 5.89169 19.9222 7.72961 19.993 9.62689C20.0639 11.5242 19.5931 13.4024 18.6358 15.042C17.8401 16.405 16.7355 17.5562 15.4163 18.4061ZM9.07263 6.96939C9.07003 7.55898 9.06769 8.09063 9.05641 8.39132V8.39133C9.04119 8.80062 9.02591 9.21133 9.0957 9.606C9.15992 9.96956 9.51303 10.4242 9.81281 10.6178C10.6848 11.1809 13.138 12.723 14.0487 13.2183C14.6303 13.5344 15.1463 13.4256 15.4783 12.8696C15.8261 12.2876 15.5732 11.814 15.032 11.4881C14.8951 11.4056 14.6272 11.2352 14.3035 11.0294L14.3035 11.0294C13.5114 10.5256 12.3855 9.80942 12.0287 9.65062C11.3309 9.34006 11.0785 8.98398 11.0785 8.09516C11.0785 7.89645 11.0826 7.55331 11.0874 7.15455C11.0981 6.25105 11.1123 5.06195 11.09 4.62001C11.0608 4.03551 10.9785 3.47826 10.1043 3.47826C9.34846 3.47826 9.24603 3.93154 9.16038 4.31058C9.14696 4.36998 9.13395 4.42756 9.1189 4.48128C9.08115 5.03642 9.07659 6.07029 9.07263 6.96939ZM5.07528 6.40827L4.21131 7.35653V9.86417C4.21131 12.1611 4.16916 12.414 3.78985 12.6247C3.1366 12.9618 2.35692 14.1419 2.08298 15.1534C1.76689 16.3756 2.08298 17.6189 3.01017 18.6725C3.81093 19.5997 4.73812 20.0001 5.9814 20.0001C7.87793 20.0001 9.2898 18.9465 9.81661 17.1131C10.2381 15.6802 9.94305 14.5844 8.8262 13.3622C8.34153 12.8354 8.00437 12.2664 8.00437 11.9714C8.00437 11.6764 7.85686 11.2339 7.66721 10.981C7.35112 10.5385 7.35112 10.4542 7.66721 10.117C8.08866 9.65344 8.08866 9.27414 7.64614 8.78947C7.33005 8.43124 7.33005 8.38909 7.64614 8.03086C7.85686 7.82013 8.00437 7.50404 8.00437 7.33546C8.00437 6.97723 6.52929 5.46 6.17106 5.46C6.04462 5.46 5.55995 5.88145 5.07528 6.40827ZM7.33264 17.3416C7.33264 18.0875 6.72794 18.6922 5.98201 18.6922C5.23608 18.6922 4.63138 18.0875 4.63138 17.3416C4.63138 16.5957 5.23608 15.991 5.98201 15.991C6.72794 15.991 7.33264 16.5957 7.33264 17.3416Z" fill="currentColor"/>
</svg>
