<svg width="20" height="20" viewBox="0 0 20 20" fill="none" xmlns="http://www.w3.org/2000/svg">
<path fill-rule="evenodd" clip-rule="evenodd" d="M5.51892 0.727655C4.64036 0.919909 3.97642 1.61292 3.83781 2.487C3.82887 2.5496 3.81099 2.57419 3.77522 2.58313C3.74839 2.5876 3.28341 2.59654 2.74241 2.60101C1.82585 2.60996 1.74761 2.61443 1.6023 2.6569C1.32286 2.73962 1.16191 2.81339 0.942827 2.96093C0.47337 3.2739 0.155927 3.75007 0.0352093 4.32236C-0.0117364 4.55038 -0.0117364 16.412 0.0352093 16.6333C0.225228 17.5096 0.853406 18.1378 1.72526 18.3234C1.84597 18.3502 2.56357 18.3547 6.05544 18.3547C8.42955 18.3547 10.2426 18.3457 10.2426 18.3345C10.2426 18.3234 10.1889 18.2563 10.1241 18.1825C9.86028 17.8874 9.60096 17.5253 9.36847 17.1251L9.27011 16.9575L5.61505 16.9463L1.95998 16.9351L1.83703 16.8725C1.67607 16.7898 1.56653 16.6803 1.48829 16.526L1.42346 16.3986V9.78148V4.55038L1.47488 4.44755C1.54641 4.30224 1.66937 4.16587 1.77891 4.10998C1.97787 4.00715 2.03599 4.00268 3.11798 4.00268H4.14408L4.21338 4.08539C4.36763 4.26647 4.55541 4.45425 4.66272 4.53697C4.87956 4.70239 5.19477 4.8477 5.50327 4.92371C5.68435 4.96619 9.57637 4.96618 9.73956 4.92147C10.2895 4.77169 10.6539 4.54367 10.9579 4.1614C11.0004 4.10775 11.0496 4.04962 11.0652 4.03398C11.0898 4.00715 11.2754 4.00268 12.1114 4.00268C12.7642 4.00268 13.1666 4.01162 13.2337 4.02727C13.4796 4.08316 13.6651 4.23517 13.7657 4.46319L13.8194 4.58615V5.56754V7.93718H13.8842C13.9177 7.93718 14.0027 7.926 14.0675 7.91259C14.1346 7.89917 14.4252 7.88576 14.7136 7.88353L15.2389 7.87906L15.2456 5.57648C15.2486 4.55335 15.24 3.47651 14.2218 2.90951C14.0385 2.80668 13.8618 2.7262 13.7635 2.69714C13.7526 2.6939 13.7406 2.69037 13.7281 2.68667C13.6713 2.66991 13.6026 2.6496 13.5623 2.63678C13.4975 2.61666 13.1957 2.60772 12.4892 2.60101C11.9482 2.59654 11.4833 2.5876 11.4564 2.58313C11.4184 2.57419 11.405 2.55407 11.405 2.51606C11.405 2.40429 11.3156 2.11144 11.2083 1.87894C11.1368 1.72246 10.9467 1.46314 10.7925 1.30665C10.4885 1.00709 10.1643 0.832724 9.71721 0.727655C9.58978 0.698593 9.30364 0.694122 7.60912 0.696357C6.12921 0.698593 5.61728 0.707535 5.51892 0.727655ZM9.58084 2.16732C9.87817 2.3171 10.0615 2.6502 9.99665 2.93411C9.92735 3.24931 9.71721 3.46616 9.41542 3.53322C9.27234 3.56452 5.95931 3.56228 5.82071 3.53099C5.47421 3.45051 5.23501 3.16436 5.23501 2.82904C5.23501 2.69267 5.24395 2.66137 5.31772 2.48924C5.35796 2.39535 5.52339 2.23215 5.63069 2.18074C5.67764 2.15615 5.75588 2.13156 5.80506 2.12261C5.85425 2.11367 6.69927 2.1092 7.68289 2.11144L9.4713 2.11367L9.58084 2.16732ZM14.3 8.85598C14.0273 8.88951 13.7881 8.92528 13.7076 8.94316C13.6825 8.94976 13.6427 8.95947 13.6013 8.96954L13.6013 8.96955C13.5726 8.97654 13.5432 8.9837 13.5176 8.99011C13.3365 9.03258 13.0347 9.12424 12.9252 9.17118C12.8939 9.1846 12.8492 9.20248 12.8246 9.21142C12.4512 9.35002 11.9371 9.64511 11.5615 9.93573C10.8305 10.5058 10.2202 11.315 9.90723 12.1288C9.89828 12.1534 9.8804 12.1981 9.86699 12.2294C9.82004 12.3389 9.72838 12.6385 9.68367 12.8218C9.61437 13.1146 9.59202 13.2488 9.54954 13.6288C9.48918 14.1631 9.56743 14.9679 9.73062 15.5044C9.92064 16.1326 10.1017 16.5148 10.4415 17.0201C10.7299 17.447 11.1122 17.8629 11.5146 18.1825C12.174 18.7056 12.9855 19.0767 13.7858 19.222C13.8318 19.2304 13.9002 19.2431 13.9658 19.2552L13.9667 19.2554C14.0062 19.2627 14.0446 19.2698 14.0765 19.2757C14.2888 19.3137 15.2277 19.3137 15.4625 19.2757C15.9073 19.2042 16.0415 19.1729 16.3902 19.0611C16.7166 18.956 17.0855 18.7951 17.385 18.6229C17.508 18.5536 17.973 18.2362 18.0557 18.1646C18.3575 17.9076 18.619 17.646 18.8604 17.3599C19.0147 17.1788 19.3813 16.602 19.4797 16.3874C19.7547 15.7883 19.8597 15.4418 19.9715 14.7667C20.0095 14.5319 20.0095 13.5953 19.9715 13.3807C19.9626 13.3308 19.9507 13.2672 19.9397 13.208L19.9396 13.2074C19.9313 13.1632 19.9236 13.1215 19.9178 13.09C19.7971 12.4239 19.511 11.7286 19.1175 11.1451C18.3351 9.98491 17.0676 9.16001 15.6972 8.91633C15.259 8.84033 14.651 8.8135 14.3 8.85598ZM15.0198 10.812C15.1093 10.8635 15.1741 10.9372 15.2188 11.0334C15.23 11.058 15.2434 11.6414 15.2501 12.33L15.2613 13.5818L16.5132 13.593L17.765 13.6042L17.8656 13.6646C18.2077 13.8658 18.1831 14.3553 17.8232 14.5163C17.7829 14.5364 17.3872 14.5476 16.5132 14.5543L15.2613 14.5655L15.2501 15.8285C15.2498 15.8662 15.2495 15.9029 15.2492 15.9385C15.2409 16.9779 15.2397 17.1313 15.1637 17.2225C15.1506 17.2383 15.1352 17.2522 15.1171 17.2686C15.1118 17.2734 15.1062 17.2785 15.1003 17.2839C15.0042 17.3755 14.9058 17.4157 14.7829 17.4157C14.5973 17.4157 14.4565 17.3353 14.3626 17.1743L14.3 17.0692L14.2888 15.8174L14.2776 14.5655L13.0258 14.5543C12.3372 14.5476 11.7538 14.5342 11.7292 14.523C11.5391 14.4358 11.443 14.2883 11.4408 14.0848C11.4386 13.8971 11.5146 13.7562 11.6688 13.6668L11.7739 13.6042L13.0258 13.593L14.2776 13.5818L14.2888 12.33L14.2893 12.2679C14.2982 11.195 14.2994 11.0503 14.3683 10.9538C14.379 10.9388 14.3914 10.9249 14.4057 10.9089C14.4091 10.9051 14.4126 10.9011 14.4163 10.897C14.5638 10.7293 14.8164 10.6936 15.0198 10.812ZM9.06891 8.07414C10.3856 6.75742 11.4793 5.64667 11.4793 5.64667C11.9461 5.09218 13.0935 5.89143 12.5049 6.49453L7.22125 12.1025C6.98923 12.246 6.54684 12.2311 6.30806 12.1025C6.23205 12.0623 3.77075 9.6077 3.69474 9.49592C3.60309 9.36179 3.57403 9.24555 3.5852 9.05776C3.59414 8.86998 3.63662 8.76938 3.75957 8.63078C3.98536 8.37146 4.3721 8.32228 4.66272 8.5123C4.72531 8.55254 5.19477 9.00411 5.70447 9.51604C6.21416 10.028 6.64785 10.446 6.66574 10.446C6.68362 10.446 7.76561 9.37968 9.06891 8.07414Z" fill="currentColor"/>
</svg>
