<svg width="20" height="20" viewBox="0 0 20 20" fill="none" xmlns="http://www.w3.org/2000/svg">
<path fill-rule="evenodd" clip-rule="evenodd" d="M8.04519 5.70492C8.047 6.1695 8.04881 6.63405 8.04881 7.09848C7.62092 7.09848 7.19302 7.09786 6.76513 7.09725C6.13912 7.09636 5.51311 7.09546 4.88711 7.09648C4.5552 7.09698 4.24827 7.18671 3.99076 7.40274C3.72521 7.62548 3.69918 7.94099 3.9152 8.20865C4.95659 9.49919 6.08312 10.7322 7.2072 11.9626C7.77152 12.5803 8.33522 13.1973 8.88722 13.8205C9.49044 14.5016 10.489 14.5119 11.0947 13.8313C11.6656 13.1898 12.2345 12.5464 12.8034 11.9031C13.1629 11.4964 13.5225 11.0898 13.8826 10.6836C14.1507 10.3812 14.4194 10.0793 14.6881 9.77737C15.1366 9.27341 15.5852 8.76945 16.0309 8.26304C16.3293 7.92404 16.2957 7.55397 15.9024 7.33749C15.1382 6.91687 14.1116 6.98397 13.1529 7.04663C12.7254 7.07457 12.3114 7.10163 11.9402 7.08418C11.9402 6.63732 11.9408 6.19046 11.9413 5.7436C11.9426 4.73189 11.9439 3.72017 11.9386 2.70848C11.9351 2.05435 11.4991 1.6131 10.8488 1.6008C10.2769 1.58994 9.70458 1.59016 9.13283 1.60108C8.50219 1.6131 8.06072 2.06321 8.05175 2.69147C8.03735 3.69562 8.04127 4.70036 8.04519 5.70492ZM0 13.9824C0 12.4771 1.69879 11.1473 4.29436 10.348L5.8276 12.1336C5.05375 12.314 4.36662 12.54 3.78834 12.7959C3.04515 13.1247 2.57574 13.4613 2.32114 13.7277C2.19874 13.8557 2.14948 13.9404 2.13079 13.9824C2.14948 14.0245 2.19874 14.1091 2.32114 14.2372C2.57574 14.5035 3.04515 14.8401 3.78834 15.169C5.26908 15.8242 7.46349 16.2834 10 16.2834C12.5365 16.2834 14.7309 15.8242 16.2117 15.169C16.9548 14.8401 17.4243 14.5035 17.6789 14.2372C17.8013 14.1091 17.8505 14.0245 17.8692 13.9824C17.8505 13.9404 17.8013 13.8557 17.6789 13.7277C17.4243 13.4613 16.9548 13.1247 16.2117 12.7959C15.6045 12.5272 14.8773 12.2915 14.0558 12.1069L15.6498 10.331C18.2768 11.1283 20 12.4663 20 13.9824C20 16.4262 15.5228 18.4073 10 18.4073C4.47715 18.4073 0 16.4262 0 13.9824ZM17.8796 13.9511C17.88 13.9511 17.8795 13.9546 17.8773 13.9618C17.8781 13.9547 17.8793 13.9511 17.8796 13.9511ZM2.12036 13.9511C2.12071 13.9511 2.12185 13.9547 2.12275 13.9618C2.12045 13.9547 2.12001 13.9511 2.12036 13.9511ZM2.12036 14.0138C2.12001 14.0138 2.12045 14.0102 2.12275 14.0031C2.12185 14.0102 2.12071 14.0138 2.12036 14.0138ZM17.8773 14.0031C17.8795 14.0102 17.88 14.0138 17.8796 14.0138C17.8793 14.0137 17.8781 14.0102 17.8773 14.0031Z" fill="currentColor"/>
</svg>
