<svg width="20" height="20" viewBox="0 0 20 20" fill="none" xmlns="http://www.w3.org/2000/svg">
<path fill-rule="evenodd" clip-rule="evenodd" d="M13.6691 6.26824C12.6107 6.25959 11.5659 6.78495 10.9878 7.79085C10.5087 8.62465 9.6136 10.1781 9.48976 10.393L9.47784 10.4137C8.26258 10.4603 7.03949 9.95745 6.17237 8.94333C4.47746 6.96115 4.51725 3.93649 6.26313 2.04854C8.03555 0.131871 10.9678 0.24208 12.5879 2.29057C13.3451 3.24779 13.7053 4.34489 13.7163 5.6707C13.7103 5.87198 13.6947 6.07137 13.6691 6.26824ZM6.09296 11.9159C6.98603 11.7677 7.87695 11.6777 8.76492 11.6515C7.89023 13.171 7.01604 14.6942 6.14969 16.2223C5.54353 17.2916 5.62004 18.4351 6.13919 19.3203C5.03654 19.3203 3.93389 19.3193 2.83124 19.315C2.49678 19.3137 2.15716 19.282 1.82929 19.2172C0.656688 18.9854 -0.0276072 18.0939 0.000854169 16.9027C0.0393701 15.2901 0.880124 14.1691 2.17472 13.3237C3.36748 12.5446 4.7058 12.1462 6.09296 11.9159ZM12.2196 19.3192C12.6986 19.3187 13.1776 19.3182 13.6566 19.3182L13.6565 19.32L14.7254 19.3201H14.7269C15.9259 19.3204 17.1249 19.3207 18.3239 19.3178C18.5015 19.3174 18.6859 19.3126 18.8554 19.2667C19.9775 18.9637 20.2518 17.8146 19.778 16.9456C19.3014 16.0717 18.8024 15.2103 18.3034 14.3488L18.3016 14.3458L18.3011 14.345C18.0878 13.9768 17.8745 13.6086 17.6629 13.2395C17.4022 12.7846 17.1395 12.3308 16.8768 11.877C16.271 10.8309 15.6653 9.7848 15.0847 8.72484C14.4098 7.49257 12.888 7.60191 12.3346 8.56478C11.8691 9.37485 11.4023 10.185 10.9359 10.9946L10.9345 10.9971C9.78532 12.9915 8.6362 14.986 7.50101 16.9884C6.8854 18.0743 7.63461 19.3108 8.88146 19.3164C9.99292 19.3215 11.1044 19.3203 12.2159 19.3192L12.2196 19.3192ZM14.3827 12.5809L14.3996 12.582L14.3837 12.8314L14.3603 13.1999C14.3289 13.6974 14.2975 14.1948 14.2633 14.6922C14.2391 15.0451 14.0045 15.2928 13.6865 15.315C13.3818 15.3364 13.0915 15.1045 13.0639 14.7511C12.9849 13.7388 12.9179 12.7252 12.8753 11.7108C12.8569 11.273 13.2235 10.9305 13.6409 10.9231C14.0839 10.9152 14.4207 11.2474 14.4254 11.722C14.4274 11.9193 14.4136 12.1169 14.3999 12.3144L14.3937 12.4036C14.3896 12.4627 14.3858 12.5218 14.3827 12.5809ZM12.7957 16.6103C12.7857 16.1351 13.171 15.7439 13.6516 15.7414C14.1367 15.7389 14.5096 16.1136 14.5079 16.6019C14.5064 17.0679 14.1374 17.4496 13.6777 17.4608C13.2051 17.4723 12.8059 17.0874 12.7957 16.6103Z" fill="currentColor"/>
</svg>
