<svg width="20" height="20" viewBox="0 0 20 20" fill="none" xmlns="http://www.w3.org/2000/svg">
<path fill-rule="evenodd" clip-rule="evenodd" d="M6.9828 6.87078C3.28924 3.9804 1.67741 2.491 1.62277 2.42544C1.11932 1.80252 2.01921 0.872738 2.67183 1.38769C2.77017 1.4314 5.48024 3.61978 5.48024 3.61978L9.70927 6.94181L10.0808 7.01284C10.5835 7.10572 10.802 7.22046 11.1353 7.5483C11.332 7.74499 11.4522 7.9253 11.5397 8.15478C11.6544 8.47169 11.6817 8.49354 12.5669 9.17652L12.7114 9.28884L12.7114 9.28885C13.1766 9.65076 13.3943 9.8201 13.4958 9.76707C13.585 9.72044 13.5845 9.50185 13.5834 9.09102L13.5831 8.94158C13.5886 7.91437 13.3864 7.30789 12.7745 6.49923C12.2882 5.8545 12.2554 5.35182 12.6652 4.89832C13.0149 4.51039 13.5558 4.4175 13.982 4.67977C14.2989 4.871 14.9764 5.76708 15.2114 6.31893C15.8616 7.79417 15.9654 9.41693 15.501 10.7501C15.419 10.9687 15.3425 11.1927 15.3261 11.2419C15.3097 11.302 15.4955 11.4768 15.9654 11.832C16.3315 12.1106 16.6374 12.3292 16.6484 12.3237C16.7085 12.2527 17.009 11.455 17.1292 11.0452C17.5608 9.56446 17.5226 7.91437 17.0308 6.39542C16.8341 5.79986 16.5227 5.19884 16.0473 4.48853C15.4354 3.58153 15.3971 3.14443 15.8889 2.67453C16.2877 2.2866 16.774 2.24289 17.2221 2.5434C17.7521 2.89855 18.7082 4.53225 19.0962 5.74522C19.4677 6.8981 19.5934 7.72314 19.5934 8.94158C19.5879 10.5425 19.2765 11.8921 18.588 13.2635C18.3695 13.6951 18.364 13.717 18.4569 13.788C19.0579 14.2251 19.728 14.894 19.8264 15.0142C20.3463 15.6548 19.5987 16.4957 18.8975 16.2381C18.886 16.2339 18.8781 16.2311 18.8706 16.2274C18.811 16.1984 18.7775 16.1158 17.1073 14.8098C15.2332 13.3345 10.6764 9.76116 6.9828 6.87078ZM0 8.88694C0.00546386 7.42262 0.256801 6.20418 0.846898 4.85461C0.967103 4.58142 1.08184 4.35194 1.09824 4.35194C1.16927 4.35194 2.77017 5.67419 2.78657 5.74522C2.79749 5.78347 2.74286 5.95831 2.67183 6.13862C2.32214 6.96912 2.18008 7.76138 2.18008 8.85962C2.18554 10.548 2.64451 12.0177 3.58429 13.34C3.9613 13.8754 4.07057 14.1432 4.04325 14.4655C4.00501 14.8425 3.78645 15.1485 3.43677 15.3124C3.08161 15.4763 2.89584 15.4763 2.55162 15.3124C2.21286 15.154 2.08173 15.0174 1.62277 14.3235C0.562777 12.7335 0 10.8539 0 8.88694ZM4.20173 6.79974C4.14162 6.89809 3.94493 7.58108 3.89029 7.87066C3.85204 8.05097 3.82472 8.49354 3.82472 8.85415C3.82472 10.0398 4.15255 11.1708 4.78636 12.1543C5.42563 13.1487 5.98841 13.4493 6.62221 13.1269C7.05932 12.9083 7.31612 12.3128 7.17406 11.8757C7.13582 11.7664 6.98283 11.5096 6.83531 11.3074C6.24521 10.5042 6.01026 9.79394 5.99934 8.78859L5.99387 8.17117L5.10873 7.46633C4.62244 7.0784 4.21265 6.77789 4.20173 6.79974ZM9.01215 18.7611C9.34503 18.7607 9.67793 18.7604 10.0108 18.7604L10.0108 18.7616L10.757 18.7617H10.758C11.5951 18.7619 12.4321 18.7621 13.2692 18.7601C13.3932 18.7598 13.5219 18.7565 13.6402 18.7245C14.4236 18.5129 14.6151 17.7107 14.2843 17.104C13.9516 16.494 13.6032 15.8926 13.2548 15.2912L13.2536 15.289L13.2533 15.2885L13.2532 15.2884C13.1043 15.0314 12.9554 14.7744 12.8077 14.5167C12.6257 14.1991 12.4423 13.8823 12.2589 13.5655C11.836 12.8352 11.4132 12.1049 11.0079 11.3649C10.5367 10.5046 9.47424 10.581 9.08795 11.2532C8.76287 11.8189 8.43687 12.3847 8.11113 12.9501L8.11047 12.9512C7.30823 14.3436 6.50601 15.736 5.71351 17.1339C5.28374 17.892 5.80678 18.7552 6.67722 18.7592C7.45287 18.7627 8.22854 18.7619 9.00422 18.7611H9.00507L9.00766 18.7611L9.01215 18.7611ZM10.5177 14.0569L10.5296 14.0577L10.5184 14.2318L10.5021 14.4891C10.4802 14.8364 10.4583 15.1836 10.4344 15.5309C10.4175 15.7772 10.2537 15.9501 10.0317 15.9657C9.81898 15.9806 9.61633 15.8187 9.59705 15.572C9.54193 14.8653 9.49516 14.1577 9.4654 13.4495C9.45256 13.1438 9.70849 12.9048 9.9999 12.8996C10.3092 12.894 10.5443 13.126 10.5476 13.4573C10.549 13.5951 10.5394 13.733 10.5297 13.8709L10.5254 13.9332C10.5226 13.9744 10.5199 14.0157 10.5177 14.0569ZM9.40986 16.8699C9.40285 16.5382 9.67182 16.2651 10.0074 16.2634C10.346 16.2616 10.6063 16.5232 10.6052 16.8641C10.6041 17.1894 10.3465 17.4559 10.0256 17.4637C9.69561 17.4717 9.41694 17.203 9.40986 16.8699Z" fill="currentColor"/>
</svg>
