<svg width="20" height="20" viewBox="0 0 20 20" fill="none" xmlns="http://www.w3.org/2000/svg">
<path fill-rule="evenodd" clip-rule="evenodd" d="M15.4163 18.4062C14.9715 18.6928 14.3905 18.5046 14.1477 18.0344C13.905 17.5642 14.0934 16.9908 14.5316 16.6941C15.5304 16.018 16.3687 15.1244 16.9809 14.0759C17.7548 12.7504 18.1353 11.2321 18.0781 9.69842C18.0208 8.16471 17.5281 6.67899 16.6576 5.41498C15.7871 4.15096 14.5747 3.16089 13.1622 2.5605C11.7498 1.96012 10.1956 1.77424 8.68134 2.0246C7.16713 2.27497 5.75547 2.95122 4.61143 3.9743C3.46738 4.99738 2.63822 6.32501 2.2209 7.80196C1.89074 8.97042 1.82913 10.1941 2.0354 11.3825C2.1259 11.9039 1.84376 12.4375 1.33674 12.589C0.829719 12.7405 0.291021 12.4528 0.188702 11.9336C-0.114728 10.3939 -0.0523596 8.79965 0.376784 7.28088C0.893041 5.45381 1.91876 3.81146 3.33401 2.54584C4.74926 1.28023 6.49556 0.443665 8.36874 0.133953C10.2419 -0.17576 12.1645 0.0541807 13.9119 0.796891C15.6592 1.5396 17.1589 2.76439 18.2358 4.32805C19.3127 5.89171 19.9222 7.72963 19.993 9.62692C20.0639 11.5242 19.5931 13.4025 18.6358 15.0421C17.8401 16.405 16.7355 17.5562 15.4163 18.4062ZM9.05641 8.39134L9.05636 8.39268V8.39269C9.04114 8.80198 9.02592 9.21136 9.09571 9.60603C9.15992 9.96959 9.51303 10.4243 9.81281 10.6179C10.6848 11.181 13.138 12.7231 14.0487 13.2184C14.6303 13.5344 15.1463 13.4256 15.4783 12.8696C15.8261 12.2876 15.5732 11.814 15.032 11.4881C14.8951 11.4057 14.6272 11.2353 14.3035 11.0294L14.3035 11.0294C13.5114 10.5256 12.3855 9.80945 12.0287 9.65065C11.331 9.34008 11.0785 8.98401 11.0785 8.09518C11.0785 7.89647 11.0826 7.55335 11.0874 7.15459V7.15457V7.15452C11.0981 6.25102 11.1123 5.06195 11.09 4.62002C11.0608 4.03552 10.9785 3.47827 10.1043 3.47827C9.34846 3.47827 9.24603 3.93156 9.16038 4.31059C9.14696 4.36999 9.13395 4.42757 9.1189 4.48129C9.08115 5.03643 9.07659 6.0703 9.07263 6.96941C9.07003 7.55901 9.06769 8.09065 9.05641 8.39134ZM8.58184 11.457C8.55531 12.3468 8.22989 13.1778 7.4917 13.8088C6.3987 14.7431 4.79841 14.601 3.86184 13.5053C2.80139 12.2647 2.82629 10.3717 3.91863 9.19003C5.02757 7.99043 6.86219 8.05941 7.87584 9.34151C8.34955 9.94061 8.57495 10.6273 8.58184 11.457ZM5.84672 19.9994C5.51037 19.9994 5.17401 19.9995 4.83766 19.9997C3.81558 20.0002 2.7935 20.0006 1.77141 19.9967C1.56215 19.9958 1.34966 19.976 1.14453 19.9354C0.410868 19.7904 -0.0172729 19.2324 0.000534425 18.4869C0.000534425 14.1666 11.6629 14.1666 11.6629 18.4869C11.7165 19.3071 11.1952 19.8677 10.3693 19.9677C10.2047 19.9876 10.0379 19.9977 9.8721 19.998C8.84592 19.9999 7.81975 19.9997 6.79358 19.9995L5.84672 19.9994Z" fill="currentColor"/>
</svg>
