<svg width="20" height="20" viewBox="0 0 20 20" fill="none" xmlns="http://www.w3.org/2000/svg">
<path fill-rule="evenodd" clip-rule="evenodd" d="M14.1477 18.0344C14.3905 18.5046 14.9715 18.6928 15.4163 18.4061C16.7355 17.5562 17.8401 16.405 18.6358 15.042C19.5931 13.4024 20.0639 11.5242 19.993 9.62689C19.9222 7.72961 19.3127 5.89169 18.2358 4.32804C17.1589 2.76438 15.6592 1.5396 13.9119 0.796889C12.1646 0.0541805 10.2419 -0.17576 8.36874 0.133952C6.49556 0.443664 4.74926 1.28023 3.33401 2.54584C1.91876 3.81144 0.893041 5.45379 0.376784 7.28086C-0.0523597 8.79963 -0.114728 10.3939 0.188702 11.9335C0.291022 12.4527 0.829719 12.7405 1.33674 12.589C1.84376 12.4374 2.1259 11.9038 2.0354 11.3825C1.82913 10.1941 1.89074 8.97039 2.2209 7.80193C2.63822 6.32499 3.46738 4.99737 4.61143 3.97429C5.75547 2.95121 7.16713 2.27496 8.68134 2.0246C10.1956 1.77424 11.7498 1.96011 13.1622 2.5605C14.5747 3.16088 15.7871 4.15095 16.6576 5.41496C17.5281 6.67897 18.0208 8.16469 18.0781 9.69839C18.1353 11.2321 17.7548 12.7504 16.9809 14.0758C16.3687 15.1244 15.5304 16.0179 14.5316 16.6941C14.0934 16.9907 13.905 17.5642 14.1477 18.0344ZM6.3636 19.9979C5.88546 19.9979 5.40732 19.9984 4.92922 19.9989L4.92552 19.9989C3.81601 20 2.70651 20.0012 1.59704 19.9961C0.352422 19.9905 -0.395446 18.7562 0.219067 17.6722C1.35222 15.6734 2.49928 13.6825 3.64637 11.6916L3.64674 11.691C4.11282 10.8821 4.57889 10.0731 5.04402 9.26367C5.59636 8.30252 7.11549 8.19337 7.78921 9.42344C8.36872 10.4815 8.97336 11.5257 9.57803 12.57C9.84029 13.023 10.1026 13.4759 10.3628 13.93C10.574 14.2985 10.7869 14.666 10.9998 15.0336L10.9999 15.0336L11.0003 15.0344L11.0021 15.0374C11.5002 15.8973 11.9984 16.7572 12.474 17.6295C12.947 18.497 12.6732 19.644 11.5531 19.9465C11.3839 19.9923 11.1998 19.9971 11.0226 19.9975C9.8257 20.0004 8.62884 20.0001 7.43198 19.9998H7.43048C7.07483 19.9997 6.71918 19.9997 6.36353 19.9997L6.3636 19.9979ZM7.1053 13.2737L7.08838 13.2726C7.09154 13.2136 7.09535 13.1546 7.09938 13.0956L7.10555 13.0066C7.11931 12.8094 7.13308 12.6122 7.13108 12.4152C7.12635 11.9415 6.79018 11.6098 6.34798 11.6177C5.93131 11.6252 5.56536 11.967 5.58371 12.4041C5.62627 13.4167 5.69315 14.4285 5.77196 15.4389C5.79953 15.7917 6.08929 16.0232 6.39344 16.0018C6.71091 15.9796 6.94504 15.7324 6.96921 15.3801C7.00337 14.8837 7.03475 14.3871 7.0661 13.8905C7.07385 13.7679 7.08159 13.6453 7.0894 13.5227L7.1053 13.2737ZM6.35866 16.4275C5.87887 16.43 5.49429 16.8205 5.5043 17.2948C5.51443 17.771 5.91288 18.1553 6.38469 18.1438C6.84353 18.1327 7.21193 17.7516 7.21344 17.2864C7.21508 16.799 6.84283 16.425 6.35866 16.4275ZM9.05636 8.39265L9.05641 8.39132C9.06769 8.09063 9.07003 7.55898 9.07263 6.96939C9.07659 6.07029 9.08115 5.03642 9.1189 4.48128C9.13395 4.42756 9.14696 4.36998 9.16038 4.31058C9.24603 3.93154 9.34846 3.47826 10.1043 3.47826C10.9785 3.47826 11.0608 4.03551 11.09 4.62001C11.1123 5.06195 11.0981 6.25105 11.0874 7.15455C11.0826 7.55331 11.0785 7.89645 11.0785 8.09515C11.0785 8.98398 11.331 9.34006 12.0287 9.65062C12.3855 9.80942 13.5114 10.5256 14.3035 11.0294C14.6272 11.2352 14.8951 11.4056 15.032 11.4881C15.5732 11.814 15.8261 12.2876 15.4783 12.8696C15.1463 13.4256 14.6303 13.5344 14.0487 13.2183C13.138 12.723 10.6848 11.1809 9.81281 10.6178C9.51303 10.4242 9.15992 9.96956 9.0957 9.606C9.02591 9.21132 9.04114 8.80195 9.05636 8.39265Z" fill="currentColor"/>
</svg>
