<svg width="20" height="20" viewBox="0 0 20 20" fill="none" xmlns="http://www.w3.org/2000/svg">
<path fill-rule="evenodd" clip-rule="evenodd" d="M13.3726 0V4.14548C11.8635 4.14548 10.3982 4.14548 8.89666 4.14541V0.00608097H6.68411C6.68411 0.252587 6.68372 0.497766 6.68335 0.741913C6.68205 1.57274 6.68077 2.39165 6.69469 3.2103C6.69666 3.32682 6.82609 3.45866 6.92771 3.55378C9.98975 6.42159 13.0555 9.28584 16.1216 12.1498C16.3024 12.3187 16.4862 12.4848 16.6744 12.6548C16.763 12.7349 16.8525 12.8158 16.9432 12.8983C17.0186 12.8258 17.0928 12.7578 17.1646 12.6919C17.3278 12.5423 17.4791 12.4035 17.6067 12.2476C17.7207 12.1081 17.822 11.9152 17.8234 11.7455C17.8363 10.2317 17.8358 8.71783 17.8353 7.20395C17.8351 6.84533 17.835 6.4867 17.8351 6.12807C17.8352 5.6471 17.6596 5.22324 17.2501 4.9393C16.8255 4.64478 16.3672 4.38819 15.9017 4.1535C15.6941 4.04885 15.602 3.95095 15.6056 3.72577C15.6149 3.13697 15.6132 2.54801 15.6115 1.95903C15.6108 1.73699 15.6102 1.51495 15.6101 1.29291V0.439787V0H13.3726ZM8.35536 18.8652H13.9584C13.9584 17.7877 13.9584 16.7379 13.9582 15.6879L14.0843 15.6267L16.498 17.9615L18.6055 20L19.391 19.2533L20 18.6744C15.634 14.5718 11.284 10.484 6.95168 6.41295L1.38184 1.17897L0.601966 1.86657L0 2.39723C0.336567 2.713 0.672002 3.02806 1.00671 3.34245C2.07085 4.34201 3.12773 5.33472 4.19102 6.32126C4.37857 6.49519 4.45248 6.66796 4.45081 6.91403C4.44557 7.69626 4.44552 8.47853 4.44546 9.2608C4.44541 10.0766 4.44535 10.8924 4.43941 11.7081C4.43759 11.9559 4.51728 12.1297 4.70156 12.3008C5.07444 12.647 5.44349 12.997 5.81251 13.347C6.46956 13.9702 7.12654 14.5933 7.80512 15.1949C8.22964 15.5712 8.40699 15.9503 8.36904 16.4991C8.33137 17.0454 8.3397 17.5945 8.34812 18.1484C8.35174 18.3864 8.35536 18.6253 8.35536 18.8652Z" fill="currentColor"/>
</svg>
