<svg width="20" height="20" viewBox="0 0 20 20" fill="none" xmlns="http://www.w3.org/2000/svg">
<path fill-rule="evenodd" clip-rule="evenodd" d="M6.01905 1.27231C6.01905 0.589067 6.05159 0.431812 6.2468 0.2366L6.40948 0.0793457H7.71631C9.01773 0.0793457 9.02858 0.0793457 9.19125 0.209487L9.35393 0.339629L9.3702 1.02287C9.39189 1.679 9.39731 1.71154 9.52745 1.81457C9.60337 1.87421 9.71724 1.92302 9.77147 1.92302C9.83112 1.92302 9.94499 1.95555 10.0209 1.99351C10.1022 2.03689 10.2649 2.11281 10.3842 2.16703C10.5035 2.21584 10.6445 2.28091 10.6987 2.31344C10.818 2.37309 10.8397 2.35682 11.3386 1.85252C11.5446 1.65189 11.7778 1.4621 11.8592 1.44041C12.1628 1.35907 12.3092 1.45668 13.1931 2.34598C13.6594 2.81774 14.0445 3.22986 14.0445 3.25697C14.0445 3.35458 10.5849 6.76537 10.5252 6.72741C10.4927 6.70572 10.4005 6.57016 10.33 6.42375C10.0426 5.84896 9.32682 5.24163 8.67611 5.00846C8.18808 4.83494 7.1849 4.84036 6.72398 5.0193C5.98652 5.31212 5.35207 5.90318 5.04299 6.58642C4.81524 7.09072 4.75559 7.39439 4.78813 7.96375C4.82066 8.53312 4.88573 8.78256 5.12975 9.22179C5.4063 9.72067 5.88891 10.1762 6.38779 10.4148C6.53962 10.4852 6.66976 10.5666 6.66976 10.5883C6.66976 10.6479 3.23185 14.0696 3.1722 14.0696C3.13967 14.0696 2.71671 13.6683 2.22325 13.1748C1.36649 12.3181 1.32853 12.2747 1.32853 12.0632C1.32853 11.8626 1.36649 11.8084 1.81656 11.3583L2.29917 10.8757L2.13649 10.5612C2.04431 10.3876 1.92501 10.1002 1.87079 9.9213L1.86497 9.90328C1.79496 9.68635 1.7555 9.56407 1.672 9.49515C1.56413 9.40611 1.38276 9.40613 0.967098 9.40616L0.943527 9.40616H0.281974L0.140987 9.23806L0 9.06996V7.79566V6.51593L0.140987 6.33156L0.276551 6.15262H0.927259C1.28515 6.15262 1.62677 6.12551 1.681 6.09839C1.74064 6.06586 1.80029 5.95741 1.82198 5.85438C1.83825 5.75135 1.87621 5.64832 1.90332 5.63205C1.93043 5.61578 1.95212 5.56698 1.95212 5.5236C1.95212 5.48564 2.02804 5.29043 2.1148 5.10606C2.20699 4.91627 2.27748 4.73733 2.27748 4.71022C2.27748 4.6831 2.07142 4.45536 1.81656 4.2005C1.37191 3.76127 1.35564 3.73415 1.35564 3.49556V3.24612L2.26663 2.34056L3.17762 1.43499H3.43791C3.69277 1.43499 3.71446 1.44583 4.1808 1.90675L4.66341 2.37309L4.94538 2.23753C5.34665 2.03689 5.61778 1.92302 5.68827 1.92302C5.71539 1.92302 5.80757 1.8959 5.88349 1.85795C6.01363 1.7983 6.01905 1.78203 6.01905 1.27231ZM14.9631 4.37452C14.9631 4.28776 16.3459 2.88874 16.5899 2.72606C16.7742 2.60676 17.1375 2.61218 17.3111 2.74775C17.5442 2.93212 19.8651 5.29635 19.9356 5.42107C20.0224 5.58375 20.0224 5.78981 19.9302 6.00671C19.8434 6.21277 18.3847 7.68228 18.2709 7.68228C18.1678 7.68228 14.9631 4.47755 14.9631 4.37452ZM9.68152 9.55848C7.54502 11.695 5.79896 13.4627 5.79896 13.4898C5.79896 13.5115 6.54727 14.2815 7.45826 15.1979L9.11757 16.8627L13.0164 12.9639C15.1637 10.8165 16.9098 9.03249 16.9044 8.99453C16.8881 8.91862 13.6671 5.67592 13.6075 5.67592C13.5858 5.67592 11.818 7.42199 9.68152 9.55848ZM3.36422 16.2282C3.44014 15.8812 3.51606 15.7619 4.00409 15.2576C4.23183 15.0299 4.44874 14.8401 4.49754 14.8401C4.5843 14.8401 7.80531 18.0394 7.80531 18.1261C7.80531 18.1533 7.59383 18.3918 7.33354 18.6467C6.88889 19.0914 6.82924 19.1293 6.47678 19.2269C5.98875 19.3625 5.60917 19.4547 5.33804 19.5035C5.30454 19.5111 5.2595 19.5213 5.20735 19.533C5.0738 19.5632 4.89365 19.6039 4.74156 19.639C3.6172 19.9059 3.40704 19.9575 3.23395 19.8991C3.1925 19.8851 3.15318 19.8648 3.10394 19.8397C2.77316 19.6661 2.73521 19.5957 2.74605 19.1239C2.75147 18.8907 2.77859 18.6521 2.81112 18.5925C2.84366 18.5328 2.89246 18.3539 2.91957 18.1966C2.95211 18.034 3.01176 17.7574 3.05514 17.5785C3.19612 17.0037 3.31 16.4994 3.36422 16.2282Z" fill="currentColor"/>
</svg>
