<svg width="20" height="20" viewBox="0 0 20 20" fill="none" xmlns="http://www.w3.org/2000/svg">
<path fill-rule="evenodd" clip-rule="evenodd" d="M12.4684 20C10.6191 20 8.79215 20 6.91798 20C6.91798 19.127 6.883 18.2679 6.93081 17.4133C6.96041 16.8852 6.79109 16.522 6.41609 16.1627C5.34839 15.1397 4.31932 14.0764 3.2649 13.0392C3.07805 12.8553 3.00853 12.6673 3.00997 12.4078C3.02006 10.6245 3.05824 8.83963 3.00147 7.05806C2.95813 5.69725 3.87745 4.61703 5.23796 4.40703C5.23796 2.95401 5.23796 1.49362 5.23796 0.00667862C5.9938 0.00667862 6.70753 0.00667862 7.46496 0.00667862C7.46496 1.46357 7.46496 2.92471 7.46496 4.41538C8.96648 4.41538 10.4247 4.41538 11.9262 4.41538C11.9262 2.94004 11.9262 1.47928 11.9262 0C12.6829 0 13.3967 0 14.1555 0C14.1555 1.48034 14.1555 2.94103 14.1555 4.40308C15.2687 4.60716 16.0122 5.18868 16.3189 6.25766C16.3702 6.4361 16.3752 6.63213 16.3755 6.82005C16.3787 8.65407 16.3693 10.4881 16.3819 12.322C16.3841 12.6469 16.3038 12.8815 16.0637 13.1159C14.9417 14.2108 13.8347 15.3214 12.7405 16.4441C12.6019 16.5861 12.5055 16.83 12.4993 17.0301C12.4722 17.9019 12.4863 18.7751 12.4839 19.6478C12.4836 19.7586 12.4744 19.8693 12.4684 20Z" fill="currentColor"/>
</svg>
