<svg width="20" height="20" viewBox="0 0 20 20" fill="none" xmlns="http://www.w3.org/2000/svg">
<path fill-rule="evenodd" clip-rule="evenodd" d="M13.8508 5.62812C13.808 7.0637 13.2828 8.4045 12.0914 9.42252C10.3273 10.9299 7.74447 10.7007 6.23289 8.93286C4.52136 6.93123 4.56154 3.8769 6.32453 1.97042C8.11434 0.0349423 11.0753 0.146234 12.7113 2.21482C13.4759 3.18143 13.8397 4.2893 13.8508 5.62812ZM9.43641 19.4106C8.89355 19.4106 8.35068 19.4109 7.80782 19.4112H7.80577C6.15686 19.4119 4.50793 19.4127 2.859 19.4063C2.52126 19.405 2.17831 19.373 1.84723 19.3075C0.663127 19.0734 -0.0278778 18.1732 0.000862544 16.9703C0.0397561 15.3419 0.888753 14.2099 2.19604 13.3562C3.4005 12.5695 4.75194 12.1671 6.1527 11.9346C7.395 11.7285 8.63316 11.6337 9.86514 11.6656C9.32848 12.5528 9.01961 13.5932 9.01961 14.7058C9.01961 16.6296 9.94311 18.3377 11.371 19.4109L10.9646 19.4108L9.43641 19.4106ZM15.2941 19.4117C17.8931 19.4117 20 17.3048 20 14.7058C20 12.1068 17.8931 9.9999 15.2941 9.9999C12.6951 9.9999 10.5882 12.1068 10.5882 14.7058C10.5882 17.3048 12.6951 19.4117 15.2941 19.4117ZM18.3653 13.3721C18.6095 13.0791 18.5699 12.6436 18.2769 12.3994C17.9839 12.1553 17.5484 12.1948 17.3043 12.4878L14.8287 15.4585L13.2423 13.8721C12.9726 13.6024 12.5354 13.6024 12.2657 13.8721C11.996 14.1418 11.996 14.5791 12.2657 14.8488L14.2951 16.8782C14.6315 17.2146 15.1841 17.1895 15.4886 16.8241L18.3653 13.3721Z" fill="currentColor"/>
</svg>
