<svg width="20" height="20" viewBox="0 0 20 20" fill="none" xmlns="http://www.w3.org/2000/svg">
<path fill-rule="evenodd" clip-rule="evenodd" d="M10.0248 19.0378C9.27162 19.0378 8.51838 19.0386 7.76521 19.0394L7.75938 19.0394C6.01153 19.0412 4.26368 19.043 2.51588 19.0351C0.555185 19.0262 -0.622962 17.0818 0.345106 15.3741C2.13021 12.2254 3.93722 9.08899 5.74428 5.95265C6.47851 4.67831 7.21332 3.40295 7.94606 2.12778C8.81618 0.61364 11.2093 0.441694 12.2707 2.37947C13.1836 4.0463 14.1361 5.69133 15.0887 7.33642C15.5018 8.04997 15.915 8.76355 16.3249 9.4789C16.6576 10.0594 16.993 10.6384 17.3285 11.2174L17.3292 11.2186L17.332 11.2234C18.1168 12.578 18.9015 13.9327 19.6508 15.3068C20.396 16.6735 19.9647 18.4804 18.2001 18.9569C17.9336 19.029 17.6436 19.0366 17.3643 19.0373C15.4788 19.0418 13.5934 19.0413 11.7079 19.0409H11.7055C11.1453 19.0408 10.585 19.0407 10.0247 19.0407L10.0248 19.0378ZM11.1933 8.44497L11.1666 8.44327C11.1716 8.35033 11.1776 8.2574 11.184 8.16445L11.1937 8.02422C11.2154 7.71358 11.237 7.40292 11.2339 7.0926C11.2264 6.34632 10.6969 5.82381 10.0002 5.83625C9.34384 5.84802 8.76735 6.38648 8.79626 7.07506C8.86331 8.67019 8.96865 10.2641 9.09281 11.8559C9.13624 12.4117 9.59271 12.7763 10.0719 12.7427C10.572 12.7077 10.9408 12.3183 10.9789 11.7633C11.0327 10.9812 11.0821 10.1989 11.1315 9.41663C11.1437 9.22347 11.1559 9.03031 11.1682 8.83715L11.1933 8.44497ZM10.0171 13.4133C9.26123 13.4172 8.65538 14.0324 8.67116 14.7796C8.68711 15.5298 9.31481 16.1351 10.0581 16.117C10.7809 16.0995 11.3613 15.4991 11.3636 14.7663C11.3662 13.9986 10.7798 13.4093 10.0171 13.4133Z" fill="currentColor"/>
</svg>
