<svg width="20" height="20" viewBox="0 0 20 20" fill="none" xmlns="http://www.w3.org/2000/svg">
<path fill-rule="evenodd" clip-rule="evenodd" d="M7.47047 15.0181C7.47047 15.1771 7.4717 15.3297 7.47289 15.4778C7.47543 15.7933 7.47782 16.089 7.46783 16.3842C7.44163 17.1589 7.12739 17.4635 6.34016 17.4839C6.04693 17.4916 5.75341 17.4898 5.43513 17.4878C5.2839 17.4869 5.12685 17.4859 4.96181 17.4859C4.96181 17.6528 4.96322 17.8127 4.96458 17.9677C4.96749 18.2985 4.9702 18.6075 4.95868 18.9158C4.93184 19.6332 4.62801 19.9648 3.92893 19.9822C2.96853 20.0061 2.0065 20.0058 1.0461 19.982C0.368339 19.9652 0.042811 19.6438 0.0263843 18.974L0.0236635 18.8632C0.000471876 17.9204 -0.0228057 16.9741 0.0434401 16.0356C0.068143 15.6861 0.298868 15.288 0.553922 15.0278C2.40952 13.1351 4.29019 11.2665 6.17727 9.40487C6.47282 9.11326 6.56938 8.86133 6.47458 8.42754C5.54515 4.1807 8.46297 0.32634 12.8142 0.0153323C16.3019 -0.233849 19.6238 2.58699 19.9658 6.08905C20.1289 7.75709 19.7001 9.36014 18.8539 10.6568C18.6944 10.445 18.5181 10.2419 18.325 10.0492C16.0532 7.78307 11.9753 8.39753 10.0858 10.2823C8.73424 11.6306 8.15439 13.2599 8.41106 15.0247C8.27775 15.022 8.14031 15.0097 7.99863 14.9876C7.90786 14.9735 7.81332 14.9839 7.69242 14.9973C7.62727 15.0046 7.55446 15.0126 7.47047 15.0181ZM16.2933 5.32773C16.3098 4.44678 15.612 3.73252 14.7278 3.72539C13.8661 3.71838 13.1754 4.37857 13.1412 5.24163C13.1062 6.12184 13.7888 6.84998 14.6724 6.87501C15.5528 6.90004 16.2767 6.20907 16.2933 5.32773ZM10.8208 11.4589C12.7707 9.51372 15.9707 9.51372 17.9206 11.4589C19.8706 13.404 19.8206 16.596 17.8706 18.5411C15.9207 20.4863 12.7707 20.4863 10.8208 18.5411C8.87083 16.596 8.87083 13.404 10.8208 11.4589ZM12.9707 17.0948L14.3707 15.6983L15.7707 17.0948L16.4706 16.3965L15.0707 15L16.4706 13.6035L15.7707 12.9052L14.3707 14.3017L12.9707 12.9052L12.2707 13.6035L13.6707 15L12.2707 16.3965L12.9707 17.0948Z" fill="currentColor"/>
</svg>
