<svg width="20" height="20" viewBox="0 0 20 20" fill="none" xmlns="http://www.w3.org/2000/svg">
<path fill-rule="evenodd" clip-rule="evenodd" d="M12.4617 9.9054C12.6766 9.9593 12.8828 10.0019 13.0805 10.0427C13.4904 10.1273 13.8636 10.2043 14.201 10.3591C15.4106 10.9143 16.1056 11.879 16.2004 13.2298C16.2148 13.4352 16.2228 13.6413 16.2308 13.8473L16.2308 13.8475C16.2447 14.2028 16.2585 14.5581 16.3048 14.9093C16.3681 15.3885 16.7312 15.6282 17.1913 15.6334C17.652 15.6384 17.9877 15.4009 18.0999 14.9288C18.1428 14.748 18.1716 14.5591 18.1722 14.3736L18.1747 13.6526C18.1803 12.1422 18.1858 10.6315 18.1561 9.12139C18.1519 8.90343 17.9334 8.60063 17.7304 8.49052C16.8247 7.99929 16.3031 7.29736 16.2987 6.24921C16.2985 6.18709 16.2959 6.12474 16.2934 6.0624L16.2934 6.06228V6.06224C16.2883 5.93641 16.2831 5.81063 16.2968 5.68692C16.4338 4.45121 16.2552 3.36515 15.1328 2.5665C14.6756 2.24106 14.6997 1.62458 15.0207 1.28925C15.384 0.909633 15.8819 0.920519 16.3525 1.37909C16.5339 1.55577 16.7162 1.7318 16.8985 1.90788L16.8988 1.90822L16.8989 1.90824C17.7232 2.70444 18.5485 3.50155 19.2981 4.36325C19.664 4.78378 19.9385 5.43329 19.9506 5.98508C20.0141 8.9018 20.0117 11.8209 19.9684 14.7381C19.9448 16.3357 18.7464 17.4735 17.2222 17.4902C15.6876 17.5068 14.5056 16.3413 14.4216 14.7181C14.4118 14.5295 14.4117 14.3402 14.4117 14.1508C14.4116 13.881 14.4115 13.6113 14.3833 13.3444C14.2791 12.3585 13.576 11.8196 12.5186 11.9156C12.5129 11.9622 12.5055 12.0098 12.498 12.058L12.498 12.0581C12.4817 12.1632 12.4649 12.2714 12.4646 12.3798C12.463 12.9616 12.4632 13.5434 12.4634 14.1252C12.4638 15.0858 12.4642 16.0464 12.4561 17.007C12.4534 17.3403 12.5252 17.5213 12.887 17.6318C13.5177 17.8246 13.755 18.2711 13.6869 18.9362C13.6244 19.5461 13.2446 19.8516 12.6778 19.9642C12.5157 19.9965 12.3455 19.9979 12.1789 19.998L11.7487 19.9982L10.9463 19.9986C11.0131 19.878 11.0694 19.7514 11.1148 19.6198C11.3562 18.9198 11.2632 18.159 10.9226 17.5345C10.3188 16.4271 9.68526 15.34 9.0614 14.2704L9.034 14.2234C8.41664 13.165 7.80923 12.1237 7.23141 11.0687C6.23458 9.24869 3.81303 9.31249 2.88897 10.9205C2.5237 11.5562 2.157 12.1926 1.78988 12.8298L1.23733 13.789C1.23454 10.1926 1.23562 6.59611 1.24118 2.99967C1.24181 2.60704 1.25273 2.20027 1.35248 1.82478C1.63982 0.742845 2.58078 0.0344048 3.78134 0.0205163C5.82951 -0.00313176 7.87867 -0.0110145 9.92646 0.022393C11.4574 0.0472923 12.4417 1.10245 12.4558 2.69675C12.4695 4.21112 12.4667 5.72555 12.4639 7.24004V7.24033C12.4627 7.89353 12.4615 8.54674 12.4616 9.19997L12.4617 9.9054ZM6.86344 2.48267C6.63237 2.48267 6.40126 2.48383 6.17015 2.48499C5.62796 2.48772 5.08576 2.49044 4.54399 2.47816C4.00381 2.46578 3.69577 2.69888 3.68949 3.23678C3.67569 4.42418 3.67557 5.61209 3.69364 6.79963C3.70079 7.26508 3.96027 7.52183 4.45277 7.5207C6.04094 7.51658 7.62923 7.5142 9.21739 7.52233C9.74201 7.52496 10.0025 7.25957 10.0092 6.76571C10.0246 5.59908 10.0238 4.43194 10.0123 3.26505C10.0071 2.73942 9.73637 2.46803 9.18314 2.47891C8.64225 2.48951 8.10117 2.48711 7.56013 2.48472H7.56011C7.32788 2.48369 7.09565 2.48267 6.86344 2.48267ZM3.88824 19.9991C4.26304 19.9987 4.63786 19.9983 5.01269 19.9983L5.01263 19.9997L5.85304 19.9999H5.85423H5.8564C6.79841 20.0001 7.74042 20.0003 8.68242 19.998C8.82207 19.9977 8.96706 19.9939 9.10035 19.9579C9.98261 19.7196 10.1983 18.8161 9.8257 18.1328C9.45104 17.4458 9.05866 16.7684 8.66628 16.0911L8.66488 16.0887L8.66452 16.0881C8.4968 15.7986 8.32908 15.5091 8.16274 15.2189C7.95776 14.8612 7.75119 14.5044 7.54461 14.1476C7.06833 13.3251 6.59207 12.5025 6.1356 11.6691C5.60494 10.7002 4.40835 10.7862 3.97329 11.5433C3.60709 12.1806 3.23985 12.818 2.87291 13.4548L2.87239 13.4557C1.96886 15.0239 1.06535 16.5921 0.172798 18.1665C-0.311238 19.0203 0.277838 19.9925 1.25819 19.997C2.13209 20.0009 3.00602 20 3.87995 19.9991L3.88286 19.9991L3.88824 19.9991ZM5.58358 14.701L5.59691 14.7019L5.58438 14.898L5.56603 15.1877C5.54134 15.5789 5.51662 15.97 5.48971 16.361C5.47068 16.6385 5.28626 16.8333 5.03619 16.8508C4.79662 16.8676 4.56838 16.6853 4.54667 16.4074C4.48459 15.6114 4.43192 14.8145 4.39839 14.0169C4.38393 13.6726 4.67218 13.4034 5.00038 13.3975C5.34869 13.3913 5.61349 13.6526 5.61721 14.0257C5.61879 14.1809 5.60794 14.3362 5.5971 14.4915L5.59224 14.5616C5.58907 14.6081 5.58606 14.6546 5.58358 14.701ZM4.33584 17.8692C4.32795 17.4956 4.63088 17.188 5.0088 17.1861C5.39016 17.1841 5.68338 17.4787 5.68208 17.8626C5.68089 18.229 5.39072 18.5292 5.0293 18.5379C4.65767 18.547 4.34382 18.2443 4.33584 17.8692Z" fill="currentColor"/>
</svg>
