<svg width="20" height="20" viewBox="0 0 20 20" fill="none" xmlns="http://www.w3.org/2000/svg">
<path fill-rule="evenodd" clip-rule="evenodd" d="M1.97624 0.418575C1.44866 0.386089 0.99666 0.790839 0.964601 1.32016C0.932548 1.84937 1.33219 2.3064 1.85966 2.33888L2.81849 2.39792C1.80278 3.46015 1.02382 4.74018 0.544319 6.15206C-0.125146 8.12329 -0.178381 10.2558 0.391854 12.2587C0.962094 14.2617 2.12813 16.038 3.73125 17.3451C5.33438 18.6522 7.29653 19.4265 9.35011 19.562C11.4037 19.6975 13.4484 19.1877 15.2054 18.1023C16.9623 17.0168 18.3459 15.4087 19.1676 13.4975C19.9893 11.5863 20.2094 9.46483 19.7978 7.42233C19.4498 5.69536 18.6646 4.09577 17.5262 2.77726C17.1322 2.32087 16.447 2.35107 16.047 2.78021C15.6461 3.21041 15.6773 3.87242 16.0412 4.31218C16.8811 5.32718 17.4624 6.5421 17.7259 7.84984C18.0507 9.46169 17.877 11.1358 17.2286 12.6439C16.5802 14.1519 15.4888 15.4202 14.1035 16.276C12.7182 17.1318 11.1064 17.5336 9.48773 17.4268C7.86911 17.32 6.32219 16.7097 5.05799 15.6789C3.79376 14.6482 2.87377 13.247 2.42379 11.6664C1.9738 10.0858 2.01582 8.40297 2.54409 6.84748C2.95958 5.62408 3.65991 4.52644 4.57932 3.6442L4.71068 4.88716C4.76641 5.41453 5.23615 5.79833 5.76175 5.74186C6.28717 5.68541 6.66591 5.21073 6.61019 4.68353L6.27248 1.48796C6.25217 1.24301 6.17996 1.02492 6.02788 0.867672C5.87329 0.707823 5.65293 0.62798 5.37327 0.62798C5.12278 0.62798 4.27719 0.576018 3.48734 0.523433C3.09394 0.497242 2.71648 0.471049 2.43736 0.451402L1.97757 0.418657L1.97624 0.418575ZM7.17714 7.02725C6.78334 6.51588 6.05218 6.42284 5.54449 6.82031C5.03745 7.21727 4.94594 7.95275 5.33925 8.46347L10.1121 14.6612L14.3227 10.7586C14.7952 10.3207 14.826 9.58018 14.3919 9.10398C13.9572 8.62717 13.2208 8.59583 12.7478 9.03429L10.3991 11.2111L7.17714 7.02725Z" fill="currentColor"/>
</svg>
