<svg width="20" height="20" viewBox="0 0 20 20" fill="none" xmlns="http://www.w3.org/2000/svg">
<path fill-rule="evenodd" clip-rule="evenodd" d="M3.83784 2.13905C3.97644 1.26496 4.64039 0.571949 5.51896 0.379694C5.61732 0.359574 6.12925 0.350631 7.60917 0.348396C9.3037 0.34616 9.58985 0.350632 9.71728 0.379694C10.1644 0.484764 10.4885 0.659134 10.7926 0.958694C10.9468 1.11518 11.1368 1.3745 11.2084 1.53099C11.3157 1.76348 11.4051 2.05634 11.4051 2.16811C11.4051 2.20612 11.4185 2.22624 11.4565 2.23518C11.4833 2.23965 11.9483 2.24859 12.4893 2.25306C13.1958 2.25977 13.4975 2.26871 13.5624 2.28883C13.6027 2.30165 13.6714 2.32196 13.7282 2.33872L13.7636 2.34919C13.8619 2.37825 14.0385 2.45873 14.2219 2.56157C15.2401 3.12857 15.2487 4.20541 15.2457 5.22855L15.239 7.53114L14.7137 7.53561C14.4253 7.53785 14.1347 7.55126 14.0676 7.56468C14.0028 7.57809 13.9178 7.58927 13.8843 7.58927H13.8195V5.21961V4.23821L13.7658 4.11526C13.6652 3.88723 13.4797 3.73522 13.2338 3.67933C13.1667 3.66368 12.7643 3.65474 12.1115 3.65474C11.2754 3.65474 11.0899 3.65921 11.0653 3.68604C11.0496 3.70169 11.0005 3.75981 10.958 3.81346C10.654 4.19574 10.2896 4.42376 9.73963 4.57354C9.57644 4.61825 5.68439 4.61825 5.50331 4.57578C5.1948 4.49977 4.8796 4.35446 4.66275 4.18903C4.55544 4.10632 4.36766 3.91853 4.21341 3.73746L4.14411 3.65474H3.118C2.03601 3.65474 1.97788 3.65921 1.77892 3.76205C1.66938 3.81793 1.54643 3.9543 1.47489 4.09961L1.42347 4.20244V9.43358V16.0507L1.4883 16.1782C1.56655 16.3324 1.67609 16.442 1.83704 16.5247L1.96 16.5873L5.61508 16.5984L8.15017 16.5358L8.24854 16.7035C8.48103 17.1037 8.74035 17.4658 9.00414 17.7609C9.06897 17.8347 9.12263 17.9018 9.12263 17.9129C9.12263 17.9241 8.42961 18.0068 6.05548 18.0068C2.56359 18.0068 1.84599 18.0023 1.72527 17.9755C0.853412 17.79 0.225229 17.1618 0.0352095 16.2855C-0.0117365 16.0641 -0.0117365 4.20244 0.0352095 3.97442C0.155928 3.40213 0.473373 2.92596 0.942833 2.61298C1.16191 2.46544 1.32287 2.39167 1.60231 2.30895C1.74762 2.26648 1.82587 2.26201 2.74243 2.25306C3.28343 2.24859 3.74842 2.23965 3.77525 2.23518C3.81101 2.22624 3.8289 2.20165 3.83784 2.13905ZM9.99672 2.58616C10.0615 2.30225 9.87823 1.96915 9.58091 1.81937L9.47137 1.76572L7.68295 1.76348C6.69931 1.76125 5.85428 1.76572 5.8051 1.77466C5.75592 1.7836 5.67768 1.8082 5.63073 1.83279C5.52343 1.8842 5.358 2.0474 5.31776 2.14129C5.24399 2.31342 5.23504 2.34472 5.23504 2.48109C5.23504 2.81642 5.47424 3.10256 5.82075 3.18304C5.95935 3.21434 9.27241 3.21658 9.41548 3.18528C9.71728 3.11821 9.92741 2.90137 9.99672 2.58616ZM11.4794 5.29874C11.4794 5.29874 10.3857 6.4095 9.06897 7.72623C7.76566 9.03177 6.68367 10.0981 6.66578 10.0981C6.6479 10.0981 6.21421 9.68008 5.70451 9.16814C5.19481 8.65621 4.72535 8.20463 4.66275 8.16439C4.37213 7.97437 3.98539 8.02355 3.7596 8.28287C3.63664 8.42147 3.59417 8.52207 3.58523 8.70986C3.57405 8.89764 3.60311 9.01389 3.69477 9.14802C3.77078 9.2598 6.23209 11.7144 6.3081 11.7546C6.54689 11.8832 6.98928 11.8981 7.22129 11.7546L12.505 6.14661C13.0936 5.5435 11.9462 4.74424 11.4794 5.29874ZM20 14.088C20 17.1609 17.5089 19.6521 14.4359 19.6521C11.3629 19.6521 8.87172 17.1609 8.87172 14.088C8.87172 11.015 11.3629 8.52382 14.4359 8.52382C17.5089 8.52382 20 11.015 20 14.088ZM13.4683 15.4388L13.4689 15.4378L13.4691 15.4375C13.5024 15.3812 13.5377 15.3215 13.5851 15.2738C14.6603 14.189 15.7379 13.1068 16.8156 12.0246L17.1244 11.7143C17.4766 11.3605 17.7846 11.3043 18.0392 11.5451C18.3009 11.7925 18.2484 12.1181 17.8873 12.4794C16.5581 13.8088 15.2286 15.1384 13.899 16.4676C13.4851 16.8813 13.2211 16.8802 12.8047 16.4642C12.1938 15.854 11.5833 15.2431 10.9728 14.6323L10.9127 14.573C10.8816 14.542 10.8511 14.5104 10.8236 14.4766C10.6192 14.225 10.6175 13.9194 10.8163 13.7172C11.0154 13.5147 11.3238 13.5116 11.5745 13.7146C11.622 13.753 11.6651 13.7969 11.7082 13.8408C11.7282 13.8612 11.7483 13.8816 11.7687 13.9014L13.4246 15.51C13.4394 15.4878 13.4537 15.4636 13.4683 15.4388Z" fill="currentColor"/>
</svg>
