<svg width="20" height="20" viewBox="0 0 20 20" fill="none" xmlns="http://www.w3.org/2000/svg">
<path fill-rule="evenodd" clip-rule="evenodd" d="M0.230511 7.85751C1.14001 3.60646 4.7341 0.446393 9.13105 0.0325743C10.304 -0.0802853 11.9536 0.107814 13.0764 0.477743C14.6257 0.991881 15.899 1.7819 17.0719 2.94812C18.226 4.09552 18.9725 5.28682 19.4742 6.7728C19.9133 8.06442 20.0889 9.58803 19.9572 10.8859C19.8506 11.8766 19.744 12.397 19.4805 13.187C18.7843 15.2812 17.4859 16.9803 15.5854 18.3033C14.5692 19.0055 13.1517 19.5949 11.8282 19.852C10.8999 20.0338 9.23768 20.0526 8.32191 19.8833C6.97962 19.6451 5.41152 18.9993 4.35148 18.2531C2.17496 16.7295 0.763665 14.6228 0.230511 12.1336C-0.0768369 10.6978 -0.0768369 9.29961 0.230511 7.85751ZM13.5217 2.67851C12.4805 2.20199 11.7843 2.00762 10.7681 1.91357C10.1785 1.85714 10.0029 1.85714 9.3255 1.89476C8.15256 1.95746 6.4841 2.5343 5.49933 3.22399C3.63015 4.52188 2.47603 6.21478 2.0056 8.35284C1.85506 9.03627 1.85506 10.9737 1.99933 11.632C2.57639 14.1902 4.18213 16.2279 6.50291 17.3503C9.11223 18.6168 12.261 18.3535 14.6884 16.6606C15.3094 16.2279 16.2251 15.3125 16.6642 14.6981C18.1633 12.5788 18.5522 9.80747 17.7117 7.3371C17.0406 5.36833 15.3846 3.53122 13.5217 2.67851ZM9.31706 4.06404C9.37299 4.01103 9.44346 3.97336 9.5325 3.91996C9.97157 3.65035 10.58 3.82591 10.8058 4.28361C10.9124 4.49679 10.925 4.72878 10.9438 7.0236L10.9626 9.53159L12.4805 10.5348C14.6884 11.9957 14.8954 12.2277 14.5881 12.8672C14.3748 13.3124 13.9295 13.5318 13.5343 13.3876C13.4151 13.3437 12.4053 12.6979 11.2888 11.9581C9.66422 10.8796 9.25024 10.5724 9.1687 10.4031C9.08088 10.215 9.07461 9.83882 9.08716 7.28694C9.10216 4.71774 9.09723 4.27242 9.31706 4.06404Z" fill="currentColor"/>
</svg>
