<svg width="20" height="20" viewBox="0 0 20 20" fill="none" xmlns="http://www.w3.org/2000/svg">
<path fill-rule="evenodd" clip-rule="evenodd" d="M8.04878 9.77037C8.0488 9.46005 8.04881 9.14723 8.04881 8.83083C8.01469 8.83083 7.98323 8.83082 7.95373 8.83082C7.87176 8.83081 7.80492 8.8308 7.73812 8.83088C7.46023 8.83114 7.18236 8.83155 6.90449 8.83195C6.232 8.83294 5.55955 8.83392 4.88711 8.83282C4.5552 8.83232 4.24827 8.74259 3.99076 8.52656C3.72521 8.30383 3.69918 7.98832 3.9152 7.72067C3.96614 7.65754 4.02008 7.59683 4.07396 7.53617C4.08131 7.52789 4.08866 7.51962 4.096 7.51134C4.59022 6.95412 5.08453 6.39698 5.57884 5.83985C6.682 4.59649 7.78515 3.35315 8.88722 2.10882C9.49044 1.42778 10.489 1.41742 11.0947 2.09802C11.6656 2.73951 12.2344 3.38283 12.8033 4.02614C13.1629 4.43282 13.5225 4.8395 13.8826 5.24571C14.1507 5.54814 14.4194 5.85005 14.6881 6.15195C15.1366 6.65591 15.5852 7.15987 16.0309 7.66627C16.3293 8.00527 16.2957 8.37534 15.9024 8.59181C15.6551 8.72791 15.3506 8.81526 15.0689 8.82335C14.4017 8.84253 13.7339 8.83862 13.0661 8.83471C12.7926 8.83311 12.5192 8.83151 12.2458 8.83149C12.1802 8.83149 12.1146 8.83533 12.0444 8.83944C12.0109 8.8414 11.9763 8.84342 11.9402 8.84512V9.37344C11.9402 9.75137 11.9407 10.1293 11.9411 10.5072C11.9422 11.4117 11.9434 12.3163 11.9386 13.2208C11.9351 13.8749 11.4991 14.3162 10.8488 14.3285C10.2769 14.3393 9.70458 14.3391 9.13283 14.3282C8.50219 14.3162 8.06072 13.866 8.05175 13.2378C8.04706 12.9111 8.04773 12.5844 8.0484 12.2577C8.04866 12.1323 8.04891 12.0069 8.04887 11.8815C8.04871 11.1822 8.04875 10.4829 8.04878 9.77037ZM0 13.9825C0 12.0099 2.91724 10.3388 6.9469 9.76779V11.9155C5.70808 12.1128 4.63229 12.4226 3.78834 12.796C3.04515 13.1248 2.57574 13.4614 2.32114 13.7278C2.19874 13.8558 2.14948 13.9405 2.13079 13.9825C2.14948 14.0246 2.19874 14.1092 2.32114 14.2373C2.57574 14.5036 3.04515 14.8402 3.78834 15.1691C5.26908 15.8243 7.46349 16.2834 10 16.2834C12.5365 16.2834 14.7309 15.8243 16.2117 15.1691C16.9548 14.8402 17.4243 14.5036 17.6789 14.2373C17.8013 14.1092 17.8505 14.0246 17.8692 13.9825C17.8505 13.9405 17.8013 13.8558 17.6789 13.7278C17.4243 13.4614 16.9548 13.1248 16.2117 12.796C15.3477 12.4137 14.2407 12.0982 12.9646 11.9016V9.75546C17.04 10.3144 20 11.9955 20 13.9825C20 16.4263 15.5228 18.4073 10 18.4073C4.47715 18.4073 0 16.4263 0 13.9825ZM17.8796 13.9512C17.88 13.9512 17.8795 13.9547 17.8773 13.9619C17.8781 13.9548 17.8793 13.9512 17.8796 13.9512ZM2.12036 13.9512C2.12071 13.9512 2.12185 13.9548 2.12275 13.9619C2.12045 13.9548 2.12001 13.9512 2.12036 13.9512ZM2.12036 14.0139C2.12001 14.0139 2.12045 14.0103 2.12275 14.0032C2.12185 14.0103 2.12071 14.0138 2.12036 14.0139ZM17.8773 14.0032C17.8795 14.0103 17.88 14.0139 17.8796 14.0139C17.8793 14.0138 17.8781 14.0103 17.8773 14.0032Z" fill="currentColor"/>
</svg>
