<svg width="20" height="20" viewBox="0 0 20 20" fill="none" xmlns="http://www.w3.org/2000/svg">
<path fill-rule="evenodd" clip-rule="evenodd" d="M1.05204 5.53635C2.60618 2.44686 5.66435 0.366286 9.11733 0.0529489C9.90693 -0.016022 10.026 -0.016022 10.7906 0.0529489C14.8639 0.416408 18.2668 3.07977 19.4951 6.8837C20.3223 9.43428 20.128 12.1352 18.9498 14.4978C18.1978 16.0018 16.8442 17.5184 15.4843 18.3894C11.7306 20.7959 6.81117 20.4762 3.48352 17.6124C2.52472 16.7852 1.61605 15.6195 1.0583 14.4978C-0.351721 11.6652 -0.351721 8.35008 1.05204 5.53635ZM17.7278 7.47904C16.8442 4.72792 14.4378 2.60353 11.5676 2.03322C10.9848 1.91418 9.75027 1.864 9.12359 1.93297C5.98396 2.2651 3.31432 4.41458 2.28658 7.42892C1.96697 8.38772 1.8855 8.88906 1.89178 10.0171C1.89178 11.1451 1.97325 11.684 2.28658 12.6052C2.86312 14.2972 4.09767 15.9141 5.52021 16.8165C7.49424 18.0761 9.60614 18.4458 11.881 17.9445C14.5193 17.3617 16.8693 15.1934 17.7278 12.5551C18.0286 11.6339 18.1101 11.0699 18.1164 9.98574C18.1164 8.91409 18.0412 8.46293 17.7278 7.47904ZM15.9845 11.2139C15.8656 11.2507 15.7393 11.2705 15.6083 11.2705C14.9066 11.2705 14.3377 10.7017 14.3377 9.99994C14.3377 9.29823 14.9066 8.72939 15.6083 8.72939C16.31 8.72939 16.8789 9.29823 16.8789 9.99994C16.8789 10.4111 16.6836 10.7766 16.3807 11.0089C16.3564 11.0279 16.3313 11.0462 16.3053 11.0636C16.186 11.1444 16.0981 11.1896 15.9845 11.2139ZM13.1657 5.04756C12.8586 5.12277 12.6392 5.46114 12.094 6.68945L11.7968 7.36233C11.4715 8.09862 11.3772 8.31195 10.659 9.9544C10.3108 10.7379 10.0109 11.4084 9.94858 11.5232C8.7487 11.5753 7.79191 12.5645 7.79191 13.7771C7.79191 15.0231 8.80196 16.0331 10.0479 16.0331C11.2939 16.0331 12.304 15.0231 12.304 13.7771C12.304 13.1897 12.0795 12.6548 11.7117 12.2534C11.8179 11.9719 12.3637 10.7129 13.0152 9.25252C14.1621 6.67691 14.3375 6.24448 14.3375 5.96878C14.3438 5.61781 14.2059 5.35459 13.9239 5.17289C13.7547 5.0601 13.3599 4.99743 13.1657 5.04756ZM5.63406 10.0232C5.63406 10.7249 5.0652 11.2937 4.36348 11.2937C3.66176 11.2937 3.09291 10.7249 3.09291 10.0232C3.09291 9.32143 3.66176 8.75258 4.36348 8.75258C5.0652 8.75258 5.63406 9.32143 5.63406 10.0232ZM6.23604 7.52573C6.93776 7.52573 7.50662 6.95689 7.50662 6.25519C7.50662 5.55342 6.93776 4.98458 6.23604 4.98458C5.53432 4.98458 4.96546 5.55342 4.96546 6.25519C4.96546 6.95689 5.53432 7.52573 6.23604 7.52573ZM11.2706 4.36721C11.2706 5.06898 10.7017 5.63782 10 5.63782C9.29828 5.63782 8.72943 5.06898 8.72943 4.36721C8.72943 3.66551 9.29828 3.09666 10 3.09666C10.7017 3.09666 11.2706 3.66551 11.2706 4.36721Z" fill="currentColor"/>
</svg>
