<svg width="12" height="12" viewBox="0 0 12 12" fill="none" xmlns="http://www.w3.org/2000/svg">
<path fill-rule="evenodd" clip-rule="evenodd" d="M0.751336 5.85616C-0.261966 6.86946 -0.0410145 5.67547 0.217695 4.69607C1.18727 0.886029 5.71865 -0.363771 9.07305 0.79043C9.69176 0.991513 11.0065 1.61796 11.0065 1.71077C11.0065 1.76491 8.97251 3.78346 8.47754 4.21656C8.33059 4.34804 8.30739 4.34031 7.88976 4.15469C5.38223 3.10315 2.62239 3.9851 0.751336 5.85616ZM11.2473 2.42528C11.8084 1.82514 12.1921 2.21843 11.899 2.71494C11.4762 3.43108 10.7951 4.45056 9.336 6.78422L8.0367 8.87238L8.0599 9.50657C8.0831 10.2413 7.94389 10.6512 7.51853 11.0611C6.55179 12.0124 4.90446 11.7107 4.34761 10.4965C4.25481 10.2954 4.20067 10.0015 4.20067 9.64578C4.20067 9.16627 4.23161 9.04253 4.45589 8.67904C4.76525 8.15313 5.33756 7.7819 5.94854 7.70456L6.35844 7.65816L8.27645 5.5932C9.32755 4.46481 10.1941 3.55172 11.2473 2.42528Z" fill="currentColor"/>
</svg>
