<svg width="24" height="24" viewBox="0 0 24 24" fill="none" xmlns="http://www.w3.org/2000/svg">
<path fill-rule="evenodd" clip-rule="evenodd" d="M1.50267 11.7123C-0.523931 13.7389 -0.082029 11.3509 0.435389 9.39214C2.37455 1.77206 11.4373 -0.727542 18.1461 1.58086C19.3835 1.98303 22.0131 3.23592 22.0131 3.42154C22.0131 3.52981 17.945 7.56693 16.9551 8.43313C16.6612 8.69608 16.6148 8.68061 15.7795 8.30938C10.7645 6.2063 5.24478 7.97021 1.50267 11.7123ZM22.4945 4.85057C23.6167 3.65027 24.3842 4.43686 23.798 5.42988C22.9524 6.86216 21.5901 8.90111 18.672 13.5684L16.0734 17.7448L16.1198 19.0131C16.1662 20.4826 15.8878 21.3024 15.0371 22.1222C13.1036 24.0247 9.80892 23.4215 8.69523 20.993C8.50961 20.5909 8.40134 20.0031 8.40134 19.2916C8.40134 18.3326 8.46321 18.0851 8.91178 17.3581C9.53049 16.3063 10.6751 15.5638 11.8971 15.4091L12.7169 15.3163L16.5529 11.1864C18.6551 8.92963 20.3883 7.10343 22.4945 4.85057Z" fill="currentColor"/>
</svg>
