<svg width="20" height="20" viewBox="0 0 20 20" fill="none" xmlns="http://www.w3.org/2000/svg">
<path fill-rule="evenodd" clip-rule="evenodd" d="M15.1346 18.6523C14.8019 18.0842 14.4756 17.5271 14.1461 16.9644C16.7055 15.2704 18.0807 12.9216 18.033 9.83303C17.9984 7.59417 17.1225 5.6873 15.4874 4.15966C12.1235 1.01706 6.83288 1.33843 3.8615 4.83291C0.711909 8.53694 1.52801 14.3626 5.85777 16.9549C5.52972 17.5162 5.20149 18.0778 4.87349 18.6391C2.03161 17.0631 -0.461707 13.3046 0.0727033 8.86333C0.664116 3.94872 4.64011 0.411024 9.19412 0.0335672C13.9459 -0.3603 18.3733 2.74948 19.6388 7.38803C20.9126 12.0569 18.6769 16.574 15.1346 18.6523ZM7.38912 14.4355L7.38687 14.4394L7.37864 14.4535C7.2336 14.7029 7.08859 14.9521 6.94364 15.2013C5.19083 14.2589 3.58891 11.8586 4.08627 8.99585C4.57136 6.20368 6.98785 4.09961 9.80389 4.01293C12.7135 3.92332 15.2279 5.82439 15.9017 8.66099C16.5726 11.4849 15.0989 14.0783 13.0626 15.2121C12.7347 14.6492 12.4065 14.0857 12.0688 13.5058C13.3465 12.6591 14.0389 11.4857 14.0173 9.9435C14.0014 8.81148 13.5512 7.85475 12.7277 7.0802C11.1055 5.55457 8.51688 5.68302 6.99292 7.3625C5.41081 9.1061 5.64703 12.1396 7.92621 13.5123C7.74719 13.82 7.56814 14.1278 7.38912 14.4355ZM10.0169 12.0028C11.1137 12.0028 12.0028 11.1137 12.0028 10.0169C12.0028 8.92012 11.1137 8.03099 10.0169 8.03099C8.92012 8.03099 8.03099 8.92012 8.03099 10.0169C8.03099 11.1137 8.92012 12.0028 10.0169 12.0028Z" fill="currentColor"/>
</svg>
