<svg width="24" height="24" viewBox="0 0 24 24" fill="none" xmlns="http://www.w3.org/2000/svg">
<path d="M11.2156 0.0705875C9.5868 0.250733 7.81537 1.21151 6.82457 2.45001C5.68365 3.89117 5.2483 5.39989 5.2483 7.92943V8.98778H4.77542C3.16161 8.98778 1.92311 9.94856 1.60786 11.4423C1.45023 12.1929 1.45023 20.7948 1.60786 21.5454C1.87808 22.8139 2.82384 23.7147 4.09987 23.9248C4.73038 24.0299 19.4347 24.0224 19.9902 23.9173C21.2437 23.6846 22.2045 22.7464 22.4372 21.5304C22.5347 20.99 22.5347 11.9977 22.4372 11.4573C22.1594 9.97108 20.9585 9.05534 19.172 8.96527L18.7967 8.95025L18.7517 7.32144C18.6992 5.7827 18.6841 5.64759 18.459 4.88948C17.926 3.10303 16.8827 1.76696 15.3064 0.873736C14.6008 0.475915 13.8277 0.228215 12.8669 0.0931057C12.0338 -0.0269912 12.0563 -0.0269912 11.2156 0.0705875ZM13.1897 3.17059C14.4582 3.60594 15.2689 4.46163 15.6367 5.77519C15.7268 6.09045 15.7568 6.54081 15.7568 7.59166V8.98778L12.0263 8.97277L8.28825 8.95025L8.29576 7.48657C8.30326 6.19553 8.31827 5.96284 8.46089 5.5425C8.93377 4.13887 9.93208 3.3057 11.4783 3.02797C11.8011 2.96793 12.8519 3.058 13.1897 3.17059Z" fill="currentColor"/>
</svg>
