<svg width="20" height="20" viewBox="0 0 20 20" fill="none" xmlns="http://www.w3.org/2000/svg">
<path fill-rule="evenodd" clip-rule="evenodd" d="M17.0826 3H20.0004V17.5886H17.0826V3ZM12.8115 5.5H15.7292L15.7293 17.5884H12.8116L12.8115 5.5ZM8.5403 8V17.5884H11.458V8H8.5403ZM4.27118 10.5H7.1889L7.18905 17.5885H4.27133L4.27118 10.5ZM2.91772 17.5885V13H0V17.5885H2.91772Z" fill="#6AD09D"/>
<path fill-rule="evenodd" clip-rule="evenodd" d="M2.91772 13C2.91772 13.9837 2.91772 16.6092 2.91772 17.5885C1.94306 17.5885 0.991657 17.5885 0 17.5885C0 16.6208 0 13.9874 0 13C0.958581 13 1.91018 13 2.91772 13Z" fill="#6AD09D"/>
</svg>
