<svg width="20" height="20" viewBox="0 0 20 20" fill="none" xmlns="http://www.w3.org/2000/svg">
<path fill-rule="evenodd" clip-rule="evenodd" d="M8.84213 2.0002C8.84213 2.63448 8.83321 3.20586 8.84603 3.77692C8.85228 4.05369 8.8651 4.33871 8.93524 4.604C9.05868 5.07079 9.54733 5.36852 10.0596 5.33708C10.5786 5.30507 11.0202 4.98057 11.0563 4.46104C11.1111 3.66975 11.0706 2.87178 11.0706 2.05629C12.1734 2.05629 13.1749 1.98548 14.1611 2.07781C15.0138 2.15754 15.5331 2.79249 15.8105 3.56694C17.1809 7.39157 18.5472 11.2178 19.8826 15.0548C20.3138 16.2942 19.5133 17.5207 18.2021 17.5559C15.8997 17.6173 13.5943 17.5711 11.2901 17.5675C11.2584 17.5675 11.2266 17.536 11.1314 17.486C11.1314 16.9479 11.1403 16.3765 11.1274 15.8056C11.1211 15.5287 11.1084 15.2437 11.0379 14.9784C10.9139 14.5114 10.4255 14.2141 9.9132 14.2459C9.39411 14.2781 8.95308 14.6027 8.91718 15.1221C8.86254 15.9135 8.9029 16.7113 8.9029 17.5825C8.61598 17.5825 8.43712 17.5825 8.25837 17.5825C6.23264 17.5825 4.20692 17.5854 2.18119 17.5816C0.434249 17.5783 -0.397964 16.3998 0.184462 14.7549C1.47242 11.1178 2.76228 7.48145 4.05482 3.84616C4.54647 2.46364 5.20974 2.0012 6.67668 2.0002C7.37742 1.99975 8.0785 2.0002 8.84213 2.0002ZM11.1556 9.81104C11.1437 9.81048 11.1317 9.81004 11.12 9.80948C11.12 9.43926 11.1231 9.06882 11.1176 8.69871C11.1163 8.60749 11.0891 8.51594 11.0692 8.42562C10.9547 7.90029 10.5396 7.56029 10.0046 7.55215C9.44663 7.54367 8.94963 7.88735 8.91539 8.44536C8.86008 9.34615 8.86276 10.2553 8.91851 11.1562C8.9513 11.6862 9.43348 12.0223 9.96829 12.0306C10.5263 12.0392 10.9808 11.695 11.0651 11.1371C11.1312 10.7005 11.128 10.2534 11.1556 9.81104Z" fill="currentColor"/>
</svg>
