<svg width="12" height="12" viewBox="0 0 12 12" fill="none" xmlns="http://www.w3.org/2000/svg">
<path fill-rule="evenodd" clip-rule="evenodd" d="M6.3434 8.71875C4.43767 8.71875 2.62507 8.71875 0.71875 8.71875C0.71875 7.10386 0.71875 5.52138 0.71875 3.90625C2.62447 3.90625 4.43708 3.90625 6.3434 3.90625C6.3434 5.52114 6.3434 7.10349 6.3434 8.71875Z" fill="#6AD09D"/>
<path fill-rule="evenodd" clip-rule="evenodd" d="M5.66808 9.67589C4.39853 9.67589 3.12891 9.67742 1.85935 9.67542C0.665978 9.67361 0.0130754 9.03308 0.00498268 7.84727C-0.00183928 6.84504 -0.0014369 5.84261 0.00485001 4.84032C0.012207 3.65102 0.662768 3.00681 1.85293 3.00588C4.39211 3.00394 6.93135 3.01685 9.47039 3.00006C10.6173 2.9925 11.358 3.70299 11.3352 4.75524C11.3315 4.92519 11.3783 5.01608 11.5556 5.06076C11.8345 5.13112 11.9883 5.33123 11.9935 5.61949C12.0021 6.0979 12.0019 6.57671 11.9944 7.05518C11.9899 7.34277 11.8414 7.55038 11.5615 7.61726C11.3595 7.66555 11.3423 7.78078 11.3335 7.9526C11.2762 9.071 10.638 9.67228 9.51032 9.67509C8.22953 9.6783 6.94881 9.67589 5.66808 9.67589ZM5.66869 8.69025C6.94941 8.69025 8.2302 8.69152 9.51092 8.68971C10.1228 8.68891 10.3627 8.45997 10.3677 7.84613C10.3756 6.8439 10.3754 5.84147 10.3678 4.83918C10.3632 4.223 10.1244 3.99185 9.51507 3.99152C6.95356 3.99018 4.39204 3.99025 1.83053 3.99152C1.21842 3.99179 0.978785 4.22099 0.973902 4.8351C0.965876 5.83733 0.966212 6.83976 0.97377 7.84205C0.978384 8.45837 1.21695 8.68878 1.82645 8.68971C3.10717 8.69159 4.3879 8.69025 5.66869 8.69025Z" fill="currentColor"/>
</svg>
