<svg width="20" height="20" viewBox="0 0 20 20" fill="none" xmlns="http://www.w3.org/2000/svg">
<path fill-rule="evenodd" clip-rule="evenodd" d="M0.230511 7.85669C1.14001 3.604 4.7341 0.442705 9.13105 0.0287264C10.304 -0.0841768 11.9536 0.103995 13.0764 0.474067C14.6257 0.988404 15.899 1.77873 17.0719 2.94539C18.226 4.09324 18.9725 5.285 19.4742 6.77156C19.9133 8.06368 20.0889 9.58787 19.9572 10.8863C19.8506 11.8773 19.744 12.3979 19.4805 13.1882C18.7843 15.2832 17.4859 16.983 15.5854 18.3065C14.5692 19.009 13.1517 19.5986 11.8282 19.8558C10.8999 20.0377 9.23768 20.0565 8.32191 19.8872C6.97962 19.6488 5.41152 19.0027 4.35148 18.2563C2.17496 16.7321 0.763665 14.6246 0.230511 12.1345C-0.0768369 10.6981 -0.0768369 9.29934 0.230511 7.85669ZM13.5217 2.67568C12.4805 2.19898 11.7843 2.00453 10.7681 1.91045C10.1785 1.854 10.0029 1.854 9.3255 1.89163C8.15256 1.95435 6.4841 2.53142 5.49933 3.22138C3.63015 4.51977 2.47603 6.21332 2.0056 8.35221C1.85506 9.0359 1.85506 10.9741 1.99933 11.6327C2.57639 14.1918 4.18212 16.2303 6.50291 17.3531C9.11223 18.6201 12.261 18.3567 14.6884 16.6631C15.3094 16.2303 16.2251 15.3146 16.6642 14.6999C18.1633 12.5798 18.5522 9.8074 17.7117 7.33608C17.0406 5.36654 15.3846 3.52873 13.5217 2.67568ZM9.31706 4.06175C9.37299 4.00872 9.44346 3.97104 9.5325 3.91761C9.97157 3.6479 10.58 3.82352 10.8058 4.28141C10.9124 4.49467 10.925 4.72675 10.9438 7.02245L10.9626 9.53141L12.4805 10.535C14.6884 11.9965 14.8954 12.2285 14.5881 12.8683C14.3748 13.3137 13.9295 13.5332 13.5343 13.3889C13.4151 13.345 12.4053 12.699 11.2888 11.9588C9.66422 10.88 9.25024 10.5726 9.1687 10.4033C9.08088 10.2151 9.07461 9.83876 9.08716 7.28589C9.10216 4.7157 9.09723 4.27021 9.31706 4.06175Z" fill="currentColor"/>
</svg>
