<svg width="16" height="16" viewBox="0 0 16 16" fill="none" xmlns="http://www.w3.org/2000/svg">
<path fill-rule="evenodd" clip-rule="evenodd" d="M0.184409 6.28534C0.912007 2.88319 3.78728 0.354155 7.30484 0.022972C8.24319 -0.0673506 9.56291 0.0831871 10.4611 0.379245C11.7005 0.790714 12.7192 1.42297 13.6575 2.35631C14.5808 3.27459 15.178 4.22799 15.5794 5.41724C15.9306 6.45093 16.0712 7.67029 15.9658 8.709C15.8805 9.50183 15.7952 9.91832 15.5844 10.5506C15.0274 12.2266 13.9887 13.5864 12.4683 14.6452C11.6554 15.2072 10.5213 15.6789 9.46255 15.8846C8.7199 16.0301 7.39015 16.0452 6.65753 15.9097C5.58369 15.719 4.32921 15.2022 3.48118 14.6051C1.73996 13.3857 0.610932 11.6997 0.184409 9.70756C-0.0614695 8.55846 -0.0614695 7.43946 0.184409 6.28534ZM10.8174 2.14054C9.98441 1.75917 9.42742 1.60362 8.61452 1.52835C8.14283 1.48319 8.00233 1.48319 7.4604 1.5133C6.52205 1.56347 5.18728 2.02512 4.39946 2.5771C2.90412 3.61581 1.98083 4.97064 1.60448 6.68176C1.48405 7.22871 1.48405 8.77925 1.59946 9.30613C2.06111 11.3534 3.3457 12.9843 5.20233 13.8825C7.28979 14.8961 9.80878 14.6853 11.7507 13.3305C12.2475 12.9843 12.9801 12.2517 13.3314 11.7599C14.5306 10.0638 14.8418 7.84591 14.1694 5.86885C13.6324 4.29323 12.3077 2.82297 10.8174 2.14054ZM7.45365 3.24939C7.49839 3.20697 7.55476 3.17682 7.626 3.13408C7.97725 2.91831 8.46399 3.05881 8.64464 3.42512C8.72994 3.59573 8.73998 3.78139 8.75503 5.61795L8.77008 7.62512L9.98442 8.42799C11.7507 9.59716 11.9163 9.78283 11.6704 10.2947C11.4998 10.6509 11.1436 10.8266 10.8274 10.7111C10.7321 10.676 9.92421 10.1592 9.03102 9.56706C7.73137 8.70397 7.40019 8.4581 7.33496 8.32261C7.26471 8.17207 7.25969 7.871 7.26973 5.8287C7.28173 3.77255 7.27778 3.41616 7.45365 3.24939Z" fill="currentColor"/>
</svg>
