<svg width="12" height="13" viewBox="0 0 12 13" fill="none" xmlns="http://www.w3.org/2000/svg">
<path d="M3.73847 0.699698C3.56756 0.764101 3.44618 0.878044 3.33472 1.08611C3.29013 1.16786 3.28765 1.26199 3.27527 2.54756L3.26288 3.92231L2.99041 3.9347C2.66592 3.94956 2.54702 3.99415 2.39097 4.16506C2.18537 4.38799 2.19776 4.27405 2.19776 6.00302C2.19776 7.37777 2.20271 7.55859 2.24235 7.72951C2.42317 8.53454 2.81949 9.13151 3.47343 9.58728C3.87223 9.86471 4.49149 10.0777 4.90763 10.0777C5.10827 10.0777 5.09341 9.92663 5.09588 11.829C5.09588 12.1774 5.28443 12.4459 5.62845 12.6059C5.74487 12.6629 5.79936 12.6703 6.01239 12.6703C6.23532 12.6703 6.27247 12.6653 6.39385 12.6009C6.69333 12.4447 6.90502 12.1816 6.90412 11.8918C6.89916 10.2991 6.87935 10.0777 7.10971 10.0777C7.50851 10.0777 8.103 9.87214 8.53896 9.57985C9.02198 9.25536 9.50004 8.62124 9.65362 8.10106C9.67591 8.02427 9.70564 7.93262 9.71554 7.89795C9.79481 7.65024 9.80224 7.5041 9.80224 5.99063C9.80224 4.27653 9.81463 4.38799 9.60903 4.16506C9.45298 3.99415 9.33408 3.94956 9.00959 3.9347L8.73712 3.92231L8.72473 2.54756C8.71235 1.19015 8.71235 1.17033 8.65785 1.07125C8.57611 0.920155 8.48446 0.821073 8.35566 0.744285C8.25657 0.687314 8.21446 0.677406 8.04107 0.677406C7.81071 0.677406 7.65961 0.739331 7.5308 0.885476C7.35494 1.08364 7.36237 1.03657 7.35741 2.51536C7.35741 3.26342 7.3475 3.86782 7.33264 3.89011C7.31283 3.93222 7.22365 3.9347 5.99009 3.9347C4.80607 3.9347 4.66488 3.92974 4.6525 3.89507C4.64506 3.87277 4.63763 3.25104 4.63763 2.51288V1.17033L4.57571 1.04648C4.50635 0.905292 4.42213 0.818596 4.27846 0.736854C4.15461 0.667497 3.87719 0.647681 3.73847 0.699698Z" fill="currentColor"/>
</svg>
