<svg width="16" height="16" viewBox="0 0 16 16" fill="none" xmlns="http://www.w3.org/2000/svg">
<path fill-rule="evenodd" clip-rule="evenodd" d="M1.42378 1.8404C0.694665 2.00046 0.1745 2.56952 0.0500159 3.33421C-0.016672 3.72545 -0.016672 12.2704 0.0500159 12.6705C0.1745 13.4708 0.734677 14.0487 1.5127 14.1821C1.71721 14.2177 3.65116 14.2266 8.20371 14.2177C8.7089 14.2167 9.1752 14.216 9.60577 14.2153C14.3493 14.2077 14.7559 14.2071 15.0427 14.0214C15.0696 14.004 15.0955 13.9849 15.1237 13.9641C15.1531 13.9424 15.1852 13.9188 15.2237 13.8931C15.5127 13.7019 15.7483 13.4085 15.8817 13.0751L15.984 12.8261L15.9973 8.13574C16.0062 5.00585 15.9928 3.37422 15.9617 3.22307C15.815 2.50728 15.2237 1.93821 14.5124 1.82262C14.0989 1.75593 1.73499 1.76927 1.42378 1.8404ZM14.5435 3.24085C14.6724 3.36978 14.6724 3.37422 14.6724 3.90773V4.44568H8.00365H1.33487V3.98331C1.33487 3.73434 1.3571 3.46314 1.38377 3.38312C1.38982 3.36628 1.39396 3.35051 1.39783 3.33573C1.40283 3.31666 1.4074 3.29925 1.41508 3.28333C1.49627 3.11512 1.92552 3.11492 6.89205 3.11253C7.25031 3.11236 7.63217 3.11218 8.03922 3.11192H14.4146L14.5435 3.24085ZM14.6724 9.87407V12.6349L14.5435 12.7639L14.4146 12.8928H8.04811C7.64071 12.8928 7.25851 12.8929 6.89993 12.8929C1.93306 12.8937 1.49793 12.8938 1.41546 12.7233C1.40754 12.7069 1.40287 12.6889 1.39776 12.6693C1.39389 12.6544 1.38976 12.6385 1.38377 12.6216C1.34821 12.5238 1.33487 11.6435 1.33487 9.79849V7.11319H8.00365H14.6724V9.87407ZM3.06875 10.3231C2.83757 10.4431 2.69974 10.6521 2.69974 10.8922C2.69974 11.1322 2.83757 11.3412 3.06875 11.4612C3.25992 11.559 3.30883 11.5635 4.06907 11.5502C4.74039 11.5368 4.89155 11.5235 5.01603 11.4568C5.17609 11.3679 5.33614 11.0878 5.33614 10.8922C5.33614 10.6965 5.17609 10.4165 5.01603 10.3275C4.89155 10.2609 4.74039 10.2475 4.06907 10.2342C3.30883 10.2208 3.25992 10.2253 3.06875 10.3231ZM6.25643 10.8922C6.25643 10.6521 6.39425 10.4431 6.62543 10.3231C6.8255 10.2208 6.82994 10.2208 8.51492 10.2342C10.4267 10.2475 10.4267 10.2475 10.5845 10.5895L10.5867 10.5943C10.6889 10.8299 10.6889 10.9544 10.5867 11.19L10.5845 11.1948C10.4267 11.5368 10.4267 11.5369 8.51492 11.5502C6.82994 11.5635 6.8255 11.5635 6.62543 11.4612C6.39425 11.3412 6.25643 11.1322 6.25643 10.8922Z" fill="currentColor"/>
</svg>
