<svg width="24" height="24" viewBox="0 0 24 24" fill="none" xmlns="http://www.w3.org/2000/svg">
<path fill-rule="evenodd" clip-rule="evenodd" d="M1.00032 11.9963C1.00032 8.67504 0.999513 5.35375 1.00082 2.03245C1.00112 1.2287 1.22981 1.00193 2.0312 1.00173C5.17189 1.00114 8.31248 0.997391 11.4531 1.00321C12.6591 1.00538 13.7197 1.41777 14.5729 2.24985C17.1947 4.80686 19.7973 7.38311 22.4062 9.95305C22.9497 10.4884 23.1191 11.1368 22.9186 11.8562C22.0417 15.0017 21.1586 18.1458 20.2622 21.2861C19.9665 22.3223 19.0528 22.9943 17.9557 22.9956C12.61 23.0022 7.26414 23 1.91841 22.9978C1.25558 22.9975 1.00192 22.7364 1.00142 22.0588C0.999013 18.7047 1.00042 15.3506 1.00032 11.9963ZM10.8782 10.6068C12.915 10.6068 14.9518 10.603 16.9886 10.61C17.4042 10.6114 17.7599 10.5306 17.9281 10.1128C18.0867 9.71869 17.9041 9.42699 17.6216 9.15107C16.2239 7.78464 14.8398 6.40479 13.4404 5.03994C12.7319 4.34868 11.8738 3.86298 10.879 3.82903C8.77809 3.75729 6.67391 3.76676 4.57102 3.76982C4.06902 3.77061 3.81485 4.09715 3.81345 4.62302C3.80894 6.31588 3.80934 8.00875 3.81295 9.70161C3.81435 10.3495 4.09117 10.6052 4.76884 10.6053C6.80525 10.6055 8.84166 10.6054 10.8782 10.6068ZM5.90009 14.3443C5.90009 14.3436 5.90009 14.343 5.90009 14.3423C6.35006 14.3423 6.80084 14.3592 7.24981 14.3376C7.71372 14.3151 8.0139 14.006 8.01981 13.5932C8.02583 13.1724 7.75071 12.8667 7.26735 12.8496C6.37062 12.8179 5.47227 12.8102 4.57504 12.8233C4.12987 12.8297 3.81646 13.1731 3.81335 13.5745C3.80984 14.0295 4.09047 14.3176 4.6003 14.3403C5.03273 14.3596 5.46676 14.3443 5.90009 14.3443Z" fill="currentColor"/>
</svg>
