<svg width="12" height="12" viewBox="0 0 12 12" fill="none" xmlns="http://www.w3.org/2000/svg">
<path fill-rule="evenodd" clip-rule="evenodd" d="M0.000108031 5.98358C0.0199931 2.66526 2.71863 -0.0186882 6.01646 9.80215e-05C9.33184 0.0189594 12.0196 2.72154 11.9999 6.01642C11.9799 9.33443 9.27986 12.0199 5.98354 11.9999C2.66689 11.9799 -0.0196264 9.2786 0.000108031 5.98358ZM6.0838 9.76531C6.56616 9.73623 7.01817 9.49757 7.30236 9.00394C7.60191 8.48342 7.59521 7.93914 7.26605 7.44116C7.12347 7.22549 7.14629 7.07543 7.23984 6.86871C7.66782 5.92338 8.08533 4.97326 8.4996 4.02185C8.5634 3.87524 8.6577 3.69294 8.61891 3.56234C8.56122 3.36824 8.43339 3.12988 8.26829 3.05203C8.12179 2.98297 7.86072 3.06608 7.69388 3.15949C7.57141 3.22809 7.50384 3.41505 7.43846 3.56121C7.02035 4.49729 6.60103 5.43291 6.20266 6.37741C6.10037 6.62005 5.97654 6.73382 5.70433 6.78687C4.91939 6.93979 4.41933 7.64367 4.50422 8.40309C4.59084 9.17918 5.23439 9.76531 6.0838 9.76531ZM5.24546 2.24279C5.24546 2.6754 5.56942 3.00086 5.99996 3.00086C6.43043 3.00086 6.75454 2.67525 6.75454 2.24279C6.75447 1.81026 6.43043 1.48473 5.99989 1.48473C5.56935 1.48473 5.24546 1.81026 5.24546 2.24279ZM4.11819 3.36358C4.11473 2.93112 3.78821 2.60875 3.35721 2.61221C2.92667 2.61574 2.60565 2.94359 2.60911 3.37635C2.61258 3.80896 2.93895 4.13118 3.37002 4.12773C3.80048 4.12427 4.12166 3.79619 4.11819 3.36358ZM2.98836 5.99132C2.98362 5.55886 2.65634 5.23776 2.22512 5.24242C1.79458 5.24708 1.47469 5.57591 1.47936 6.00875C1.4841 6.44121 1.8113 6.7623 2.2426 6.75764C2.67299 6.75306 2.99311 6.42415 2.98836 5.99132ZM9.01518 5.94901C8.98852 6.3859 9.28506 6.72796 9.71462 6.75546C10.1475 6.78319 10.4904 6.48209 10.5169 6.05098C10.5436 5.61416 10.2468 5.27203 9.81736 5.24453C9.38449 5.2168 9.04154 5.51798 9.01518 5.94901Z" fill="currentColor"/>
</svg>
