<svg width="20" height="20" viewBox="0 0 20 20" fill="none" xmlns="http://www.w3.org/2000/svg">
<path fill-rule="evenodd" clip-rule="evenodd" d="M1.25223 9.7603C-0.436609 11.4491 -0.0683575 9.45915 0.362824 7.82682C1.97879 1.47675 9.53108 -0.606245 15.1217 1.31742C16.1529 1.65256 18.3442 2.69664 18.3442 2.85132C18.3442 2.94155 14.9542 6.30581 14.1292 7.02765C13.8843 7.24677 13.8456 7.23388 13.1496 6.92453C8.97038 5.17195 4.37065 6.64188 1.25223 9.7603ZM18.7455 4.04218C19.6806 3.04193 20.3202 3.69742 19.8317 4.52494C19.127 5.7185 17.9918 7.41763 15.56 11.3071L13.3945 14.7873L13.4332 15.8443C13.4718 17.0689 13.2398 17.752 12.5309 18.4352C10.9196 20.0206 8.1741 19.5179 7.24602 17.4942C7.09135 17.1591 7.00112 16.6693 7.00112 16.0763C7.00112 15.2772 7.05268 15.0709 7.42648 14.4651C7.94208 13.5886 8.89593 12.9699 9.91423 12.841L10.5974 12.7636L13.7941 9.32204C15.5459 7.4414 16.9902 5.91957 18.7455 4.04218Z" fill="currentColor"/>
</svg>
