<svg width="24" height="24" viewBox="0 0 24 24" fill="none" xmlns="http://www.w3.org/2000/svg">
<path fill-rule="evenodd" clip-rule="evenodd" d="M7.15809 2.55898C6.3671 2.74202 5.85067 3.1081 5.55651 3.68335C5.31464 4.1671 5.22965 4.68353 5.22965 5.66409V6.43546H3.90263C2.43833 6.43546 1.96766 6.49429 1.47738 6.7427C1.00017 6.98457 0.503354 7.48794 0.307242 7.92592C0.0457593 8.50118 0 8.99146 0 11.0572V12.9725H7.34766H14.7019L15.2248 12.4496C16.5845 11.0899 18.6176 10.2793 20.4349 10.3708L20.9186 10.3904V9.60594C20.9186 8.39658 20.7356 7.84093 20.1407 7.24605C19.7419 6.8473 19.2451 6.58582 18.7222 6.50083C18.513 6.4616 17.7416 6.43546 17.0225 6.43546H15.702L15.6824 5.33723L15.6823 5.33225C15.6563 4.25206 15.6559 4.23835 15.4406 3.80757C15.166 3.25191 14.9176 3.0035 14.3815 2.74856L13.9566 2.54591L10.6227 2.53284C8.79235 2.53284 7.23 2.53936 7.15809 2.55898ZM13.6232 4.57894C13.7082 4.65738 13.7278 4.84695 13.7278 5.5595V6.43546H10.4593H7.19077V5.59872C7.19077 4.95155 7.21038 4.73583 7.29537 4.61815L7.39342 4.47434H10.4593C13.1591 4.47434 13.5317 4.48741 13.6232 4.57894ZM0 16.1852C0 17.6429 0.0326853 18.9373 0.0719076 19.1791C0.254946 20.3362 1.07208 21.1926 2.18338 21.3952C2.44486 21.441 4.55634 21.4671 8.64854 21.4671H14.728L14.5515 21.2514C14.2508 20.8788 13.7932 20.0747 13.5906 19.5452C13.2768 18.7346 13.133 17.9502 13.1199 17.0415L13.1068 16.2375H10.9823C8.90348 16.2375 8.84465 16.2309 8.56356 16.0871C8.39359 16.0021 8.19094 15.8256 8.07328 15.6622C7.8837 15.3876 7.87717 15.355 7.85755 14.4986L7.83141 13.6226H3.9157H0V16.1852ZM19.364 21.4671C21.9244 21.4671 24 19.3915 24 16.8311C24 14.2707 21.9244 12.1951 19.364 12.1951C16.8036 12.1951 14.728 14.2707 14.728 16.8311C14.728 19.3915 16.8036 21.4671 19.364 21.4671ZM19.364 18.6855C18.3398 18.6855 17.5096 17.8553 17.5096 16.8311C17.5096 15.807 18.3398 14.9767 19.364 14.9767C20.3882 14.9767 21.2184 15.807 21.2184 16.8311C21.2184 17.8553 20.3882 18.6855 19.364 18.6855Z" fill="currentColor"/>
</svg>
