<svg width="24" height="24" viewBox="0 0 24 24" fill="none" xmlns="http://www.w3.org/2000/svg">
<path fill-rule="evenodd" clip-rule="evenodd" d="M13.3377 5.0239V3.64781C13.7925 3.64781 14.1707 3.66093 14.5477 3.64541C15.4661 3.60712 15.9713 3.12124 15.9608 2.30413C15.9512 1.52278 15.4519 1.04333 14.5674 1.01267C14.0686 0.995458 13.5692 0.999479 13.0698 1.0035C12.8776 1.00504 12.6855 1.00657 12.4934 1.00692C11.0945 1.00906 10.7008 1.39558 10.6983 2.78934C10.6977 3.13505 10.6975 3.48076 10.6975 3.82649C10.6976 4.20277 10.6979 4.57906 10.6981 4.95535V4.96952C10.6994 6.67374 10.7006 8.37799 10.6784 10.0818C10.6749 10.3497 10.4833 10.7165 10.2629 10.8639C8.95795 11.7367 8.40122 13.1431 8.83367 14.6424C9.25115 16.09 10.5185 17.0427 12.0135 17.0328C13.4942 17.023 14.7343 16.0937 15.1535 14.6795C15.6065 13.1513 15.0627 11.7371 13.7063 10.8584C13.541 10.7513 13.3321 10.5519 13.325 10.3876C13.2973 9.73269 13.3009 9.07641 13.3046 8.39376C13.3059 8.15441 13.3072 7.91183 13.3072 7.66493C13.4557 7.66493 13.5955 7.66604 13.7295 7.66712C14.0076 7.66934 14.2606 7.67136 14.5131 7.66278C15.4471 7.63119 15.956 7.16633 15.9607 6.35499C15.9656 5.53923 15.4597 5.06165 14.5345 5.02643C14.2673 5.01619 13.9995 5.01877 13.7244 5.02143C13.5973 5.02266 13.4686 5.0239 13.3377 5.0239ZM22.4031 22.3133C23.2465 22.5456 23.9751 21.9305 23.9853 20.7578C23.9825 20.3968 23.597 20.0317 23.0024 19.7966C22.9307 19.7682 22.858 19.7406 22.7847 19.7134C22.7271 19.6919 22.6693 19.6707 22.6113 19.6494L22.6101 19.649C22.1501 19.4802 21.6843 19.3093 21.3181 19.0189C20.4461 18.3274 19.6962 18.3596 18.7684 18.9266C17.1659 19.9061 15.3849 20.1473 13.7478 19.1667C12.4866 18.4112 11.5281 18.4458 10.2733 19.1741C8.5793 20.1572 6.78747 19.863 5.12344 18.8818C4.50003 18.5141 3.90598 18.2774 3.18915 18.6872C2.44088 19.115 1.6594 19.4879 0.877205 19.8522C0.181561 20.1762 -0.147532 20.7875 0.0629069 21.4679C0.267266 22.1284 0.934669 22.5163 1.65862 22.2979C2.05276 22.179 2.43513 22.0218 2.81777 21.8646C3.11319 21.7431 3.40875 21.6217 3.70999 21.5177C3.9301 21.4417 4.23775 21.4032 4.4308 21.4986C6.8195 22.6783 9.18728 22.6236 11.5728 21.4865C11.8082 21.3743 12.1899 21.3741 12.425 21.4867C14.8102 22.6278 17.1791 22.6673 19.5725 21.5137C19.7817 21.413 20.1105 21.4597 20.349 21.5406C20.6422 21.6399 20.9293 21.7588 21.2162 21.8777C21.6074 22.0399 21.9981 22.2018 22.4031 22.3133ZM16.0377 16.5105C16.1055 16.2444 16.1681 15.9928 16.2281 15.7521C16.385 15.1215 16.5235 14.5655 16.6877 14.0171C16.7382 13.8485 16.938 13.6803 17.1101 13.6004C17.3846 13.4726 17.6659 13.3582 17.947 13.2439C18.3649 13.0739 18.7823 12.9041 19.1766 12.6907C19.8237 12.3406 20.3601 12.3667 20.98 12.763C21.5915 13.154 22.2642 13.4621 22.9376 13.7397C23.7641 14.0805 24.1636 14.7031 23.9375 15.4408C23.7146 16.167 23.0206 16.4907 22.1462 16.2304L22.0618 16.2054L22.0067 16.1892C21.5392 16.0516 21.0568 15.9095 20.6605 15.6499C20.1323 15.3038 19.7378 15.4254 19.1994 15.6243C18.4888 15.8869 17.7498 16.073 16.9968 16.2627C16.7858 16.3158 16.5736 16.3693 16.3607 16.4247C16.2532 16.4527 16.1456 16.4813 16.0377 16.5105ZM4.48761 15.5062C5.59361 16.0307 6.74661 16.307 7.92177 16.3544C7.86686 16.1388 7.81364 15.9259 7.76102 15.7151C7.61628 15.1359 7.47553 14.5727 7.31445 14.0154C7.26856 13.857 7.10708 13.684 6.95456 13.6128C6.6124 13.453 6.2648 13.3048 5.91728 13.1566C5.51111 12.9833 5.105 12.8101 4.70773 12.6186C4.20428 12.376 3.75588 12.3492 3.25139 12.6259C2.45625 13.0624 1.63744 13.4571 0.819087 13.8499C0.168943 14.162 -0.139752 14.7811 0.0617302 15.4398C0.256414 16.076 0.914272 16.4867 1.59161 16.2916C1.9783 16.1801 2.35361 16.03 2.72912 15.8798C3.03507 15.7575 3.34115 15.635 3.65364 15.5334C3.91173 15.4493 4.26161 15.399 4.48761 15.5062Z" fill="currentColor"/>
</svg>
