<svg width="16" height="16" viewBox="0 0 16 16" fill="none" xmlns="http://www.w3.org/2000/svg">
<path fill-rule="evenodd" clip-rule="evenodd" d="M7.99994 12.603L6.13753 12.6032C4.71421 12.6033 3.29089 12.6035 1.86758 12.6028C0.620516 12.602 0.00387675 11.9843 0.00211459 10.7275C-0.000704864 8.77691 -0.000704864 6.82626 0.00211459 4.8757C0.00387675 3.61899 0.620594 3.0009 1.86773 3.00067C5.95599 2.99978 10.0442 2.99978 14.1324 3.00067C15.3795 3.0009 15.9961 3.61907 15.9979 4.87585C16.0007 6.82643 16.0007 8.77708 15.9979 10.7277C15.9962 11.9844 15.3794 12.602 14.1322 12.6028C12.7089 12.6035 11.2856 12.6033 9.86231 12.6032L7.99994 12.603ZM8.00127 11.4211L9.70164 11.4212C11.1927 11.4214 12.6838 11.4215 14.1748 11.4207C14.7189 11.4205 14.8354 11.3108 14.8364 10.767C14.8398 8.78935 14.84 6.81166 14.8363 4.83399C14.8353 4.29169 14.7186 4.18286 14.1723 4.18278C10.0566 4.18198 5.94083 4.18198 1.82509 4.18278C1.28093 4.18286 1.16459 4.29257 1.16361 4.83648C1.16017 6.81415 1.16009 8.79183 1.16369 10.7695C1.16467 11.3119 1.28125 11.4205 1.82763 11.4207C3.88553 11.4218 5.94334 11.4211 8.00127 11.4211ZM7.96262 9.01638C8.29383 9.01638 8.51793 9.0054 8.7404 9.01879C9.12893 9.04229 9.38131 9.27807 9.38476 9.60127C9.38805 9.9223 9.13414 10.1825 8.75042 10.1911C8.04348 10.2072 7.33419 10.2216 6.62956 10.1777C6.43173 10.1655 6.15288 9.9855 6.08239 9.8126C6.01222 9.64049 6.09034 9.32499 6.21992 9.16933C6.5615 8.759 6.92698 8.36863 7.29249 7.97823C7.44713 7.81308 7.60177 7.64792 7.7546 7.48124C7.77618 7.45764 7.8005 7.4339 7.82509 7.40986L7.8258 7.40913C7.90298 7.3336 7.98306 7.25528 7.99359 7.17064C8.01356 7.01 7.99469 6.76748 7.89335 6.69056C7.79243 6.61414 7.53238 6.64421 7.40844 6.72697C7.30866 6.79357 7.23547 6.89769 7.16154 7.00282C7.12775 7.05093 7.09379 7.09925 7.05706 7.14429C7.03842 7.16711 7.01908 7.18909 6.99872 7.20977C6.79967 7.41187 6.55516 7.45382 6.30583 7.30136C6.0439 7.14112 5.94299 6.882 6.05502 6.60997C6.38407 5.81152 7.21006 5.12567 8.23865 5.52802C9.22961 5.91562 9.55855 7.09628 8.90608 7.94647C8.7274 8.17911 8.52823 8.39603 8.3055 8.63859C8.19691 8.75684 8.08272 8.88117 7.96262 9.01638ZM4.77358 9.0051C4.71253 8.99954 4.64866 8.99373 4.58107 8.98568V8.58838C4.58099 7.77485 4.58565 6.9614 4.57899 6.14788C4.57524 5.6938 4.39534 5.45697 4.00453 5.41783C3.72736 5.39009 3.44322 5.39233 3.16582 5.41848C2.85337 5.44799 2.63717 5.63597 2.61614 5.95653C2.59539 6.27355 2.77117 6.48334 3.085 6.56218C3.18325 6.58688 3.28373 6.60244 3.37395 6.6204V8.99225C3.31502 8.99837 3.25827 9.00252 3.2033 9.00654C3.08742 9.01501 2.97942 9.0229 2.87534 9.04744C2.58102 9.11673 2.41671 9.30783 2.42168 9.61956C2.42634 9.91309 2.58689 10.1429 2.86238 10.1538C3.6187 10.1841 4.37819 10.1828 5.13427 10.1476C5.41297 10.1346 5.56044 9.89256 5.55903 9.60208C5.5575 9.31072 5.40423 9.12242 5.12628 9.05425C5.01546 9.02711 4.90057 9.01666 4.77358 9.0051Z" fill="currentColor"/>
</svg>
