<svg width="20" height="20" viewBox="0 0 20 20" fill="none" xmlns="http://www.w3.org/2000/svg">
<path fill-rule="evenodd" clip-rule="evenodd" d="M0.000180051 9.97262C0.0333218 4.4421 4.53105 -0.0311469 10.0274 0.000163369C15.5531 0.0315989 20.0326 4.5359 19.9998 10.0274C19.9666 15.5574 15.4664 20.0331 9.97257 19.9998C4.44481 19.9665 -0.0327106 15.4643 0.000180051 9.97262ZM10.1397 16.2755C10.9436 16.227 11.6969 15.8293 12.1706 15.0066C12.6699 14.139 12.6587 13.2319 12.1101 12.4019C11.8724 12.0425 11.9105 11.7924 12.0664 11.4478C12.7797 9.87231 13.4756 8.28876 14.166 6.70308C14.2723 6.45873 14.4295 6.15489 14.3649 5.93723C14.2687 5.61373 14.0557 5.21646 13.7805 5.08671C13.5363 4.97162 13.1012 5.11013 12.8231 5.26581C12.619 5.38015 12.5064 5.69175 12.3974 5.93535C11.7006 7.49548 11.0017 9.05486 10.3378 10.629C10.1673 11.0334 9.9609 11.223 9.50721 11.3115C8.19899 11.5663 7.36555 12.7395 7.50703 14.0051C7.6514 15.2986 8.72398 16.2755 10.1397 16.2755ZM8.74244 3.73799C8.74244 4.459 9.28237 5.00142 9.99994 5.00142C10.7174 5.00142 11.2576 4.45875 11.2576 3.73799C11.2574 3.0171 10.7174 2.47456 9.99981 2.47456C9.28224 2.47456 8.74244 3.0171 8.74244 3.73799ZM6.86365 5.60596C6.85788 4.8852 6.31368 4.34792 5.59536 4.35368C4.87779 4.35956 4.34275 4.90599 4.34852 5.62725C4.3543 6.34827 4.89825 6.8853 5.6167 6.87954C6.33414 6.87378 6.86943 6.32698 6.86365 5.60596ZM4.9806 9.98553C4.97269 9.26476 4.42724 8.7296 3.70854 8.73737C2.99097 8.74513 2.45781 9.29319 2.4656 10.0146C2.47351 10.7353 3.01884 11.2705 3.73766 11.2627C4.45498 11.2551 4.98851 10.7069 4.9806 9.98553ZM15.0253 9.91502C14.9809 10.6432 15.4751 11.2133 16.191 11.2591C16.9125 11.3053 17.4841 10.8035 17.5281 10.085C17.5727 9.35694 17.0781 8.78672 16.3623 8.74088C15.6408 8.69466 15.0692 9.19663 15.0253 9.91502Z" fill="currentColor"/>
</svg>
