<svg width="24" height="24" viewBox="0 0 24 24" fill="none" xmlns="http://www.w3.org/2000/svg">
<path fill-rule="evenodd" clip-rule="evenodd" d="M18.1616 22.3828C17.7623 21.7011 17.3708 21.0325 16.9754 20.3573C20.0466 18.3245 21.6969 15.5059 21.6396 11.7996C21.5981 9.11301 20.547 6.82475 18.5848 4.99159C14.5482 1.22047 8.19945 1.60611 4.6338 5.79949C0.854291 10.2443 1.83362 17.2351 7.02932 20.3459C6.63566 21.0195 6.24179 21.6934 5.84819 22.3669C2.43793 20.4758 -0.554048 15.9656 0.087244 10.636C0.796939 4.73846 5.56813 0.493228 11.0329 0.0402806C16.7351 -0.43236 22.048 3.29938 23.5666 8.86564C25.0951 14.4683 22.4123 19.8887 18.1616 22.3828ZM8.86695 17.3226L8.86425 17.3273L8.85437 17.3442C8.68032 17.6434 8.50631 17.9426 8.33237 18.2415C6.229 17.1106 4.3067 14.2304 4.90352 10.795C5.48563 7.44442 8.38543 4.91953 11.7647 4.81551C15.2562 4.70798 18.2734 6.98927 19.0821 10.3932C19.8871 13.7819 18.1187 16.894 15.6752 18.2545C15.2817 17.579 14.8878 16.9028 14.4825 16.207C16.0158 15.1909 16.8467 13.7828 16.8208 11.9322C16.8017 10.5738 16.2615 9.4257 15.2732 8.49623C13.3266 6.66548 10.2203 6.81963 8.3915 8.835C6.49298 10.9273 6.77643 14.5675 9.51146 16.2148C9.29663 16.584 9.08177 16.9534 8.86695 17.3226ZM12.0203 14.4034C13.3365 14.4034 14.4034 13.3364 14.4034 12.0203C14.4034 10.7041 13.3365 9.63718 12.0203 9.63718C10.7041 9.63718 9.63719 10.7041 9.63719 12.0203C9.63719 13.3364 10.7041 14.4034 12.0203 14.4034Z" fill="currentColor"/>
</svg>
