<svg width="20" height="20" viewBox="0 0 20 20" fill="none" xmlns="http://www.w3.org/2000/svg">
<path fill-rule="evenodd" clip-rule="evenodd" d="M6.36903 3.97348C6.35524 1.77495 8.1402 -0.0156771 10.3304 0.000103511C12.4483 0.0153877 14.232 1.80404 14.2416 3.92271C14.252 6.11213 12.4549 7.89808 10.2576 7.8823C8.10224 7.86703 6.38259 6.1385 6.36903 3.97348ZM7.83409 15.9919C9.69973 13.752 11.4508 11.6496 13.2641 9.47255C5.43909 7.64864 2.30297 12.1532 2.00278 18.4062C1.96556 19.1806 2.29829 19.8759 3.24697 19.9513C4.20698 20.028 4.96217 19.7588 5.19287 18.6995C5.23491 18.5063 5.26735 18.311 5.2998 18.1157C5.33449 17.9071 5.36936 17.698 5.41568 17.492C5.56278 16.8372 5.71759 16.1844 5.87242 15.5316C5.93514 15.2672 5.99826 15.001 6.06046 14.7365C6.18714 14.7572 6.31408 14.7781 6.44076 14.7991V17.6648L7.83409 15.9919ZM8.81397 16.3967C7.83239 17.5769 6.83759 18.773 5.82408 19.9915C6.17051 19.9915 6.49381 19.9939 6.80051 19.9961C7.56523 20.0016 8.22683 20.0064 8.88652 19.9723C9.12756 19.9597 9.41544 19.7586 9.58156 19.5602C12.3443 16.2656 15.0952 12.9611 17.8372 9.64902C18.389 8.98256 18.4179 8.28158 17.7031 7.71175C16.9826 7.13746 16.3297 7.36151 15.7804 8.02181C13.4935 10.7702 11.2071 13.5192 8.84444 16.36L8.81397 16.3967ZM17.3891 12.4351C17.5114 12.9803 17.6397 13.5244 17.7681 14.0685C18.084 15.4073 18.4 16.7468 18.6251 18.1006C18.7683 18.963 18.4943 19.8478 17.3395 19.9545C16.2146 20.0588 15.562 19.5424 15.3599 18.4308C15.2827 18.0069 15.2 17.5838 15.1173 17.1608C15.0124 16.6245 14.9075 16.0882 14.8139 15.5498C14.7745 15.3226 14.738 15.0073 14.8573 14.8543C15.3445 14.2272 15.8582 13.6209 16.3719 13.0146C16.5511 12.8032 16.7311 12.5908 16.9092 12.3785C17.0692 12.3977 17.2291 12.4164 17.3891 12.4351ZM10.5877 19.937H14.1085V15.6935C12.8471 17.2138 11.7722 18.5092 10.5877 19.937Z" fill="currentColor"/>
</svg>
