<svg width="16" height="16" viewBox="0 0 16 16" fill="none" xmlns="http://www.w3.org/2000/svg">
<path fill-rule="evenodd" clip-rule="evenodd" d="M3.64578 1.63335C4.30631 0.807678 5.48726 0.167177 6.57314 0.047081L6.59293 0.0447678H6.59323C6.86066 0.0136931 6.9937 -0.00176712 7.12649 0.00016059C7.25791 0.0020883 7.38908 0.0209798 7.65002 0.0586087L7.67403 0.0620786C8.31454 0.152141 8.82996 0.317307 9.30034 0.582522C10.3512 1.17799 11.0467 2.06871 11.402 3.25965C11.5522 3.76505 11.5622 3.85515 11.5972 4.88097L11.6272 5.96684L11.8774 5.97687C13.0684 6.0369 13.869 6.6474 14.0542 7.63821C14.0739 7.74759 14.0877 8.37652 14.0954 9.20944C13.705 9.08102 13.2878 9.01151 12.8544 9.01151C10.663 9.01151 8.88644 10.788 8.88644 12.9795C8.88644 14.1827 9.42197 15.2608 10.2677 15.9885C7.25453 16.0118 2.13066 16.0001 1.82931 15.9499C0.978625 15.8098 0.348115 15.2093 0.16797 14.3636C0.062886 13.8632 0.062886 8.12858 0.16797 7.62818C0.378139 6.63237 1.20381 5.99187 2.27967 5.99187H2.59493V5.28629C2.59493 3.59993 2.88516 2.59412 3.64578 1.63335ZM9.52051 3.85014C9.27532 2.97442 8.73488 2.40398 7.8892 2.11374C7.66402 2.03867 6.96345 1.97865 6.74828 2.01866C5.71745 2.2038 5.05191 2.75925 4.73666 3.695C4.64158 3.97525 4.63157 4.13035 4.62657 4.99108L4.62156 5.96684L7.11357 5.98184L9.60058 5.99187V5.06113C9.60058 4.36056 9.58057 4.0603 9.52051 3.85014ZM7.95425 9.47967C7.8892 9.37461 7.75409 9.23447 7.65401 9.16942C7.16862 8.85918 6.45804 9.04432 6.22786 9.53974C6.12778 9.75491 6.12277 9.84998 6.12277 11.056V12.337L6.2729 12.5522C6.47806 12.8424 6.74328 12.9725 7.13359 12.9725C7.3938 12.9725 7.47386 12.9475 7.65901 12.8224C7.78412 12.7323 7.92423 12.5772 7.98928 12.4471C8.09937 12.2269 8.10438 12.1919 8.08936 10.9458C8.07435 9.70486 8.06935 9.66485 7.95425 9.47967ZM12.8544 16C14.5424 16 15.9109 14.6316 15.9109 12.9436C15.9109 11.2556 14.5424 9.88715 12.8544 9.88715C11.1664 9.88715 9.798 11.2556 9.798 12.9436C9.798 14.6316 11.1664 16 12.8544 16ZM12.8544 14.4718C12.0104 14.4718 11.3262 13.7876 11.3262 12.9436C11.3262 12.0996 12.0104 11.4154 12.8544 11.4154C13.6984 11.4154 14.3826 12.0996 14.3826 12.9436C14.3826 13.7876 13.6984 14.4718 12.8544 14.4718Z" fill="currentColor"/>
</svg>
