<svg width="20" height="20" viewBox="0 0 20 20" fill="none" xmlns="http://www.w3.org/2000/svg">
<path fill-rule="evenodd" clip-rule="evenodd" d="M17.0826 3H20.0004V17.5886H17.0826V3ZM12.8115 5.5H15.7292L15.7293 17.5884H12.8116L12.8115 5.5ZM8.5403 8V17.5884H11.458V8H8.5403ZM4.27118 10.5H7.1889L7.18905 17.5885H4.27133L4.27118 10.5ZM2.91772 17.5885V13H0V17.5885H2.91772Z" fill="currentColor"/>
<path fill-rule="evenodd" clip-rule="evenodd" d="M12.8115 5.5C13.7929 5.5 14.7389 5.5 15.7292 5.5C15.7292 9.60382 15.7294 13.4666 15.7294 17.5884C14.7754 17.5884 13.8158 17.5884 12.8117 17.5884C12.8117 13.4968 12.8115 9.63416 12.8115 5.5Z" fill="#6AD09D"/>
<path fill-rule="evenodd" clip-rule="evenodd" d="M8.54053 17.5884C8.54053 14.4387 8.54053 11.1381 8.54053 8C9.51769 8 10.4693 8 11.4582 8C11.4582 11.1327 11.4582 14.4417 11.4582 17.5884C10.492 17.5884 9.54055 17.5884 8.54053 17.5884Z" fill="#6AD09D"/>
<path fill-rule="evenodd" clip-rule="evenodd" d="M4.271 10.5C5.25416 10.5 6.20556 10.5 7.18872 10.5C7.18872 12.5601 7.18887 15.5283 7.18887 17.5885C6.20571 17.5885 5.25431 17.5885 4.27115 17.5885C4.27115 15.5283 4.271 12.5601 4.271 10.5Z" fill="#6AD09D"/>
<path fill-rule="evenodd" clip-rule="evenodd" d="M2.91772 13C2.91772 13.9837 2.91772 16.6092 2.91772 17.5885C1.94306 17.5885 0.991657 17.5885 0 17.5885C0 16.6208 0 13.9874 0 13C0.958581 13 1.91018 13 2.91772 13Z" fill="#6AD09D"/>
</svg>
