<svg width="20" height="21" viewBox="0 0 20 21" fill="none" xmlns="http://www.w3.org/2000/svg">
<path fill-rule="evenodd" clip-rule="evenodd" d="M9.28428 3.92095C6.6721 4.19671 4.35071 5.98161 3.45826 8.4133C3.1474 9.26564 3.01705 9.99766 3.01705 10.8951C3.01705 14.2594 5.31837 17.0721 8.65254 17.769C9.38957 17.9245 10.6079 17.9245 11.3449 17.769C12.0719 17.6136 12.3728 17.5083 13.1248 17.1373C13.897 16.7613 14.4786 16.3351 15.0602 15.7234C16.0228 14.7106 16.6445 13.4873 16.8952 12.1285C17.0105 11.5168 17.0105 10.2734 16.8952 9.66173C16.5793 7.93699 15.6067 6.35765 14.2078 5.29974C13.7616 4.9588 12.7037 4.40729 12.1722 4.2318C11.365 3.96607 10.1266 3.83571 9.28428 3.92095ZM10.4425 7.02448C10.7383 7.24007 10.7433 7.28019 10.7433 9.39099C10.7433 11.1308 10.7333 11.3363 10.653 11.4918C10.5227 11.7575 10.3372 11.8678 10.0213 11.8678C9.72549 11.8728 9.56004 11.7876 9.36951 11.5269C9.26924 11.3965 9.26423 11.3163 9.24918 9.5765C9.23916 8.57876 9.24918 7.66625 9.26423 7.55093C9.29932 7.30525 9.48985 7.05457 9.71547 6.95429C9.90599 6.86404 10.272 6.90415 10.4425 7.02448ZM10.3472 12.9558C10.5628 13.031 10.8335 13.2767 10.9238 13.4973C11.0792 13.8633 10.984 14.3496 10.7082 14.6254C10.1467 15.197 9.11381 14.846 9.00852 14.0538C8.90825 13.2917 9.61519 12.7151 10.3472 12.9558ZM1.9441 5.20448C1.71848 5.2847 1.6533 5.35489 1.31737 5.91644C0.891201 6.63842 0.510153 7.56597 0.289546 8.43837C-0.0965154 9.97259 -0.0965154 11.8127 0.289546 13.3519C0.605415 14.6053 1.41765 16.3 1.81374 16.5306C2.14966 16.7262 2.62096 16.6108 2.8165 16.295C2.97192 16.0443 2.95187 15.7886 2.74129 15.4075C1.95412 13.9485 1.63324 12.9357 1.51291 11.5319C1.3625 9.81717 1.7636 8.1576 2.7463 6.39275C2.95187 6.01672 2.97694 5.756 2.8165 5.49528C2.64101 5.2095 2.28002 5.08916 1.9441 5.20448ZM17.0857 5.98162C17.0256 5.62564 17.2712 5.26966 17.6373 5.18944C18.0584 5.08917 18.2389 5.20448 18.62 5.81115C19.0712 6.52812 19.4773 7.5008 19.718 8.44339C20.094 9.89739 20.094 11.8929 19.718 13.3469C19.4272 14.485 18.7654 15.944 18.3241 16.4253C17.8679 16.9167 16.9504 16.4504 17.0857 15.7936C17.1058 15.7084 17.2261 15.4426 17.3565 15.207C18.1487 13.7981 18.5147 12.4293 18.5147 10.8951C18.5147 9.3559 18.1286 7.93198 17.3465 6.56322C17.2211 6.34763 17.1058 6.08691 17.0857 5.98162Z" fill="currentColor"/>
</svg>
