<svg width="20" height="20" viewBox="0 0 20 20" fill="none" xmlns="http://www.w3.org/2000/svg">
<path fill-rule="evenodd" clip-rule="evenodd" d="M7.67438 13.8125C5.51887 13.8125 3.46869 13.8125 1.3125 13.8125C1.3125 10.7715 1.3125 7.79149 1.3125 4.75C3.46801 4.75 5.5182 4.75 7.67438 4.75C7.67438 7.79102 7.67438 10.7708 7.67438 13.8125Z" fill="#6AD09D"/>
<path fill-rule="evenodd" clip-rule="evenodd" d="M9.44681 15.1265C7.33088 15.1265 5.21485 15.129 3.09892 15.1257C1.10996 15.1227 0.0217923 14.0551 0.00830447 12.0788C-0.00306547 10.4084 -0.00239483 8.73769 0.00808335 7.0672C0.0203451 5.08504 1.10461 4.01136 3.08822 4.0098C7.32018 4.00656 11.5523 4.02808 15.784 4.0001C17.6955 3.9875 18.93 5.17165 18.892 6.92541C18.8858 7.20865 18.9638 7.36014 19.2594 7.4346C19.7242 7.55187 19.9805 7.88539 19.9892 8.36582C20.0036 9.16317 20.0031 9.96118 19.9906 10.7586C19.9832 11.238 19.7356 11.584 19.2692 11.6954C18.9325 11.7759 18.9038 11.968 18.8891 12.2543C18.7937 14.1183 17.73 15.1205 15.8505 15.1251C13.7159 15.1305 11.5813 15.1265 9.44681 15.1265ZM9.44781 13.4837C11.5823 13.4837 13.717 13.4859 15.8515 13.4829C16.8714 13.4815 17.2712 13.1 17.2795 12.0769C17.2927 10.4065 17.2923 8.73579 17.2797 7.0653C17.272 6.03833 16.8741 5.65309 15.8585 5.65253C11.5893 5.6503 7.32007 5.65041 3.05088 5.65253C2.03071 5.65298 1.63131 6.03498 1.62317 7.0585C1.60979 8.72888 1.61035 10.3996 1.62295 12.0701C1.63064 13.0973 2.02825 13.4813 3.04408 13.4829C5.17862 13.486 7.31316 13.4837 9.44781 13.4837Z" fill="currentColor"/>
</svg>
