<svg width="20" height="20" viewBox="0 0 20 20" fill="none" xmlns="http://www.w3.org/2000/svg">
<path fill-rule="evenodd" clip-rule="evenodd" d="M4.70514 13.875C3.8673 13.875 3.06044 13.875 2.23751 13.875C1.79569 13.875 1.4375 13.5168 1.4375 13.075C1.4375 10.7858 1.4375 8.52696 1.4375 6.2375C1.4375 5.79568 1.79569 5.4375 2.23751 5.4375C3.06024 5.4375 3.8671 5.4375 4.70514 5.4375C4.70514 8.2688 4.70514 11.0431 4.70514 13.875Z" fill="#6AD09D"/>
<path fill-rule="evenodd" clip-rule="evenodd" d="M9.44668 15.1265C7.33076 15.1265 5.21473 15.129 3.0988 15.1257C1.10984 15.1227 0.0216703 14.0551 0.0081824 12.0788C-0.00318754 10.4084 -0.0025169 8.73769 0.00796128 7.0672C0.020223 5.08504 1.10449 4.01136 3.0881 4.0098C7.32006 4.00656 11.5521 4.02808 15.7839 4.0001C17.6954 3.9875 18.9299 5.17165 18.8919 6.92541C18.8856 7.20865 18.9637 7.36014 19.2593 7.4346C19.7241 7.55187 19.9804 7.88539 19.9891 8.36582C20.0035 9.16317 20.003 9.96118 19.9905 10.7586C19.9831 11.238 19.7355 11.584 19.2691 11.6954C18.9323 11.7759 18.9037 11.968 18.889 12.2543C18.7936 14.1183 17.7299 15.1205 15.8504 15.1251C13.7158 15.1305 11.5812 15.1265 9.44668 15.1265ZM9.44769 13.4837C11.5822 13.4837 13.7169 13.4859 15.8514 13.4829C16.8713 13.4815 17.2711 13.1 17.2793 12.0769C17.2926 10.4065 17.2922 8.73579 17.2796 7.0653C17.2719 6.03833 16.8739 5.65309 15.8583 5.65253C11.5891 5.6503 7.31995 5.65041 3.05076 5.65253C2.03058 5.65298 1.63119 6.03498 1.62305 7.0585C1.60967 8.72888 1.61023 10.3996 1.62283 12.0701C1.63052 13.0973 2.02813 13.4813 3.04396 13.4829C5.1785 13.486 7.31304 13.4837 9.44769 13.4837Z" fill="currentColor"/>
</svg>
