<svg width="12" height="12" viewBox="0 0 12 12" fill="none" xmlns="http://www.w3.org/2000/svg">
<path fill-rule="evenodd" clip-rule="evenodd" d="M4.48228 9.01089C4.48228 9.3093 4.4895 9.57017 4.4807 9.83052C4.46498 10.2953 4.27643 10.4781 3.80409 10.4904C3.54453 10.4971 3.28458 10.4916 2.97709 10.4916C2.97709 10.8053 2.98536 11.0777 2.97521 11.3495C2.95911 11.7799 2.77681 11.9789 2.35736 11.9893C1.78112 12.0037 1.2039 12.0035 0.62766 11.9892C0.221003 11.9791 0.0256866 11.7863 0.0158306 11.3844C0.00146028 10.7967 -0.0152411 10.2065 0.0260641 9.62139C0.0408858 9.41165 0.179321 9.17278 0.332353 9.01667C1.44571 7.88105 2.57412 6.75992 3.70636 5.64292C3.88369 5.46796 3.94163 5.3168 3.88475 5.05653C3.32709 2.50842 5.07778 0.195804 7.68851 0.0091994C9.78115 -0.140309 11.7743 1.5522 11.9795 3.65343C12.1962 5.87023 10.6707 7.89569 8.54049 8.15618C8.00488 8.22174 7.44955 8.11481 6.90326 8.11451C6.73774 8.11436 6.57041 8.20162 6.40752 8.25891C6.36494 8.27385 6.33071 8.32304 6.30099 8.36269C5.92315 8.86513 5.43147 9.09116 4.79918 8.99256C4.71537 8.9795 4.62621 9.00142 4.48228 9.01089ZM9.77596 3.19664C9.78589 2.66807 9.3672 2.23951 8.8367 2.23523C8.31967 2.23103 7.90527 2.62714 7.88473 3.14498C7.86374 3.6731 8.27325 4.10999 8.80345 4.12501C9.33169 4.14003 9.76603 3.72544 9.77596 3.19664Z" fill="currentColor"/>
</svg>
