<svg width="12" height="12" viewBox="0 0 12 12" fill="none" xmlns="http://www.w3.org/2000/svg">
<path fill-rule="evenodd" clip-rule="evenodd" d="M3.57904 1.27955C3.18355 1.37107 2.92534 1.55411 2.77825 1.84174C2.65732 2.08361 2.61483 2.34182 2.61483 2.8321V3.21779H1.95131C1.21916 3.21779 0.983828 3.24721 0.738688 3.37141C0.500086 3.49235 0.251677 3.74403 0.153621 3.96302C0.0228796 4.25065 0 4.49579 0 5.52864V6.48633H3.67383H7.35093L7.61241 6.22484C8.29227 5.54499 9.30878 5.13969 10.2174 5.18545L10.4593 5.19526V4.80303C10.4593 4.19835 10.3678 3.92053 10.0704 3.62309C9.87097 3.42371 9.62256 3.29297 9.36108 3.25048C9.25649 3.23086 8.8708 3.21779 8.51126 3.21779H7.85102L7.84121 2.66868L7.84115 2.66619C7.82814 2.12609 7.82797 2.11923 7.72028 1.90384C7.583 1.62602 7.45879 1.50181 7.19077 1.37434L6.97832 1.27301L5.31137 1.26648C4.39618 1.26648 3.615 1.26974 3.57904 1.27955ZM6.81162 2.28953C6.85411 2.32875 6.86392 2.42354 6.86392 2.77981V3.21779H5.22965H3.59539V2.79942C3.59539 2.47584 3.60519 2.36797 3.64768 2.30914L3.69671 2.23723H5.22965C6.57956 2.23723 6.76586 2.24377 6.81162 2.28953ZM0 8.09264C0 8.82152 0.0163427 9.4687 0.0359538 9.58963C0.127473 10.1682 0.536039 10.5963 1.09169 10.6977C1.22243 10.7205 2.27817 10.7336 4.32427 10.7336H7.36401L7.27576 10.6258C7.1254 10.4394 6.8966 10.0374 6.79528 9.77267C6.63839 9.36737 6.56648 8.97514 6.55995 8.52082L6.55341 8.11879H5.49114C4.45174 8.11879 4.42233 8.11552 4.28178 8.04361C4.1968 8.00112 4.09547 7.91287 4.03664 7.83116C3.94185 7.69388 3.93858 7.67754 3.92878 7.24936L3.9157 6.81138H1.95785H0V8.09264ZM9.682 10.7336C10.9622 10.7336 12 9.69582 12 8.41561C12 7.13542 10.9622 6.09762 9.682 6.09762C8.40181 6.09762 7.36401 7.13542 7.36401 8.41561C7.36401 9.69582 8.40181 10.7336 9.682 10.7336ZM9.682 9.34282C9.16992 9.34282 8.7548 8.9277 8.7548 8.41561C8.7548 7.90354 9.16992 7.48842 9.682 7.48842C10.1941 7.48842 10.6092 7.90354 10.6092 8.41561C10.6092 8.9277 10.1941 9.34282 9.682 9.34282Z" fill="currentColor"/>
</svg>
