<svg width="12" height="12" viewBox="0 0 12 12" fill="none" xmlns="http://www.w3.org/2000/svg">
<path fill-rule="evenodd" clip-rule="evenodd" d="M6.54021 3.38127C6.54021 3.09957 6.54021 2.87805 6.54021 2.61106C6.05373 2.61106 5.5827 2.61428 5.11174 2.60911C4.97592 2.60753 4.80228 2.62907 4.71305 2.55695C4.55314 2.42781 4.36884 2.25064 4.33237 2.06626C4.28457 1.82418 4.44794 1.60604 4.71861 1.54871C4.8873 1.51292 5.06462 1.50744 5.23811 1.50699C6.50119 1.50376 7.76428 1.50526 9.02736 1.50541C9.12731 1.50541 9.22801 1.49978 9.32729 1.50871C9.65447 1.53813 9.86976 1.70479 9.90112 2.04195C9.92889 2.34046 9.67923 2.59305 9.32309 2.60475C8.78767 2.62239 8.25129 2.60941 7.68908 2.60941C7.68908 2.86635 7.68908 3.09649 7.68908 3.38135C8.21744 3.38135 8.75106 3.40003 9.28264 3.37625C9.8519 3.35081 10.2983 3.5712 10.7654 3.88382C11.7079 4.51461 12.0916 5.33172 11.9818 6.46071C11.906 7.2412 11.9727 8.03506 11.9656 8.82291C11.956 9.89719 11.3584 10.4875 10.2826 10.4899C8.93205 10.4927 7.58125 10.4774 6.2309 10.4961C5.54945 10.5055 4.99161 10.2858 4.63006 9.70883C4.27835 9.14761 3.84304 8.90027 3.15529 8.97306C2.50994 9.0415 2.26201 8.73954 2.25285 8.0755C2.24737 7.67539 2.23792 7.27452 2.256 6.87516C2.26816 6.60569 2.16108 6.53027 1.90609 6.5368C0.916232 6.56209 1.10871 6.4102 1.08702 7.33838C1.08237 7.53836 1.08687 7.7385 1.0862 7.93863C1.08425 8.54421 0.925538 8.78493 0.533151 8.77841C0.155923 8.7721 0.00118881 8.5361 0.000663523 7.95589C-0.000537124 6.65529 0.000213976 5.35469 0.000439098 4.05408C0.000439098 3.96659 -0.00158841 3.87872 0.00509019 3.79167C0.0340558 3.41001 0.227285 3.21033 0.556638 3.21754C0.870157 3.22436 1.06391 3.41632 1.07772 3.78094C1.09483 4.23051 1.09498 4.68142 1.0826 5.13114C1.07599 5.37292 1.15756 5.46402 1.40497 5.45832C2.4364 5.43453 2.23785 5.58626 2.24843 4.64623C2.26126 3.50419 2.37449 3.3815 3.51916 3.3815C4.51697 3.38127 5.51456 3.38127 6.54021 3.38127Z" fill="currentColor"/>
</svg>
