<svg width="12" height="12" viewBox="0 0 12 12" fill="none" xmlns="http://www.w3.org/2000/svg">
<path fill-rule="evenodd" clip-rule="evenodd" d="M0.14045 4.71451C0.685939 2.16388 2.84156 0.267836 5.47871 0.0195446C6.1822 -0.0481712 7.17161 0.0646885 7.845 0.286646C8.77421 0.595129 9.5379 1.06914 10.2414 1.76887C10.9336 2.45731 11.3813 3.17209 11.6822 4.06368C11.9456 4.83865 12.0509 5.75282 11.9719 6.53155C11.9079 7.12594 11.844 7.43819 11.686 7.9122C11.2684 9.1687 10.4897 10.1882 9.3498 10.982C8.74036 11.4033 7.89015 11.757 7.09637 11.9112C6.53959 12.0203 5.54267 12.0316 4.99342 11.93C4.18835 11.787 3.24785 11.3996 2.61208 10.9519C1.30667 10.0377 0.460219 8.77369 0.14045 7.28018C-0.0438871 6.41869 -0.0438871 5.57976 0.14045 4.71451ZM8.1121 1.6071C7.48761 1.32119 7.07003 1.20457 6.46059 1.14814C6.10696 1.11428 6.00163 1.11428 5.59533 1.13686C4.89184 1.17448 3.89115 1.52058 3.30052 1.9344C2.17945 2.71313 1.48724 3.72887 1.20509 5.0117C1.11481 5.42176 1.11481 6.58422 1.20133 6.97922C1.54743 8.51412 2.5105 9.73676 3.90244 10.4102C5.46743 11.1701 7.35594 11.0121 8.81183 9.99634C9.18427 9.73676 9.73352 9.18751 9.99686 8.81884C10.896 7.54728 11.1292 5.88449 10.6251 4.40226C10.2226 3.221 9.22941 2.11873 8.1121 1.6071ZM5.59028 2.43843C5.62382 2.40662 5.66608 2.38402 5.71949 2.35197C5.98283 2.19021 6.34774 2.29554 6.48317 2.57017C6.54712 2.69808 6.55465 2.83727 6.56593 4.21416L6.57722 5.71895L7.48762 6.32087C8.81184 7.19742 8.93599 7.33661 8.75165 7.72033C8.62374 7.98743 8.35664 8.1191 8.11963 8.03258C8.04816 8.00624 7.44248 7.61876 6.77284 7.17484C5.79849 6.52778 5.5502 6.34344 5.50129 6.24187C5.44862 6.12901 5.44486 5.90329 5.45239 4.37216C5.46138 2.83064 5.45843 2.56345 5.59028 2.43843Z" fill="currentColor"/>
</svg>
