<svg width="24" height="24" viewBox="0 0 24 24" fill="none" xmlns="http://www.w3.org/2000/svg">
<path d="M4.16926 0.158868C3.14087 0.364545 2.21532 0.895879 1.49545 1.68431C0.724156 2.5413 0.43278 3.08977 0.192823 4.23814C-0.0642742 5.45507 -0.0642742 18.4813 0.192823 19.7325C0.621318 21.7722 2.04392 23.2976 3.98072 23.7775C5.24906 24.1032 19.2009 24.0517 20.2807 23.7261C21.3433 23.4004 22.4574 22.6291 23.023 21.8064C23.9657 20.4524 24 20.0925 24 12.1053C24 7.11763 23.9314 4.51238 23.7943 3.9639C23.5372 2.86696 22.6117 1.46149 21.8232 0.947298C20.4692 0.0560288 19.7493 -0.0125304 12.0021 0.00460941C8.09427 0.0217492 4.56347 0.0903084 4.16926 0.158868ZM13.1505 5.5579C13.6133 5.86642 13.9389 7.28902 13.8875 8.78019C13.8704 9.36294 13.8532 9.94569 13.8704 10.0485C13.8875 10.2199 14.3503 10.2713 15.6186 10.2713C16.8184 10.2713 17.5212 10.357 17.9154 10.5284C18.9095 11.0084 19.1666 12.2938 18.4467 13.1337C18.0354 13.5965 17.9668 13.6136 15.91 13.6993L13.8018 13.785L13.8532 14.7791C14.0246 17.4701 13.4419 18.8412 12.1393 18.8412C10.6995 18.8412 10.4081 18.3613 10.2882 15.7561L10.2025 13.785L8.12855 13.6993C5.81468 13.5965 5.59186 13.5108 5.30048 12.4995C5.14622 12.0025 5.16336 11.7454 5.33476 11.3683C5.72898 10.5456 6.53455 10.2713 8.52276 10.2713H10.2539L10.3224 8.23171C10.3739 6.34634 10.4081 6.14066 10.7852 5.74644C11.4022 5.09513 12.3107 5.02657 13.1505 5.5579Z" fill="currentColor"/>
</svg>
