<svg width="20" height="20" viewBox="0 0 20 20" fill="none" xmlns="http://www.w3.org/2000/svg">
<path fill-rule="evenodd" clip-rule="evenodd" d="M12.9402 5.8853C13.3225 5.88512 13.7079 5.88494 14.0973 5.88494L14.0974 6.43456C14.0974 6.77429 14.0971 7.11401 14.0969 7.45373C14.0962 8.50565 14.0955 9.55756 14.1016 10.6094C14.1027 10.8173 14.123 11.039 14.1973 11.2299C14.435 11.8402 15.2838 11.9613 15.6862 11.4443C15.8134 11.2806 15.897 11.0781 15.977 10.8836C17.0349 8.31323 18.0895 5.74147 19.1427 3.16916C19.4118 2.51214 19.6773 1.85357 19.9369 1.19282C20.0731 0.845723 19.9819 0.529341 19.7301 0.274927C19.4785 0.0206039 19.1652 -0.0682596 18.8124 0.0547678C18.7124 0.0896588 18.6128 0.125732 18.5148 0.165711L18.512 0.166836C15.3322 1.46361 12.1523 2.76038 8.97367 4.06015C8.5886 4.21778 8.15166 4.60023 8.23666 5.0839C8.3379 5.65971 8.89254 5.87891 9.39341 5.8813C10.5657 5.88641 11.7379 5.88586 12.9402 5.8853ZM1.88391 8.99757C4.3958 6.49188 8.51787 6.49188 11.0298 8.99757C13.5416 11.5032 13.4772 15.6151 10.9653 18.1208C8.45346 20.6265 4.3958 20.6265 1.88391 18.1208C-0.627971 15.6151 -0.627971 11.5032 1.88391 8.99757ZM4.65343 16.2576L6.45683 14.4587L8.26024 16.2576L9.16194 15.3581L7.35854 13.5592L9.16194 11.7602L8.26024 10.8608L6.45683 12.6597L4.65343 10.8608L3.75173 11.7602L5.55513 13.5592L3.75173 15.3581L4.65343 16.2576Z" fill="currentColor"/>
</svg>
