<svg width="16" height="16" viewBox="0 0 16 16" fill="none" xmlns="http://www.w3.org/2000/svg">
<path fill-rule="evenodd" clip-rule="evenodd" d="M12.1077 14.9219C11.8415 14.4674 11.5805 14.0217 11.3169 13.5715C13.3644 12.2163 14.4646 10.3372 14.4264 7.86643C14.3987 6.07534 13.698 4.54984 12.3899 3.32773C9.69881 0.813646 5.4663 1.07074 3.0892 3.86633C0.569527 6.82956 1.22241 11.49 4.68621 13.5639C4.42377 14.013 4.1612 14.4623 3.89879 14.9112C1.62529 13.6505 -0.369365 10.6437 0.0581627 7.09067C0.531293 3.15897 3.71209 0.328819 7.35529 0.0268537C11.1567 -0.28824 14.6987 2.19959 15.7111 5.91043C16.7301 9.64553 14.9415 13.2592 12.1077 14.9219ZM5.9113 11.5484L5.9095 11.5515L5.90291 11.5628C5.78688 11.7623 5.67087 11.9617 5.55491 12.161C4.15267 11.4071 2.87113 9.48691 3.26901 7.19668C3.65708 4.96295 5.59028 3.27969 7.84312 3.21034C10.1708 3.13866 12.1823 4.65952 12.7214 6.92879C13.2581 9.18791 12.0791 11.2627 10.4501 12.1696C10.1878 11.7193 9.9252 11.2686 9.65501 10.8047C10.6772 10.1273 11.2311 9.18854 11.2139 7.9548C11.2012 7.04919 10.841 6.2838 10.1822 5.66416C8.88439 4.44366 6.81351 4.54642 5.59433 5.89C4.32865 7.28488 4.51762 9.71167 6.34097 10.8099C6.19775 11.056 6.05451 11.3022 5.9113 11.5484ZM8.01353 9.60227C8.89097 9.60227 9.60227 8.89097 9.60227 8.01353C9.60227 7.13609 8.89097 6.42479 8.01353 6.42479C7.1361 6.42479 6.42479 7.13609 6.42479 8.01353C6.42479 8.89097 7.1361 9.60227 8.01353 9.60227Z" fill="currentColor"/>
</svg>
