<svg width="24" height="24" viewBox="0 0 24 24" fill="none" xmlns="http://www.w3.org/2000/svg">
<path fill-rule="evenodd" clip-rule="evenodd" d="M5.64676 16.9375C4.55712 16.9375 3.50817 16.9375 2.43753 16.9375C1.88524 16.9375 1.4375 16.4898 1.4375 15.9375C1.4375 13.1756 1.4375 10.4498 1.4375 7.68752C1.4375 7.13523 1.88524 6.6875 2.43753 6.6875C3.5079 6.6875 4.55686 6.6875 5.64676 6.6875C5.64676 10.127 5.64676 13.4972 5.64676 16.9375Z" fill="#6AD09D"/>
<path fill-rule="evenodd" clip-rule="evenodd" d="M11.336 18.3518C8.79694 18.3518 6.2577 18.3548 3.71859 18.3508C1.33183 18.3472 0.0260287 17.0662 0.0098433 14.6945C-0.00380064 12.6901 -0.00299586 10.6852 0.00957796 8.68063C0.024292 6.30204 1.32541 5.01363 3.70574 5.01176C8.7841 5.00788 13.8626 5.03369 18.9407 5.00012C21.2345 4.985 22.7159 6.40598 22.6703 8.51049C22.6628 8.85038 22.7564 9.03217 23.1112 9.12152C23.669 9.26224 23.9765 9.66247 23.9869 10.239C24.0042 11.1958 24.0036 12.1534 23.9887 13.1104C23.9797 13.6855 23.6826 14.1008 23.1229 14.2345C22.7188 14.3311 22.6845 14.5616 22.6668 14.9052C22.5523 17.142 21.2759 18.3446 19.0205 18.3502C16.4589 18.3566 13.8975 18.3518 11.336 18.3518ZM11.3372 16.3805C13.8987 16.3805 16.4603 16.383 19.0217 16.3794C20.2455 16.3778 20.7253 15.9199 20.7352 14.6923C20.7512 12.6878 20.7506 10.6829 20.7355 8.67836C20.7263 7.44599 20.2487 6.98371 19.03 6.98304C13.907 6.98036 8.78396 6.9805 3.66093 6.98304C2.43673 6.98357 1.95745 7.44198 1.94768 8.6702C1.93163 10.6747 1.9323 12.6795 1.94742 14.6841C1.95665 15.9167 2.43378 16.3776 3.65277 16.3794C6.21422 16.3832 8.77567 16.3805 11.3372 16.3805Z" fill="currentColor"/>
</svg>
