<svg width="20" height="20" viewBox="0 0 20 20" fill="none" xmlns="http://www.w3.org/2000/svg">
<path fill-rule="evenodd" clip-rule="evenodd" d="M1.77973 2.30041C0.868331 2.50048 0.218125 3.21181 0.0625198 4.16767C-0.0208399 4.65672 -0.0208399 15.3379 0.0625198 15.838C0.218125 16.8384 0.918347 17.5608 1.89088 17.7275C2.14651 17.772 4.56395 17.7831 10.2546 17.772C10.8861 17.7708 11.469 17.7699 12.0072 17.769C17.9366 17.7596 18.4449 17.7588 18.8034 17.5266C18.837 17.5049 18.8693 17.4811 18.9046 17.455C18.9414 17.4279 18.9814 17.3984 19.0296 17.3663C19.3909 17.1273 19.6854 16.7606 19.8521 16.3438L19.9799 16.0326L19.9966 10.1696C20.0077 6.25723 19.9911 4.21769 19.9522 4.02874C19.7688 3.13401 19.0296 2.42268 18.1405 2.27818C17.6236 2.19482 2.16874 2.2115 1.77973 2.30041ZM18.1794 4.05097C18.3405 4.21213 18.3405 4.21769 18.3405 4.88457V5.557H10.0046H1.66858V4.97904C1.66858 4.66783 1.69637 4.32884 1.72972 4.2288C1.73728 4.20776 1.74245 4.18805 1.74729 4.16957C1.75354 4.14574 1.75925 4.12397 1.76885 4.10407C1.87034 3.89381 2.40689 3.89356 8.61507 3.89058C9.06289 3.89036 9.54022 3.89013 10.049 3.88981H18.0182L18.1794 4.05097ZM18.3405 12.3425V15.7936L18.1794 15.9548L18.0182 16.1159H10.0601C9.55089 16.1159 9.07314 16.116 8.62491 16.1161C2.41633 16.117 1.87242 16.1171 1.76933 15.904C1.75943 15.8835 1.75359 15.8611 1.7472 15.8365C1.74236 15.8179 1.7372 15.7981 1.72972 15.7769C1.68526 15.6547 1.66858 14.5543 1.66858 12.248V8.8914H10.0046H18.3405V12.3425ZM3.83594 12.9038C3.54696 13.0538 3.37468 13.315 3.37468 13.6151C3.37468 13.9152 3.54696 14.1764 3.83594 14.3265C4.0749 14.4487 4.13603 14.4543 5.08633 14.4376C5.92549 14.4209 6.11444 14.4043 6.27004 14.3209C6.47011 14.2097 6.67017 13.8596 6.67017 13.6151C6.67017 13.3706 6.47011 13.0205 6.27004 12.9093C6.11444 12.826 5.92549 12.8093 5.08633 12.7926C4.13603 12.776 4.0749 12.7815 3.83594 12.9038ZM7.82053 13.6151C7.82053 13.315 7.99281 13.0538 8.28179 12.9038C8.53187 12.776 8.53743 12.776 10.6437 12.7926C13.0333 12.8092 13.0334 12.8093 13.2306 13.2368L13.2334 13.2428C13.3612 13.5373 13.3612 13.6929 13.2334 13.9875L13.2306 13.9934C13.0334 14.4209 13.0333 14.421 10.6437 14.4376C8.53743 14.4543 8.53187 14.4543 8.28179 14.3265C7.99281 14.1764 7.82053 13.9152 7.82053 13.6151Z" fill="currentColor"/>
</svg>
