<svg width="24" height="24" viewBox="0 0 24 24" fill="none" xmlns="http://www.w3.org/2000/svg">
<path fill-rule="evenodd" clip-rule="evenodd" d="M16.1643 16.6875C11.1958 16.6875 6.47008 16.6875 1.5 16.6875C1.5 13.269 1.5 9.91905 1.5 6.5C6.46852 6.5 11.1943 6.5 16.1643 6.5C16.1643 9.91853 16.1643 13.2682 16.1643 16.6875Z" fill="#6AD09D"/>
<path fill-rule="evenodd" clip-rule="evenodd" d="M11.3362 18.3518C8.79706 18.3518 6.25782 18.3548 3.71871 18.3508C1.33196 18.3472 0.0261508 17.0662 0.00996537 14.6945C-0.00367856 12.6901 -0.00287379 10.6852 0.00970003 8.68063C0.0244141 6.30204 1.32554 5.01363 3.70587 5.01176C8.78422 5.00788 13.8627 5.03369 18.9408 5.00012C21.2346 4.985 22.716 6.40598 22.6704 8.51049C22.6629 8.85038 22.7565 9.03217 23.1113 9.12152C23.6691 9.26224 23.9766 9.66247 23.987 10.239C24.0043 11.1958 24.0038 12.1534 23.9888 13.1104C23.9798 13.6855 23.6827 14.1008 23.1231 14.2345C22.719 14.3311 22.6846 14.5616 22.6669 14.9052C22.5524 17.142 21.276 18.3446 19.0206 18.3502C16.4591 18.3566 13.8976 18.3518 11.3362 18.3518ZM11.3374 16.3805C13.8988 16.3805 16.4604 16.383 19.0218 16.3794C20.2457 16.3778 20.7255 15.9199 20.7354 14.6923C20.7513 12.6878 20.7507 10.6829 20.7356 8.67836C20.7264 7.44599 20.2489 6.98371 19.0301 6.98304C13.9071 6.98036 8.78408 6.9805 3.66106 6.98304C2.43685 6.98357 1.95757 7.44198 1.9478 8.6702C1.93175 10.6747 1.93242 12.6795 1.94754 14.6841C1.95677 15.9167 2.4339 16.3776 3.6529 16.3794C6.21434 16.3832 8.77579 16.3805 11.3374 16.3805Z" fill="currentColor"/>
</svg>
