<svg width="20" height="20" viewBox="0 0 20 20" fill="none" xmlns="http://www.w3.org/2000/svg">
<path fill-rule="evenodd" clip-rule="evenodd" d="M1.00026 9.997C1.00026 7.27958 0.999601 4.56216 1.00067 1.84473C1.00091 1.18712 1.18803 1.00158 1.84371 1.00142C4.41336 1.00093 6.98293 0.997866 9.55251 1.00263C10.5393 1.00441 11.407 1.34181 12.1051 2.0226C14.2502 4.1147 16.3796 6.22255 18.5142 8.32523C18.9589 8.76323 19.0974 9.29377 18.9334 9.88235C18.2159 12.456 17.4934 15.0284 16.76 17.5977C16.518 18.4455 15.7705 18.9953 14.8729 18.9964C10.4991 19.0018 6.12521 19 1.75143 18.9982C1.20911 18.998 1.00157 18.7844 1.00116 18.2299C0.999192 15.4857 1.00034 12.7414 1.00026 9.997ZM9.08214 8.86012C10.7486 8.86012 12.4151 8.85697 14.0816 8.8627C14.4216 8.86391 14.7126 8.79779 14.8503 8.45594C14.98 8.13347 14.8306 7.89481 14.5995 7.66906C13.4559 6.55107 12.3235 5.4221 11.1785 4.30541C10.5988 3.73983 9.89671 3.34244 9.08279 3.31466C7.36389 3.25596 5.64229 3.26372 3.92175 3.26622C3.51101 3.26687 3.30306 3.53403 3.30191 3.96429C3.29822 5.34936 3.29855 6.73443 3.3015 8.1195C3.30265 8.64955 3.52914 8.85883 4.0836 8.85891C5.74975 8.85907 7.4159 8.85899 9.08214 8.86012ZM5.00916 11.9181C5.00916 11.9175 5.00916 11.917 5.00916 11.9164C5.37732 11.9164 5.74614 11.9303 6.11348 11.9126C6.49304 11.8942 6.73865 11.6412 6.74348 11.3035C6.74841 10.9592 6.52331 10.7091 6.12783 10.6951C5.39414 10.6692 4.65913 10.6629 3.92503 10.6736C3.56081 10.6788 3.30437 10.9598 3.30183 11.2883C3.29896 11.6605 3.52857 11.8962 3.9457 11.9148C4.2995 11.9306 4.65462 11.9181 5.00916 11.9181Z" fill="currentColor"/>
</svg>
