<svg width="12" height="12" viewBox="0 0 12 12" fill="none" xmlns="http://www.w3.org/2000/svg">
<path fill-rule="evenodd" clip-rule="evenodd" d="M6.66887 3.01195V2.32391C6.89627 2.32391 7.08534 2.33047 7.27384 2.3227C7.73306 2.30356 7.98563 2.06062 7.9804 1.65207C7.9756 1.26139 7.72597 1.02166 7.28368 1.00633C7.03431 0.997729 6.78462 0.999739 6.53489 1.00175C6.43882 1.00252 6.34275 1.00329 6.24672 1.00346C5.54725 1.00453 5.35038 1.19779 5.34917 1.89467C5.34887 2.06752 5.34877 2.24038 5.34877 2.41325C5.34881 2.60138 5.34894 2.78953 5.34907 2.97768V2.98476C5.34969 3.83687 5.35031 4.689 5.3392 5.54092C5.33743 5.67487 5.24166 5.85823 5.13147 5.93193C4.47897 6.36833 4.20061 7.07157 4.41684 7.82119C4.62558 8.54498 5.25925 9.02134 6.00673 9.01639C6.74712 9.01151 7.36716 8.54685 7.57675 7.83973C7.80327 7.07565 7.53135 6.36853 6.85316 5.92919C6.77049 5.87563 6.66606 5.77595 6.6625 5.69382C6.64864 5.36634 6.65044 5.03821 6.6523 4.69688C6.65295 4.57721 6.65361 4.45591 6.65361 4.33246C6.72784 4.33246 6.79776 4.33302 6.86476 4.33356C7.00378 4.33467 7.13028 4.33568 7.25655 4.33139C7.72355 4.3156 7.97802 4.08317 7.98034 3.6775C7.98282 3.26961 7.72986 3.03083 7.26727 3.01322C7.13365 3.00809 6.99973 3.00938 6.86218 3.01072C6.79864 3.01133 6.73431 3.01195 6.66887 3.01195ZM11.2016 11.6566C11.6232 11.7728 11.9875 11.4652 11.9926 10.8789C11.9912 10.6984 11.7985 10.5159 11.5012 10.3983C11.4653 10.3841 11.429 10.3703 11.3924 10.3567C11.3636 10.346 11.3346 10.3353 11.3056 10.3247L11.3051 10.3245C11.075 10.2401 10.8421 10.1547 10.6591 10.0094C10.2231 9.66368 9.8481 9.67982 9.38421 9.96332C8.58295 10.4531 7.69243 10.5736 6.87392 10.0833C6.24332 9.70558 5.76406 9.72292 5.13667 10.087C4.28965 10.5786 3.39373 10.4315 2.56172 9.94089C2.25002 9.75706 1.95299 9.63871 1.59458 9.84362C1.22044 10.0575 0.829702 10.2439 0.438602 10.4261C0.0907803 10.5881 -0.0737659 10.8938 0.0314534 11.234C0.133633 11.5642 0.467334 11.7581 0.82931 11.6489C1.02638 11.5895 1.21757 11.5109 1.40888 11.4323C1.5566 11.3716 1.70437 11.3108 1.85499 11.2589C1.96505 11.2208 2.11888 11.2016 2.2154 11.2493C3.40975 11.8391 4.59364 11.8118 5.78642 11.2433C5.90409 11.1872 6.09495 11.187 6.2125 11.2433C7.40511 11.8139 8.58953 11.8336 9.78626 11.2569C9.89083 11.2065 10.0552 11.2299 10.1745 11.2703C10.3211 11.3199 10.4646 11.3794 10.6081 11.4389C10.8037 11.5199 10.999 11.6009 11.2016 11.6566ZM8.01884 8.75526C8.05274 8.62218 8.08405 8.49639 8.11403 8.37604C8.19251 8.06076 8.26174 7.78274 8.34385 7.50857C8.36908 7.42423 8.46898 7.34015 8.55504 7.30018C8.69229 7.23629 8.83294 7.17909 8.9735 7.12193C9.18243 7.03696 9.39117 6.95206 9.58831 6.84537C9.91184 6.67032 10.18 6.68337 10.49 6.88152C10.7958 7.07699 11.1321 7.23103 11.4688 7.36987C11.8821 7.54024 12.0818 7.85153 11.9687 8.22038C11.8573 8.58348 11.5103 8.74534 11.0731 8.61521L11.0309 8.60271L11.0034 8.59461C10.7696 8.52578 10.5284 8.45477 10.3302 8.32494C10.0662 8.1519 9.86889 8.21269 9.59972 8.31216C9.24438 8.44344 8.87492 8.5365 8.49839 8.63133C8.39288 8.65791 8.28681 8.68463 8.18035 8.71237C8.12661 8.72637 8.07278 8.74063 8.01884 8.75526ZM2.24381 8.25311C2.7968 8.51533 3.3733 8.65349 3.96089 8.67719C3.93343 8.56942 3.90682 8.46296 3.88051 8.35757C3.80814 8.06794 3.73776 7.78634 3.65722 7.5077C3.63428 7.42851 3.55354 7.34202 3.47728 7.30641C3.3062 7.22652 3.1324 7.15239 2.95864 7.07828C2.75555 6.99166 2.5525 6.90506 2.35386 6.80929C2.10214 6.68798 1.87794 6.6746 1.6257 6.81297C1.22812 7.03121 0.818719 7.22855 0.409544 7.42496C0.0844717 7.581 -0.0698762 7.89055 0.0308651 8.21991C0.128207 8.53802 0.457136 8.74333 0.795806 8.6458C0.989149 8.59006 1.17681 8.515 1.36456 8.4399C1.51753 8.37873 1.67057 8.31752 1.82682 8.2667C1.95587 8.22466 2.13081 8.19949 2.24381 8.25311Z" fill="currentColor"/>
</svg>
