<svg width="24" height="24" viewBox="0 0 24 24" fill="none" xmlns="http://www.w3.org/2000/svg">
<path fill-rule="evenodd" clip-rule="evenodd" d="M14.9544 11.8864C15.7469 12.0852 16.4415 12.1555 17.0415 12.4309C18.493 13.0971 19.327 14.2547 19.4409 15.8757C19.4878 16.5473 19.4782 17.2252 19.5661 17.8911C19.642 18.4661 20.0778 18.7538 20.6299 18.76C21.1827 18.766 21.5856 18.481 21.7202 17.9145C21.7717 17.6975 21.8062 17.4708 21.8069 17.2483C21.8134 15.1475 21.8289 13.046 21.7877 10.9456C21.7826 10.6841 21.5204 10.3207 21.2768 10.1886C20.19 9.59912 19.564 8.7568 19.5588 7.49903C19.5579 7.27396 19.532 7.04634 19.5565 6.82427C19.7209 5.34143 19.5065 4.03817 18.1596 3.07979C17.6111 2.68926 17.64 1.94949 18.0252 1.5471C18.4611 1.09156 19.0586 1.10462 19.6234 1.6549C20.8254 2.82574 22.0595 3.973 23.158 5.23588C23.5971 5.74052 23.9265 6.51993 23.941 7.18207C24.0172 10.6821 24.0143 14.185 23.9624 17.6857C23.9341 19.6027 22.496 20.9682 20.667 20.9881C18.8255 21.0081 17.4071 19.6095 17.3062 17.6616C17.2777 17.1129 17.3179 16.5582 17.2603 16.0132C17.1353 14.8302 16.2915 14.1835 15.0226 14.2987C15.0011 14.4766 14.9583 14.6659 14.9579 14.8557C14.9526 16.7066 14.9633 18.5576 14.9476 20.4083C14.9445 20.8083 15.0306 21.0255 15.4647 21.1581C16.2216 21.3895 16.5064 21.9252 16.4246 22.7234C16.3496 23.4552 15.8938 23.8218 15.2137 23.957C15.0192 23.9957 14.815 23.9974 14.615 23.9975C10.351 23.9996 6.08677 24.002 1.82272 23.9972C0.569213 23.9957 -0.0412071 23.4549 0.00215764 22.4235C0.0279055 21.8078 0.311584 21.32 0.901827 21.1826C1.47972 21.048 1.48981 20.7104 1.48921 20.2577C1.48153 14.7051 1.48123 9.15228 1.48981 3.59959C1.49056 3.12843 1.50366 2.64031 1.62337 2.18972C1.96818 0.891411 3.09732 0.0412857 4.53799 0.0246195C6.99578 -0.0037581 9.45477 -0.0132174 11.9121 0.0268716C13.7492 0.0567506 14.9303 1.32293 14.9473 3.23609C14.9708 5.83721 14.9538 8.43849 14.9543 11.0399C14.9544 11.3359 14.9544 11.6319 14.9544 11.8864ZM8.23649 2.97919C7.30867 2.97919 6.38039 2.9948 5.45317 2.97378C4.80495 2.95892 4.4353 3.23864 4.42777 3.88412C4.41121 5.309 4.41106 6.73449 4.43274 8.15952C4.44133 8.71807 4.75271 9.02616 5.3437 9.02481C7.24949 9.01986 9.15543 9.01701 11.0612 9.02676C11.6908 9.02992 12.0034 8.71145 12.0113 8.11883C12.0299 6.71887 12.029 5.31831 12.0151 3.91805C12.0089 3.28729 11.684 2.96162 11.0201 2.97468C10.0924 2.99285 9.16432 2.97919 8.23649 2.97919Z" fill="currentColor"/>
</svg>
