<svg width="20" height="20" viewBox="0 0 20 20" fill="none" xmlns="http://www.w3.org/2000/svg">
<path d="M9.34634 0.0588234C7.989 0.208945 6.5128 1.00959 5.68714 2.04167C4.73637 3.24264 4.37358 4.49991 4.37358 6.60786V7.48982H3.97951C2.63468 7.48982 1.60259 8.29047 1.33988 9.53522C1.20852 10.1607 1.20852 17.329 1.33988 17.9545C1.56506 19.0116 2.3532 19.7622 3.41656 19.9374C3.94198 20.0249 16.1956 20.0187 16.6585 19.9311C17.7031 19.7372 18.5037 18.9553 18.6976 17.942C18.779 17.4916 18.779 9.99809 18.6976 9.54773C18.4662 8.30923 17.4654 7.54612 15.9767 7.47106L15.6639 7.45855L15.6264 6.1012C15.5826 4.81891 15.5701 4.70632 15.3825 4.07456C14.9384 2.58586 14.0689 1.47246 12.7553 0.728114C12.1674 0.396596 11.5231 0.190179 10.7225 0.0775886C10.0281 -0.0224922 10.0469 -0.0224922 9.34634 0.0588234ZM10.9914 2.64216C12.0485 3.00495 12.7241 3.71803 13.0306 4.81266C13.1056 5.07537 13.1306 5.45067 13.1306 6.32638V7.48982L10.0219 7.47731L6.90687 7.45855L6.91313 6.23881C6.91938 5.16294 6.93189 4.96904 7.05074 4.61875C7.44481 3.44906 8.27673 2.75475 9.56527 2.52331C9.83423 2.47327 10.7099 2.54833 10.9914 2.64216Z" fill="currentColor"/>
</svg>
