<svg width="20" height="20" viewBox="0 0 20 20" fill="none" xmlns="http://www.w3.org/2000/svg">
<path fill-rule="evenodd" clip-rule="evenodd" d="M9.1454 0C8.93784 0 8.76956 0.169274 8.76956 0.378052V10.2074C8.76956 10.4162 8.93784 10.5855 9.1454 10.5855H10.774C10.9816 10.5855 11.1499 10.4162 11.1499 10.2074V0.378052C11.1499 0.169274 10.9816 0 10.774 0H9.1454ZM7.24803 0.729399C7.18986 0.533666 6.98707 0.419063 6.79322 0.480072C2.36653 1.87349 -0.621274 6.80776 0.110155 11.3708C0.970046 16.7337 5.49981 20.1858 10.3661 19.9923C15.9392 19.7706 19.9424 15.2171 19.9995 10.0292C20.0462 5.7836 16.7236 1.12305 13.175 0.474565C12.9956 0.441768 12.8254 0.556279 12.7735 0.732137C12.6187 1.25654 12.462 1.7879 12.2977 2.34464C12.2401 2.53976 12.3468 2.745 12.5361 2.81699C14.2868 3.48283 15.663 4.60157 16.5749 6.25588C17.5567 8.03775 17.7857 9.93884 17.2773 11.9148C16.441 15.1647 13.5952 17.4313 10.2515 17.5271C6.86571 17.624 3.85765 15.514 2.85291 12.3191C2.34714 10.711 2.34415 9.08672 2.89989 7.49741C3.70038 5.20797 5.27115 3.66976 7.4907 2.81256C7.67905 2.73986 7.78469 2.53484 7.72689 2.34043L7.24803 0.729399Z" fill="currentColor"/>
</svg>
