<svg width="16" height="16" viewBox="0 0 16 16" fill="none" xmlns="http://www.w3.org/2000/svg">
<path fill-rule="evenodd" clip-rule="evenodd" d="M8.72029 4.50348C8.72029 4.12788 8.72029 3.83252 8.72029 3.47653C8.07164 3.47653 7.4436 3.48083 6.81566 3.47393C6.63456 3.47183 6.40304 3.50054 6.28407 3.40439C6.07086 3.2322 5.82513 2.99597 5.7765 2.75014C5.71276 2.42736 5.93058 2.1365 6.29148 2.06006C6.5164 2.01234 6.75283 2.00503 6.98415 2.00443C8.66826 2.00013 10.3524 2.00213 12.0365 2.00233C12.1697 2.00233 12.304 1.99483 12.4364 2.00674C12.8726 2.04596 13.1597 2.26818 13.2015 2.71772C13.2385 3.11573 12.9056 3.45251 12.4308 3.46812C11.7169 3.49164 11.0017 3.47433 10.2521 3.47433C10.2521 3.81691 10.2521 4.12378 10.2521 4.50358C10.9566 4.50358 11.6681 4.52849 12.3769 4.49678C13.1359 4.46286 13.7311 4.75672 14.3539 5.17354C15.6105 6.0146 16.1221 7.10408 15.9757 8.6094C15.8746 9.65006 15.9636 10.7085 15.9542 11.759C15.9414 13.1914 15.1445 13.9785 13.7102 13.9816C11.9094 13.9854 10.1083 13.965 8.30786 13.9899C7.39927 14.0024 6.65547 13.7095 6.17341 12.9402C5.70446 12.1919 5.12405 11.8621 4.20705 11.9592C3.34659 12.0505 3.01601 11.6478 3.0038 10.7625C2.9965 10.229 2.98389 9.69448 3.008 9.16199C3.02421 8.8027 2.88144 8.70215 2.54145 8.71085C1.22164 8.74457 1.47828 8.54206 1.44936 9.77962C1.44316 10.0463 1.44917 10.3131 1.44827 10.58C1.44566 11.3874 1.23405 11.7084 0.710868 11.6997C0.207897 11.6913 0.00158507 11.3766 0.000884697 10.603C-0.000716166 8.86883 0.000285302 7.1347 0.000585464 5.40056C0.000585464 5.2839 -0.00211787 5.16674 0.00678693 5.05068C0.0454077 4.5418 0.303047 4.27556 0.742184 4.28516C1.16021 4.29427 1.41855 4.55021 1.43696 5.03637C1.45977 5.63579 1.45997 6.23702 1.44346 6.83664C1.43466 7.15901 1.54342 7.28048 1.87329 7.27287C3.24853 7.24116 2.98379 7.44347 2.9979 6.19009C3.01501 4.66737 3.16599 4.50378 4.69221 4.50378C6.02263 4.50348 7.35275 4.50348 8.72029 4.50348Z" fill="currentColor"/>
</svg>
