<svg width="16" height="16" viewBox="0 0 16 16" fill="none" xmlns="http://www.w3.org/2000/svg">
<path fill-rule="evenodd" clip-rule="evenodd" d="M10.3522 4.70824C10.658 4.7081 10.9663 4.70795 11.2778 4.70795L11.2779 5.14765C11.2779 5.41943 11.2777 5.69121 11.2775 5.96299C11.277 6.80452 11.2764 7.64605 11.2813 8.48753C11.2822 8.65384 11.2984 8.8312 11.3578 8.98393C11.548 9.47218 12.2271 9.56901 12.5489 9.1554C12.6507 9.02449 12.7176 8.86246 12.7816 8.70691C13.6279 6.65059 14.4716 4.59317 15.3142 2.53533C15.5295 2.00971 15.7418 1.48285 15.9495 0.954253C16.0585 0.676578 15.9855 0.423473 15.7841 0.219942C15.5828 0.0164832 15.3322 -0.0546077 15.05 0.0438142C14.9699 0.0717271 14.8902 0.100585 14.8118 0.132569L14.8096 0.133469C12.2657 1.17089 9.72186 2.20831 7.17893 3.24812C6.87088 3.37422 6.52133 3.68018 6.58933 4.06712C6.67032 4.52777 7.11403 4.70313 7.51473 4.70504C8.45254 4.70912 9.39036 4.70869 10.3522 4.70824ZM1.50713 7.19805C3.51664 5.19351 6.8143 5.19351 8.8238 7.19805C10.8333 9.2026 10.7818 12.4921 8.77228 14.4967C6.76277 16.5012 3.51664 16.5012 1.50713 14.4967C-0.502377 12.4921 -0.502377 9.2026 1.50713 7.19805ZM3.72274 13.0061L5.16547 11.5669L6.60819 13.0061L7.32955 12.2865L5.88683 10.8474L7.32955 9.40819L6.60819 8.68861L5.16547 10.1278L3.72274 8.68861L3.00138 9.40819L4.44411 10.8474L3.00138 12.2865L3.72274 13.0061Z" fill="currentColor"/>
</svg>
