<svg width="24" height="24" viewBox="0 0 24 24" fill="none" xmlns="http://www.w3.org/2000/svg">
<path fill-rule="evenodd" clip-rule="evenodd" d="M10.6106 3.00024C10.6106 3.76137 10.5998 4.44704 10.6152 5.1323C10.6227 5.46443 10.6381 5.80645 10.7223 6.1248C10.8704 6.68494 11.4568 7.04223 12.0715 7.00449C12.6943 6.96609 13.2242 6.57669 13.2676 5.95325C13.3333 5.0037 13.2847 4.04613 13.2847 3.06755C14.6081 3.06755 15.8099 2.98257 16.9934 3.09337C18.0165 3.18905 18.6397 3.95099 18.9726 4.88033C20.617 9.46989 22.2567 14.0613 23.8591 18.6657C24.3766 20.1531 23.4159 21.6249 21.8425 21.667C19.0797 21.7408 16.3132 21.6854 13.5482 21.681C13.51 21.681 13.4719 21.6432 13.3576 21.5831C13.3576 20.9375 13.3683 20.2518 13.3529 19.5667C13.3453 19.2344 13.3301 18.8924 13.2455 18.5741C13.0967 18.0137 12.5106 17.6569 11.8958 17.695C11.2729 17.7337 10.7437 18.1232 10.7006 18.7466C10.635 19.6962 10.6835 20.6535 10.6835 21.699C10.3392 21.699 10.1245 21.699 9.91004 21.699C7.47917 21.699 5.0483 21.7025 2.61743 21.698C0.521099 21.6939 -0.477557 20.2798 0.221355 18.3059C1.76691 13.9414 3.31474 9.57774 4.86578 5.2154C5.45577 3.55637 6.25169 3.00144 8.01202 3.00024C8.8529 2.9997 9.69419 3.00024 10.6106 3.00024ZM13.3867 12.3733C13.3725 12.3726 13.358 12.372 13.344 12.3714C13.344 11.9271 13.3477 11.4826 13.3412 11.0385C13.3396 10.929 13.3069 10.8191 13.2831 10.7107C13.1457 10.0803 12.6475 9.67235 12.0056 9.66258C11.336 9.65241 10.7396 10.0648 10.6985 10.7344C10.6321 11.8154 10.6353 12.9064 10.7022 13.9874C10.7416 14.6235 11.3202 15.0268 11.9619 15.0367C12.6315 15.047 13.177 14.634 13.2781 13.9646C13.3575 13.4406 13.3536 12.9041 13.3867 12.3733Z" fill="currentColor"/>
</svg>
