<svg width="16" height="16" viewBox="0 0 16 16" fill="none" xmlns="http://www.w3.org/2000/svg">
<path fill-rule="evenodd" clip-rule="evenodd" d="M0.841631 4.42908C2.08494 1.95749 4.53148 0.293029 7.29387 0.0423591C7.92555 -0.0128176 8.02081 -0.0128176 8.63244 0.0423591C11.8911 0.333126 14.6134 2.46382 15.596 5.50696C16.2578 7.54742 16.1024 9.70818 15.1599 11.5982C14.5583 12.8014 13.4754 14.0147 12.3875 14.7115C9.38445 16.6367 5.44894 16.381 2.78682 14.0899C2.01978 13.4281 1.29284 12.4956 0.846637 11.5982C-0.281377 9.33217 -0.281377 6.68006 0.841631 4.42908ZM14.1823 5.98323C13.4754 3.78233 11.5502 2.08282 9.2541 1.62657C8.78786 1.53135 7.80021 1.4912 7.29887 1.54638C4.78717 1.81208 2.65146 3.53166 1.82927 5.94313C1.57358 6.71017 1.5084 7.11125 1.51342 8.01366C1.51342 8.91607 1.5786 9.3472 1.82927 10.0842C2.2905 11.4378 3.27813 12.7312 4.41617 13.4532C5.99539 14.4609 7.68491 14.7567 9.50477 14.3556C11.6154 13.8894 13.4954 12.1547 14.1823 10.0441C14.4229 9.3071 14.4881 8.8559 14.4931 7.98859C14.4931 7.13127 14.4329 6.77035 14.1823 5.98323ZM12.7876 8.97115C12.6925 9.00057 12.5914 9.01643 12.4866 9.01643C11.9253 9.01643 11.4702 8.56136 11.4702 7.99995C11.4702 7.43859 11.9253 6.98351 12.4866 6.98351C13.048 6.98351 13.5031 7.43859 13.5031 7.99995C13.5031 8.3289 13.3469 8.62129 13.1046 8.80709C13.0852 8.82231 13.065 8.83695 13.0442 8.8509C12.9488 8.91548 12.8785 8.95171 12.7876 8.97115ZM10.5325 4.03804C10.2869 4.09822 10.1114 4.36891 9.67523 5.35156L9.43746 5.88987C9.17718 6.47889 9.10179 6.64956 8.52717 7.96352C8.24861 8.5903 8.00874 9.12674 7.95886 9.21859C6.99896 9.2602 6.23353 10.0516 6.23353 11.0217C6.23353 12.0184 7.04157 12.8265 8.03835 12.8265C9.03513 12.8265 9.84317 12.0184 9.84317 11.0217C9.84317 10.5518 9.6636 10.1238 9.36933 9.80271C9.4543 9.5775 9.89097 8.57032 10.4122 7.40201C11.3296 5.34153 11.47 4.99558 11.47 4.77502C11.475 4.49424 11.3647 4.28367 11.1391 4.13831C11.0038 4.04808 10.6879 3.99795 10.5325 4.03804ZM4.50725 8.01855C4.50725 8.57992 4.05216 9.03499 3.49079 9.03499C2.92941 9.03499 2.47433 8.57992 2.47433 8.01855C2.47433 7.45714 2.92941 7.00207 3.49079 7.00207C4.05216 7.00207 4.50725 7.45714 4.50725 8.01855ZM4.98883 6.02059C5.55021 6.02059 6.00529 5.56551 6.00529 5.00415C6.00529 4.44274 5.55021 3.98767 4.98883 3.98767C4.42746 3.98767 3.97237 4.44274 3.97237 5.00415C3.97237 5.56551 4.42746 6.02059 4.98883 6.02059ZM9.01646 3.49377C9.01646 4.05518 8.56138 4.51025 8 4.51025C7.43863 4.51025 6.98354 4.05518 6.98354 3.49377C6.98354 2.93241 7.43863 2.47733 8 2.47733C8.56138 2.47733 9.01646 2.93241 9.01646 3.49377Z" fill="currentColor"/>
</svg>
