<svg width="12" height="12" viewBox="0 0 12 12" fill="none" xmlns="http://www.w3.org/2000/svg">
<path fill-rule="evenodd" clip-rule="evenodd" d="M2.73433 1.22502C3.22973 0.605758 4.11544 0.125383 4.92985 0.0353108L4.94469 0.0335758H4.94492C5.14549 0.0102698 5.24527 -0.00132534 5.34486 0.000120442C5.44343 0.00156622 5.54181 0.0157349 5.73751 0.0439565L5.75552 0.046559C6.2359 0.114106 6.62247 0.23798 6.97525 0.436891C7.76339 0.883493 8.28506 1.55153 8.55152 2.44474C8.66411 2.82379 8.67162 2.89137 8.69789 3.66072L8.72041 4.47513L8.90806 4.48265C9.80128 4.52767 10.4018 4.98555 10.5406 5.72866C10.5554 5.81069 10.5658 6.28239 10.5716 6.90708C10.2788 6.81076 9.96587 6.75863 9.64082 6.75863C7.99722 6.75863 6.66482 8.09103 6.66482 9.73463C6.66482 10.637 7.06647 11.4456 7.70075 11.9914C5.44089 12.0088 1.59799 12.0001 1.37198 11.9624C0.733965 11.8574 0.261082 11.407 0.125974 10.7727C0.0471607 10.3974 0.0471607 6.09643 0.125974 5.72114C0.2836 4.97428 0.90285 4.4939 1.70975 4.4939H1.94619V3.96471C1.94619 2.69994 2.16387 1.94559 2.73433 1.22502ZM7.14038 2.88761C6.95649 2.23082 6.55116 1.80298 5.9169 1.5853C5.74801 1.52901 5.22259 1.48398 5.06121 1.514C4.28808 1.65285 3.78893 2.06944 3.55249 2.77125C3.48118 2.98144 3.47367 3.09777 3.46992 3.74331L3.46617 4.47513L5.33518 4.48638L7.20043 4.4939V3.79585C7.20043 3.27042 7.18542 3.04523 7.14038 2.88761ZM5.96569 7.10975C5.9169 7.03096 5.81556 6.92585 5.7405 6.87707C5.37646 6.64438 4.84353 6.78324 4.67089 7.1548C4.59583 7.31618 4.59208 7.38749 4.59208 8.29197V9.25275L4.70467 9.41413C4.85854 9.6318 5.05745 9.72936 5.35019 9.72936C5.54535 9.72936 5.60539 9.7106 5.74426 9.6168C5.83808 9.54922 5.94317 9.43289 5.99196 9.3353C6.07452 9.17016 6.07828 9.14391 6.06702 8.20938C6.05576 7.27865 6.05201 7.24863 5.96569 7.10975ZM9.64082 12C10.9068 12 11.9331 10.9737 11.9331 9.70768C11.9331 8.44166 10.9068 7.41536 9.64082 7.41536C8.3748 7.41536 7.3485 8.44166 7.3485 9.70768C7.3485 10.9737 8.3748 12 9.64082 12ZM9.64082 10.8538C9.00781 10.8538 8.49466 10.3407 8.49466 9.70768C8.49466 9.07469 9.00781 8.56152 9.64082 8.56152C10.2738 8.56152 10.787 9.07469 10.787 9.70768C10.787 10.3407 10.2738 10.8538 9.64082 10.8538Z" fill="currentColor"/>
</svg>
