<svg width="16" height="17" viewBox="0 0 16 17" fill="none" xmlns="http://www.w3.org/2000/svg">
<path fill-rule="evenodd" clip-rule="evenodd" d="M10.1005 1.64833C10.2056 1.40808 10.2906 1.333 10.5409 1.24791C10.7661 1.16783 10.9764 1.19786 11.1866 1.34301C11.2717 1.40307 12.1175 2.17888 13.0635 3.0748C13.666 3.64539 14.2096 4.15711 14.5327 4.46127C14.7169 4.63469 14.8295 4.74064 14.8404 4.75154C14.8754 4.77657 15.1257 5.02182 15.4009 5.2921C15.8014 5.6825 15.9115 5.82766 15.9615 6.00284C16.0816 6.42828 16.0416 6.47833 13.9845 8.41033C13.7985 8.58626 13.5583 8.8125 13.3043 9.05173C12.9224 9.41143 12.5092 9.80049 12.2026 10.0921C11.0214 11.2082 10.8813 11.2883 10.4558 11.0731C10.2906 10.988 10.2006 10.8979 10.1205 10.7327C10.0104 10.5175 10.0054 10.4625 10.0054 9.09604V7.67457L6.83207 7.68958L3.65878 7.7046L3.44356 7.85475C3.32844 7.93484 3.18329 8.095 3.12823 8.20512C3.02813 8.40032 3.02312 8.49041 2.9981 10.9329L2.97307 12.0591L2.83793 12.2944C2.73783 12.4595 2.63272 12.5596 2.46254 12.6447C2.24231 12.7498 2.15722 12.7598 1.49654 12.7598C0.835856 12.7598 0.750768 12.7498 0.53054 12.6447C0.360364 12.5596 0.255255 12.4595 0.155151 12.2944L0.020011 12.0591L0.00499544 11.1081C-0.0200305 8.095 0.0350266 7.61451 0.495504 6.77864C1.13617 5.61744 2.21228 4.89169 3.54867 4.72651C3.79392 4.69648 5.2204 4.67646 6.98723 4.67646H10.0054V3.26C10.0054 2.00369 10.0154 1.82851 10.1005 1.64833ZM6.73121 16.3546C6.39298 16.3546 6.05475 16.3549 5.71655 16.3553L5.71393 16.3553C4.92908 16.3561 4.14423 16.3569 3.3594 16.3534C2.47897 16.3493 1.94994 15.4762 2.38464 14.7094C3.18622 13.2955 3.99763 11.8871 4.80908 10.4788L4.80986 10.4774L4.811 10.4754C5.14006 9.90432 5.46937 9.33275 5.79776 8.76126C6.18848 8.08135 7.2631 8.00414 7.73967 8.87428C8.14962 9.62276 8.57733 10.3614 9.00507 11.1002C9.19059 11.4206 9.37611 11.741 9.56019 12.0622C9.70957 12.3229 9.86053 12.5834 10.0111 12.8434L10.0124 12.8456C10.3648 13.4539 10.7172 14.0622 11.0537 14.6792C11.3883 15.2929 11.1946 16.1042 10.4022 16.3183C10.2825 16.3506 10.1523 16.354 10.0269 16.3543C9.18026 16.3563 8.33362 16.3561 7.48698 16.356H7.48591L6.73117 16.3558L6.73121 16.3546ZM7.25589 11.5979L7.24392 11.5972C7.24615 11.5554 7.24885 11.5137 7.2517 11.472L7.25606 11.409C7.2658 11.2695 7.27554 11.13 7.27412 10.9907C7.27078 10.6556 7.03297 10.4209 6.72016 10.4265C6.42542 10.4318 6.16655 10.6736 6.17953 10.9828C6.20964 11.6991 6.25694 12.4148 6.3127 13.1296C6.3322 13.3792 6.53717 13.5429 6.75233 13.5278C6.9769 13.5121 7.14252 13.3372 7.15962 13.088C7.18378 12.7368 7.20598 12.3855 7.22816 12.0343L7.24464 11.774L7.25589 11.5979ZM6.72772 13.8289C6.38832 13.8307 6.11627 14.1069 6.12336 14.4424C6.13052 14.7793 6.41238 15.0511 6.74613 15.043C7.07071 15.0351 7.33131 14.7656 7.33238 14.4365C7.33354 14.0917 7.07022 13.8271 6.72772 13.8289Z" fill="currentColor"/>
</svg>
