<svg width="24" height="24" viewBox="0 0 24 24" fill="none" xmlns="http://www.w3.org/2000/svg">
<path fill-rule="evenodd" clip-rule="evenodd" d="M13.0804 6.75522C13.0804 6.19182 13.0804 5.74878 13.0804 5.21479C12.1075 5.21479 11.1654 5.22125 10.2235 5.21089C9.95184 5.20774 9.60455 5.25081 9.42611 5.10658C9.10629 4.84829 8.73769 4.49395 8.66475 4.1252C8.56915 3.64104 8.89587 3.20476 9.43722 3.0901C9.7746 3.01851 10.1292 3.00755 10.4762 3.00665C13.0024 3.0002 15.5286 3.0032 18.0547 3.0035C18.2546 3.0035 18.456 2.99224 18.6546 3.0101C19.3089 3.06894 19.7395 3.40226 19.8022 4.07658C19.8578 4.6736 19.3585 5.17877 18.6462 5.20218C17.5753 5.23745 16.5026 5.21149 15.3782 5.21149C15.3782 5.72537 15.3782 6.18566 15.3782 6.75537C16.4349 6.75537 17.5021 6.79274 18.5653 6.74517C19.7038 6.69429 20.5966 7.13508 21.5309 7.76031C23.4157 9.02189 24.1831 10.6561 23.9635 12.9141C23.812 14.4751 23.9454 16.0628 23.9313 17.6385C23.9121 19.787 22.7168 20.9677 20.5653 20.9724C17.8641 20.9781 15.1625 20.9475 12.4618 20.9848C11.0989 21.0036 9.98321 20.5643 9.26012 19.4103C8.55669 18.2879 7.68607 17.7932 6.31058 17.9388C5.01988 18.0757 4.52402 17.4718 4.50571 16.1437C4.49475 15.3435 4.47584 14.5417 4.51201 13.743C4.53632 13.204 4.32216 13.0532 3.81218 13.0663C1.83246 13.1169 2.21742 12.8131 2.17405 14.6694C2.16474 15.0694 2.17375 15.4697 2.1724 15.8699C2.1685 17.0811 1.85108 17.5625 1.0663 17.5495C0.311846 17.5369 0.00237761 17.0649 0.00132705 15.9045C-0.00107425 13.3032 0.000427953 10.702 0.000878196 8.10084C0.000878196 7.92585 -0.00317681 7.75011 0.0101804 7.57602C0.0681116 6.8127 0.454571 6.41334 1.11328 6.42775C1.74031 6.4414 2.12782 6.82531 2.15544 7.55455C2.18966 8.45369 2.18996 9.35553 2.16519 10.255C2.15199 10.7385 2.31512 10.9207 2.80994 10.9093C4.8728 10.8617 4.47569 11.1652 4.49685 9.28514C4.52252 7.00106 4.74899 6.75567 7.03832 6.75567C9.03395 6.75522 11.0291 6.75522 13.0804 6.75522Z" fill="currentColor"/>
</svg>
