<svg width="16" height="16" viewBox="0 0 16 16" fill="none" xmlns="http://www.w3.org/2000/svg">
<path fill-rule="evenodd" clip-rule="evenodd" d="M6.15436 2.29104C6.1919 2.21284 6.26072 2.13776 6.33267 2.09397C6.45154 2.02827 6.46718 2.02515 7.99687 2.02515H7.99691C9.52656 2.02515 9.5422 2.02515 9.66107 2.09397C9.73928 2.13776 9.80497 2.20971 9.84564 2.29104C9.90507 2.41304 9.9082 2.48499 9.9082 3.66119V4.90309H11.3284H12.7455L12.8487 4.97191C12.905 5.01258 12.977 5.07827 13.0082 5.12206C13.0739 5.21278 15.9675 13.2773 15.9957 13.4493C16.0238 13.6182 15.9112 13.8341 15.7548 13.9123C15.6359 13.9749 15.5296 13.9749 8 13.9749C0.470427 13.9749 0.364068 13.9749 0.245197 13.9123C0.0887868 13.8341 -0.0238284 13.6182 0.00432543 13.4493C0.0324792 13.2773 2.92606 5.21278 2.99175 5.12206C3.02304 5.07827 3.09499 5.01258 3.15129 4.97191L3.25452 4.90309H4.6716H6.0918V3.66119C6.0918 2.48499 6.09493 2.41304 6.15436 2.29104ZM8.96974 4.90309V3.93335V2.96361H8H7.03026V3.93335V4.90309H8H8.96974ZM14.8476 12.9957C14.8476 12.977 14.2752 11.3597 13.5744 9.40769L12.3013 5.85719L8.00939 5.8478C5.65072 5.84468 3.71124 5.85406 3.70186 5.86657C3.6737 5.91037 1.14925 12.977 1.14925 13.0083C1.14925 13.0239 3.78006 13.0364 8 13.0364C13.4618 13.0364 14.8508 13.027 14.8476 12.9957ZM12.203 9.79888C12.203 10.9641 11.478 11.6773 10.2805 11.6773C8.97739 11.6773 8.19375 10.8349 8.19375 9.44081C8.19375 8.0643 8.98033 7.21315 10.2512 7.21315C11.2843 7.21315 12.0533 7.81483 12.1589 8.71H11.0965C10.9908 8.33725 10.6738 8.11126 10.2512 8.11126C9.64951 8.11126 9.29144 8.60434 9.29144 9.42907C9.29144 10.2685 9.68766 10.7792 10.304 10.7792C10.7942 10.7792 11.1346 10.4915 11.161 10.063L11.164 9.99259H10.3891V9.25297H12.203V9.79888ZM5.34974 11.5628H4.2726V7.32762H5.34974V9.14732H5.40551L6.8143 7.32762H7.97069L6.50613 9.19721L8.05581 11.5628H6.79082L5.72248 9.8928L5.34974 10.3653V11.5628Z" fill="currentColor"/>
</svg>
