<svg width="16" height="16" viewBox="0 0 16 16" fill="none" xmlns="http://www.w3.org/2000/svg">
<path fill-rule="evenodd" clip-rule="evenodd" d="M13.6659 2H16V13.6707H13.6659V2ZM10.2491 3.99994H12.5832L12.5833 13.6704H10.2492L10.2491 3.99994ZM6.8318 5.99994V13.6705H9.16594V5.99994H6.8318ZM3.41682 7.99989H5.75095L5.75108 13.6706H3.41694L3.41682 7.99989ZM2.33413 13.6706V9.99983H0V13.6706H2.33413Z" fill="currentColor"/>
<path fill-rule="evenodd" clip-rule="evenodd" d="M10.249 4C11.0341 4 11.7909 4 12.5832 4C12.5832 7.28299 12.5833 10.3731 12.5833 13.6705C11.8201 13.6705 11.0524 13.6705 10.2491 13.6705C10.2491 10.3973 10.249 7.30727 10.249 4Z" fill="#6AD09D"/>
<path fill-rule="evenodd" clip-rule="evenodd" d="M6.83203 13.6706C6.83203 11.1509 6.83203 8.51044 6.83203 6C7.61374 6 8.37499 6 9.16617 6C9.16617 8.50609 9.16617 11.1533 9.16617 13.6706C8.39319 13.6706 7.63203 13.6706 6.83203 13.6706Z" fill="#6AD09D"/>
<path fill-rule="evenodd" clip-rule="evenodd" d="M3.41699 8C4.20351 8 4.96461 8 5.75113 8C5.75113 9.64801 5.75125 12.0226 5.75125 13.6707C4.96473 13.6707 4.20363 13.6707 3.41711 13.6707C3.41711 12.0225 3.41699 9.64808 3.41699 8Z" fill="#6AD09D"/>
<path fill-rule="evenodd" clip-rule="evenodd" d="M2.33413 9.99976C2.33413 10.7867 2.33413 12.8871 2.33413 13.6705C1.55442 13.6705 0.793311 13.6705 0 13.6705C0 12.8963 0 10.7897 0 9.99976C0.766851 9.99976 1.52812 9.99976 2.33413 9.99976Z" fill="#6AD09D"/>
</svg>
