<svg width="24" height="25" viewBox="0 0 24 25" fill="none" xmlns="http://www.w3.org/2000/svg">
<path fill-rule="evenodd" clip-rule="evenodd" d="M11.1411 4.52709C8.00652 4.858 5.22086 6.99989 4.14991 9.91791C3.77689 10.9407 3.62045 11.8191 3.62045 12.8961C3.62045 16.9332 6.38205 20.3085 10.3831 21.1448C11.2675 21.3313 12.7295 21.3313 13.6139 21.1448C14.4863 20.9583 14.8473 20.8319 15.7498 20.3867C16.6764 19.9355 17.3743 19.424 18.0722 18.69C19.2274 17.4747 19.9734 16.0067 20.2743 14.3762C20.4126 13.6421 20.4126 12.15 20.2743 11.416C19.8952 9.34634 18.728 7.45113 17.0494 6.18164C16.5139 5.77251 15.2444 5.11069 14.6067 4.90011C13.638 4.58124 12.1519 4.42481 11.1411 4.52709ZM12.531 8.25133C12.8859 8.51004 12.892 8.55817 12.892 11.0911C12.892 13.1789 12.8799 13.4256 12.7837 13.6121C12.6272 13.9309 12.4046 14.0633 12.0256 14.0633C11.6706 14.0693 11.472 13.967 11.2434 13.6542C11.1231 13.4978 11.1171 13.4015 11.099 11.3137C11.087 10.1165 11.099 9.02144 11.1171 8.88306C11.1592 8.58825 11.3878 8.28743 11.6586 8.1671C11.8872 8.0588 12.3264 8.10693 12.531 8.25133ZM12.4166 15.3689C12.6754 15.4591 13.0002 15.754 13.1085 16.0187C13.2951 16.4579 13.1807 17.0415 12.8498 17.3724C12.176 18.0583 10.9366 17.6371 10.8102 16.6865C10.6899 15.772 11.5382 15.0801 12.4166 15.3689ZM2.33292 6.06733C2.06217 6.16359 1.98396 6.24782 1.58085 6.92167C1.06944 7.78806 0.612183 8.90112 0.347455 9.948C-0.115818 11.7891 -0.115818 13.9971 0.347455 15.8442C0.726498 17.3483 1.70118 19.3819 2.17648 19.6587C2.57959 19.8933 3.14515 19.755 3.37979 19.3759C3.56631 19.0751 3.54224 18.7682 3.28955 18.311C2.34495 16.5602 1.95989 15.3448 1.81549 13.6602C1.635 11.6025 2.11632 9.61107 3.29556 7.49325C3.54224 7.04201 3.57232 6.72915 3.37979 6.41629C3.16921 6.07334 2.73602 5.92895 2.33292 6.06733ZM20.5029 6.99989C20.4307 6.57272 20.7255 6.14554 21.1647 6.04928C21.6701 5.92895 21.8867 6.06733 22.3439 6.79533C22.8854 7.6557 23.3728 8.8229 23.6616 9.95402C24.1128 11.6988 24.1128 14.0934 23.6616 15.8382C23.3126 17.2039 22.5184 18.9548 21.989 19.5324C21.4415 20.122 20.3404 19.5624 20.5029 18.7743C20.527 18.672 20.6713 18.3531 20.8278 18.0703C21.7784 16.3797 22.2176 14.7372 22.2176 12.8961C22.2176 11.049 21.7543 9.34033 20.8157 7.69781C20.6653 7.4391 20.527 7.12624 20.5029 6.99989Z" fill="currentColor"/>
</svg>
