<svg width="16" height="16" viewBox="0 0 16 16" fill="none" xmlns="http://www.w3.org/2000/svg">
<path fill-rule="evenodd" clip-rule="evenodd" d="M3.76353 11.8125C3.02897 11.8125 2.32257 11.8125 1.60001 11.8125C1.26864 11.8125 1 11.5439 1 11.2125C1 9.33317 1 7.47957 1 5.60002C1 5.26865 1.26864 5 1.60001 5C2.32239 5 3.02879 5 3.76353 5C3.76353 7.28601 3.76353 9.52597 3.76353 11.8125Z" fill="#6AD09D"/>
<path fill-rule="evenodd" clip-rule="evenodd" d="M7.55732 12.9012C5.86458 12.9012 4.17176 12.9032 2.47902 12.9006C0.887849 12.8981 0.0173118 12.0441 0.00652151 10.463C-0.00257445 9.12672 -0.00203793 7.79015 0.00634461 6.45376C0.016154 4.86803 0.883568 4.00909 2.47046 4.00784C5.85602 4.00525 9.24168 4.02246 12.6271 4.00008C14.1563 3.99 15.1439 4.93732 15.1135 6.34032C15.1085 6.56692 15.1709 6.68811 15.4074 6.74768C15.7793 6.8415 15.9843 7.10831 15.9912 7.49266C16.0027 8.13053 16.0024 8.76894 15.9924 9.40691C15.9864 9.79037 15.7884 10.0672 15.4152 10.1563C15.1458 10.2207 15.1229 10.3744 15.1112 10.6035C15.0348 12.0947 14.1839 12.8964 12.6803 12.9001C10.9726 12.9044 9.26495 12.9012 7.55732 12.9012ZM7.55813 11.587C9.26576 11.587 10.9735 11.5887 12.6811 11.5863C13.497 11.5852 13.8169 11.28 13.8235 10.4615C13.8341 9.1252 13.8337 7.78863 13.8236 6.45224C13.8175 5.63066 13.4991 5.32247 12.6866 5.32203C9.27129 5.32024 5.85593 5.32033 2.44058 5.32203C1.62444 5.32238 1.30492 5.62799 1.29841 6.4468C1.28771 7.7831 1.28816 9.11967 1.29824 10.4561C1.30439 11.2778 1.62248 11.585 2.43514 11.5863C4.14277 11.5888 5.8504 11.587 7.55813 11.587Z" fill="currentColor"/>
</svg>
