<svg width="16" height="16" viewBox="0 0 16 16" fill="none" xmlns="http://www.w3.org/2000/svg">
<path fill-rule="evenodd" clip-rule="evenodd" d="M12.4048 5.68376C12.1517 7.22127 11.9046 8.72219 11.6446 10.3029C12.3417 10.3029 12.9884 10.2893 13.6341 10.3066C14.3576 10.326 14.7818 10.6816 14.8416 11.2792C14.9183 12.0475 14.4861 12.5236 13.6569 12.5609C13.2554 12.5789 12.8522 12.5649 12.4499 12.5652C12.0689 12.5654 11.6879 12.5652 11.2565 12.5652C11.1378 13.3125 11.0275 14.0254 10.91 14.7371C10.8226 15.2665 10.6533 15.735 10.0679 15.9244C9.33822 16.1607 8.65312 15.6946 8.6483 14.9119C8.64588 14.5334 8.71924 14.1536 8.76834 13.7756C8.81721 13.398 8.8785 13.0221 8.94059 12.6032C7.78693 12.6032 6.66615 12.6032 5.49845 12.6032C5.38232 13.3418 5.27481 14.0766 5.14982 14.8083C4.99608 15.7081 4.35387 16.1808 3.64095 15.9357C3.09281 15.747 2.84214 15.3478 2.89676 14.7905C2.96724 14.0712 3.08223 13.3563 3.18814 12.5641C2.50891 12.5641 1.8621 12.5778 1.21622 12.5605C0.492608 12.5411 0.0685348 12.1856 0.0087415 11.5879C-0.0680699 10.8198 0.364166 10.3434 1.19322 10.3061C1.59487 10.2881 1.9979 10.3021 2.40036 10.3019C2.78131 10.3017 3.16238 10.3019 3.59542 10.3019C3.84828 8.76611 4.09538 7.2653 4.35571 5.68399C3.65935 5.68399 3.01278 5.69763 2.36701 5.68043C1.64294 5.66105 1.21887 5.30615 1.15873 4.70848C1.08146 3.94042 1.51346 3.45295 2.34217 3.42795C3.12501 3.40433 3.90899 3.42291 4.7431 3.42291C4.86212 2.67514 4.9725 1.96234 5.0899 1.2507C5.17729 0.721376 5.34598 0.252603 5.93127 0.0628223C6.67845 -0.179592 7.38988 0.301566 7.36262 1.12708C7.33825 1.86568 7.18589 2.60026 7.08459 3.37956C8.21387 3.37956 9.33166 3.37956 10.5009 3.37956C10.6134 2.66883 10.7228 1.95443 10.8405 1.24152C10.9283 0.71117 11.1036 0.245492 11.6894 0.0594961C12.4188 -0.172254 13.1285 0.300763 13.0956 1.08259C13.064 1.84033 12.9232 2.59372 12.8212 3.42256C13.4919 3.42256 14.1387 3.4088 14.7847 3.42623C15.508 3.44573 15.9319 3.80167 15.9914 4.39979C16.0677 5.16705 15.6347 5.65395 14.8059 5.6786C14.0231 5.70211 13.239 5.68376 12.4048 5.68376ZM9.34995 10.2792C9.59878 8.75809 9.84543 7.25085 10.0977 5.70795C8.90989 5.70795 7.80728 5.70795 6.64994 5.70795C6.4011 7.22929 6.15445 8.73664 5.90229 10.2792C7.08953 10.2792 8.19226 10.2792 9.34995 10.2792Z" fill="currentColor"/>
</svg>
