<svg width="24" height="24" viewBox="0 0 24 24" fill="none" xmlns="http://www.w3.org/2000/svg">
<path fill-rule="evenodd" clip-rule="evenodd" d="M2.13568 2.76055C1.042 3.00062 0.26175 3.85423 0.0750238 5.00126C-0.0250079 5.58811 -0.0250079 18.4055 0.0750238 19.0057C0.26175 20.2061 1.10202 21.073 2.26905 21.2731C2.57582 21.3264 5.47674 21.3398 12.3056 21.3264C13.0634 21.325 13.7628 21.3239 14.4087 21.3229C21.524 21.3115 22.1339 21.3106 22.5641 21.032C22.6044 21.0059 22.6432 20.9773 22.6856 20.9461C22.7297 20.9136 22.7777 20.8782 22.8356 20.8396C23.269 20.5529 23.6225 20.1127 23.8226 19.6126L23.9759 19.2391L23.9959 12.2035C24.0093 7.50872 23.9893 5.06128 23.9426 4.83454C23.7225 3.76086 22.8356 2.90726 21.7686 2.73387C21.1484 2.63384 2.60249 2.65385 2.13568 2.76055ZM21.8153 4.86121C22.0086 5.05461 22.0086 5.06128 22.0086 5.86153V6.66845H12.0055H2.0023V5.9749C2.0023 5.60145 2.03565 5.19465 2.07566 5.07461C2.08473 5.04937 2.09094 5.0257 2.09675 5.00353C2.10425 4.97493 2.11109 4.94881 2.12262 4.92494C2.2444 4.67263 2.88827 4.67232 10.3381 4.66874C10.8755 4.66848 11.4483 4.66821 12.0588 4.66782H21.6219L21.8153 4.86121ZM22.0086 14.811V18.9524L21.8153 19.1457L21.6219 19.3391H12.0722C11.4611 19.3391 10.8878 19.3392 10.3499 19.3393C2.89959 19.3405 2.2469 19.3406 2.12319 19.0848C2.11131 19.0603 2.10431 19.0334 2.09664 19.0039C2.09083 18.9815 2.08464 18.9577 2.07566 18.9323C2.02231 18.7856 2.0023 17.4652 2.0023 14.6977V10.6697H12.0055H22.0086V14.811ZM4.60313 15.4846C4.25635 15.6646 4.04962 15.9781 4.04962 16.3382C4.04962 16.6983 4.25635 17.0117 4.60313 17.1918C4.88988 17.3385 4.96324 17.3452 6.1036 17.3252C7.11059 17.3052 7.33733 17.2852 7.52405 17.1851C7.76413 17.0517 8.0042 16.6316 8.0042 16.3382C8.0042 16.0448 7.76413 15.6246 7.52405 15.4913C7.33733 15.3912 7.11059 15.3712 6.1036 15.3512C4.96324 15.3312 4.88988 15.3379 4.60313 15.4846ZM9.38464 16.3382C9.38464 15.9781 9.59137 15.6646 9.93815 15.4846C10.2382 15.3312 10.2449 15.3312 12.7724 15.3512C15.64 15.3711 15.64 15.3712 15.8767 15.8842L15.88 15.8914C16.0334 16.2448 16.0334 16.4316 15.88 16.785L15.8767 16.7922C15.64 17.3052 15.64 17.3053 12.7724 17.3252C10.2449 17.3452 10.2382 17.3452 9.93815 17.1918C9.59137 17.0117 9.38464 16.6983 9.38464 16.3382Z" fill="currentColor"/>
</svg>
