<svg width="16" height="16" viewBox="0 0 16 16" fill="none" xmlns="http://www.w3.org/2000/svg">
<path fill-rule="evenodd" clip-rule="evenodd" d="M6.75 11.7187C4.81239 11.7187 2.96946 11.7187 1.03125 11.7187C1.03125 9.56906 1.03125 7.46252 1.03125 5.3125C2.96886 5.3125 4.81179 5.3125 6.75 5.3125C6.75 7.46219 6.75 9.56857 6.75 11.7187Z" fill="#6AD09D"/>
<path fill-rule="evenodd" clip-rule="evenodd" d="M6.02125 12.9016C6.53332 12.9014 7.04538 12.9012 7.55744 12.9012C8.06975 12.9012 8.58205 12.9015 9.09435 12.9018C10.2897 12.9024 11.485 12.9031 12.6804 12.9001C14.184 12.8964 15.0349 12.0947 15.1113 10.6035C15.123 10.3744 15.146 10.2207 15.4154 10.1563C15.7885 10.0672 15.9865 9.79037 15.9925 9.40691C16.0025 8.76894 16.0029 8.13053 15.9914 7.49266C15.9844 7.10831 15.7794 6.8415 15.4075 6.74768C15.171 6.68811 15.1086 6.56692 15.1136 6.34032C15.144 4.93732 14.1564 3.99 12.6272 4.00008C10.3703 4.015 8.11326 4.01233 5.85622 4.00965C4.72767 4.00831 3.59912 4.00698 2.47058 4.00784C0.88369 4.00909 0.016276 4.86803 0.00646668 6.45376C-0.00191586 7.79015 -0.00245238 9.12672 0.00664358 10.463C0.0174339 12.0441 0.887971 12.8981 2.47914 12.9006C3.65982 12.9024 4.84054 12.902 6.02125 12.9016ZM9.05589 11.5873C8.55667 11.5871 8.05746 11.587 7.55825 11.587C7.05592 11.587 6.55359 11.5872 6.05127 11.5873C4.84592 11.5877 3.64059 11.588 2.43526 11.5863C1.6226 11.585 1.30451 11.2778 1.29836 10.4561C1.28828 9.11967 1.28784 7.7831 1.29854 6.4468C1.30505 5.62799 1.62457 5.32238 2.4407 5.32203C5.85606 5.32033 9.27141 5.32024 12.6868 5.32203C13.4992 5.32247 13.8176 5.63066 13.8238 6.45224C13.8338 7.78863 13.8342 9.1252 13.8236 10.4615C13.817 11.28 13.4971 11.5852 12.6812 11.5863C11.4728 11.588 10.2643 11.5876 9.05589 11.5873ZM2.08329 10.2026H3.76382V6.7066H2.08329V10.2026Z" fill="currentColor"/>
<path fill-rule="evenodd" clip-rule="evenodd" d="M3.76353 10.2025C3.19414 10.2025 2.65257 10.2025 2.08301 10.2025C2.08301 9.0294 2.08301 7.87983 2.08301 6.70654C2.6524 6.70654 3.19396 6.70654 3.76353 6.70654C3.76353 7.87965 3.76353 9.02913 3.76353 10.2025Z" fill="#6AD09D"/>
</svg>
