<svg width="20" height="20" viewBox="0 0 20 20" fill="none" xmlns="http://www.w3.org/2000/svg">
<path fill-rule="evenodd" clip-rule="evenodd" d="M11.1148 4.35325V3.20651C11.4938 3.20651 11.8089 3.21744 12.1231 3.20451C12.8884 3.1726 13.3094 2.7677 13.3007 2.08678C13.2927 1.43565 12.8766 1.03611 12.1395 1.01056C11.7239 0.996215 11.3077 0.999566 10.8915 1.00292C10.7314 1.0042 10.5713 1.00548 10.4112 1.00576C9.24542 1.00755 8.91729 1.32965 8.91528 2.49111C8.91479 2.77921 8.91463 3.0673 8.91463 3.35541C8.91468 3.66897 8.9149 3.98255 8.91512 4.29613V4.30794C8.91615 5.72812 8.91719 7.14833 8.89866 8.56819C8.89572 8.79145 8.7361 9.09704 8.55245 9.21989C7.46496 9.94722 7.00102 11.1193 7.36139 12.3687C7.70929 13.575 8.76541 14.3689 10.0112 14.3607C11.2452 14.3525 12.2786 13.5781 12.6279 12.3996C13.0055 11.1261 12.5522 9.94756 11.4219 9.21531C11.2842 9.12605 11.1101 8.95992 11.1042 8.82303C11.0811 8.27724 11.0841 7.73034 11.0872 7.16147C11.0883 6.96201 11.0893 6.75985 11.0893 6.5541C11.2131 6.5541 11.3296 6.55503 11.4413 6.55593C11.673 6.55778 11.8838 6.55947 12.0943 6.55232C12.8726 6.52599 13.2967 6.13861 13.3006 5.46249C13.3047 4.78269 12.8831 4.38471 12.1121 4.35536C11.8894 4.34682 11.6662 4.34897 11.437 4.35119C11.3311 4.35221 11.2239 4.35325 11.1148 4.35325ZM18.6693 18.7611C19.3721 18.9546 19.9792 18.4421 19.9877 17.4648C19.9854 17.164 19.6642 16.8598 19.1687 16.6638C19.1089 16.6402 19.0483 16.6172 18.9873 16.5945C18.9393 16.5766 18.8911 16.5589 18.8427 16.5412L18.8418 16.5408C18.4584 16.4002 18.0702 16.2577 17.7651 16.0157C17.0384 15.4395 16.4135 15.4664 15.6404 15.9389C14.3049 16.7551 12.8207 16.9561 11.4565 16.1389C10.4055 15.5093 9.60677 15.5382 8.56112 16.145C7.14942 16.9643 5.65622 16.7192 4.26953 15.9015C3.75003 15.5951 3.25498 15.3979 2.65763 15.7394C2.03407 16.0958 1.38284 16.4066 0.731004 16.7102C0.151301 16.9802 -0.122943 17.4896 0.0524224 18.0566C0.222722 18.607 0.77889 18.9302 1.38218 18.7482C1.71063 18.6492 2.02928 18.5182 2.34814 18.3871C2.59433 18.2859 2.84062 18.1847 3.09166 18.0981C3.27509 18.0347 3.53146 18.0027 3.69234 18.0821C5.68292 19.0652 7.65607 19.0197 9.64403 18.0721C9.84016 17.9786 10.1583 17.9784 10.3542 18.0722C12.3419 19.0231 14.3159 19.0561 16.3104 18.0948C16.4847 18.0108 16.7587 18.0498 16.9575 18.1172C17.2018 18.1999 17.4411 18.299 17.6801 18.3981C18.0061 18.5332 18.3317 18.6682 18.6693 18.7611ZM13.3647 13.9254C13.4212 13.7036 13.4734 13.494 13.5234 13.2934C13.6542 12.7679 13.7696 12.3046 13.9064 11.8476C13.9485 11.707 14.115 11.5669 14.2584 11.5003C14.4872 11.3938 14.7216 11.2985 14.9558 11.2032C15.3041 11.0616 15.652 10.9201 15.9805 10.7423C16.5197 10.4505 16.9667 10.4723 17.4833 10.8025C17.9929 11.1283 18.5535 11.385 19.1147 11.6164C19.8034 11.9004 20.1363 12.4192 19.9479 13.034C19.7621 13.6391 19.1838 13.9089 18.4552 13.692L18.3848 13.6712L18.3389 13.6577C17.9493 13.543 17.5473 13.4246 17.2171 13.2082C16.7769 12.9198 16.4482 13.0211 15.9995 13.1869C15.4073 13.4057 14.7915 13.5608 14.164 13.7189C13.9881 13.7632 13.8114 13.8077 13.6339 13.8539C13.5444 13.8773 13.4546 13.901 13.3647 13.9254ZM3.73968 13.0885C4.66134 13.5255 5.62217 13.7558 6.60148 13.7953C6.55571 13.6157 6.51137 13.4383 6.46751 13.2626C6.3469 12.7799 6.22961 12.3106 6.09537 11.8462C6.05713 11.7142 5.92257 11.57 5.79547 11.5107C5.51033 11.3775 5.22067 11.254 4.93106 11.1305C4.59259 10.9861 4.25417 10.8418 3.92311 10.6821C3.50357 10.48 3.1299 10.4577 2.70949 10.6883C2.04687 11.052 1.36453 11.3809 0.682573 11.7083C0.140786 11.9683 -0.11646 12.4842 0.0514418 13.0332C0.213678 13.5634 0.761893 13.9056 1.32634 13.743C1.64858 13.6501 1.96134 13.525 2.27427 13.3998C2.52922 13.2979 2.78429 13.1959 3.0447 13.1112C3.25978 13.0411 3.55135 12.9991 3.73968 13.0885Z" fill="currentColor"/>
</svg>
