<svg width="16" height="16" viewBox="0 0 16 16" fill="none" xmlns="http://www.w3.org/2000/svg">
<path d="M2.7795 0.105831C2.09391 0.242949 1.47688 0.597172 0.996965 1.12279C0.482771 1.69412 0.28852 2.05977 0.128548 2.82535C-0.0428495 3.63663 -0.0428495 12.3208 0.128548 13.1549C0.414212 14.5147 1.36261 15.5316 2.65381 15.8516C3.49938 16.0687 12.8006 16.0344 13.5204 15.8173C14.2289 15.6002 14.9716 15.086 15.3487 14.5375C15.9771 13.6348 16 13.3949 16 8.07012C16 4.745 15.9543 3.00817 15.8629 2.64252C15.6915 1.91122 15.0745 0.974247 14.5488 0.631451C13.6461 0.0372716 13.1662 -0.00843454 8.00143 0.002992C5.39618 0.0144185 3.04231 0.0601247 2.7795 0.105831ZM8.76701 3.70519C9.07552 3.91087 9.29263 4.85927 9.25835 5.85338C9.24692 6.24188 9.23549 6.63038 9.24692 6.69894C9.25835 6.81321 9.56686 6.84749 10.4124 6.84749C11.2123 6.84749 11.6808 6.90462 11.9436 7.01888C12.6063 7.33883 12.7777 8.19582 12.2978 8.75572C12.0236 9.06423 11.9779 9.07566 10.6067 9.13279L9.20121 9.18992L9.23549 9.85266C9.34976 11.6466 8.96126 12.5608 8.09284 12.5608C7.13301 12.5608 6.93876 12.2408 6.85878 10.504L6.80164 9.18992L5.41903 9.13279C3.87645 9.06423 3.72791 9.0071 3.53365 8.33293C3.43082 8.00156 3.44224 7.83017 3.55651 7.57878C3.81932 7.03031 4.35636 6.84749 5.68184 6.84749H6.83592L6.88163 5.48773C6.91591 4.23081 6.93876 4.09369 7.19014 3.83088C7.6015 3.39667 8.20711 3.35097 8.76701 3.70519Z" fill="currentColor"/>
</svg>
