<svg width="24" height="24" viewBox="0 0 24 24" fill="none" xmlns="http://www.w3.org/2000/svg">
<path fill-rule="evenodd" clip-rule="evenodd" d="M7.24284 4.76818C7.22629 2.12994 9.36824 -0.0188125 11.9964 0.000124213C14.538 0.0184653 16.6784 2.16485 16.69 4.70725C16.7024 7.33455 14.5459 9.47769 11.9092 9.45876C9.32269 9.44043 7.25911 7.3662 7.24284 4.76818ZM9.00091 19.1903C11.2397 16.5024 13.341 13.9795 15.5169 11.3671C6.12691 9.17837 2.36356 14.5838 2.00333 22.0874C1.95867 23.0167 2.35795 23.8511 3.49636 23.9416C4.64838 24.0336 5.5546 23.7106 5.83145 22.4394C5.88189 22.2075 5.92082 21.9732 5.95976 21.7389C6.00139 21.4886 6.04324 21.2376 6.09882 20.9904C6.27533 20.2047 6.46111 19.4213 6.6469 18.6379C6.72216 18.3206 6.79791 18.0012 6.87255 17.6838C7.02457 17.7086 7.1769 17.7337 7.32891 17.7589V21.1978L9.00091 19.1903ZM10.1768 19.676C8.99887 21.0923 7.80511 22.5276 6.5889 23.9898C7.00461 23.9898 7.39257 23.9926 7.76061 23.9953C8.67828 24.002 9.4722 24.0077 10.2638 23.9668C10.5531 23.9517 10.8985 23.7103 11.0979 23.4722C14.4131 19.5187 17.7142 15.5533 21.0046 11.5788C21.6668 10.7791 21.7014 9.9379 20.8437 9.2541C19.9792 8.56496 19.1957 8.83381 18.5364 9.62617C15.7922 12.9242 13.0485 16.2231 10.2133 19.632L10.1768 19.676ZM20.4669 14.9222C20.6136 15.5763 20.7677 16.2293 20.9217 16.8822C21.3007 18.4887 21.68 20.0961 21.9502 21.7207C22.122 22.7556 21.7931 23.8174 20.4074 23.9454C19.0576 24.0705 18.2744 23.4509 18.0318 22.117C17.9392 21.6082 17.84 21.1006 17.7407 20.593C17.6148 19.9494 17.489 19.3058 17.3767 18.6598C17.3294 18.3871 17.2856 18.0088 17.4288 17.8251C18.0134 17.0726 18.6298 16.3451 19.2463 15.6176C19.4613 15.3638 19.6773 15.109 19.891 14.8541C20.083 14.8772 20.2749 14.8997 20.4669 14.9222ZM12.3052 23.9244H16.5302V18.8322C15.0165 20.6565 13.7267 22.2111 12.3052 23.9244Z" fill="currentColor"/>
</svg>
