<svg width="20" height="20" viewBox="0 0 20 20" fill="none" xmlns="http://www.w3.org/2000/svg">
<path fill-rule="evenodd" clip-rule="evenodd" d="M10.9004 5.63546C10.9004 5.16595 10.9004 4.79675 10.9004 4.35176C10.0895 4.35176 9.3045 4.35714 8.51957 4.34851C8.2932 4.34589 8.0038 4.38178 7.85509 4.26159C7.58857 4.04635 7.28141 3.75106 7.22062 3.44377C7.14096 3.04031 7.41323 2.67673 7.86435 2.58118C8.1455 2.52153 8.44103 2.5124 8.73019 2.51165C10.8353 2.50627 12.9405 2.50877 15.0456 2.50902C15.2122 2.50902 15.38 2.49964 15.5455 2.51452C16.0908 2.56355 16.4496 2.84132 16.5019 3.40325C16.5482 3.90077 16.1321 4.32175 15.5385 4.34126C14.6461 4.37065 13.7521 4.34901 12.8151 4.34901C12.8151 4.77724 12.8151 5.16082 12.8151 5.63558C13.6957 5.63558 14.5851 5.66672 15.4711 5.62708C16.4198 5.58468 17.1639 5.952 17.9424 6.47303C19.5131 7.52435 20.1526 8.88621 19.9696 10.7678C19.8433 12.0687 19.9545 13.3918 19.9427 14.7048C19.9267 16.4953 18.9307 17.4792 17.1377 17.4831C14.8868 17.4878 12.6354 17.4623 10.3848 17.4935C9.24909 17.5091 8.31934 17.143 7.71677 16.1814C7.13058 15.246 6.40506 14.8338 5.25882 14.9551C4.18324 15.0692 3.77001 14.5659 3.75475 13.4592C3.74562 12.7923 3.72987 12.1242 3.76001 11.4586C3.78027 11.0095 3.6018 10.8838 3.17682 10.8947C1.52705 10.9368 1.84785 10.6837 1.81171 12.2306C1.80395 12.5639 1.81146 12.8975 1.81033 13.2311C1.80708 14.2403 1.54256 14.6416 0.888585 14.6307C0.259871 14.6202 0.00198134 14.2268 0.00110587 13.2598C-0.000895207 11.0921 0.000356627 8.92448 0.00073183 6.75681C0.00073183 6.61098 -0.00264734 6.46453 0.00848366 6.31945C0.0567597 5.68336 0.378809 5.35055 0.92773 5.36256C1.45026 5.37394 1.77319 5.69386 1.7962 6.30156C1.82471 7.05084 1.82496 7.80238 1.80433 8.5519C1.79332 8.95487 1.92927 9.1067 2.34162 9.0972C4.06067 9.05755 3.72974 9.31044 3.74738 7.74372C3.76876 5.84032 3.95749 5.63583 5.86527 5.63583C7.52829 5.63546 9.19094 5.63546 10.9004 5.63546Z" fill="currentColor"/>
</svg>
