<svg width="12" height="12" viewBox="0 0 12 12" fill="none" xmlns="http://www.w3.org/2000/svg">
<path fill-rule="evenodd" clip-rule="evenodd" d="M1.06784 1.38027C0.520999 1.50031 0.130875 1.92711 0.0375119 2.50063C-0.012504 2.79406 -0.012504 9.20276 0.0375119 9.50285C0.130875 10.103 0.551008 10.5365 1.13453 10.6365C1.28791 10.6632 2.73837 10.6699 6.15279 10.6632C6.53168 10.6625 6.8814 10.662 7.20433 10.6614C10.762 10.6558 11.0669 10.6553 11.282 10.516C11.3022 10.5029 11.3216 10.4887 11.3428 10.473C11.3648 10.4568 11.3889 10.4391 11.4178 10.4198C11.6345 10.2764 11.8112 10.0564 11.9113 9.80628L11.988 9.61956L11.998 6.10177C12.0046 3.75436 11.9946 2.53064 11.9713 2.41727C11.8613 1.88043 11.4178 1.45363 10.8843 1.36694C10.5742 1.31692 1.30125 1.32692 1.06784 1.38027ZM10.9076 2.43061C11.0043 2.5273 11.0043 2.53064 11.0043 2.93077V3.33423H6.00274H1.00115V2.98745C1.00115 2.80072 1.01782 2.59733 1.03783 2.53731C1.04237 2.52468 1.04547 2.51285 1.04837 2.50176C1.05212 2.48747 1.05555 2.4744 1.06131 2.46247C1.1222 2.33631 1.44414 2.33616 5.16904 2.33437C5.43773 2.33424 5.72413 2.3341 6.02941 2.33391H10.8109L10.9076 2.43061ZM11.0043 7.40552V9.47618L10.9076 9.57287L10.8109 9.66957H6.03608C5.73053 9.66957 5.44388 9.66962 5.17494 9.66966C1.4498 9.67025 1.12345 9.6703 1.0616 9.54242C1.05566 9.53014 1.05216 9.51668 1.04832 9.50193C1.04542 9.49077 1.04232 9.47887 1.03783 9.46617C1.01115 9.39282 1.00115 8.73261 1.00115 7.34884V5.33486H6.00274H11.0043V7.40552ZM2.30156 7.74229C2.12817 7.83232 2.02481 7.98904 2.02481 8.16909C2.02481 8.34915 2.12817 8.50587 2.30156 8.5959C2.44494 8.66925 2.48162 8.67259 3.0518 8.66258C3.55529 8.65258 3.66866 8.64258 3.76203 8.59256C3.88206 8.52587 4.0021 8.31581 4.0021 8.16909C4.0021 8.02238 3.88206 7.81231 3.76203 7.74563C3.66866 7.69561 3.55529 7.68561 3.0518 7.6756C2.48162 7.6656 2.44494 7.66894 2.30156 7.74229ZM4.69232 8.1691C4.69232 7.98904 4.79569 7.83232 4.96908 7.74229C5.11912 7.6656 5.12246 7.6656 6.38619 7.67561C7.81999 7.68556 7.82001 7.68561 7.93836 7.9421L7.94002 7.94569C8.01671 8.12241 8.01671 8.21578 7.94002 8.3925L7.93836 8.39609C7.82001 8.65258 7.81999 8.65263 6.38619 8.66259C5.12246 8.67259 5.11912 8.67259 4.96908 8.5959C4.79569 8.50587 4.69232 8.34915 4.69232 8.1691Z" fill="currentColor"/>
</svg>
