<svg width="24" height="24" viewBox="0 0 24 24" fill="none" xmlns="http://www.w3.org/2000/svg">
<path fill-rule="evenodd" clip-rule="evenodd" d="M21.3056 17.0937C14.5951 17.0937 8.21255 17.0937 1.5 17.0937C1.5 13.6752 1.5 10.3253 1.5 6.90625C8.21045 6.90625 14.593 6.90625 21.3056 6.90625C21.3056 10.3248 21.3056 13.6744 21.3056 17.0937Z" fill="#6AD09D"/>
<path fill-rule="evenodd" clip-rule="evenodd" d="M11.3362 18.675C8.79706 18.675 6.25782 18.6781 3.71871 18.6741C1.33196 18.6705 0.0261508 17.3894 0.00996537 15.0178C-0.00367856 13.0133 -0.00287379 11.0085 0.00970003 9.00388C0.0244141 6.62528 1.32554 5.33687 3.70587 5.335C8.78422 5.33112 13.8627 5.35694 18.9408 5.32336C21.2346 5.30825 22.716 6.72922 22.6704 8.83373C22.6629 9.17362 22.7565 9.35541 23.1113 9.44477C23.6691 9.58549 23.9766 9.98571 23.987 10.5622C24.0043 11.519 24.0038 12.4767 23.9888 13.4336C23.9798 14.0088 23.6827 14.424 23.1231 14.5578C22.719 14.6543 22.6846 14.8848 22.6669 15.2285C22.5524 17.4653 21.276 18.6678 19.0206 18.6734C16.4591 18.6798 13.8976 18.675 11.3362 18.675ZM11.3374 16.7037C13.8988 16.7037 16.4604 16.7063 19.0218 16.7027C20.2457 16.7011 20.7255 16.2432 20.7354 15.0155C20.7513 13.011 20.7507 11.0062 20.7356 9.0016C20.7264 7.76923 20.2489 7.30695 19.0301 7.30628C13.9071 7.3036 8.78408 7.30374 3.66106 7.30628C2.43685 7.30682 1.95757 7.76522 1.9478 8.99344C1.93175 10.9979 1.93242 13.0028 1.94754 15.0073C1.95677 16.24 2.4339 16.7008 3.6529 16.7027C6.21434 16.7064 8.77579 16.7037 11.3374 16.7037Z" fill="currentColor"/>
</svg>
