<svg width="20" height="20" viewBox="0 0 20 20" fill="none" xmlns="http://www.w3.org/2000/svg">
<path fill-rule="evenodd" clip-rule="evenodd" d="M17.4915 14.5313C11.9886 14.5313 6.7546 14.5313 1.25 14.5313C1.25 11.4902 1.25 8.51024 1.25 5.46875C6.75288 5.46875 11.9869 5.46875 17.4915 5.46875C17.4915 8.50977 17.4915 11.4895 17.4915 14.5313Z" fill="#6AD09D"/>
<path fill-rule="evenodd" clip-rule="evenodd" d="M9.44681 15.5625C7.33088 15.5625 5.21485 15.5651 3.09892 15.5617C1.10996 15.5587 0.0217923 14.4912 0.00830447 12.5148C-0.00306547 10.8444 -0.00239483 9.17372 0.00808335 7.50323C0.0203451 5.52107 1.10461 4.44739 3.08822 4.44583C7.32018 4.4426 11.5523 4.46411 15.784 4.43613C17.6955 4.42354 18.93 5.60768 18.892 7.36144C18.8858 7.64469 18.9638 7.79618 19.2594 7.87064C19.7242 7.9879 19.9805 8.32142 19.9892 8.80186C20.0036 9.5992 20.0031 10.3972 19.9906 11.1947C19.9832 11.674 19.7356 12.02 19.2692 12.1315C18.9325 12.2119 18.9038 12.404 18.8891 12.6904C18.7937 14.5544 17.73 15.5565 15.8505 15.5612C13.7159 15.5665 11.5813 15.5625 9.44681 15.5625ZM9.44781 13.9198C11.5823 13.9198 13.717 13.9219 15.8515 13.9189C16.8714 13.9176 17.2712 13.536 17.2795 12.5129C17.2927 10.8425 17.2923 9.17183 17.2797 7.50134C17.272 6.47436 16.8741 6.08912 15.8585 6.08857C11.5893 6.08634 7.32007 6.08645 3.05088 6.08857C2.03071 6.08901 1.63131 6.47102 1.62317 7.49454C1.60979 9.16491 1.61035 10.8356 1.62295 12.5061C1.63064 13.5333 2.02825 13.9173 3.04408 13.9189C5.17862 13.922 7.31316 13.9198 9.44781 13.9198Z" fill="currentColor"/>
</svg>
