<svg width="24" height="24" viewBox="0 0 24 24" fill="none" xmlns="http://www.w3.org/2000/svg">
<path fill-rule="evenodd" clip-rule="evenodd" d="M15.5283 7.06236C15.9871 7.06214 16.4495 7.06193 16.9167 7.06193L16.9168 7.72148C16.9168 8.12914 16.9166 8.53681 16.9163 8.94448C16.9155 10.2068 16.9146 11.4691 16.9219 12.7313C16.9233 12.9808 16.9476 13.2468 17.0368 13.4759C17.3221 14.2083 18.3406 14.3535 18.8234 13.7331C18.9761 13.5367 19.0764 13.2937 19.1724 13.0604C20.4419 9.97588 21.7074 6.88976 22.9713 3.80299C23.2942 3.01456 23.6127 2.22428 23.9242 1.43138C24.0878 1.01487 23.9782 0.63521 23.6761 0.329913C23.3742 0.0247247 22.9983 -0.0819116 22.5749 0.0657213C22.4549 0.107591 22.3353 0.150878 22.2177 0.198853L22.2144 0.200203C18.3986 1.75633 14.5828 3.31246 10.7684 4.87219C10.3063 5.06133 9.78199 5.52028 9.88399 6.10068C10.0055 6.79166 10.671 7.05469 11.2721 7.05757C12.6788 7.06369 14.0855 7.06303 15.5283 7.06236ZM2.2607 10.7971C5.27496 7.79026 10.2214 7.79026 13.2357 10.7971C16.25 13.8039 16.1727 18.7382 13.1584 21.745C10.1442 24.7518 5.27496 24.7518 2.2607 21.745C-0.753566 18.7382 -0.753566 13.8039 2.2607 10.7971ZM5.58412 19.5091L7.7482 17.3504L9.91229 19.5091L10.9943 18.4298L8.83024 16.271L10.9943 14.1123L9.91229 13.0329L7.7482 15.1917L5.58412 13.0329L4.50207 14.1123L6.66616 16.271L4.50207 18.4298L5.58412 19.5091Z" fill="currentColor"/>
</svg>
