<svg width="20" height="20" viewBox="0 0 20 20" fill="none" xmlns="http://www.w3.org/2000/svg">
<path fill-rule="evenodd" clip-rule="evenodd" d="M7.69295 2.86374C7.73988 2.76599 7.8259 2.67214 7.91584 2.6174C8.06443 2.53528 8.08398 2.53137 9.99609 2.53137H9.99614C11.9082 2.53137 11.9278 2.53137 12.0763 2.6174C12.1741 2.67214 12.2562 2.76208 12.307 2.86374C12.3813 3.01624 12.3853 3.10618 12.3853 4.57643V6.1288H14.1605H15.9318L16.0609 6.21482C16.1313 6.26566 16.2212 6.34777 16.2603 6.40252C16.3424 6.51591 19.9594 16.5965 19.9946 16.8116C20.0298 17.0228 19.889 17.2926 19.6935 17.3903C19.5449 17.4685 19.412 17.4685 10 17.4685C0.588034 17.4685 0.455085 17.4685 0.306496 17.3903C0.110983 17.2926 -0.0297854 17.0228 0.00540679 16.8116C0.040599 16.5965 3.65758 6.51591 3.73969 6.40252C3.7788 6.34777 3.86873 6.26566 3.93912 6.21482L4.06815 6.1288H5.8395H7.61475V4.57643C7.61475 3.10618 7.61866 3.01624 7.69295 2.86374ZM11.2122 6.1288V4.91662V3.70445H10H8.78782V4.91662V6.1288H10H11.2122ZM18.5595 16.2446C18.5595 16.2212 17.844 14.1996 16.9681 11.7596L15.3766 7.32143L10.0117 7.30969C7.06341 7.30578 4.63905 7.31752 4.62732 7.33316C4.59213 7.3879 1.43656 16.2212 1.43656 16.2603C1.43656 16.2798 4.72508 16.2954 10 16.2954C16.8273 16.2954 18.5634 16.2837 18.5595 16.2446ZM15.2537 12.2485C15.2537 13.705 14.3475 14.5965 12.8507 14.5965C11.2217 14.5965 10.2422 13.5436 10.2422 11.801C10.2422 10.0803 11.2254 9.01638 12.814 9.01638C14.1054 9.01638 15.0666 9.76847 15.1987 10.8874H13.8706C13.7385 10.4215 13.3423 10.139 12.814 10.139C12.0619 10.139 11.6143 10.7554 11.6143 11.7863C11.6143 12.8355 12.1096 13.4739 12.88 13.4739C13.4927 13.4739 13.9183 13.1144 13.9513 12.5787L13.955 12.4907H12.9864V11.5662H15.2537V12.2485ZM6.68717 14.4535H5.34075V9.15946H6.68717V11.4341H6.75688L8.51788 9.15946H9.96336L8.13266 11.4965L10.0698 14.4535H8.48853L7.15311 12.3659L6.68717 12.9566V14.4535Z" fill="currentColor"/>
</svg>
