<svg width="12" height="12" viewBox="0 0 12 12" fill="none" xmlns="http://www.w3.org/2000/svg">
<path fill-rule="evenodd" clip-rule="evenodd" d="M3.62142 2.38409C3.61314 1.06497 4.68412 -0.00940627 5.99821 6.21063e-05C7.26898 0.00923263 8.33921 1.08243 8.34498 2.35363C8.35119 3.66728 7.27297 4.73885 5.95459 4.72938C4.66134 4.72022 3.62955 3.6831 3.62142 2.38409ZM4.50045 9.59516C5.61984 8.25119 6.67049 6.98974 7.75847 5.68353C3.06345 4.58918 1.18178 7.29191 1.00167 11.0437C0.979336 11.5084 1.17898 11.9255 1.74818 11.9708C2.32419 12.0168 2.7773 11.8553 2.91572 11.2197C2.94094 11.1038 2.96041 10.9866 2.97988 10.8694C3.0007 10.7443 3.02162 10.6188 3.04941 10.4952C3.13767 10.1023 3.23055 9.71065 3.32345 9.31894C3.36108 9.1603 3.39895 9.00062 3.43628 8.84188C3.51229 8.8543 3.58845 8.86687 3.66446 8.87944V10.5989L4.50045 9.59516ZM5.08838 9.83801C4.49943 10.5461 3.90256 11.2638 3.29445 11.9949C3.5023 11.9949 3.69628 11.9963 3.88031 11.9977C4.33914 12.001 4.7361 12.0038 5.13191 11.9834C5.27654 11.9758 5.44926 11.8552 5.54894 11.7361C7.20656 9.75935 8.85709 7.77667 10.5023 5.78941C10.8334 5.38954 10.8507 4.96895 10.4219 4.62705C9.98959 4.28248 9.59785 4.4169 9.26821 4.81309C7.89609 6.46209 6.52427 8.11154 5.10667 9.81602L5.08838 9.83801ZM10.2334 7.46108C10.3068 7.78815 10.3838 8.11463 10.4609 8.44111C10.6504 9.24437 10.84 10.0481 10.9751 10.8603C11.061 11.3778 10.8966 11.9087 10.2037 11.9727C9.52878 12.0353 9.13718 11.7255 9.01592 11.0585C8.96962 10.8041 8.91999 10.5503 8.87035 10.2965C8.80742 9.9747 8.74449 9.65289 8.68836 9.32989C8.66469 9.19354 8.64281 9.00439 8.71438 8.91256C9.00668 8.53631 9.31491 8.17256 9.62317 7.80879C9.73067 7.68192 9.83867 7.55448 9.94551 7.42707C10.0415 7.43861 10.1375 7.44985 10.2334 7.46108ZM6.1526 11.9622H8.26512V9.41611C7.50825 10.3283 6.86334 11.1055 6.1526 11.9622Z" fill="currentColor"/>
</svg>
