<svg width="16" height="16" viewBox="0 0 16 16" fill="none" xmlns="http://www.w3.org/2000/svg">
<path fill-rule="evenodd" clip-rule="evenodd" d="M4.77206 1.70603C4.24474 1.82805 3.90045 2.07211 3.70434 2.45561C3.54309 2.77811 3.48644 3.12239 3.48644 3.7761V4.29035H2.60175C1.62555 4.29035 1.31177 4.32957 0.984918 4.49518C0.666781 4.65642 0.335569 4.992 0.204828 5.28399C0.0305062 5.6675 0 5.99435 0 7.37148V8.64839H4.89844H9.80124L10.1499 8.29975C11.0564 7.39327 12.4117 6.85288 13.6232 6.91389L13.9457 6.92697V6.404C13.9457 5.59776 13.8237 5.22733 13.4271 4.83074C13.1613 4.56491 12.8301 4.39059 12.4814 4.33393C12.342 4.30778 11.8277 4.29035 11.3483 4.29035H10.468L10.4549 3.5582L10.4549 3.55488C10.4375 2.83475 10.4373 2.82561 10.2937 2.53842C10.1107 2.16798 9.94506 2.00238 9.5877 1.83242L9.30442 1.69731L7.08182 1.6886C5.86157 1.6886 4.82 1.69295 4.77206 1.70603ZM9.08216 3.05267C9.13882 3.10496 9.15189 3.23134 9.15189 3.70638V4.29035H6.97287H4.79385V3.73252C4.79385 3.30108 4.80692 3.15726 4.86358 3.07881L4.92895 2.98294H6.97287C8.77274 2.98294 9.02115 2.99165 9.08216 3.05267ZM0 10.7901C0 11.762 0.0217902 12.6249 0.0479384 12.7861C0.169964 13.5575 0.714719 14.1284 1.45559 14.2635C1.62991 14.294 3.03756 14.3114 5.76569 14.3114H9.81867L9.70101 14.1676C9.50054 13.9192 9.19547 13.3832 9.06037 13.0302C8.85119 12.4898 8.75531 11.9668 8.7466 11.3611L8.73788 10.825H7.32151C5.93566 10.825 5.89643 10.8206 5.70904 10.7248C5.59573 10.6681 5.46063 10.5505 5.38218 10.4415C5.2558 10.2585 5.25144 10.2367 5.23837 9.66577L5.22094 9.08179H2.61047H0V10.7901ZM12.9093 14.3114C14.6163 14.3114 16 12.9277 16 11.2208C16 9.51385 14.6163 8.13012 12.9093 8.13012C11.2024 8.13012 9.81867 9.51385 9.81867 11.2208C9.81867 12.9277 11.2024 14.3114 12.9093 14.3114ZM12.9093 12.4571C12.2266 12.4571 11.6731 11.9036 11.6731 11.2208C11.6731 10.538 12.2266 9.98452 12.9093 9.98452C13.5921 9.98452 14.1456 10.538 14.1456 11.2208C14.1456 11.9036 13.5921 12.4571 12.9093 12.4571Z" fill="currentColor"/>
</svg>
