<svg width="20" height="20" viewBox="0 0 20 20" fill="none" xmlns="http://www.w3.org/2000/svg">
<path fill-rule="evenodd" clip-rule="evenodd" d="M10.9004 6.12935C10.9004 5.65985 10.9004 5.29065 10.9004 4.84566C10.0895 4.84566 9.3045 4.85104 8.51957 4.84241C8.2932 4.83978 8.0038 4.87568 7.85509 4.75549C7.58857 4.54024 7.28141 4.24496 7.22062 3.93767C7.14096 3.5342 7.41323 3.17063 7.86435 3.07508C8.1455 3.01542 8.44103 3.00629 8.73019 3.00554C10.8353 3.00016 12.9405 3.00267 15.0456 3.00292C15.2122 3.00292 15.38 2.99354 15.5455 3.00842C16.0908 3.05745 16.4496 3.33522 16.5019 3.89715C16.5482 4.39467 16.1321 4.81564 15.5385 4.83515C14.6461 4.86454 13.7521 4.84291 12.8151 4.84291C12.8151 5.27114 12.8151 5.65472 12.8151 6.12948C13.6957 6.12948 14.5851 6.16062 15.4711 6.12097C16.4198 6.07857 17.1639 6.4459 17.9424 6.96693C19.5131 8.01825 20.1526 9.3801 19.9696 11.2617C19.8433 12.5626 19.9545 13.8857 19.9427 15.1987C19.9267 16.9892 18.9307 17.9731 17.1377 17.977C14.8868 17.9817 12.6354 17.9562 10.3848 17.9874C9.24909 18.003 8.31934 17.6369 7.71677 16.6753C7.13058 15.7399 6.40506 15.3277 5.25882 15.449C4.18324 15.5631 3.77001 15.0598 3.75475 13.9531C3.74562 13.2862 3.72987 12.6181 3.76001 11.9525C3.78027 11.5034 3.6018 11.3777 3.17682 11.3886C1.52705 11.4307 1.84785 11.1776 1.81171 12.7245C1.80395 13.0578 1.81146 13.3914 1.81033 13.7249C1.80708 14.7342 1.54256 15.1355 0.888585 15.1246C0.259871 15.1141 0.00198134 14.7207 0.00110587 13.7537C-0.000895207 11.586 0.000356627 9.41837 0.00073183 7.2507C0.00073183 7.10488 -0.00264734 6.95842 0.00848366 6.81335C0.0567597 6.17725 0.378809 5.84445 0.92773 5.85646C1.45026 5.86784 1.77319 6.18776 1.7962 6.79546C1.82471 7.54474 1.82496 8.29627 1.80433 9.0458C1.79332 9.44877 1.92927 9.6006 2.34162 9.59109C4.06067 9.55145 3.72974 9.80433 3.74738 8.23761C3.76876 6.33421 3.95749 6.12973 5.86527 6.12973C7.52829 6.12935 9.19094 6.12935 10.9004 6.12935Z" fill="currentColor"/>
</svg>
