<svg width="24" height="25" viewBox="0 0 24 25" fill="none" xmlns="http://www.w3.org/2000/svg">
<path fill-rule="evenodd" clip-rule="evenodd" d="M15.1507 2.08241C15.3083 1.72204 15.436 1.60942 15.8114 1.48179C16.1492 1.36167 16.4645 1.40671 16.7799 1.62444C16.9075 1.71453 18.1763 2.87824 19.5953 4.22213C20.499 5.07802 21.3144 5.84559 21.799 6.30182C22.0754 6.56196 22.2442 6.72088 22.2605 6.73724C22.3131 6.77477 22.6885 7.14266 23.1014 7.54808C23.702 8.13368 23.8672 8.35141 23.9423 8.61418C24.1225 9.25234 24.0624 9.32742 20.9767 12.2254C20.6978 12.4893 20.3375 12.8287 19.9564 13.1875C19.3835 13.7271 18.7639 14.3107 18.3039 14.748C16.5321 16.4223 16.3219 16.5424 15.6837 16.2196C15.436 16.0919 15.3008 15.9568 15.1807 15.709C15.0155 15.3862 15.008 15.3036 15.008 13.254V11.1218L10.2481 11.1443L5.48817 11.1668L5.16534 11.3921C4.99266 11.5122 4.77493 11.7524 4.69235 11.9176C4.54219 12.2104 4.53468 12.3455 4.49714 16.0093L4.4596 17.6986L4.25689 18.0515C4.10674 18.2992 3.94908 18.4494 3.69381 18.577C3.36347 18.7347 3.23584 18.7497 2.24481 18.7497C1.25378 18.7497 1.12615 18.7347 0.79581 18.577C0.540545 18.4494 0.382882 18.2992 0.232726 18.0515L0.0300165 17.6986L0.00749317 16.2721C-0.0300457 11.7524 0.0525399 11.0317 0.743255 9.77788C1.70425 8.03608 3.31842 6.94745 5.323 6.6997C5.69088 6.65465 7.8306 6.62462 10.4808 6.62462H15.008V4.49992C15.008 2.61547 15.023 2.35269 15.1507 2.08241ZM10.0968 24.1418C9.58948 24.1418 9.08213 24.1423 8.57483 24.1428L8.5709 24.1428C7.39362 24.1441 6.21634 24.1453 5.0391 24.14C3.71846 24.1339 2.92491 22.8243 3.57696 21.6741C4.77933 19.5532 5.99645 17.4406 7.21361 15.3281L7.21479 15.3261L7.21651 15.3231C7.71009 14.4664 8.20406 13.609 8.69664 12.7518C9.28272 11.7319 10.8946 11.6161 11.6095 12.9213C12.2244 14.0441 12.866 15.1521 13.5076 16.2602C13.7859 16.7408 14.0642 17.2214 14.3403 17.7033C14.5644 18.0942 14.7908 18.4851 15.0167 18.875L15.0186 18.8783C15.5472 19.7907 16.0758 20.7032 16.5805 21.6287C17.0824 22.5492 16.7919 23.7663 15.6034 24.0873C15.4238 24.1358 15.2285 24.1409 15.0404 24.1414C13.7704 24.1444 12.5004 24.1441 11.2305 24.1439H11.2289L10.0967 24.1437L10.0968 24.1418ZM10.8838 17.0068L10.8659 17.0057C10.8692 16.9431 10.8733 16.8805 10.8775 16.8179L10.8841 16.7234C10.8987 16.5142 10.9133 16.305 10.9112 16.0959C10.9062 15.5933 10.5495 15.2413 10.0802 15.2497C9.63812 15.2576 9.24982 15.6203 9.2693 16.0841C9.31446 17.1585 9.38541 18.2321 9.46904 19.3043C9.49829 19.6787 9.80575 19.9243 10.1285 19.9016C10.4653 19.8781 10.7138 19.6157 10.7394 19.2419C10.7757 18.7151 10.809 18.1882 10.8422 17.6613L10.867 17.271L10.8838 17.0068ZM10.0916 20.3533C9.58248 20.356 9.17441 20.7703 9.18504 21.2736C9.19578 21.7789 9.61857 22.1866 10.1192 22.1744C10.6061 22.1626 10.997 21.7583 10.9986 21.2647C11.0003 20.7475 10.6053 20.3506 10.0916 20.3533Z" fill="currentColor"/>
</svg>
