<svg width="20" height="20" viewBox="0 0 20 20" fill="none" xmlns="http://www.w3.org/2000/svg">
<path fill-rule="evenodd" clip-rule="evenodd" d="M9.99992 16.0037L7.67191 16.0039C5.89276 16.0042 4.11362 16.0044 2.33447 16.0035C0.775644 16.0025 0.00484594 15.2303 0.00264324 13.6594C-0.00088108 11.2211 -0.00088108 8.78283 0.00264324 6.34462C0.00484594 4.77374 0.775742 4.00113 2.33467 4.00084C7.44498 3.99972 12.5552 3.99972 17.6655 4.00084C19.2243 4.00113 19.9951 4.77384 19.9974 6.34482C20.0009 8.78303 20.0009 11.2214 19.9974 13.6596C19.9952 15.2304 19.2242 16.0025 17.6652 16.0035C15.8862 16.0044 14.107 16.0042 12.3279 16.0039L9.99992 16.0037ZM10.0016 14.5264L12.127 14.5265C13.9909 14.5267 15.8547 14.5268 17.7185 14.5259C18.3986 14.5256 18.5443 14.3885 18.5455 13.7088C18.5498 11.2367 18.55 8.76458 18.5454 6.29249C18.5441 5.61461 18.3982 5.47858 17.7153 5.47848C12.5708 5.47748 7.42604 5.47748 2.28136 5.47848C1.60117 5.47858 1.45574 5.61571 1.45452 6.2956C1.45021 8.76769 1.45011 11.2398 1.45461 13.7119C1.45584 14.3899 1.60156 14.5256 2.28454 14.5259C4.85691 14.5272 7.42917 14.5264 10.0016 14.5264ZM9.95327 11.5205C10.3673 11.5205 10.6474 11.5067 10.9255 11.5235C11.4112 11.5529 11.7266 11.8476 11.7309 12.2516C11.7351 12.6529 11.4177 12.9781 10.938 12.9889C10.0544 13.009 9.16774 13.027 8.28695 12.9722C8.03966 12.9568 7.6911 12.7319 7.60299 12.5157C7.51527 12.3006 7.61293 11.9062 7.7749 11.7117C8.20188 11.1987 8.65872 10.7108 9.11561 10.2228C9.30891 10.0164 9.50221 9.8099 9.69326 9.60155C9.72023 9.57205 9.75062 9.54238 9.78136 9.51232L9.78224 9.51141C9.87872 9.417 9.97882 9.3191 9.99199 9.2133C10.017 9.0125 9.99336 8.70935 9.86668 8.61321C9.74054 8.51767 9.41547 8.55526 9.26055 8.65872C9.13583 8.74197 9.04434 8.87211 8.95192 9.00353C8.90968 9.06366 8.86724 9.12406 8.82133 9.18037C8.79803 9.20889 8.77385 9.23636 8.74839 9.26221C8.49959 9.51483 8.19395 9.56727 7.88229 9.3767C7.55487 9.1764 7.42873 8.85251 7.56877 8.51246C7.98009 7.5144 9.01257 6.65709 10.2983 7.16002C11.537 7.64452 11.9482 9.12035 11.1326 10.1831C10.9092 10.4739 10.6603 10.745 10.3819 11.0482C10.2461 11.196 10.1034 11.3515 9.95327 11.5205ZM5.96697 11.5064C5.89066 11.4994 5.81082 11.4922 5.72634 11.4821V10.9855C5.72624 9.96857 5.73206 8.95175 5.72374 7.93485C5.71904 7.36725 5.49417 7.07122 5.00566 7.02229C4.6592 6.98761 4.30403 6.99042 3.95727 7.0231C3.56671 7.05998 3.29646 7.29496 3.27018 7.69566C3.24424 8.09194 3.46397 8.35418 3.85624 8.45273C3.97906 8.4836 4.10466 8.50305 4.21744 8.5255V11.4903C4.14377 11.498 4.07284 11.5032 4.00412 11.5082C3.85928 11.5188 3.72428 11.5286 3.59417 11.5593C3.22627 11.6459 3.02088 11.8848 3.0271 12.2745C3.03292 12.6414 3.23361 12.9286 3.57797 12.9423C4.52337 12.9801 5.47273 12.9785 6.41784 12.9345C6.76621 12.9182 6.95055 12.6157 6.94879 12.2526C6.94688 11.8884 6.75529 11.653 6.40785 11.5678C6.26933 11.5339 6.12571 11.5208 5.96697 11.5064Z" fill="currentColor"/>
</svg>
