<svg width="12" height="12" viewBox="0 0 12 12" fill="none" xmlns="http://www.w3.org/2000/svg">
<path fill-rule="evenodd" clip-rule="evenodd" d="M1.00014 5.99833C1.00014 4.48865 0.999779 2.97898 1.00037 1.4693C1.00051 1.10395 1.10446 1.00088 1.46873 1.00079C2.89631 1.00052 4.32385 0.998814 5.75139 1.00146C6.29959 1.00245 6.78167 1.1899 7.1695 1.56811C8.36124 2.73039 9.54423 3.90142 10.7301 5.06957C10.9772 5.31291 11.0541 5.60765 10.963 5.93464C10.5644 7.36443 10.163 8.79355 9.75556 10.221C9.62112 10.6919 9.20581 10.9974 8.70714 10.998C6.27726 11.001 3.84734 11 1.41746 10.999C1.11617 10.9989 1.00087 10.8802 1.00065 10.5722C0.999551 9.04761 1.00019 7.52299 1.00014 5.99833ZM5.49008 5.36673C6.4159 5.36673 7.34172 5.36498 8.26754 5.36817C8.45644 5.36884 8.61814 5.3321 8.69461 5.14219C8.76666 4.96304 8.68367 4.83045 8.55529 4.70503C7.91996 4.08393 7.29081 3.45672 6.65475 2.83634C6.33268 2.52213 5.94262 2.30135 5.49044 2.28592C4.5355 2.25331 3.57905 2.25762 2.62319 2.25901C2.39501 2.25937 2.27948 2.40779 2.27884 2.64683C2.27679 3.41631 2.27697 4.18579 2.27861 4.95528C2.27925 5.24975 2.40508 5.36601 2.71311 5.36606C3.63875 5.36615 4.56439 5.3661 5.49008 5.36673ZM3.22731 7.06561C3.22731 7.0653 3.22731 7.06498 3.22731 7.06467C3.43185 7.06467 3.63674 7.07238 3.84082 7.06256C4.05169 7.05233 4.18814 6.9118 4.19082 6.72417C4.19356 6.53291 4.06851 6.39395 3.8488 6.38619C3.44119 6.37179 3.03285 6.36825 2.62502 6.37422C2.42267 6.37713 2.28021 6.53323 2.27879 6.7157C2.2772 6.92252 2.40476 7.05345 2.6365 7.06377C2.83306 7.07256 3.03035 7.06561 3.22731 7.06561Z" fill="currentColor"/>
</svg>
