<svg width="24" height="24" viewBox="0 0 24 24" fill="none" xmlns="http://www.w3.org/2000/svg">
<path fill-rule="evenodd" clip-rule="evenodd" d="M8.96456 18.0218C8.96456 18.6186 8.97901 19.1404 8.9614 19.661C8.92995 20.5907 8.55286 20.9562 7.60819 20.9807C7.08905 20.9942 6.56916 20.9831 5.95417 20.9831C5.95417 21.6106 5.97073 22.1555 5.95041 22.699C5.91821 23.5598 5.55361 23.9578 4.71472 23.9787C3.56224 24.0074 2.4078 24.0069 1.25532 23.9784C0.442007 23.9583 0.0513732 23.5726 0.0316611 22.7688C0.00292056 21.5935 -0.0304822 20.413 0.0521281 19.2428C0.0817716 18.8233 0.358642 18.3456 0.664706 18.0333C2.89142 15.7621 5.14823 13.5198 7.41272 11.2858C7.76739 10.9359 7.88325 10.6336 7.76949 10.1131C6.65418 5.01684 10.1556 0.391607 15.377 0.0183988C19.5623 -0.280619 23.5485 3.10439 23.959 7.30686C24.3924 11.7405 21.3414 15.7914 17.081 16.3124C16.0098 16.4435 14.8991 16.2296 13.8065 16.229C13.4755 16.2287 13.1408 16.4032 12.815 16.5178C12.7299 16.5477 12.6614 16.6461 12.602 16.7254C11.8463 17.7303 10.8629 18.1823 9.59836 17.9851C9.43073 17.959 9.25242 18.0028 8.96456 18.0218ZM19.5519 6.39328C19.5718 5.33613 18.7344 4.47903 17.6734 4.47047C16.6393 4.46206 15.8105 5.25428 15.7695 6.28996C15.7275 7.3462 16.5465 8.21998 17.6069 8.25001C18.6634 8.28005 19.5321 7.45088 19.5519 6.39328Z" fill="currentColor"/>
</svg>
