<svg width="20" height="20" viewBox="0 0 20 20" fill="none" xmlns="http://www.w3.org/2000/svg">
<path fill-rule="evenodd" clip-rule="evenodd" d="M4.55722 2.04169C5.38289 1.0096 6.85908 0.208972 8.21643 0.0588513L8.24116 0.0559597H8.24154C8.57582 0.0171164 8.74213 -0.0022089 8.90811 0.000200737C9.07239 0.00261037 9.23636 0.0262248 9.56253 0.0732609L9.59254 0.0775983C10.3932 0.190176 11.0375 0.396634 11.6254 0.728152C12.939 1.47249 13.8084 2.58589 14.2525 4.07456C14.4402 4.70632 14.4527 4.81894 14.4965 6.10121L14.534 7.45856L14.8468 7.47109C16.3355 7.54612 17.3363 8.30925 17.5677 9.54776C17.5924 9.68448 17.6096 10.4706 17.6193 11.5118C17.1313 11.3513 16.6098 11.2644 16.068 11.2644C13.3287 11.2644 11.108 13.4851 11.108 16.2244C11.108 17.7284 11.7775 19.076 12.8346 19.9857C9.06817 20.0147 2.66333 20.0001 2.28664 19.9374C1.22328 19.7623 0.435147 19.0116 0.209967 17.9545C0.0786114 17.329 0.0786114 10.1607 0.209967 9.53523C0.472677 8.29046 1.50476 7.48983 2.8496 7.48983H3.24367V6.60786C3.24367 4.49991 3.60646 3.24266 4.55722 2.04169ZM11.9006 4.81268C11.5942 3.71803 10.9186 3.00497 9.8615 2.64217C9.58003 2.54834 8.70432 2.47331 8.43535 2.52333C7.14681 2.75475 6.31489 3.44907 5.92082 4.61875C5.80198 4.96906 5.78947 5.16294 5.78321 6.23885L5.77696 7.45856L8.89197 7.4773L12.0007 7.48983V6.32641C12.0007 5.4507 11.9757 5.07538 11.9006 4.81268ZM9.94282 11.8496C9.8615 11.7183 9.69262 11.5431 9.56751 11.4618C8.96078 11.074 8.07256 11.3054 7.78483 11.9247C7.65973 12.1936 7.65347 12.3125 7.65347 13.8199V15.4212L7.84112 15.6902C8.09758 16.053 8.4291 16.2156 8.91699 16.2156C9.24225 16.2156 9.34233 16.1843 9.57377 16.028C9.73015 15.9154 9.90529 15.7215 9.9866 15.5588C10.1242 15.2836 10.1305 15.2398 10.1117 13.6823C10.0929 12.1311 10.0867 12.0811 9.94282 11.8496ZM16.068 20C18.1781 20 19.8886 18.2895 19.8886 16.1795C19.8886 14.0694 18.1781 12.3589 16.068 12.3589C13.958 12.3589 12.2475 14.0694 12.2475 16.1795C12.2475 18.2895 13.958 20 16.068 20ZM16.068 18.0897C15.013 18.0897 14.1578 17.2345 14.1578 16.1795C14.1578 15.1245 15.013 14.2692 16.068 14.2692C17.123 14.2692 17.9783 15.1245 17.9783 16.1795C17.9783 17.2345 17.123 18.0897 16.068 18.0897Z" fill="currentColor"/>
</svg>
