<svg width="16" height="16" viewBox="0 0 16 16" fill="none" xmlns="http://www.w3.org/2000/svg">
<path fill-rule="evenodd" clip-rule="evenodd" d="M8.45787 11.9375C5.97337 11.9375 3.61028 11.9375 1.125 11.9375C1.125 9.63052 1.125 7.36983 1.125 5.0625C3.6095 5.0625 5.97259 5.0625 8.45787 5.0625C8.45787 7.36948 8.45787 9.62999 8.45787 11.9375Z" fill="#6AD09D"/>
<path fill-rule="evenodd" clip-rule="evenodd" d="M7.55744 12.9012C5.86471 12.9012 4.17188 12.9032 2.47914 12.9006C0.887971 12.8981 0.0174339 12.0441 0.00664358 10.463C-0.00245238 9.12672 -0.00191586 7.79015 0.00646668 6.45376C0.016276 4.86803 0.88369 4.00909 2.47058 4.00784C5.85614 4.00525 9.2418 4.02246 12.6272 4.00008C14.1564 3.99 15.144 4.93732 15.1136 6.34032C15.1086 6.56692 15.171 6.68811 15.4075 6.74768C15.7794 6.8415 15.9844 7.10831 15.9914 7.49266C16.0029 8.13053 16.0025 8.76894 15.9925 9.40691C15.9865 9.79037 15.7885 10.0672 15.4154 10.1563C15.146 10.2207 15.123 10.3744 15.1113 10.6035C15.0349 12.0947 14.184 12.8964 12.6804 12.9001C10.9727 12.9044 9.26508 12.9012 7.55744 12.9012ZM7.55825 11.587C9.26588 11.587 10.9736 11.5887 12.6812 11.5863C13.4971 11.5852 13.817 11.28 13.8236 10.4615C13.8342 9.1252 13.8338 7.78863 13.8238 6.45224C13.8176 5.63066 13.4992 5.32247 12.6868 5.32203C9.27141 5.32024 5.85606 5.32033 2.4407 5.32203C1.62457 5.32238 1.30505 5.62799 1.29854 6.4468C1.28784 7.7831 1.28828 9.11967 1.29836 10.4561C1.30451 11.2778 1.6226 11.585 2.43526 11.5863C4.1429 11.5888 5.85053 11.587 7.55825 11.587Z" fill="currentColor"/>
</svg>
