<svg width="24" height="24" viewBox="0 0 24 24" fill="none" xmlns="http://www.w3.org/2000/svg">
<path fill-rule="evenodd" clip-rule="evenodd" d="M23.9998 11.9715C24.034 18.5638 18.6554 23.9678 12.0285 23.9999C5.43004 24.0319 0.0345095 18.6616 0.000162231 12.0283C-0.0340343 5.43624 5.34236 0.0341253 11.9714 0.000160177C18.5679 -0.033805 23.9655 5.33825 23.9998 11.9715ZM13.1491 8.74619C13.1491 7.26841 13.1592 5.79062 13.1452 4.31298C13.1372 3.49106 12.6985 2.99075 12.0253 2.97422C11.3289 2.95708 10.8768 3.48069 10.8515 4.33748C10.8464 4.51272 10.8504 4.68826 10.8504 4.86349C10.8504 7.59363 10.8417 10.3239 10.8592 13.0539C10.862 13.4905 10.7789 13.769 10.3628 14.0157C9.19271 14.7099 8.72089 16.029 9.09675 17.3332C9.46554 18.6125 10.6906 19.5354 12.0124 19.5298C13.3079 19.5244 14.4995 18.6335 14.8864 17.3809C15.2951 16.0586 14.8204 14.7177 13.6167 14.0018C13.2272 13.77 13.1372 13.5123 13.1425 13.1043C13.1609 11.6519 13.1497 10.199 13.1491 8.74619ZM8.23642 6.72106C8.22617 5.8563 7.57101 5.21472 6.70857 5.22478C5.84748 5.2347 5.20829 5.89267 5.21838 6.75863C5.22847 7.62354 5.88363 8.26497 6.74608 8.25505C7.60687 8.24498 8.24651 7.58672 8.23642 6.72106ZM18.7818 6.70497C18.7634 5.84142 18.1009 5.20675 17.2377 5.22569C16.3769 5.24432 15.7454 5.90815 15.7636 6.77486C15.782 7.63842 16.4442 8.27308 17.3077 8.2543C18.1682 8.23551 18.8 7.57139 18.7818 6.70497ZM2.95869 12.0124C2.96547 12.8775 3.61792 13.5221 4.48022 13.5154C5.34116 13.5087 5.98366 12.8528 5.97673 11.9875C5.9698 11.1222 5.31735 10.4777 4.45521 10.4844C3.59412 10.4912 2.95192 11.1469 2.95869 12.0124ZM18.0231 11.9936C18.0198 12.8588 18.6649 13.5121 19.5258 13.5157C20.3877 13.519 21.0378 12.8716 21.0415 12.0062C21.0448 11.1412 20.3994 10.4876 19.5385 10.4843C18.6766 10.481 18.0267 11.1283 18.0231 11.9936Z" fill="currentColor"/>
</svg>
