<svg width="12" height="12" viewBox="0 0 12 12" fill="none" xmlns="http://www.w3.org/2000/svg">
<path fill-rule="evenodd" clip-rule="evenodd" d="M5.30528 1.00012C5.30528 1.38069 5.29992 1.72352 5.30762 2.06615C5.31137 2.23221 5.31906 2.40323 5.36114 2.5624C5.43521 2.84247 5.7284 3.02111 6.03577 3.00225C6.34715 2.98304 6.61211 2.78835 6.63378 2.47663C6.66664 2.00185 6.64235 1.52307 6.64235 1.03377C7.30406 1.03377 7.90495 0.991287 8.49668 1.04669C9.00825 1.09452 9.31983 1.47549 9.4863 1.94016C10.3085 4.23494 11.1283 6.53066 11.9295 8.83287C12.1883 9.57654 11.708 10.3124 10.9213 10.3335C9.53983 10.3704 8.15659 10.3427 6.77409 10.3405C6.75502 10.3405 6.73595 10.3216 6.67881 10.2916C6.67881 9.96875 6.68416 9.62591 6.67647 9.28335C6.67266 9.11722 6.66503 8.9462 6.62275 8.78703C6.54834 8.50683 6.25529 8.32845 5.94792 8.34752C5.63647 8.36686 5.37185 8.56162 5.35031 8.87328C5.31752 9.34811 5.34174 9.82677 5.34174 10.3495C5.16959 10.3495 5.06227 10.3495 4.95502 10.3495C3.73959 10.3495 2.52415 10.3513 1.30872 10.349C0.26055 10.347 -0.238778 9.6399 0.110677 8.65295C0.883454 6.47071 1.65737 4.28887 2.43289 2.1077C2.72788 1.27818 3.12585 1.00072 4.00601 1.00012C4.42645 0.999851 4.8471 1.00012 5.30528 1.00012ZM6.69333 5.68663C6.68624 5.68629 6.67901 5.68602 6.67199 5.68569C6.67199 5.46356 6.67386 5.24129 6.67058 5.01923C6.66978 4.9645 6.65346 4.90957 6.64155 4.85537C6.57283 4.54017 6.32374 4.33617 6.00278 4.33129C5.66798 4.3262 5.36978 4.53241 5.34924 4.86721C5.31605 5.40769 5.31766 5.95318 5.35111 6.49372C5.37078 6.81173 5.66009 7.01339 5.98097 7.01834C6.31577 7.0235 6.58849 6.81702 6.63907 6.48228C6.67875 6.22028 6.67681 5.95205 6.69333 5.68663Z" fill="currentColor"/>
</svg>
