<svg width="12" height="12" viewBox="0 0 12 12" fill="none" xmlns="http://www.w3.org/2000/svg">
<path fill-rule="evenodd" clip-rule="evenodd" d="M10.2494 2H12V10.7529H10.2494V2ZM7.6866 3.49994H9.43717L9.43725 10.7527H7.68668L7.6866 3.49994ZM5.1238 4.99989V10.7527H6.87437V4.99989H5.1238ZM2.5628 6.49983H4.31337L4.31346 10.7528H2.56289L2.5628 6.49983ZM1.75057 10.7527V7.99972H0V10.7527H1.75057Z" fill="currentColor"/>
<path fill-rule="evenodd" clip-rule="evenodd" d="M1.75057 7.99976C1.75057 8.58998 1.75057 10.1652 1.75057 10.7528C1.16579 10.7528 0.594973 10.7528 0 10.7528C0 10.1721 0 8.59218 0 7.99976C0.575128 7.99976 1.14607 7.99976 1.75057 7.99976Z" fill="#6AD09D"/>
</svg>
