<svg width="24" height="24" viewBox="0 0 24 24" fill="none" xmlns="http://www.w3.org/2000/svg">
<path fill-rule="evenodd" clip-rule="evenodd" d="M5.46866 2.45003C6.45946 1.21152 8.23089 0.250766 9.8597 0.0706215L9.88938 0.0671517H9.88984C10.291 0.0205397 10.4905 -0.00265068 10.6897 0.000240884C10.8869 0.00313245 11.0836 0.0314698 11.475 0.0879131L11.511 0.0931179C12.4718 0.228212 13.2449 0.475961 13.9505 0.873782C15.5268 1.76699 16.5701 3.10306 17.103 4.88947C17.3282 5.64758 17.3432 5.78273 17.3958 7.32145L17.4408 8.95027L17.8161 8.9653C19.6026 9.05535 20.8035 9.9711 21.0813 11.4573C21.1109 11.6214 21.1315 12.5648 21.1432 13.8142C20.5575 13.6215 19.9317 13.5173 19.2816 13.5173C15.9944 13.5173 13.3296 16.1821 13.3296 19.4693C13.3296 21.2741 14.1329 22.8912 15.4015 23.9828C10.8818 24.0176 3.19599 24.0002 2.74396 23.9249C1.46793 23.7147 0.522164 22.8139 0.251948 21.5455C0.0943214 20.7948 0.0943214 12.1929 0.251948 11.4423C0.567201 9.94855 1.8057 8.9878 3.4195 8.9878H3.89239V7.92943C3.89239 5.39989 4.32774 3.89119 5.46866 2.45003ZM14.2808 5.77521C13.913 4.46163 13.1023 3.60596 11.8338 3.17061C11.496 3.05801 10.4452 2.96797 10.1224 3.028C8.57616 3.3057 7.57786 4.13888 7.10498 5.5425C6.96236 5.96288 6.94735 6.19553 6.93984 7.48661L6.93234 8.95027L10.6704 8.97276L14.4009 8.9878V7.59169C14.4009 6.54084 14.3708 6.09045 14.2808 5.77521ZM11.9314 14.2195C11.8338 14.0619 11.6311 13.8517 11.481 13.7541C10.7529 13.2888 9.68706 13.5665 9.34178 14.3096C9.19166 14.6324 9.18415 14.775 9.18415 16.5839V18.5055L9.40934 18.8283C9.71708 19.2636 10.1149 19.4587 10.7004 19.4587C11.0907 19.4587 11.2108 19.4212 11.4885 19.2336C11.6762 19.0984 11.8863 18.8658 11.9839 18.6706C12.149 18.3403 12.1566 18.2878 12.134 16.4188C12.1115 14.5573 12.104 14.4973 11.9314 14.2195ZM19.2816 24C21.8137 24 23.8663 21.9474 23.8663 19.4154C23.8663 16.8833 21.8137 14.8307 19.2816 14.8307C16.7496 14.8307 14.697 16.8833 14.697 19.4154C14.697 21.9474 16.7496 24 19.2816 24ZM19.2816 21.7077C18.0156 21.7077 16.9893 20.6814 16.9893 19.4154C16.9893 18.1494 18.0156 17.123 19.2816 17.123C20.5476 17.123 21.574 18.1494 21.574 19.4154C21.574 20.6814 20.5476 21.7077 19.2816 21.7077Z" fill="currentColor"/>
</svg>
