<svg width="12" height="12" viewBox="0 0 12 12" fill="none" xmlns="http://www.w3.org/2000/svg">
<path fill-rule="evenodd" clip-rule="evenodd" d="M9.08079 11.1914C8.88116 10.8505 8.68538 10.5162 8.48768 10.1787C10.0233 9.16224 10.8484 7.75293 10.8198 5.89982C10.799 4.55651 10.2735 3.41238 9.29242 2.4958C7.27411 0.610235 4.09973 0.803057 2.3169 2.89975C0.427146 5.12217 0.916809 8.61753 3.51466 10.1729C3.31783 10.5097 3.1209 10.8467 2.92409 11.1834C1.21897 10.2379 -0.277024 7.98279 0.043622 5.318C0.39847 2.36923 2.78407 0.246614 5.51647 0.0201403C8.36753 -0.21618 11.024 1.64969 11.7833 4.43282C12.5476 7.23415 11.2062 9.94437 9.08079 11.1914ZM4.43348 8.66131L4.43212 8.66364L4.42719 8.67212C4.34016 8.82171 4.25315 8.97128 4.16618 9.12076C3.1145 8.55531 2.15335 7.11518 2.45176 5.39751C2.74281 3.72221 4.19271 2.45977 5.88234 2.40776C7.62811 2.35399 9.13672 3.49464 9.54104 5.19659C9.94357 6.89093 9.05936 8.447 7.83759 9.12723C7.64083 8.78951 7.4439 8.45142 7.24126 8.10349C8.00791 7.59547 8.42336 6.8914 8.4104 5.9661C8.40086 5.28689 8.13073 4.71285 7.63662 4.24812C6.66329 3.33274 5.11013 3.40981 4.19575 4.4175C3.24649 5.46366 3.38822 7.28375 4.75573 8.10739C4.64831 8.29201 4.54088 8.47668 4.43348 8.66131ZM6.01015 7.2017C6.66823 7.2017 7.2017 6.66822 7.2017 6.01015C7.2017 5.35207 6.66823 4.81859 6.01015 4.81859C5.35207 4.81859 4.81859 5.35207 4.81859 6.01015C4.81859 6.66822 5.35207 7.2017 6.01015 7.2017Z" fill="currentColor"/>
</svg>
