<svg width="20" height="20" viewBox="0 0 20 20" fill="none" xmlns="http://www.w3.org/2000/svg">
<path fill-rule="evenodd" clip-rule="evenodd" d="M5.96507 2.1325C5.30592 2.28504 4.87556 2.59011 4.63042 3.06948C4.42886 3.47261 4.35804 3.90296 4.35804 4.72009V5.36291H3.25219C2.03194 5.36291 1.63971 5.41193 1.23115 5.61894C0.833476 5.8205 0.419462 6.23997 0.256035 6.60495C0.0381327 7.08434 0 7.49291 0 9.21433V10.8105H6.12305H12.2516L12.6874 10.3747C13.8204 9.24156 15.5146 8.56607 17.0291 8.64233L17.4322 8.65868V8.00497C17.4322 6.99717 17.2796 6.53413 16.7839 6.0384C16.4516 5.7061 16.0376 5.4882 15.6018 5.41738C15.4275 5.38469 14.7847 5.36291 14.1854 5.36291H13.085L13.0687 4.44771L13.0686 4.44356C13.0469 3.5434 13.0466 3.53198 12.8671 3.17299C12.6383 2.70995 12.4313 2.50294 11.9846 2.29049L11.6305 2.12161L8.85228 2.11072C7.32696 2.11072 6.025 2.11616 5.96507 2.1325ZM11.3527 3.81581C11.4235 3.88117 11.4399 4.03915 11.4399 4.63294V5.36291H8.71609H5.99231V4.66562C5.99231 4.12631 6.00865 3.94654 6.07947 3.84848L6.16119 3.72864H8.71609C10.9659 3.72864 11.2764 3.73953 11.3527 3.81581ZM0 13.4877C0 14.7025 0.0272378 15.7811 0.059923 15.9826C0.212455 16.9468 0.893399 17.6605 1.81948 17.8293C2.03739 17.8675 3.79695 17.8893 7.20712 17.8893H12.2733L12.1263 17.7095C11.8757 17.399 11.4943 16.7289 11.3255 16.2877C11.064 15.6122 10.9441 14.9585 10.9332 14.2013L10.9223 13.5312H9.15189C7.41957 13.5312 7.37054 13.5258 7.1363 13.4059C6.99466 13.3351 6.82579 13.188 6.72773 13.0518C6.56975 12.8231 6.5643 12.7958 6.54796 12.0822L6.52617 11.3522H3.26309H0V13.4877ZM16.1367 17.8893C18.2703 17.8893 20 16.1596 20 14.0259C20 11.8923 18.2703 10.1626 16.1367 10.1626C14.003 10.1626 12.2733 11.8923 12.2733 14.0259C12.2733 16.1596 14.003 17.8893 16.1367 17.8893ZM16.1367 15.5713C15.2832 15.5713 14.5913 14.8794 14.5913 14.0259C14.5913 13.1725 15.2832 12.4806 16.1367 12.4806C16.9901 12.4806 17.682 13.1725 17.682 14.0259C17.682 14.8794 16.9901 15.5713 16.1367 15.5713Z" fill="currentColor"/>
</svg>
