<svg width="16" height="16" viewBox="0 0 16 16" fill="none" xmlns="http://www.w3.org/2000/svg">
<path fill-rule="evenodd" clip-rule="evenodd" d="M8.72029 4.50837C8.72029 4.13276 8.72029 3.8374 8.72029 3.48141C8.07164 3.48141 7.4436 3.48571 6.81566 3.47881C6.63456 3.47671 6.40304 3.50542 6.28407 3.40927C6.07086 3.23708 5.82513 3.00085 5.7765 2.75502C5.71276 2.43224 5.93058 2.14139 6.29148 2.06495C6.5164 2.01722 6.75283 2.00992 6.98415 2.00932C8.66826 2.00501 10.3524 2.00702 12.0365 2.00722C12.1697 2.00722 12.304 1.99971 12.4364 2.01162C12.8726 2.05084 13.1597 2.27306 13.2015 2.7226C13.2385 3.12062 12.9056 3.4574 12.4308 3.47301C11.7169 3.49652 11.0017 3.47921 10.2521 3.47921C10.2521 3.82179 10.2521 4.12866 10.2521 4.50846C10.9566 4.50846 11.6681 4.53338 12.3769 4.50166C13.1359 4.46774 13.7311 4.7616 14.3539 5.17843C15.6105 6.01948 16.1221 7.10897 15.9757 8.61428C15.8746 9.65494 15.9636 10.7134 15.9542 11.7639C15.9414 13.1962 15.1445 13.9834 13.7102 13.9865C11.9094 13.9903 10.1083 13.9699 8.30786 13.9948C7.39927 14.0073 6.65547 13.7144 6.17341 12.9451C5.70446 12.1968 5.12405 11.867 4.20705 11.9641C3.34659 12.0553 3.01601 11.6527 3.0038 10.7673C2.9965 10.2339 2.98389 9.69936 3.008 9.16688C3.02421 8.80758 2.88144 8.70703 2.54145 8.71573C1.22164 8.74945 1.47828 8.54694 1.44936 9.78451C1.44316 10.0512 1.44917 10.318 1.44827 10.5848C1.44566 11.3923 1.23405 11.7132 0.710868 11.7045C0.207897 11.6961 0.00158507 11.3815 0.000884697 10.6079C-0.000716166 8.87372 0.000285302 7.13958 0.000585464 5.40545C0.000585464 5.28878 -0.00211787 5.17162 0.00678693 5.05556C0.0454077 4.54669 0.303047 4.28044 0.742184 4.29005C1.16021 4.29915 1.41855 4.55509 1.43696 5.04125C1.45977 5.64068 1.45997 6.2419 1.44346 6.84152C1.43466 7.1639 1.54342 7.28536 1.87329 7.27776C3.24853 7.24604 2.98379 7.44835 2.9979 6.19497C3.01501 4.67225 3.16599 4.50866 4.69221 4.50866C6.02263 4.50836 7.35275 4.50837 8.72029 4.50837Z" fill="currentColor"/>
</svg>
