<svg width="12" height="12" viewBox="0 0 12 12" fill="none" xmlns="http://www.w3.org/2000/svg">
<path fill-rule="evenodd" clip-rule="evenodd" d="M4.61577 1.71822C4.64393 1.65957 4.69554 1.60326 4.7495 1.57041C4.83866 1.52114 4.85039 1.5188 5.99765 1.5188H5.99768C7.14492 1.5188 7.15665 1.5188 7.2458 1.57041C7.30446 1.60326 7.35373 1.65722 7.38423 1.71822C7.4288 1.80972 7.43115 1.86368 7.43115 2.74583V3.67726H8.4963H9.55911L9.63653 3.72887C9.67876 3.75937 9.73272 3.80864 9.75618 3.84149C9.80545 3.90952 11.9756 9.9579 11.9968 10.0869C12.0179 10.2136 11.9334 10.3755 11.8161 10.4342C11.7269 10.4811 11.6472 10.4811 6 10.4811C0.35282 10.4811 0.273051 10.4811 0.183898 10.4342C0.0665901 10.3755 -0.0178713 10.2136 0.00324407 10.0869C0.0243594 9.9579 2.19455 3.90952 2.24382 3.84149C2.26728 3.80864 2.32124 3.75937 2.36347 3.72887L2.44089 3.67726H3.5037H4.56885V2.74583C4.56885 1.86368 4.5712 1.80972 4.61577 1.71822ZM6.72731 3.67726V2.94995V2.22264H6H5.27269V2.94995V3.67726H6H6.72731ZM11.1357 9.74674C11.1357 9.73267 10.7064 8.51971 10.1808 7.05571L9.22595 4.39283L6.00704 4.38579C4.23804 4.38345 2.78343 4.39048 2.77639 4.39987C2.75528 4.43272 0.861934 9.73267 0.861934 9.75613C0.861934 9.76786 2.83505 9.77724 6 9.77724C10.0964 9.77724 11.1381 9.7702 11.1357 9.74674ZM9.15222 7.3491C9.15222 8.223 8.60851 8.7579 7.7104 8.7579C6.73305 8.7579 6.14531 8.12614 6.14531 7.08055C6.14531 6.04816 6.73525 5.4098 7.68839 5.4098C8.46323 5.4098 9.03995 5.86106 9.1192 6.53244H8.32234C8.2431 6.25288 8.00537 6.08338 7.68839 6.08338C7.23713 6.08338 6.96858 6.45319 6.96858 7.07174C6.96858 7.7013 7.26575 8.08432 7.72801 8.08432C8.09562 8.08432 8.35096 7.8686 8.37077 7.54721L8.37297 7.49438H7.79185V6.93967H9.15222V7.3491ZM4.0123 8.67205H3.20445V5.49565H4.0123V6.86043H4.05413L5.11073 5.49565H5.97802L4.8796 6.89785L6.04185 8.67205H5.09312L4.29186 7.41954L4.0123 7.77394V8.67205Z" fill="currentColor"/>
</svg>
