<svg width="12" height="12" viewBox="0 0 12 12" fill="none" xmlns="http://www.w3.org/2000/svg">
<path fill-rule="evenodd" clip-rule="evenodd" d="M9.30361 4.26282C9.11379 5.41595 8.92846 6.54165 8.73347 7.7272C9.25626 7.7272 9.74127 7.71696 10.2256 7.72995C10.7682 7.74448 11.0864 8.01118 11.1312 8.45943C11.1887 9.03565 10.8646 9.39274 10.2427 9.42069C9.94153 9.43419 9.63917 9.4237 9.33741 9.42387C9.0517 9.42404 8.7659 9.42387 8.44241 9.42387C8.35332 9.98435 8.27062 10.519 8.18248 11.0529C8.11694 11.4498 7.98999 11.8013 7.55095 11.9433C7.00366 12.1205 6.48984 11.771 6.48622 11.1839C6.48441 10.9 6.53943 10.6152 6.57626 10.3317C6.61291 10.0485 6.65887 9.76659 6.70544 9.45242C5.84019 9.45242 4.99961 9.45242 4.12384 9.45242C4.03674 10.0064 3.95611 10.5575 3.86236 11.1063C3.74706 11.781 3.26541 12.1356 2.73072 11.9518C2.31961 11.8103 2.1316 11.5108 2.17257 11.0928C2.22543 10.5534 2.31168 10.0172 2.3911 9.4231C1.88168 9.4231 1.39658 9.43333 0.912166 9.42034C0.369456 9.40581 0.0514011 9.1392 0.00655612 8.69095C-0.0510524 8.11482 0.273124 7.75756 0.894917 7.72961C1.19615 7.7161 1.49843 7.7266 1.80027 7.72643C2.08598 7.72625 2.37178 7.72643 2.69656 7.72643C2.88621 6.57458 3.07154 5.44898 3.26679 4.26299C2.74451 4.26299 2.25958 4.27323 1.77526 4.26033C1.2322 4.24579 0.91415 3.97961 0.869046 3.53136C0.811092 2.95531 1.1351 2.58971 1.75663 2.57097C2.34375 2.55325 2.93174 2.56718 3.55733 2.56718C3.64659 2.00635 3.72938 1.47176 3.81743 0.938023C3.88297 0.541032 4.00949 0.189452 4.44845 0.0471167C5.00884 -0.134694 5.54241 0.226175 5.52197 0.845311C5.50369 1.39926 5.38942 1.95019 5.31344 2.53467C6.16041 2.53467 6.99875 2.53467 7.87564 2.53467C7.96007 2.00162 8.04208 1.46582 8.13039 0.931143C8.19619 0.533378 8.32771 0.184119 8.76702 0.0446221C9.31413 -0.12919 9.8464 0.225572 9.82174 0.811942C9.79802 1.38025 9.69238 1.94529 9.61588 2.56692C10.1189 2.56692 10.604 2.5566 11.0885 2.56967C11.631 2.58429 11.9489 2.85125 11.9935 3.29984C12.0508 3.87529 11.726 4.24046 11.1044 4.25895C10.5174 4.27658 9.92928 4.26282 9.30361 4.26282ZM7.01246 7.7094C7.19908 6.56856 7.38407 5.43814 7.57328 4.28097C6.68242 4.28097 5.85546 4.28097 4.98745 4.28097C4.80083 5.42197 4.61584 6.55248 4.42672 7.7094C5.31715 7.7094 6.14419 7.7094 7.01246 7.7094Z" fill="currentColor"/>
</svg>
