<svg width="16" height="17" viewBox="0 0 16 17" fill="none" xmlns="http://www.w3.org/2000/svg">
<path fill-rule="evenodd" clip-rule="evenodd" d="M7.42742 3.31481C5.33768 3.53542 3.48057 4.96334 2.76661 6.90869C2.51792 7.59057 2.41364 8.17618 2.41364 8.89415C2.41364 11.5856 4.2547 13.8357 6.92203 14.3933C7.51166 14.5176 8.48634 14.5176 9.07596 14.3933C9.65756 14.2689 9.89822 14.1847 10.4999 13.8879C11.1176 13.5871 11.5829 13.2461 12.0481 12.7568C12.8182 11.9465 13.3156 10.9679 13.5162 9.88086C13.6084 9.39152 13.6084 8.39678 13.5162 7.90744C13.2635 6.52764 12.4853 5.26417 11.3663 4.41784C11.0093 4.14509 10.1629 3.70388 9.73778 3.56349C9.092 3.35091 8.10128 3.24662 7.42742 3.31481ZM8.35397 5.79764C8.59062 5.97011 8.59463 6.0022 8.59463 7.69084C8.59463 9.08267 8.58661 9.24712 8.52244 9.37146C8.41815 9.58405 8.26974 9.67229 8.01705 9.67229C7.78039 9.6763 7.64803 9.60811 7.49561 9.39954C7.41539 9.29525 7.41138 9.23108 7.39935 7.83925C7.39132 7.04106 7.39935 6.31105 7.41138 6.2188C7.43946 6.02226 7.59188 5.8217 7.77237 5.74148C7.92479 5.66928 8.2176 5.70137 8.35397 5.79764ZM8.27776 10.5427C8.45024 10.6028 8.66683 10.7994 8.73903 10.9759C8.86337 11.2687 8.78716 11.6578 8.56656 11.8784C8.11732 12.3356 7.29105 12.0548 7.20682 11.4211C7.1266 10.8114 7.69215 10.3502 8.27776 10.5427ZM1.55528 4.34164C1.37478 4.40581 1.32264 4.46197 1.0539 4.9112C0.712961 5.48879 0.408122 6.23083 0.231637 6.92875C-0.0772123 8.15613 -0.0772123 9.62817 0.231637 10.8596C0.484332 11.8623 1.13412 13.218 1.45099 13.4026C1.71973 13.559 2.09677 13.4667 2.2532 13.214C2.37754 13.0135 2.36149 12.8089 2.19303 12.5041C1.5633 11.3369 1.30659 10.5266 1.21033 9.40356C1.09 8.03178 1.41088 6.70413 2.19704 5.29225C2.36149 4.99142 2.38155 4.78285 2.2532 4.57428C2.11281 4.34565 1.82402 4.24938 1.55528 4.34164ZM13.6686 4.96335C13.6205 4.67857 13.817 4.39378 14.1098 4.32961C14.4467 4.24939 14.5911 4.34164 14.896 4.82697C15.257 5.40055 15.5819 6.17869 15.7744 6.93276C16.0752 8.09596 16.0752 9.69235 15.7744 10.8555C15.5417 11.7661 15.0123 12.9333 14.6593 13.3183C14.2943 13.7114 13.5603 13.3384 13.6686 12.8129C13.6846 12.7447 13.7809 12.5322 13.8852 12.3436C14.5189 11.2165 14.8117 10.1215 14.8117 8.89416C14.8117 7.66277 14.5029 6.52364 13.8772 5.42863C13.7769 5.25615 13.6846 5.04758 13.6686 4.96335Z" fill="currentColor"/>
</svg>
