<svg width="16" height="16" viewBox="0 0 16 16" fill="none" xmlns="http://www.w3.org/2000/svg">
<path fill-rule="evenodd" clip-rule="evenodd" d="M7.31632 0C7.15027 0 7.01564 0.135419 7.01564 0.302441V8.16592C7.01564 8.33294 7.15027 8.46836 7.31632 8.46836H8.61922C8.78527 8.46836 8.91989 8.33294 8.91989 8.16592V0.302441C8.91989 0.135419 8.78527 0 8.61922 0H7.31632ZM5.79843 0.583519C5.75189 0.426933 5.58966 0.33525 5.43458 0.384057C1.89323 1.49879 -0.497019 5.44621 0.0881243 9.09663C0.776036 13.387 4.39985 16.1487 8.29291 15.9938C12.7513 15.8165 15.9539 12.1737 15.9996 8.02336C16.037 4.62688 13.3789 0.898439 10.54 0.379652C10.3965 0.353414 10.2603 0.445023 10.2188 0.58571C10.0949 1.00523 9.9696 1.43032 9.83815 1.87571C9.7921 2.03181 9.87745 2.196 10.0289 2.25359C11.4294 2.78626 12.5304 3.68125 13.2599 5.00471C14.0453 6.4302 14.2286 7.95107 13.8218 9.53185C13.1528 12.1317 10.8762 13.9451 8.2012 14.0217C5.49257 14.0992 3.08612 12.4112 2.28233 9.85526C1.87771 8.56878 1.87532 7.26937 2.31991 5.99793C2.96031 4.16637 4.21692 2.93581 5.99256 2.25005C6.14324 2.19189 6.22775 2.02787 6.18151 1.87234L5.79843 0.583519Z" fill="currentColor"/>
</svg>
