<svg width="20" height="21" viewBox="0 0 20 21" fill="none" xmlns="http://www.w3.org/2000/svg">
<path fill-rule="evenodd" clip-rule="evenodd" d="M12.6256 1.86537C12.757 1.56506 12.8633 1.47121 13.1761 1.36485C13.4577 1.26475 13.7204 1.30229 13.9832 1.48372C14.0896 1.5588 15.1469 2.52856 16.3294 3.64847C17.0825 4.3617 17.762 5.00135 18.1659 5.38155C18.3961 5.59832 18.5368 5.73076 18.5505 5.74439C18.5942 5.77567 18.9071 6.08224 19.2512 6.42009C19.7517 6.90809 19.8893 7.08953 19.9519 7.30851C20.1021 7.84031 20.052 7.90287 17.4806 10.3179C17.2482 10.5378 16.9479 10.8206 16.6304 11.1196C16.1529 11.5693 15.6365 12.0556 15.2533 12.4201C13.7768 13.8152 13.6016 13.9154 13.0698 13.6463C12.8633 13.54 12.7507 13.4273 12.6506 13.2209C12.5129 12.9519 12.5067 12.883 12.5067 11.175V9.39817L8.54008 9.41694L4.57348 9.43571L4.30445 9.62341C4.16055 9.72351 3.97911 9.92372 3.91029 10.0614C3.78516 10.3054 3.7789 10.418 3.74762 13.4711L3.71634 14.8788L3.54741 15.1729C3.42228 15.3794 3.2909 15.5045 3.07818 15.6109C2.80289 15.7422 2.69653 15.7548 1.87068 15.7548C1.04482 15.7548 0.93846 15.7422 0.663175 15.6109C0.450454 15.5045 0.319068 15.3794 0.193939 15.1729L0.0250137 14.8788L0.00624431 13.6901C-0.0250381 9.92372 0.0437832 9.32309 0.619379 8.27826C1.42021 6.82676 2.76535 5.91957 4.43583 5.71311C4.7424 5.67557 6.5255 5.65054 8.73403 5.65054H12.5067V3.87996C12.5067 2.30958 12.5192 2.0906 12.6256 1.86537ZM8.41402 20.2482C7.99123 20.2482 7.56844 20.2486 7.14569 20.2491L7.14242 20.2491C6.16135 20.2501 5.18028 20.2511 4.19925 20.2467C3.09872 20.2416 2.43743 19.1503 2.9808 18.1917C3.98277 16.4243 4.99704 14.6639 6.01134 12.9034L6.01233 12.9017L6.01376 12.8993C6.42507 12.1854 6.83672 11.4709 7.2472 10.7565C7.7356 9.90665 9.07887 9.81014 9.67459 10.8978C10.187 11.8334 10.7217 12.7568 11.2563 13.6802C11.4882 14.0807 11.7201 14.4812 11.9502 14.8827C12.137 15.2085 12.3257 15.5343 12.5139 15.8592L12.5155 15.8619C12.956 16.6223 13.3965 17.3827 13.8171 18.154C14.2353 18.9211 13.9932 19.9353 13.0028 20.2028C12.8532 20.2432 12.6904 20.2475 12.5336 20.2479C11.4753 20.2504 10.417 20.2501 9.35872 20.2499H9.35739L8.41396 20.2498L8.41402 20.2482ZM9.06986 14.3024L9.0549 14.3014C9.05769 14.2493 9.06106 14.1971 9.06462 14.1449L9.07008 14.0662C9.08225 13.8919 9.09442 13.7175 9.09265 13.5433C9.08847 13.1244 8.79122 12.8311 8.4002 12.8381C8.03177 12.8447 7.70819 13.147 7.72442 13.5335C7.76205 14.4288 7.82118 15.3235 7.89087 16.217C7.91525 16.5289 8.17146 16.7336 8.44041 16.7147C8.72112 16.6951 8.92815 16.4765 8.94953 16.165C8.97972 15.726 9.00748 15.2869 9.0352 14.8478L9.0558 14.5225L9.06986 14.3024ZM8.40965 17.0911C7.9854 17.0933 7.64534 17.4386 7.6542 17.858C7.66315 18.2791 8.01548 18.6189 8.43266 18.6087C8.83839 18.5989 9.16414 18.2619 9.16547 17.8506C9.16693 17.4196 8.83777 17.0889 8.40965 17.0911Z" fill="currentColor"/>
</svg>
