<svg width="20" height="20" viewBox="0 0 20 20" fill="none" xmlns="http://www.w3.org/2000/svg">
<path fill-rule="evenodd" clip-rule="evenodd" d="M12.462 9.90537C13.1224 10.071 13.7012 10.1296 14.2012 10.3591C15.4108 10.9142 16.1059 11.8789 16.2007 13.2297C16.2399 13.7894 16.2318 14.3543 16.3051 14.9092C16.3684 15.3884 16.7315 15.6282 17.1916 15.6333C17.6522 15.6383 17.988 15.4008 18.1002 14.9287C18.1431 14.7479 18.1718 14.559 18.1725 14.3736C18.1779 12.6229 18.1908 10.8717 18.1564 9.12136C18.1521 8.9034 17.9337 8.6006 17.7307 8.49049C16.825 7.99926 16.3034 7.29733 16.299 6.24919C16.2982 6.06163 16.2766 5.87195 16.2971 5.6869C16.4341 4.4512 16.2554 3.36514 15.133 2.56649C14.6759 2.24105 14.7 1.62457 15.021 1.28925C15.3842 0.90963 15.8821 0.920516 16.3528 1.37909C17.3545 2.35478 18.3829 3.31084 19.2984 4.36323C19.6642 4.78377 19.9388 5.43327 19.9508 5.98506C20.0143 8.90177 20.0119 11.8209 19.9687 14.7381C19.9451 16.3356 18.7466 17.4735 17.2225 17.4901C15.6879 17.5068 14.5059 16.3412 14.4218 14.718C14.3981 14.2607 14.4316 13.7985 14.3836 13.3443C14.2794 12.3585 13.5762 11.8196 12.5189 11.9156C12.5009 12.0638 12.4653 12.2216 12.4649 12.3798C12.4605 13.9221 12.4694 15.4646 12.4564 17.0069C12.4537 17.3402 12.5255 17.5213 12.8873 17.6317C13.518 17.8246 13.7553 18.271 13.6872 18.9361C13.6247 19.546 13.2449 19.8515 12.6781 19.9641C12.516 19.9964 12.3458 19.9978 12.1792 19.9979C8.62581 19.9997 5.07231 20.0017 1.51894 19.9977C0.474344 19.9964 -0.0343393 19.5457 0.00179803 18.6863C0.0232545 18.1731 0.259653 17.7666 0.751522 17.6521C1.2331 17.54 1.24151 17.2586 1.24101 16.8814C1.23461 12.2543 1.23436 7.6269 1.24151 2.99966C1.24214 2.60703 1.25305 2.20026 1.35281 1.82477C1.64015 0.742842 2.5811 0.0344047 3.78166 0.0205162C5.82981 -0.00313175 7.87897 -0.0110145 9.92675 0.022393C11.4577 0.0472922 12.4419 1.10244 12.4561 2.69674C12.4757 4.86435 12.4615 7.03208 12.4619 9.19993C12.462 9.44655 12.462 9.69329 12.462 9.90537ZM6.86374 2.48266C6.09056 2.48266 5.31699 2.49567 4.5443 2.47815C4.00413 2.46577 3.69608 2.69887 3.68981 3.23677C3.67601 4.42417 3.67588 5.61207 3.69395 6.7996C3.7011 7.26505 3.96059 7.5218 4.45308 7.52068C6.04124 7.51655 7.62953 7.51417 9.21768 7.5223C9.7423 7.52493 10.0028 7.25955 10.0094 6.76569C10.0249 5.59906 10.0241 4.43192 10.0126 3.26504C10.0074 2.73941 9.73666 2.46802 9.18343 2.4789C8.41037 2.49404 7.63693 2.48266 6.86374 2.48266Z" fill="currentColor"/>
</svg>
