<svg width="20" height="20" viewBox="0 0 20 20" fill="none" xmlns="http://www.w3.org/2000/svg">
<path fill-rule="evenodd" clip-rule="evenodd" d="M15.506 7.1047C15.1897 9.02658 14.8808 10.9027 14.5558 12.8787C15.4271 12.8787 16.2355 12.8616 17.0427 12.8833C17.947 12.9075 18.4773 13.352 18.552 14.099C18.6479 15.0594 18.1076 15.6546 17.0711 15.7011C16.5692 15.7236 16.0653 15.7062 15.5624 15.7064C15.0862 15.7067 14.6098 15.7064 14.0707 15.7064C13.9222 16.6406 13.7844 17.5317 13.6375 18.4214C13.5282 19.0831 13.3167 19.6688 12.5849 19.9056C11.6728 20.2008 10.8164 19.6183 10.8104 18.6399C10.8074 18.1667 10.8991 17.692 10.9604 17.2195C11.0215 16.7475 11.0981 16.2777 11.1757 15.754C9.73366 15.754 8.33269 15.754 6.87307 15.754C6.7279 16.6773 6.59351 17.5958 6.43727 18.5104C6.2451 19.6351 5.44234 20.2261 4.55119 19.9196C3.86601 19.6838 3.55267 19.1847 3.62095 18.4881C3.70905 17.5891 3.85279 16.6953 3.98517 15.7052C3.13613 15.7052 2.32763 15.7222 1.52028 15.7006C0.61576 15.6763 0.0856685 15.232 0.0109269 14.4849C-0.0850873 13.5247 0.455207 12.9293 1.49153 12.8827C1.99359 12.8602 2.49738 12.8777 3.00045 12.8774C3.47664 12.8771 3.95297 12.8774 4.49427 12.8774C4.81035 10.9576 5.11923 9.08163 5.44464 7.10499C4.57419 7.10499 3.76597 7.12204 2.95876 7.10054C2.05367 7.07632 1.52358 6.63268 1.44841 5.8856C1.35182 4.92552 1.89183 4.31619 2.92772 4.28494C3.90626 4.25541 4.88624 4.27863 5.92888 4.27863C6.07765 3.34392 6.21563 2.45293 6.36238 1.56337C6.47162 0.901721 6.68248 0.315753 7.41408 0.0785279C8.34807 -0.22449 9.23735 0.376958 9.20328 1.40885C9.17281 2.3321 8.98236 3.25032 8.85573 4.22445C10.2673 4.22445 11.6646 4.22445 13.1261 4.22445C13.2668 3.33604 13.4035 2.44304 13.5507 1.5519C13.6603 0.888963 13.8795 0.306865 14.6117 0.0743701C15.5235 -0.215317 16.4107 0.375954 16.3696 1.35324C16.33 2.30042 16.154 3.24215 16.0265 4.27821C16.8649 4.27821 17.6734 4.261 18.4809 4.28279C19.385 4.30716 19.9149 4.75208 19.9892 5.49974C20.0846 6.45882 19.5433 7.06743 18.5073 7.09825C17.5289 7.12763 16.5488 7.1047 15.506 7.1047ZM11.6874 12.849C11.9985 10.9476 12.3068 9.06356 12.6221 7.13494C11.1374 7.13494 9.7591 7.13494 8.31242 7.13494C8.00138 9.03662 7.69307 10.9208 7.37786 12.849C8.86191 12.849 10.2403 12.849 11.6874 12.849Z" fill="currentColor"/>
</svg>
