<svg width="24" height="24" viewBox="0 0 24 24" fill="none" xmlns="http://www.w3.org/2000/svg">
<path fill-rule="evenodd" clip-rule="evenodd" d="M10.9745 0C10.7254 0 10.5235 0.203129 10.5235 0.453662V12.2489C10.5235 12.4994 10.7254 12.7025 10.9745 12.7025H12.9288C13.1779 12.7025 13.3798 12.4994 13.3798 12.2489V0.453662C13.3798 0.203129 13.1779 0 12.9288 0H10.9745ZM8.69764 0.875279C8.62783 0.640399 8.38449 0.502875 8.15187 0.576086C2.83984 2.24819 -0.745529 8.16932 0.132186 13.6449C1.16405 20.0805 6.59977 24.223 12.4394 23.9907C19.127 23.7247 23.9309 18.2605 23.9994 12.035C24.0555 6.94031 20.0683 1.34766 15.81 0.569477C15.5947 0.530122 15.3904 0.667535 15.3282 0.878564C15.1424 1.50785 14.9544 2.14548 14.7572 2.81357C14.6882 3.04771 14.8162 3.294 15.0433 3.38039C17.1441 4.17939 18.7956 5.52188 19.8899 7.50706C21.068 9.64531 21.3429 11.9266 20.7328 14.2978C19.7292 18.1976 16.3142 20.9176 12.3018 21.0325C8.23885 21.1488 4.62919 18.6168 3.42349 14.7829C2.81657 12.8532 2.81297 10.9041 3.47987 8.99689C4.44046 6.24956 6.32538 4.40371 8.98884 3.37507C9.21486 3.28783 9.34163 3.0418 9.27226 2.80851L8.69764 0.875279Z" fill="currentColor"/>
</svg>
