<svg width="12" height="12" viewBox="0 0 12 12" fill="none" xmlns="http://www.w3.org/2000/svg">
<path fill-rule="evenodd" clip-rule="evenodd" d="M7.7641 3.53116C7.9935 3.53106 8.22472 3.53095 8.45834 3.53095L8.45839 3.86072C8.45839 4.06456 8.45825 4.26839 8.45812 4.47222C8.45769 5.10337 8.45727 5.73451 8.46091 6.36562C8.46162 6.49036 8.47375 6.62338 8.51835 6.73792C8.66099 7.10411 9.17025 7.17673 9.41166 6.86652C9.48801 6.76834 9.53818 6.64682 9.58617 6.53015C10.2209 4.98792 10.8536 3.44487 11.4856 1.90149C11.647 1.50728 11.8063 1.11214 11.9621 0.715687C12.0438 0.507432 11.9891 0.317604 11.838 0.164956C11.6871 0.0123623 11.4991 -0.0409556 11.2874 0.0328605C11.2274 0.0537951 11.1676 0.0754388 11.1088 0.0994263L11.1072 0.100101C9.19926 0.878162 7.29137 1.65622 5.38418 2.43608C5.15314 2.53066 4.89098 2.76013 4.94198 3.05033C5.00272 3.39581 5.3355 3.52733 5.63602 3.52877C6.33938 3.53183 7.04274 3.5315 7.7641 3.53116ZM1.13034 5.39852C2.63747 3.89511 5.1107 3.89511 6.61783 5.39852C8.12495 6.90192 8.08631 9.36904 6.57918 10.8724C5.07206 12.3759 2.63747 12.3759 1.13034 10.8724C-0.376781 9.36904 -0.376781 6.90192 1.13034 5.39852ZM2.79205 9.75453L3.87409 8.67517L4.95612 9.75453L5.49714 9.21485L4.4151 8.13548L5.49714 7.05612L4.95612 6.51643L3.87409 7.5958L2.79205 6.51643L2.25103 7.05612L3.33307 8.13548L2.25103 9.21485L2.79205 9.75453Z" fill="currentColor"/>
</svg>
