<svg width="12" height="12" viewBox="0 0 12 12" fill="none" xmlns="http://www.w3.org/2000/svg">
<path d="M5.60781 0.0352938C4.7934 0.125366 3.90768 0.605754 3.41228 1.225C2.84182 1.94559 2.62415 2.69994 2.62415 3.96471V4.49389H2.38771C1.58081 4.49389 0.961557 4.97428 0.80393 5.72113C0.725116 6.09644 0.725116 10.3974 0.80393 10.7727C0.939039 11.407 1.41192 11.8573 2.04994 11.9624C2.36519 12.015 9.71737 12.0112 9.9951 11.9587C10.6219 11.8423 11.1022 11.3732 11.2186 10.7652C11.2674 10.495 11.2674 5.99886 11.2186 5.72864C11.0797 4.98554 10.4792 4.52767 9.58602 4.48263L9.39836 4.47513L9.37585 3.66072C9.34958 2.89135 9.34207 2.82379 9.22948 2.44474C8.96301 1.55152 8.44134 0.883478 7.65321 0.436868C7.30042 0.237957 6.91386 0.114107 6.43347 0.0465528C6.01689 -0.0134956 6.02815 -0.0134956 5.60781 0.0352938ZM6.59485 1.58529C7.22911 1.80297 7.63444 2.23082 7.81834 2.8876C7.86338 3.04522 7.87839 3.2704 7.87839 3.79583V4.49389L6.01313 4.48639L4.14413 4.47513L4.14788 3.74329C4.15163 3.09777 4.15914 2.98142 4.23044 2.77125C4.46689 2.06944 4.96604 1.65285 5.73916 1.51399C5.90054 1.48396 6.42597 1.529 6.59485 1.58529Z" fill="currentColor"/>
</svg>
