<svg width="16" height="16" viewBox="0 0 16 16" fill="none" xmlns="http://www.w3.org/2000/svg">
<path fill-rule="evenodd" clip-rule="evenodd" d="M1.00178 7.80829C-0.349287 9.15936 -0.054686 7.56737 0.290259 6.2615C1.58303 1.18145 7.62487 -0.484947 12.0974 1.05399C12.9224 1.3221 14.6754 2.15736 14.6754 2.28111C14.6754 2.35329 11.9633 5.0447 11.3034 5.62217C11.1075 5.79747 11.0765 5.78716 10.5197 5.53967C7.1763 4.13761 3.49652 5.31355 1.00178 7.80829ZM14.9964 3.23379C15.7445 2.4336 16.2562 2.95799 15.8653 3.62C15.3016 4.57485 14.3934 5.93416 12.448 9.04571L10.7156 11.8299L10.7465 12.6755C10.7775 13.6551 10.5919 14.2017 10.0247 14.7482C8.73571 16.0166 6.53928 15.6144 5.79682 13.9954C5.67308 13.7273 5.60089 13.3355 5.60089 12.8611C5.60089 12.2218 5.64214 12.0568 5.94119 11.5721C6.35366 10.8709 7.11674 10.3759 7.93138 10.2728L8.47792 10.211L11.0353 7.45768C12.4367 5.95317 13.5922 4.7357 14.9964 3.23379Z" fill="currentColor"/>
</svg>
