<svg width="16" height="16" viewBox="0 0 16 16" fill="none" xmlns="http://www.w3.org/2000/svg">
<path fill-rule="evenodd" clip-rule="evenodd" d="M9.96961 7.92429C10.4979 8.05682 10.961 8.10367 11.361 8.28725C12.3287 8.73138 12.8847 9.50313 12.9606 10.5838C12.9919 11.0315 12.9855 11.4835 13.0441 11.9274C13.0947 12.3108 13.3852 12.5025 13.7533 12.5066C14.1218 12.5106 14.3904 12.3207 14.4801 11.943C14.5145 11.7984 14.5375 11.6472 14.538 11.4989C14.5423 10.0983 14.5526 8.69735 14.5251 7.29709C14.5217 7.12272 14.3469 6.88048 14.1845 6.79239C13.46 6.39941 13.0427 5.83787 13.0392 4.99935C13.0386 4.84931 13.0213 4.69756 13.0377 4.54952C13.1473 3.56096 13.0043 2.69211 12.1064 2.05319C11.7407 1.79284 11.76 1.29966 12.0168 1.0314C12.3074 0.727704 12.7057 0.736412 13.0822 1.10327C13.8836 1.88383 14.7063 2.64867 15.4387 3.49059C15.7314 3.82701 15.951 4.34662 15.9607 4.78805C16.0115 7.12141 16.0096 9.45668 15.9749 11.7904C15.9561 13.0685 14.9973 13.9788 13.778 13.9921C12.5503 14.0054 11.6047 13.073 11.5375 11.7744C11.5185 11.4086 11.5453 11.0388 11.5069 10.6755C11.4235 9.8868 10.861 9.45568 10.0151 9.53246C10.0007 9.65107 9.97222 9.77729 9.97192 9.90382C9.96841 11.1377 9.97553 12.3717 9.96509 13.6055C9.96298 13.8722 10.0204 14.017 10.3098 14.1054C10.8144 14.2596 11.0042 14.6168 10.9497 15.1489C10.8997 15.6368 10.5959 15.8812 10.1425 15.9713C10.0128 15.9971 9.87666 15.9982 9.74335 15.9983C6.90065 15.9997 4.05785 16.0013 1.21515 15.9981C0.379475 15.9971 -0.0274714 15.6366 0.00143843 14.949C0.0186036 14.5385 0.207723 14.2133 0.601218 14.1217C0.986481 14.032 0.993207 13.8069 0.992806 13.5051C0.987686 9.80342 0.987485 6.10152 0.993207 2.39973C0.993709 2.08562 1.00244 1.76021 1.08224 1.45981C1.31212 0.594274 2.06488 0.0275238 3.02533 0.016413C4.66385 -0.0025054 6.30318 -0.00881158 7.9414 0.0179144C9.16616 0.0378337 9.95355 0.881953 9.96489 2.15739C9.98055 3.89148 9.96921 5.62566 9.96951 7.35995C9.96961 7.55724 9.96961 7.75463 9.96961 7.92429ZM5.491 1.98613C4.87245 1.98613 4.25359 1.99654 3.63544 1.98252C3.2033 1.97261 2.95687 2.15909 2.95185 2.58941C2.94081 3.53934 2.94071 4.48966 2.95516 5.43968C2.96088 5.81204 3.16847 6.01744 3.56247 6.01654C4.83299 6.01324 6.10362 6.01134 7.37415 6.01784C7.79384 6.01995 8.00224 5.80764 8.00756 5.41255C8.0199 4.47925 8.0193 3.54554 8.01007 2.61203C8.00595 2.19152 7.78933 1.97441 7.34675 1.98312C6.7283 1.99523 6.10955 1.98613 5.491 1.98613Z" fill="currentColor"/>
</svg>
