<svg width="12" height="12" viewBox="0 0 12 12" fill="none" xmlns="http://www.w3.org/2000/svg">
<path fill-rule="evenodd" clip-rule="evenodd" d="M6.54021 3.87761C6.54021 3.59591 6.54021 3.37439 6.54021 3.1074C6.05373 3.1074 5.5827 3.11062 5.11174 3.10545C4.97592 3.10387 4.80228 3.12541 4.71305 3.05329C4.55314 2.92415 4.36884 2.74698 4.33237 2.5626C4.28457 2.32052 4.44794 2.10238 4.71861 2.04505C4.8873 2.00925 5.06462 2.00378 5.23811 2.00333C6.50119 2.0001 7.76428 2.0016 9.02736 2.00175C9.12731 2.00175 9.22801 1.99612 9.32729 2.00505C9.65447 2.03447 9.86976 2.20113 9.90112 2.53829C9.92889 2.8368 9.67923 3.08939 9.32309 3.10109C8.78767 3.11873 8.25129 3.10575 7.68908 3.10575C7.68908 3.36268 7.68908 3.59283 7.68908 3.87769C8.21744 3.87769 8.75106 3.89637 9.28264 3.87258C9.8519 3.84714 10.2983 4.06754 10.7654 4.38016C11.7079 5.01095 12.0916 5.82806 11.9818 6.95705C11.906 7.73754 11.9727 8.53139 11.9656 9.31924C11.956 10.3935 11.3584 10.9839 10.2826 10.9862C8.93205 10.989 7.58125 10.9737 6.2309 10.9924C5.54945 11.0018 4.99161 10.7822 4.63006 10.2052C4.27835 9.64394 3.84304 9.39661 3.15529 9.4694C2.50994 9.53784 2.26201 9.23588 2.25285 8.57184C2.24737 8.17173 2.23792 7.77086 2.256 7.37149C2.26816 7.10202 2.16108 7.02661 1.90609 7.03314C0.916232 7.05843 1.10871 6.90654 1.08702 7.83472C1.08237 8.0347 1.08687 8.23484 1.0862 8.43497C1.08425 9.04054 0.925538 9.28127 0.533151 9.27474C0.155923 9.26844 0.00118881 9.03244 0.000663523 8.45223C-0.000537124 7.15162 0.000213976 5.85102 0.000439098 4.55042C0.000439098 4.46293 -0.00158841 4.37505 0.00509019 4.28801C0.0340558 3.90635 0.227285 3.70667 0.556638 3.71387C0.870157 3.7207 1.06391 3.91266 1.07772 4.27728C1.09483 4.72684 1.09498 5.17776 1.0826 5.62748C1.07599 5.86926 1.15756 5.96036 1.40497 5.95466C2.4364 5.93087 2.23785 6.0826 2.24843 5.14257C2.26126 4.00053 2.37449 3.87784 3.51916 3.87784C4.51697 3.87761 5.51456 3.87761 6.54021 3.87761Z" fill="currentColor"/>
</svg>
