<svg width="12" height="13" viewBox="0 0 12 13" fill="none" xmlns="http://www.w3.org/2000/svg">
<path fill-rule="evenodd" clip-rule="evenodd" d="M7.57534 1.43128C7.65417 1.2511 7.71799 1.19479 7.90568 1.13097C8.07461 1.07091 8.23227 1.09343 8.38993 1.2023C8.45375 1.24734 9.08816 1.82919 9.79764 2.50114C10.2495 2.92908 10.6572 3.31287 10.8995 3.54099C11.0377 3.67106 11.1221 3.75051 11.1303 3.75869C11.1565 3.77746 11.3442 3.9614 11.5507 4.16411C11.851 4.45692 11.9336 4.56578 11.9711 4.69717C12.0612 5.01625 12.0312 5.05378 10.4884 6.50278C10.3489 6.63473 10.1687 6.80442 9.97822 6.98384C9.69177 7.25361 9.38193 7.54541 9.15197 7.76409C8.26605 8.60121 8.16095 8.66127 7.84187 8.49985C7.71799 8.43604 7.65042 8.36847 7.59036 8.24459C7.50777 8.08317 7.50402 8.04188 7.50402 7.01707V5.95096L5.12405 5.96223L2.74409 5.97349L2.58267 6.0861C2.49633 6.14617 2.38747 6.26629 2.34617 6.34888C2.2711 6.49528 2.26734 6.56285 2.24857 8.39474L2.2298 9.23937L2.12845 9.4158C2.05337 9.53968 1.97454 9.61476 1.84691 9.67857C1.68173 9.75741 1.61792 9.76491 1.12241 9.76491C0.626892 9.76491 0.563076 9.75741 0.397905 9.67857C0.270273 9.61476 0.191441 9.53968 0.116363 9.4158L0.0150082 9.23937L0.00374658 8.52613C-0.0150229 6.26629 0.0262699 5.90592 0.371628 5.27902C0.852125 4.40812 1.65921 3.8638 2.6615 3.73992C2.84544 3.7174 3.9153 3.70238 5.24042 3.70238H7.50402V2.64003C7.50402 1.69781 7.51152 1.56642 7.57534 1.43128ZM5.04841 12.461C4.79474 12.461 4.54107 12.4612 4.28741 12.4615L4.28545 12.4615C3.69681 12.4621 3.10817 12.4627 2.51955 12.4601C1.85923 12.457 1.46246 11.8022 1.78848 11.2271C2.38966 10.1667 2.99823 9.11039 3.60681 8.05413L3.6074 8.05311L3.60825 8.05162C3.85504 7.62328 4.10203 7.1946 4.34832 6.76598C4.64136 6.25605 5.44732 6.19814 5.80475 6.85075C6.11221 7.4121 6.433 7.96612 6.7538 8.52015C6.89294 8.76047 7.03208 9.00078 7.17014 9.2417C7.28218 9.43719 7.3954 9.63262 7.50836 9.8276L7.50931 9.82922C7.7736 10.2854 8.03788 10.7417 8.29024 11.2044C8.5412 11.6647 8.39593 12.2732 7.80168 12.4337C7.7119 12.458 7.61424 12.4605 7.52018 12.4608C6.8852 12.4623 6.25022 12.4622 5.61523 12.462H5.61443L5.04837 12.4619L5.04841 12.461ZM5.44192 8.89349L5.43294 8.89292C5.43461 8.86162 5.43664 8.83032 5.43877 8.79902L5.44205 8.75179C5.44935 8.64718 5.45665 8.54255 5.45559 8.43804C5.45308 8.18671 5.27473 8.01074 5.04012 8.01493C4.81906 8.01889 4.62491 8.20023 4.63465 8.43213C4.65723 8.96934 4.69271 9.50614 4.73452 10.0422C4.74915 10.2294 4.90288 10.3522 5.06424 10.3409C5.23267 10.3291 5.35689 10.1979 5.36971 10.011C5.38783 9.74765 5.40449 9.4842 5.42112 9.22073L5.43348 9.02557L5.44192 8.89349ZM5.04579 10.5667C4.79124 10.5681 4.5872 10.7752 4.59252 11.0269C4.59789 11.2795 4.80929 11.4834 5.0596 11.4773C5.30303 11.4714 5.49849 11.2692 5.49928 11.0224C5.50016 10.7638 5.30266 10.5654 5.04579 10.5667Z" fill="currentColor"/>
</svg>
