<svg width="24" height="24" viewBox="0 0 24 24" fill="none" xmlns="http://www.w3.org/2000/svg">
<path fill-rule="evenodd" clip-rule="evenodd" d="M1.26245 6.64362C3.12741 2.93623 6.79722 0.439543 10.9408 0.0635387C11.8883 -0.0192264 12.0312 -0.0192264 12.9487 0.0635387C17.8367 0.499689 21.9201 3.69573 23.3941 8.26044C24.3867 11.3211 24.1536 14.5623 22.7398 17.3974C21.8374 19.2022 20.2131 21.0221 18.5812 22.0673C14.0767 24.955 8.1734 24.5715 4.18023 21.1349C3.02967 20.1422 1.93925 18.7434 1.26996 17.3974C-0.422065 13.9983 -0.422065 10.0201 1.26245 6.64362ZM21.2734 8.97485C20.2131 5.6735 17.3254 3.12423 13.8811 2.43986C13.1818 2.29702 11.7003 2.2368 10.9483 2.31957C7.18075 2.71812 3.97719 5.29749 2.7439 8.9147C2.36037 10.0653 2.2626 10.6669 2.27013 12.0205C2.27013 13.3741 2.3679 14.0208 2.7439 15.1263C3.43575 17.1567 4.9172 19.0969 6.62426 20.1798C8.99309 21.6913 11.5274 22.135 14.2571 21.5334C17.4231 20.834 20.2432 18.2321 21.2734 15.0661C21.6344 13.9607 21.7321 13.2838 21.7396 11.9829C21.7396 10.6969 21.6494 10.1555 21.2734 8.97485ZM19.1813 13.4567C19.0387 13.5009 18.8871 13.5247 18.73 13.5247C17.8879 13.5247 17.2053 12.842 17.2053 11.9999C17.2053 11.1579 17.8879 10.4753 18.73 10.4753C19.572 10.4753 20.2547 11.1579 20.2547 11.9999C20.2547 12.4934 20.0203 12.9319 19.6569 13.2106C19.6277 13.2335 19.5975 13.2554 19.5663 13.2764C19.4232 13.3732 19.3177 13.4276 19.1813 13.4567ZM15.7988 6.05707C15.4303 6.14732 15.1671 6.55336 14.5128 8.02735L14.1562 8.8348C13.7658 9.71834 13.6527 9.97434 12.7908 11.9453C12.3729 12.8854 12.0131 13.6901 11.9383 13.8279C10.4984 13.8903 9.35029 15.0774 9.35029 16.5325C9.35029 18.0277 10.5624 19.2398 12.0575 19.2398C13.5527 19.2398 14.7648 18.0277 14.7648 16.5325C14.7648 15.8277 14.4954 15.1858 14.054 14.7041C14.1815 14.3663 14.8365 12.8555 15.6183 11.103C16.9945 8.01229 17.205 7.49338 17.205 7.16254C17.2126 6.74137 17.0471 6.42551 16.7087 6.20747C16.5057 6.07212 16.0319 5.99692 15.7988 6.05707ZM6.76087 12.0278C6.76087 12.8699 6.07824 13.5525 5.23618 13.5525C4.39412 13.5525 3.71149 12.8699 3.71149 12.0278C3.71149 11.1857 4.39412 10.5031 5.23618 10.5031C6.07824 10.5031 6.76087 11.1857 6.76087 12.0278ZM7.48325 9.03088C8.32531 9.03088 9.00794 8.34827 9.00794 7.50623C9.00794 6.66411 8.32531 5.9815 7.48325 5.9815C6.64118 5.9815 5.95856 6.66411 5.95856 7.50623C5.95856 8.34827 6.64118 9.03088 7.48325 9.03088ZM13.5247 5.24065C13.5247 6.08277 12.8421 6.76538 12 6.76538C11.1579 6.76538 10.4753 6.08277 10.4753 5.24065C10.4753 4.39861 11.1579 3.716 12 3.716C12.8421 3.716 13.5247 4.39861 13.5247 5.24065Z" fill="currentColor"/>
</svg>
