<svg width="24" height="24" viewBox="0 0 24 24" fill="none" xmlns="http://www.w3.org/2000/svg">
<path fill-rule="evenodd" clip-rule="evenodd" d="M13.5 12C13.5 11.1716 12.8284 10.5 12 10.5H8.25C7.42157 10.5 6.75 11.1716 6.75 12C6.75 12.8284 7.42157 13.5 8.25 13.5H10.5V19.5C10.5 20.3284 11.1716 21 12 21C12.8284 21 13.5 20.3284 13.5 19.5V12ZM6 0H18C21.3137 0 24 2.68629 24 6V18C24 21.3137 21.3137 24 18 24H6C2.68629 24 0 21.3137 0 18V6C0 2.68629 2.68629 0 6 0ZM12 8.25C13.2426 8.25 14.25 7.24264 14.25 6C14.25 4.75736 13.2426 3.75 12 3.75C10.7574 3.75 9.75 4.75736 9.75 6C9.75 7.24264 10.7574 8.25 12 8.25Z" fill="currentColor"/>
</svg>
