<svg width="12" height="13" viewBox="0 0 12 13" fill="none" xmlns="http://www.w3.org/2000/svg">
<path fill-rule="evenodd" clip-rule="evenodd" d="M5.57057 2.70867C4.00326 2.87413 2.61043 3.94507 2.07496 5.40408C1.88844 5.91549 1.81023 6.3547 1.81023 6.89318C1.81023 8.91173 3.19102 10.5994 5.19153 11.0175C5.63374 11.1108 6.36475 11.1108 6.80697 11.0175C7.24317 10.9243 7.42366 10.8611 7.8749 10.6385C8.33818 10.4129 8.68714 10.1572 9.0361 9.79014C9.61369 9.18247 9.98671 8.44845 10.1371 7.63321C10.2063 7.2662 10.2063 6.52015 10.1371 6.15314C9.94761 5.1183 9.364 4.17069 8.52469 3.53595C8.25696 3.33139 7.62221 3.00048 7.30333 2.89519C6.819 2.73575 6.07596 2.65753 5.57057 2.70867ZM6.26548 4.57079C6.44297 4.70015 6.44598 4.72421 6.44598 5.9907C6.44598 7.03457 6.43996 7.15791 6.39183 7.25116C6.31361 7.4106 6.20231 7.47678 6.01278 7.47678C5.8353 7.47979 5.73602 7.42865 5.62171 7.27222C5.56154 7.19401 5.55853 7.14587 5.54951 6.102C5.54349 5.50336 5.54951 4.95585 5.55853 4.88666C5.57959 4.73926 5.69391 4.58884 5.82928 4.52868C5.94359 4.47453 6.1632 4.49859 6.26548 4.57079ZM6.20832 8.12958C6.33768 8.1747 6.50012 8.32211 6.55427 8.45447C6.64753 8.67407 6.59037 8.96588 6.42492 9.13133C6.08799 9.47428 5.46829 9.2637 5.40511 8.78839C5.34495 8.33113 5.76911 7.98518 6.20832 8.12958ZM1.16646 3.47879C1.03109 3.52692 0.991978 3.56904 0.790424 3.90597C0.53472 4.33916 0.306092 4.89569 0.173728 5.41913C-0.0579092 6.33966 -0.0579092 7.44369 0.173728 8.36723C0.363249 9.1193 0.850589 10.1361 1.08824 10.2745C1.2898 10.3918 1.57257 10.3226 1.6899 10.1331C1.78315 9.98268 1.77112 9.82925 1.64477 9.60062C1.17247 8.72522 0.979945 8.11755 0.907746 7.27523C0.817498 6.2464 1.05816 5.25066 1.64778 4.19175C1.77112 3.96613 1.78616 3.8097 1.6899 3.65327C1.58461 3.4818 1.36801 3.4096 1.16646 3.47879ZM10.2514 3.94508C10.2153 3.73149 10.3627 3.5179 10.5824 3.46977C10.835 3.4096 10.9433 3.47879 11.172 3.84279C11.4427 4.27298 11.6864 4.85658 11.8308 5.42214C12.0564 6.29454 12.0564 7.49183 11.8308 8.36423C11.6563 9.0471 11.2592 9.92251 10.9945 10.2113C10.7207 10.5061 10.1702 10.2263 10.2514 9.83226C10.2635 9.78112 10.3357 9.62168 10.4139 9.4803C10.8892 8.63497 11.1088 7.81371 11.1088 6.89318C11.1088 5.96964 10.8772 5.11529 10.4079 4.29404C10.3327 4.16468 10.2635 4.00825 10.2514 3.94508Z" fill="currentColor"/>
</svg>
