<svg width="16" height="16" viewBox="0 0 16 16" fill="none" xmlns="http://www.w3.org/2000/svg">
<path fill-rule="evenodd" clip-rule="evenodd" d="M7.0737 2.00016C7.0737 2.50758 7.06657 2.96469 7.07683 3.42153C7.08182 3.64295 7.09208 3.87097 7.14819 4.0832C7.24695 4.45663 7.63786 4.69482 8.04769 4.66966C8.46287 4.64406 8.81614 4.38446 8.84504 3.96883C8.88885 3.3358 8.85647 2.69742 8.85647 2.04503C9.73875 2.04503 10.5399 1.98838 11.3289 2.06225C12.011 2.12603 12.4264 2.63399 12.6484 3.25355C13.7447 6.31326 14.8378 9.37421 15.9061 12.4438C16.251 13.4354 15.6106 14.4166 14.5617 14.4447C12.7198 14.4939 10.8755 14.4569 9.03212 14.454C9.00669 14.454 8.98127 14.4288 8.90508 14.3888C8.90508 13.9583 8.91222 13.5012 8.90196 13.0445C8.89688 12.823 8.88671 12.5949 8.83033 12.3827C8.73113 12.0091 8.34039 11.7713 7.93056 11.7967C7.51529 11.8225 7.16247 12.0822 7.13374 12.4977C7.09003 13.1308 7.12232 13.769 7.12232 14.466C6.89279 14.466 6.7497 14.466 6.60669 14.466C4.98611 14.466 3.36553 14.4683 1.74495 14.4653C0.3474 14.4626 -0.318371 13.5199 0.14757 12.2039C1.17794 9.29428 2.20983 6.38516 3.24385 3.47693C3.63718 2.37091 4.16779 2.00096 5.34134 2.00016C5.90194 1.9998 6.4628 2.00016 7.0737 2.00016ZM8.92444 8.24883C8.91499 8.24839 8.90535 8.24803 8.89598 8.24758C8.89598 7.95141 8.89848 7.65506 8.89411 7.35897C8.89304 7.286 8.87127 7.21275 8.8554 7.14049C8.76378 6.72023 8.43165 6.44823 8.00371 6.44172C7.55731 6.43494 7.1597 6.70988 7.13231 7.15628C7.08807 7.87692 7.09021 8.60424 7.13481 9.32497C7.16104 9.74898 7.54678 10.0179 7.97463 10.0245C8.42103 10.0313 8.78465 9.75603 8.85209 9.30971C8.90499 8.96037 8.90241 8.60273 8.92444 8.24883Z" fill="currentColor"/>
</svg>
