<svg width="16" height="16" viewBox="0 0 16 16" fill="none" xmlns="http://www.w3.org/2000/svg">
<path fill-rule="evenodd" clip-rule="evenodd" d="M13.6659 2H16V13.6707H13.6659V2ZM10.2491 3.99994H12.5832L12.5833 13.6704H10.2492L10.2491 3.99994ZM6.8318 5.99994V13.6705H9.16594V5.99994H6.8318ZM3.41682 7.99989H5.75095L5.75108 13.6706H3.41694L3.41682 7.99989ZM2.33413 13.6706V9.99983H0V13.6706H2.33413Z" fill="currentColor"/>
<path fill-rule="evenodd" clip-rule="evenodd" d="M2.33413 9.99976C2.33413 10.7867 2.33413 12.8871 2.33413 13.6705C1.55442 13.6705 0.793311 13.6705 0 13.6705C0 12.8963 0 10.7897 0 9.99976C0.766851 9.99976 1.52812 9.99976 2.33413 9.99976Z" fill="#6AD09D"/>
</svg>
