<svg width="20" height="20" viewBox="0 0 20 20" fill="none" xmlns="http://www.w3.org/2000/svg">
<path fill-rule="evenodd" clip-rule="evenodd" d="M11.25 10C11.25 9.30964 10.6904 8.75 10 8.75H6.875C6.18464 8.75 5.625 9.30964 5.625 10C5.625 10.6904 6.18464 11.25 6.875 11.25H8.75V16.25C8.75 16.9404 9.30964 17.5 10 17.5C10.6904 17.5 11.25 16.9404 11.25 16.25V10ZM5 0H15C17.7614 0 20 2.23858 20 5V15C20 17.7614 17.7614 20 15 20H5C2.23858 20 0 17.7614 0 15V5C0 2.23858 2.23858 0 5 0ZM10 6.875C11.0355 6.875 11.875 6.03553 11.875 5C11.875 3.96447 11.0355 3.125 10 3.125C8.96447 3.125 8.125 3.96447 8.125 5C8.125 6.03553 8.96447 6.875 10 6.875Z" fill="currentColor"/>
</svg>
