<svg width="12" height="12" viewBox="0 0 12 12" fill="none" xmlns="http://www.w3.org/2000/svg">
<path d="M2.08463 0.0794338C1.57043 0.182273 1.10766 0.447939 0.747724 0.842155C0.362078 1.27065 0.21639 1.54489 0.0964114 2.11907C-0.0321371 2.72753 -0.0321371 9.24066 0.0964114 9.86626C0.310659 10.8861 1.02196 11.6488 1.99036 11.8888C2.62453 12.0516 9.60043 12.0259 10.1403 11.863C10.6717 11.7002 11.2287 11.3146 11.5115 10.9032C11.9829 10.2262 12 10.0462 12 6.05265C12 3.55881 11.9657 2.25619 11.8972 1.98195C11.7686 1.43348 11.3058 0.730746 10.9116 0.473649C10.2346 0.0280144 9.87467 -0.00626519 6.00107 0.00230471C4.04713 0.0108746 2.28174 0.0451542 2.08463 0.0794338ZM6.57525 2.77895C6.80664 2.93321 6.96947 3.64451 6.94376 4.39009C6.93519 4.68147 6.92662 4.97285 6.93519 5.02427C6.94376 5.10997 7.17515 5.13567 7.80932 5.13567C8.40921 5.13567 8.76058 5.17852 8.95769 5.26422C9.45474 5.50418 9.58329 6.14692 9.22335 6.56685C9.01768 6.79824 8.9834 6.80681 7.95501 6.84965L6.90091 6.8925L6.92662 7.38956C7.01232 8.73503 6.72094 9.42062 6.06963 9.42062C5.34976 9.42062 5.20407 9.18067 5.14408 7.87804L5.10123 6.8925L4.06427 6.84965C2.90734 6.79824 2.79593 6.75539 2.65024 6.24976C2.57311 6.00123 2.58168 5.87269 2.66738 5.68415C2.86449 5.27279 3.26727 5.13567 4.26138 5.13567H5.12694L5.16122 4.11586C5.18693 3.17317 5.20407 3.07033 5.39261 2.87322C5.70112 2.54756 6.15533 2.51329 6.57525 2.77895Z" fill="currentColor"/>
</svg>
