<svg width="12" height="12" viewBox="0 0 12 12" fill="none" xmlns="http://www.w3.org/2000/svg">
<path fill-rule="evenodd" clip-rule="evenodd" d="M5.48724 0C5.3627 0 5.26173 0.101565 5.26173 0.226831V6.12444C5.26173 6.24971 5.3627 6.35127 5.48724 6.35127H6.46442C6.58895 6.35127 6.68992 6.24971 6.68992 6.12444V0.226831C6.68992 0.101565 6.58895 0 6.46442 0H5.48724ZM4.34882 0.437639C4.31392 0.3202 4.19225 0.251438 4.07593 0.288043C1.41992 1.12409 -0.372765 4.08466 0.0660932 6.82247C0.582027 10.0402 3.29988 12.1115 6.21968 11.9954C9.56351 11.8624 11.9654 9.13025 11.9997 6.01752C12.0277 3.47016 10.0342 0.673829 7.90501 0.284739C7.79736 0.265061 7.69522 0.333767 7.66409 0.439282C7.5712 0.753925 7.4772 1.07274 7.37862 1.40678C7.34408 1.52386 7.40809 1.647 7.52165 1.69019C8.57205 2.0897 9.39779 2.76094 9.94493 3.75353C10.534 4.82265 10.6714 5.96331 10.3664 7.14889C9.86458 9.09879 8.15712 10.4588 6.1509 10.5163C4.11943 10.5744 2.31459 9.3084 1.71175 7.39145C1.40829 6.42659 1.40649 5.45203 1.73993 4.49845C2.22023 3.12478 3.16269 2.20186 4.49442 1.68754C4.60743 1.64392 4.67082 1.5209 4.63613 1.40426L4.34882 0.437639Z" fill="currentColor"/>
</svg>
