<svg width="24" height="24" viewBox="0 0 24 24" fill="none" xmlns="http://www.w3.org/2000/svg">
<path fill-rule="evenodd" clip-rule="evenodd" d="M0.276613 9.42802C1.36801 4.32479 5.68092 0.53124 10.9573 0.0344656C12.3648 -0.101018 14.3444 0.124788 15.6917 0.568874C17.5508 1.18608 19.0788 2.13447 20.4863 3.53447C21.8712 4.91189 22.7669 6.342 23.3691 8.12587C23.896 9.6764 24.1067 11.5054 23.9487 13.0635C23.8207 14.2528 23.6927 14.8775 23.3766 15.8259C22.5411 18.3398 20.9831 20.3796 18.7024 21.9678C17.4831 22.8108 15.782 23.5183 14.1938 23.8269C13.0798 24.0452 11.0852 24.0678 9.98629 23.8646C8.37554 23.5786 6.49382 22.8033 5.22178 21.9076C2.60995 20.0786 0.916398 17.5495 0.276613 14.5614C-0.0922043 12.8377 -0.0922043 11.1592 0.276613 9.42802ZM16.2261 3.21081C14.9766 2.63877 14.1411 2.40543 12.9218 2.29253C12.2143 2.22479 12.0035 2.22479 11.1906 2.26995C9.78307 2.34522 7.78092 3.03769 6.5992 3.86565C4.35618 5.42372 2.97124 7.45597 2.40672 10.0226C2.22608 10.8431 2.22608 13.1689 2.39919 13.9592C3.09167 17.0302 5.01855 19.4764 7.8035 20.8237C10.9347 22.3442 14.7132 22.028 17.6261 19.9958C18.3712 19.4764 19.4702 18.3775 19.997 17.6398C21.796 15.0958 22.2626 11.7689 21.254 8.80329C20.4487 6.43984 18.4616 4.23447 16.2261 3.21081ZM11.1805 4.8741C11.2476 4.81046 11.3321 4.76524 11.439 4.70113C11.9659 4.37747 12.696 4.58822 12.967 5.13769C13.0949 5.3936 13.11 5.67209 13.1325 8.42693L13.1551 11.4377L14.9766 12.642C17.6261 14.3958 17.8745 14.6742 17.5057 15.442C17.2498 15.9764 16.7153 16.2398 16.2411 16.0667C16.0981 16.014 14.8863 15.2388 13.5465 14.3506C11.5971 13.056 11.1003 12.6872 11.0024 12.4839C10.8971 12.2581 10.8895 11.8065 10.9046 8.74306C10.9226 5.65884 10.9167 5.12425 11.1805 4.8741Z" fill="currentColor"/>
</svg>
