<svg width="12" height="12" viewBox="0 0 12 12" fill="none" xmlns="http://www.w3.org/2000/svg">
<path fill-rule="evenodd" clip-rule="evenodd" d="M0.631223 3.32205C1.56371 1.46836 3.39861 0.220016 5.4704 0.0320135C5.94416 -0.00936907 6.01561 -0.00936907 6.47433 0.0320135C8.91836 0.250089 10.9601 1.84811 11.697 4.13046C12.1934 5.66081 12.0768 7.28138 11.3699 8.69892C10.9187 9.60133 10.1065 10.5113 9.2906 11.0339C7.03834 12.4778 4.0867 12.286 2.09011 10.5677C1.51483 10.0713 0.969627 9.37195 0.634978 8.69892C-0.211032 6.99937 -0.211032 5.01029 0.631223 3.32205ZM10.6367 4.48767C10.1065 2.83699 8.66268 1.56236 6.94057 1.22017C6.5909 1.14875 5.85016 1.11864 5.47415 1.16003C3.59038 1.3593 1.98859 2.64899 1.37195 4.4576C1.18018 5.03287 1.1313 5.33368 1.13507 6.01049C1.13507 6.6873 1.18395 7.01064 1.37195 7.56338C1.71787 8.57859 2.4586 9.54868 3.31213 10.0901C4.49654 10.8459 5.76369 11.0677 7.12857 10.7669C8.71156 10.4173 10.1216 9.11627 10.6367 7.53331C10.8172 6.98057 10.8661 6.64217 10.8698 5.99169C10.8698 5.3487 10.8247 5.078 10.6367 4.48767ZM9.59067 6.7286C9.51935 6.75067 9.44355 6.76257 9.36499 6.76257C8.94395 6.76257 8.60264 6.42126 8.60264 6.00021C8.60264 5.57918 8.94395 5.23788 9.36499 5.23788C9.78602 5.23788 10.1273 5.57918 10.1273 6.00021C10.1273 6.24692 10.0102 6.46621 9.82844 6.60556C9.81387 6.61698 9.79877 6.62796 9.78317 6.63842C9.71158 6.68685 9.65886 6.71403 9.59067 6.7286ZM7.89939 3.02878C7.71515 3.07391 7.58354 3.27693 7.25642 4.01392L7.0781 4.41764C6.88289 4.85941 6.82634 4.98742 6.39538 5.97289C6.18646 6.44297 6.00656 6.8453 5.96915 6.91418C5.24922 6.94539 4.67515 7.53892 4.67515 8.26651C4.67515 9.01408 5.28118 9.62013 6.02876 9.62013C6.77635 9.62013 7.38238 9.01408 7.38238 8.26651C7.38238 7.91408 7.2477 7.59312 7.027 7.35228C7.09073 7.18337 7.41823 6.42798 7.80915 5.55175C8.49724 4.00639 8.60252 3.74693 8.60252 3.58151C8.60628 3.37093 8.52356 3.213 8.35435 3.10398C8.25283 3.03631 8.01595 2.9987 7.89939 3.02878ZM3.38044 6.01416C3.38044 6.43518 3.03912 6.77649 2.61809 6.77649C2.19706 6.77649 1.85574 6.43518 1.85574 6.01416C1.85574 5.5931 2.19706 5.25179 2.61809 5.25179C3.03912 5.25179 3.38044 5.5931 3.38044 6.01416ZM3.74162 4.51568C4.16266 4.51568 4.50397 4.17438 4.50397 3.75336C4.50397 3.3323 4.16266 2.99099 3.74162 2.99099C3.32059 2.99099 2.97928 3.3323 2.97928 3.75336C2.97928 4.17438 3.32059 4.51568 3.74162 4.51568ZM6.76235 2.62057C6.76235 3.04163 6.42103 3.38293 6 3.38293C5.57897 3.38293 5.23766 3.04163 5.23766 2.62057C5.23766 2.19955 5.57897 1.85824 6 1.85824C6.42103 1.85824 6.76235 2.19955 6.76235 2.62057Z" fill="currentColor"/>
</svg>
