<svg width="20" height="20" viewBox="0 0 20 20" fill="none" xmlns="http://www.w3.org/2000/svg">
<path fill-rule="evenodd" clip-rule="evenodd" d="M19.9999 9.97627C20.0284 15.4698 15.5461 19.9732 10.0237 19.9999C4.52503 20.0266 0.0287579 15.5513 0.000135193 10.0236C-0.028362 4.5302 4.45197 0.0284378 9.97615 0.000133481C15.4732 -0.0281708 19.9712 4.44854 19.9999 9.97627ZM10.9576 7.28849C10.9576 6.057 10.966 4.82552 10.9543 3.59415C10.9477 2.90921 10.5821 2.49229 10.0211 2.47851C9.44073 2.46424 9.06399 2.90058 9.0429 3.61457C9.03863 3.7606 9.04202 3.90688 9.04202 4.05291C9.04202 6.32803 9.03474 8.60326 9.0493 10.8783C9.05169 11.2421 8.98239 11.4741 8.63565 11.6798C7.6606 12.2583 7.26741 13.3575 7.58063 14.4443C7.88795 15.5104 8.90882 16.2795 10.0103 16.2749C11.0899 16.2703 12.0829 15.5279 12.4053 14.484C12.7459 13.3822 12.3503 12.2648 11.3473 11.6681C11.0226 11.475 10.9477 11.2602 10.9521 10.9202C10.9674 9.70989 10.9581 8.49919 10.9576 7.28849ZM6.86368 5.60088C6.85514 4.88025 6.30918 4.3456 5.59047 4.35399C4.8729 4.36225 4.34024 4.91055 4.34865 5.63219C4.35706 6.35295 4.90303 6.88747 5.62173 6.87921C6.33906 6.87082 6.87209 6.32226 6.86368 5.60088ZM15.6515 5.58748C15.6362 4.86785 15.084 4.33896 14.3647 4.35474C13.6474 4.37027 13.1211 4.92345 13.1363 5.64572C13.1516 6.36535 13.7035 6.89423 14.4231 6.87858C15.1402 6.86292 15.6667 6.30949 15.6515 5.58748ZM2.46558 10.0103C2.47123 10.7312 3.01493 11.2684 3.73351 11.2629C4.45097 11.2572 4.98638 10.7107 4.98061 9.98955C4.97483 9.26854 4.43113 8.73139 3.71267 8.73702C2.9951 8.74266 2.45993 9.28908 2.46558 10.0103ZM15.0193 9.99469C15.0165 10.7157 15.5541 11.2601 16.2715 11.2631C16.9897 11.2659 17.5315 10.7263 17.5345 10.0052C17.5373 9.28432 16.9995 8.73965 16.2821 8.7369C15.5638 8.73414 15.0223 9.27355 15.0193 9.99469Z" fill="currentColor"/>
</svg>
