<svg width="20" height="21" viewBox="0 0 20 21" fill="none" xmlns="http://www.w3.org/2000/svg">
<path d="M6.23078 0.719304C5.94592 0.826642 5.74363 1.01655 5.55786 1.36333C5.48354 1.49957 5.47942 1.65645 5.45877 3.79908L5.43813 6.09033L4.98401 6.11097C4.44319 6.13574 4.24503 6.21005 3.98494 6.49491C3.64229 6.86646 3.66293 6.67656 3.66293 9.55817C3.66293 11.8494 3.67118 12.1508 3.73724 12.4357C4.03861 13.7774 4.69915 14.7723 5.78904 15.5319C6.45371 15.9943 7.48581 16.3494 8.17938 16.3494C8.51378 16.3494 8.48901 16.0975 8.49314 19.2681C8.49314 19.8487 8.80737 20.2963 9.38074 20.563C9.57477 20.6579 9.6656 20.6703 10.0206 20.6703C10.3922 20.6703 10.4541 20.662 10.6564 20.5547C11.1556 20.2943 11.5084 19.8558 11.5069 19.3728C11.4986 16.7183 11.4656 16.3494 11.8495 16.3494C12.5142 16.3494 13.505 16.0067 14.2316 15.5196C15.0366 14.9787 15.8334 13.9219 16.0894 13.0549C16.1265 12.9269 16.1761 12.7742 16.1926 12.7164C16.3247 12.3035 16.3371 12.06 16.3371 9.53753C16.3371 6.68069 16.3577 6.86646 16.015 6.49491C15.755 6.21005 15.5568 6.13574 15.016 6.11097L14.5619 6.09033L14.5412 3.79908C14.5206 1.53673 14.5206 1.5037 14.4297 1.33856C14.2935 1.08673 14.1408 0.921596 13.9261 0.793616C13.761 0.698663 13.6908 0.68215 13.4018 0.68215C13.0178 0.68215 12.766 0.785359 12.5513 1.02893C12.2582 1.3592 12.2706 1.28077 12.2623 3.74541C12.2623 4.99218 12.2458 5.9995 12.2211 6.03666C12.188 6.10684 12.0394 6.11097 9.98348 6.11097C8.01011 6.11097 7.7748 6.10272 7.75415 6.04492C7.74177 6.00776 7.72938 4.97154 7.72938 3.74128V1.5037L7.62617 1.29728C7.51058 1.06196 7.37022 0.917467 7.13077 0.78123C6.92435 0.665636 6.46197 0.632608 6.23078 0.719304Z" fill="currentColor"/>
</svg>
