<svg width="24" height="24" viewBox="0 0 24 24" fill="none" xmlns="http://www.w3.org/2000/svg">
<path fill-rule="evenodd" clip-rule="evenodd" d="M20.4987 3H24V20.5063H20.4987V3ZM15.3739 6.00002H18.8751L18.8753 20.506H15.374L15.3739 6.00002ZM10.2494 9V20.5061H13.7506V9H10.2494ZM5.1245 12H8.62576L8.62594 20.5061H5.12468L5.1245 12ZM3.50127 20.5063V15H0V20.5063H3.50127Z" fill="currentColor"/>
<path fill-rule="evenodd" clip-rule="evenodd" d="M15.374 6C16.5516 6 17.6869 6 18.8753 6C18.8753 10.9246 18.8755 15.5599 18.8755 20.506C17.7306 20.506 16.5791 20.506 15.3742 20.506C15.3742 15.5961 15.374 10.961 15.374 6Z" fill="#6AD09D"/>
<path fill-rule="evenodd" clip-rule="evenodd" d="M10.2495 20.5061C10.2495 16.7264 10.2495 12.7657 10.2495 9C11.4221 9 12.564 9 13.7508 9C13.7508 12.7592 13.7508 16.73 13.7508 20.5061C12.5913 20.5061 11.4495 20.5061 10.2495 20.5061Z" fill="#6AD09D"/>
<path fill-rule="evenodd" clip-rule="evenodd" d="M5.12451 12C6.3043 12 7.44599 12 8.62578 12C8.62578 14.4721 8.62596 18.034 8.62596 20.5062C7.44617 20.5062 6.30449 20.5062 5.12469 20.5062C5.12469 18.0339 5.12451 14.4722 5.12451 12Z" fill="#6AD09D"/>
<path fill-rule="evenodd" clip-rule="evenodd" d="M3.50127 15C3.50127 16.1805 3.50127 19.331 3.50127 20.5062C2.33167 20.5062 1.18999 20.5062 0 20.5062C0 19.3449 0 16.1849 0 15C1.1503 15 2.29222 15 3.50127 15Z" fill="#6AD09D"/>
</svg>
