<svg width="16" height="16" viewBox="0 0 16 16" fill="none" xmlns="http://www.w3.org/2000/svg">
<path fill-rule="evenodd" clip-rule="evenodd" d="M15.9999 7.98102C16.0227 12.3759 12.4369 15.9786 8.01898 15.9999C3.62003 16.0212 0.0230063 12.4411 0.000108154 8.01889C-0.0226896 3.62416 3.56157 0.0227502 7.98092 0.000106785C12.3786 -0.0225367 15.977 3.55884 15.9999 7.98102ZM8.76608 5.83079C8.76608 4.8456 8.77281 3.86041 8.76347 2.87532C8.75815 2.32737 8.4657 1.99383 8.01687 1.98281C7.55258 1.97139 7.25119 2.32046 7.23432 2.89166C7.2309 3.00848 7.23361 3.1255 7.23361 3.24233C7.23361 5.06242 7.22779 6.88261 7.23944 8.7026C7.24135 8.99366 7.18591 9.17932 6.90852 9.34383C6.12848 9.80662 5.81393 10.686 6.0645 11.5555C6.31036 12.4083 7.12706 13.0236 8.00824 13.0199C8.87194 13.0163 9.66634 12.4223 9.92425 11.5872C10.1967 10.7057 9.88026 9.81183 9.07782 9.33452C8.81811 9.18002 8.75815 9.00819 8.76167 8.73617C8.77392 7.76791 8.76649 6.79935 8.76608 5.83079ZM5.49094 4.4807C5.48412 3.9042 5.04734 3.47648 4.47238 3.48319C3.89832 3.4898 3.47219 3.92844 3.47892 4.50575C3.48565 5.08236 3.92242 5.50998 4.49739 5.50337C5.07125 5.49665 5.49767 5.05781 5.49094 4.4807ZM12.5212 4.46998C12.5089 3.89428 12.0672 3.47117 11.4918 3.48379C10.9179 3.49622 10.4969 3.93876 10.5091 4.51657C10.5213 5.09228 10.9628 5.51539 11.5385 5.50286C12.1121 5.49034 12.5333 5.04759 12.5212 4.46998ZM1.97246 8.00827C1.97698 8.58498 2.41195 9.0147 2.98681 9.01029C3.56077 9.00579 3.98911 8.56855 3.98449 7.99164C3.97987 7.41483 3.5449 6.98511 2.97014 6.98962C2.39608 6.99413 1.96794 7.43127 1.97246 8.00827ZM12.0154 7.99575C12.0132 8.57255 12.4432 9.00809 13.0172 9.01049C13.5918 9.0127 14.0252 8.58107 14.0276 8.00416C14.0298 7.42746 13.5996 6.99172 13.0256 6.98952C12.4511 6.98731 12.0178 7.41884 12.0154 7.99575Z" fill="currentColor"/>
</svg>
