<svg width="16" height="16" viewBox="0 0 16 16" fill="none" xmlns="http://www.w3.org/2000/svg">
<path fill-rule="evenodd" clip-rule="evenodd" d="M5.97637 12.0145C5.97637 12.4124 5.98601 12.7602 5.97427 13.1074C5.9533 13.7271 5.70191 13.9708 5.07212 13.9871C4.72603 13.9962 4.37944 13.9887 3.96945 13.9887C3.96945 14.4071 3.98048 14.7703 3.96694 15.1326C3.94547 15.7066 3.70241 15.9719 3.14315 15.9858C2.37483 16.0049 1.6052 16.0046 0.83688 15.9856C0.294671 15.9722 0.0342488 15.7151 0.0211074 15.1792C0.00194704 14.3956 -0.0203214 13.6087 0.0347521 12.8285C0.0545144 12.5489 0.239094 12.2304 0.443137 12.0222C1.92762 10.5081 3.43216 9.01322 4.94181 7.52389C5.17826 7.29061 5.2555 7.08906 5.17966 6.74203C4.43612 3.34456 6.77038 0.261072 10.2513 0.0122659C13.0415 -0.187079 15.699 2.06959 15.9727 4.87124C16.2616 7.82697 14.2276 10.5276 11.3873 10.8749C10.6732 10.9623 9.93274 10.8197 9.20434 10.8193C8.98365 10.8191 8.76055 10.9355 8.54336 11.0119C8.48658 11.0318 8.44094 11.0974 8.40132 11.1503C7.89753 11.8202 7.24196 12.1215 6.39891 11.9901C6.28715 11.9727 6.16828 12.0019 5.97637 12.0145ZM13.0346 4.26219C13.0479 3.55742 12.4896 2.98602 11.7823 2.98031C11.0929 2.9747 10.5404 3.50286 10.513 4.1933C10.485 4.89747 11.031 5.47998 11.7379 5.50001C12.4422 5.52003 13.0214 4.96725 13.0346 4.26219Z" fill="currentColor"/>
</svg>
