<svg width="24" height="24" viewBox="0 0 24 24" fill="none" xmlns="http://www.w3.org/2000/svg">
<path fill-rule="evenodd" clip-rule="evenodd" d="M18.6072 8.52564C18.2276 10.8319 17.8569 13.0833 17.4669 15.4544C18.5125 15.4544 19.4825 15.4339 20.4512 15.4599C21.5364 15.489 22.1727 16.0224 22.2624 16.9189C22.3775 18.0713 21.7291 18.7855 20.4854 18.8414C19.8831 18.8684 19.2783 18.8474 18.6748 18.8477C18.1034 18.8481 17.5318 18.8477 16.8848 18.8477C16.7067 19.9687 16.5412 21.0381 16.365 22.1057C16.2339 22.8997 15.98 23.6025 15.1019 23.8867C14.0073 24.241 12.9797 23.542 12.9724 22.3678C12.9688 21.8001 13.0789 21.2304 13.1525 20.6634C13.2258 20.097 13.3177 19.5332 13.4109 18.9048C11.6804 18.9048 9.99922 18.9048 8.24768 18.9048C8.07348 20.0127 7.91221 21.115 7.72472 22.2125C7.49412 23.5621 6.53081 24.2713 5.46143 23.9035C4.63922 23.6206 4.26321 23.0216 4.34513 22.1857C4.45087 21.1069 4.62335 20.0344 4.78221 18.8462C3.76336 18.8462 2.79316 18.8667 1.82433 18.8407C0.738912 18.8116 0.102802 18.2784 0.0131122 17.3819C-0.102105 16.2296 0.546249 15.5151 1.78983 15.4592C2.39231 15.4322 2.99686 15.4532 3.60054 15.4529C4.17197 15.4525 4.74357 15.4529 5.39313 15.4529C5.77242 13.1492 6.14308 10.898 6.53357 8.52598C5.48903 8.52598 4.51917 8.54645 3.55052 8.52065C2.46441 8.49158 1.8283 7.95922 1.73809 7.06272C1.62219 5.91062 2.27019 5.17943 3.51326 5.14193C4.68751 5.1065 5.86348 5.13436 7.11466 5.13436C7.29318 4.01271 7.45876 2.94352 7.63486 1.87605C7.76594 1.08206 8.01898 0.378904 8.8969 0.0942335C10.0177 -0.269388 11.0848 0.452349 11.0439 1.69062C11.0074 2.79852 10.7788 3.90039 10.6269 5.06934C12.3208 5.06934 13.9975 5.06934 15.7513 5.06934C15.9201 4.00325 16.0842 2.93165 16.2608 1.86229C16.3924 1.06676 16.6554 0.368238 17.534 0.0892441C18.6283 -0.258381 19.6928 0.451145 19.6435 1.62388C19.596 2.7605 19.3848 3.89058 19.2318 5.13385C20.2378 5.13385 21.208 5.1132 22.177 5.13935C23.2619 5.16859 23.8979 5.7025 23.9871 6.59968C24.1016 7.75058 23.452 8.48092 22.2088 8.5179C21.0347 8.55316 19.8586 8.52564 18.6072 8.52564ZM14.0249 15.4188C14.3982 13.1371 14.7681 10.8763 15.1466 8.56193C13.3648 8.56193 11.7109 8.56193 9.97491 8.56193C9.60166 10.8439 9.23168 13.105 8.85343 15.4188C10.6343 15.4188 12.2884 15.4188 14.0249 15.4188Z" fill="currentColor"/>
</svg>
