<svg width="12" height="12" viewBox="0 0 12 12" fill="none" xmlns="http://www.w3.org/2000/svg">
<path fill-rule="evenodd" clip-rule="evenodd" d="M7.47721 5.94322C7.87344 6.04262 8.22073 6.07775 8.52075 6.21544C9.2465 6.54853 9.66351 7.12735 9.72043 7.93783C9.74392 8.27363 9.7391 8.61259 9.78307 8.94554C9.82101 9.23307 10.0389 9.37691 10.315 9.37998C10.5913 9.38299 10.7928 9.2405 10.8601 8.95725C10.8859 8.84877 10.9031 8.73541 10.9035 8.62415C10.9067 7.57373 10.9145 6.52301 10.8938 5.47281C10.8913 5.34204 10.7602 5.16036 10.6384 5.0943C10.095 4.79956 9.78201 4.3784 9.77938 3.74951C9.77893 3.63698 9.76598 3.52317 9.77825 3.41214C9.86046 2.67072 9.75325 2.01908 9.07982 1.53989C8.80555 1.34463 8.82001 0.974744 9.01259 0.773549C9.23054 0.545778 9.52928 0.552309 9.81168 0.827452C10.4127 1.41287 11.0297 1.9865 11.579 2.61794C11.7985 2.87026 11.9633 3.25996 11.9705 3.59104C12.0086 5.34106 12.0072 7.09251 11.9812 8.84284C11.967 9.80137 11.248 10.4841 10.3335 10.4941C9.41273 10.5041 8.70354 9.80475 8.6531 8.83082C8.63887 8.55643 8.65897 8.27911 8.63014 8.0066C8.56765 7.4151 8.14575 7.09176 7.51131 7.14934C7.50055 7.2383 7.47917 7.33297 7.47894 7.42786C7.4763 8.35329 7.48165 9.27878 7.47382 10.2041C7.47224 10.4041 7.5153 10.5128 7.73235 10.579C8.11082 10.6947 8.25318 10.9626 8.2123 11.3617C8.17481 11.7276 7.94692 11.9109 7.60685 11.9785C7.50958 11.9979 7.40749 11.9987 7.30751 11.9988C5.17549 11.9998 3.04339 12.001 0.911362 11.9986C0.284606 11.9979 -0.0206036 11.7274 0.00107882 11.2118C0.0139527 10.9039 0.155792 10.66 0.450913 10.5913C0.739861 10.524 0.744905 10.3552 0.744604 10.1288C0.740765 7.35256 0.740614 4.57614 0.744905 1.79979C0.745282 1.56422 0.751831 1.32015 0.811683 1.09486C0.984088 0.445706 1.54866 0.0206428 2.26899 0.0123097C3.49789 -0.00187905 4.72738 -0.00660869 5.95605 0.0134358C6.87462 0.0283753 7.46516 0.661465 7.47367 1.61804C7.48541 2.91861 7.47691 4.21925 7.47713 5.51996C7.47721 5.66793 7.47721 5.81597 7.47721 5.94322ZM4.11825 1.48959C3.65433 1.48959 3.19019 1.4974 2.72658 1.48689C2.40248 1.47946 2.21765 1.61932 2.21389 1.94206C2.2056 2.6545 2.20553 3.36724 2.21637 4.07976C2.22066 4.35903 2.37635 4.51308 2.67185 4.51241C3.62475 4.50993 4.57772 4.5085 5.53061 4.51338C5.84538 4.51496 6.00168 4.35573 6.00567 4.05941C6.01493 3.35943 6.01448 2.65915 6.00755 1.95902C6.00446 1.64364 5.842 1.48081 5.51006 1.48734C5.04622 1.49643 4.58216 1.48959 4.11825 1.48959Z" fill="currentColor"/>
</svg>
