<svg width="24" height="24" viewBox="0 0 24 24" fill="none" xmlns="http://www.w3.org/2000/svg">
<path fill-rule="evenodd" clip-rule="evenodd" d="M11.9999 19.4045L9.20629 19.4047C7.07132 19.405 4.93634 19.4052 2.80137 19.4041C0.930773 19.4031 0.00581513 18.4764 0.00317189 16.5912C-0.0010573 13.6654 -0.0010573 10.7394 0.00317189 7.81354C0.00581513 5.92849 0.930891 5.00135 2.8016 5.001C8.93398 4.99967 15.0662 4.99967 21.1986 5.001C23.0692 5.00135 23.9942 5.9286 23.9969 7.81378C24.001 10.7396 24.001 13.6656 23.9969 16.5915C23.9943 18.4765 23.0691 19.4031 21.1983 19.4041C19.0634 19.4052 16.9284 19.405 14.7935 19.4047L11.9999 19.4045ZM12.0019 17.6317L14.5525 17.6318C16.7891 17.632 19.0257 17.6322 21.2622 17.6311C22.0783 17.6307 22.2532 17.4662 22.2546 16.6505C22.2597 13.684 22.26 10.7175 22.2544 7.75099C22.2529 6.93753 22.0779 6.77429 21.2584 6.77418C15.0849 6.77297 8.91125 6.77297 2.73763 6.77418C1.9214 6.77429 1.74689 6.93885 1.74542 7.75472C1.74025 10.7212 1.74013 13.6878 1.74554 16.6543C1.74701 17.4678 1.92187 17.6307 2.74145 17.6311C5.82829 17.6326 8.91501 17.6317 12.0019 17.6317ZM11.9439 14.0246C12.4407 14.0246 12.7769 14.0081 13.1106 14.0282C13.6934 14.0634 14.072 14.4171 14.0771 14.9019C14.0821 15.3835 13.7012 15.7737 13.1256 15.7867C12.0652 15.8107 11.0013 15.8324 9.94434 15.7666C9.6476 15.7482 9.22932 15.4783 9.12359 15.2189C9.01833 14.9607 9.13551 14.4875 9.32988 14.254C9.84226 13.6385 10.3905 13.0529 10.9387 12.4674C11.1707 12.2196 11.4026 11.9719 11.6319 11.7219C11.6643 11.6865 11.7007 11.6509 11.7376 11.6148L11.7387 11.6137C11.8545 11.5004 11.9746 11.3829 11.9904 11.256C12.0203 11.015 11.992 10.6512 11.84 10.5358C11.6886 10.4212 11.2986 10.4663 11.1127 10.5905C10.963 10.6904 10.8532 10.8465 10.7423 11.0042C10.6916 11.0764 10.6407 11.1489 10.5856 11.2164C10.5576 11.2507 10.5286 11.2836 10.4981 11.3147C10.1995 11.6178 9.83274 11.6807 9.45875 11.452C9.06585 11.2117 8.91448 10.823 9.08253 10.4149C9.57611 9.21728 10.8151 8.1885 12.358 8.79203C13.8444 9.37342 14.3378 11.1444 13.3591 12.4197C13.0911 12.7687 12.7923 13.0941 12.4582 13.4579C12.2954 13.6353 12.1241 13.8218 11.9439 14.0246ZM7.16036 14.0076C7.06879 13.9993 6.97299 13.9906 6.87161 13.9785V13.3826C6.87149 12.1623 6.87848 10.9421 6.86849 9.72182C6.86285 9.0407 6.59301 8.68546 6.0068 8.62675C5.59104 8.58514 5.16483 8.5885 4.74873 8.62772C4.28005 8.67198 3.95576 8.95396 3.92421 9.43479C3.89308 9.91033 4.15676 10.225 4.62749 10.3433C4.77487 10.3803 4.92559 10.4037 5.06093 10.4306V13.9884C4.97252 13.9976 4.88741 14.0038 4.80494 14.0098C4.63113 14.0225 4.46913 14.0344 4.31301 14.0712C3.87153 14.1751 3.62506 14.4618 3.63252 14.9293C3.63951 15.3696 3.88034 15.7143 4.29356 15.7308C5.42804 15.7761 6.56728 15.7742 7.70141 15.7214C8.11945 15.7019 8.34066 15.3388 8.33855 14.9031C8.33625 14.4661 8.10635 14.1836 7.68942 14.0814C7.52319 14.0407 7.35085 14.025 7.16036 14.0076Z" fill="currentColor"/>
</svg>
