<svg width="12" height="12" viewBox="0 0 12 12" fill="none" xmlns="http://www.w3.org/2000/svg">
<path fill-rule="evenodd" clip-rule="evenodd" d="M8.10623e-05 5.98576C-0.0170174 9.28189 2.67231 11.9839 5.98576 11.9999C9.28498 12.0159 11.9827 9.33081 11.9999 6.01417C12.017 2.71812 9.32882 0.0170627 6.01431 8.00885e-05C2.71607 -0.0169025 0.0172548 2.66913 8.10623e-05 5.98576ZM5.42544 4.3731C5.42544 3.6342 5.42039 2.89531 5.4274 2.15649C5.43139 1.74553 5.65073 1.49537 5.98735 1.48711C6.33556 1.47854 6.56161 1.74035 6.57426 2.16874C6.57682 2.25636 6.57479 2.34413 6.57479 2.43175C6.57479 3.79682 6.57916 5.16196 6.57042 6.52695C6.56899 6.74525 6.61057 6.88449 6.81861 7.00787C7.40364 7.35497 7.63955 8.01451 7.45162 8.66661C7.26723 9.30624 6.65471 9.7677 5.99382 9.76491C5.34605 9.76221 4.75024 9.31676 4.55681 8.69043C4.35246 8.02931 4.58981 7.35887 5.19164 7.00089C5.38642 6.88502 5.43139 6.75614 5.42875 6.55213C5.41956 5.82593 5.42514 5.09951 5.42544 4.3731ZM7.88179 3.36053C7.88691 2.92815 8.21449 2.60736 8.64572 2.61239C9.07626 2.61735 9.39586 2.94633 9.39081 3.37931C9.38576 3.81177 9.05818 4.13248 8.62696 4.12752C8.19657 4.12249 7.87674 3.79336 7.88179 3.36053ZM2.60911 3.35249C2.6183 2.92071 2.94957 2.60338 3.38117 2.61284C3.81157 2.62216 4.12732 2.95407 4.11821 3.38743C4.10902 3.81921 3.7779 4.13654 3.34615 4.12715C2.9159 4.11775 2.6 3.78569 2.60911 3.35249ZM10.5207 6.0062C10.5173 6.43873 10.191 6.76103 9.75989 6.75772C9.32942 6.75434 9.00817 6.42641 9.01163 5.99373C9.0151 5.56112 9.34132 5.23883 9.7724 5.24221C10.2029 5.2456 10.524 5.57345 10.5207 6.0062ZM2.98844 5.99681C2.9901 6.42942 2.66757 6.75607 2.23709 6.75787C1.80617 6.75952 1.48108 6.4358 1.47927 6.00312C1.47761 5.57059 1.8003 5.24379 2.23077 5.24214C2.66169 5.24049 2.98663 5.56413 2.98844 5.99681Z" fill="currentColor"/>
</svg>
