<svg width="24" height="24" viewBox="0 0 24 24" fill="none" xmlns="http://www.w3.org/2000/svg">
<path fill-rule="evenodd" clip-rule="evenodd" d="M9.23154 3.43657C9.28785 3.31926 9.39108 3.20664 9.49901 3.14095C9.67731 3.04241 9.70078 3.03772 11.9953 3.03772H11.9954C14.2898 3.03772 14.3133 3.03772 14.4916 3.14095C14.6089 3.20664 14.7075 3.31457 14.7685 3.43657C14.8576 3.61956 14.8623 3.72749 14.8623 5.49179V7.35463H16.9926H19.1182L19.2731 7.45786C19.3575 7.51886 19.4654 7.6174 19.5124 7.68309C19.6109 7.81917 23.9513 19.9159 23.9935 20.174C24.0357 20.4274 23.8668 20.7511 23.6322 20.8684C23.4539 20.9623 23.2944 20.9623 12 20.9623C0.705641 20.9623 0.546102 20.9623 0.367795 20.8684C0.13318 20.7511 -0.0357425 20.4274 0.00648814 20.174C0.0487188 19.9159 4.38909 7.81917 4.48763 7.68309C4.53455 7.6174 4.64248 7.51886 4.72694 7.45786L4.88178 7.35463H7.0074H9.1377V5.49179C9.1377 3.72749 9.14239 3.61956 9.23154 3.43657ZM13.4546 7.35463V5.90002V4.44541H12H10.5454V5.90002V7.35463H12H13.4546ZM22.2714 19.4936C22.2714 19.4655 21.4127 17.0395 20.3617 14.1115L18.4519 8.78578L12.0141 8.77171C8.47609 8.76701 5.56686 8.78109 5.55278 8.79986C5.51055 8.86555 1.72387 19.4655 1.72387 19.5124C1.72387 19.5358 5.67009 19.5546 12 19.5546C20.1928 19.5546 22.2761 19.5405 22.2714 19.4936ZM18.3044 14.6983C18.3044 16.4461 17.217 17.5159 15.4208 17.5159C13.4661 17.5159 12.2906 16.2524 12.2906 14.1612C12.2906 12.0965 13.4705 10.8197 15.3768 10.8197C16.9265 10.8197 18.0799 11.7222 18.2384 13.065H16.6447C16.4862 12.5059 16.0107 12.1669 15.3768 12.1669C14.4743 12.1669 13.9372 12.9065 13.9372 14.1436C13.9372 15.4027 14.5315 16.1688 15.456 16.1688C16.1912 16.1688 16.7019 15.7373 16.7415 15.0945L16.7459 14.9889H15.5837V13.8795H18.3044V14.6983ZM8.02461 17.3442H6.40889V10.9914H8.02461V13.721H8.10826L10.2215 10.9914H11.956L9.75919 13.7958L12.0837 17.3442H10.1862L8.58373 14.8392L8.02461 15.548V17.3442Z" fill="currentColor"/>
</svg>
