<svg width="20" height="20" viewBox="0 0 20 20" fill="none" xmlns="http://www.w3.org/2000/svg">
<path d="M3.47438 0.13235C2.61739 0.303748 1.8461 0.746526 1.24621 1.40355C0.603464 2.11771 0.36065 2.57477 0.160686 3.53174C-0.0535619 4.54585 -0.0535619 15.4011 0.160686 16.4437C0.517765 18.1434 1.70327 19.4146 3.31726 19.8146C4.37422 20.0859 16.0007 20.0431 16.9006 19.7717C17.7861 19.5003 18.7145 18.8576 19.1859 18.172C19.9714 17.0436 20 16.7437 20 10.0877C20 5.93132 19.9429 3.76027 19.8286 3.30321C19.6144 2.38909 18.8431 1.21787 18.186 0.789375C17.0577 0.0466508 16.4578 -0.0104818 10.0018 0.00380136C6.74522 0.0180845 3.80289 0.0752172 3.47438 0.13235ZM10.9588 4.63155C11.3444 4.88864 11.6158 6.07415 11.5729 7.31678C11.5587 7.80241 11.5444 8.28804 11.5587 8.37374C11.5729 8.51657 11.9586 8.55942 13.0155 8.55942C14.0154 8.55942 14.601 8.63083 14.9295 8.77367C15.7579 9.17359 15.9721 10.2448 15.3723 10.9447C15.0295 11.3304 14.9723 11.3446 13.2583 11.4161L11.5015 11.4875L11.5444 12.3159C11.6872 14.5583 11.2016 15.701 10.1161 15.701C8.91626 15.701 8.67345 15.3011 8.57347 13.13L8.50205 11.4875L6.77379 11.4161C4.84556 11.3304 4.65988 11.2589 4.41707 10.4162C4.28852 10.002 4.3028 9.78777 4.44563 9.47354C4.77415 8.78795 5.44546 8.55942 7.1023 8.55942H8.5449L8.60204 6.85972C8.64488 5.28857 8.67345 5.11717 8.98768 4.78866C9.50187 4.2459 10.2589 4.18877 10.9588 4.63155Z" fill="currentColor"/>
</svg>
