<svg width="16" height="16" viewBox="0 0 16 16" fill="none" xmlns="http://www.w3.org/2000/svg">
<path fill-rule="evenodd" clip-rule="evenodd" d="M1.0002 7.99767C1.0002 5.88412 0.99969 3.77057 1.00052 1.65701C1.00071 1.14554 1.14625 1.00123 1.65622 1.0011C3.65484 1.00073 5.65339 0.99834 7.65195 1.00205C8.41943 1.00343 9.09434 1.26585 9.6373 1.79536C11.3057 3.42255 12.9619 5.06198 14.6221 6.6974C14.968 7.03807 15.0758 7.45071 14.9482 7.90849C14.3902 9.9102 13.8282 11.911 13.2578 13.9094C13.0696 14.5687 12.4881 14.9964 11.79 14.9972C8.38817 15.0014 4.98627 15 1.58444 14.9986C1.16264 14.9984 1.00122 14.8323 1.0009 14.4011C0.999372 12.2667 1.00027 10.1322 1.0002 7.99767ZM7.28611 7.11343C8.58226 7.11343 9.87841 7.11098 11.1746 7.11543C11.439 7.11638 11.6654 7.06495 11.7725 6.79907C11.8733 6.54825 11.7571 6.36263 11.5774 6.18705C10.6879 5.3175 9.80714 4.43941 8.91665 3.57087C8.46575 3.13098 7.91967 2.82189 7.28662 2.80029C5.94969 2.75464 4.61067 2.76067 3.27247 2.76261C2.95301 2.76312 2.79127 2.97091 2.79038 3.30556C2.78751 4.38283 2.78776 5.46011 2.79006 6.53739C2.79095 6.94965 2.96711 7.11242 3.39835 7.11248C4.69425 7.11261 5.99015 7.11255 7.28611 7.11343ZM4.11824 9.49185C4.11824 9.49141 4.11824 9.49097 4.11824 9.49053C4.40459 9.49053 4.69144 9.50133 4.97715 9.48758C5.27237 9.47326 5.46339 9.27652 5.46715 9.01384C5.47098 8.74608 5.29591 8.55153 4.98832 8.54067C4.41766 8.52051 3.84599 8.51555 3.27502 8.5239C2.99174 8.52799 2.79229 8.74652 2.79031 9.00198C2.78808 9.29153 2.96666 9.47483 3.2911 9.48928C3.56628 9.50159 3.84248 9.49185 4.11824 9.49185Z" fill="currentColor"/>
</svg>
