<svg width="16" height="16" viewBox="0 0 16 16" fill="none" xmlns="http://www.w3.org/2000/svg">
<path d="M7.47709 0.0470579C6.39121 0.167155 5.21026 0.807672 4.54972 1.63334C3.78911 2.59411 3.49888 3.59993 3.49888 5.28629V5.99186H3.18362C2.10775 5.99186 1.28209 6.63237 1.07192 7.62818C0.966832 8.12858 0.966832 13.8632 1.07192 14.3636C1.25206 15.2093 1.88257 15.8098 2.73326 15.9499C3.1536 16.0199 12.9565 16.0149 13.3268 15.9449C14.1625 15.7898 14.803 15.1643 14.9581 14.3536C15.0232 13.9933 15.0232 7.99848 14.9581 7.63818C14.773 6.64738 13.9723 6.03689 12.7814 5.97684L12.5312 5.96684L12.5011 4.88096C12.4661 3.85513 12.4561 3.76506 12.306 3.25965C11.9507 2.06869 11.2551 1.17797 10.2043 0.58249C9.73391 0.317276 9.21849 0.152143 8.57797 0.06207C8.02253 -0.0179947 8.03754 -0.0179947 7.47709 0.0470579ZM8.79315 2.11373C9.63883 2.40396 10.1793 2.97442 10.4245 3.85013C10.4845 4.0603 10.5045 4.36054 10.5045 5.0611V5.99186L8.01752 5.98185L5.52551 5.96684L5.53051 4.99105C5.53552 4.13035 5.54553 3.97523 5.6406 3.695C5.95586 2.75925 6.62139 2.2038 7.65223 2.01865C7.8674 1.97862 8.56797 2.03867 8.79315 2.11373Z" fill="currentColor"/>
</svg>
