<svg width="12" height="12" viewBox="0 0 12 12" fill="none" xmlns="http://www.w3.org/2000/svg">
<path fill-rule="evenodd" clip-rule="evenodd" d="M5.99995 9.20225L4.60315 9.20236C3.53566 9.20249 2.46817 9.20261 1.40068 9.20207C0.465387 9.20153 0.00290757 8.7382 0.00158594 7.79562C-0.000528648 6.33269 -0.000528648 4.8697 0.00158594 3.40677C0.00290757 2.46424 0.465445 2.00068 1.4008 2.0005C4.46699 1.99983 7.53312 1.99983 10.5993 2.0005C11.5346 2.00068 11.9971 2.4643 11.9984 3.40689C12.0005 4.86982 12.0005 6.33281 11.9984 7.79574C11.9971 8.73826 11.5345 9.20153 10.5991 9.20207C9.5317 9.20261 8.46422 9.20249 7.39673 9.20236L5.99995 9.20225ZM6.00095 8.31584L7.27623 8.31592C8.39455 8.31601 9.51285 8.31611 10.6311 8.31554C11.0392 8.31536 11.1266 8.23308 11.1273 7.82527C11.1299 6.34201 11.13 4.85875 11.1272 3.37549C11.1265 2.96876 11.0389 2.88715 10.6292 2.88709C7.54246 2.88649 4.45562 2.88649 1.36882 2.88709C0.960701 2.88715 0.873444 2.96943 0.87271 3.37736C0.870126 4.86061 0.870067 6.34387 0.872769 7.82714C0.873503 8.23392 0.960936 8.31536 1.37073 8.31554C2.91414 8.31632 4.4575 8.31584 6.00095 8.31584ZM5.97196 6.51229C6.22037 6.51229 6.38845 6.50405 6.5553 6.51409C6.8467 6.53171 7.03599 6.70855 7.03857 6.95095C7.04104 7.19172 6.85061 7.38685 6.56282 7.39334C6.03261 7.40537 5.50064 7.4162 4.97217 7.3833C4.8238 7.37409 4.61466 7.23913 4.56179 7.10945C4.50916 6.98037 4.56776 6.74374 4.66494 6.627C4.92113 6.31925 5.19523 6.02647 5.46937 5.73368C5.58535 5.60981 5.70132 5.48594 5.81595 5.36093C5.83214 5.34323 5.85037 5.32543 5.86882 5.30739L5.86935 5.30684C5.92723 5.2502 5.98729 5.19146 5.99519 5.12798C6.01017 5.0075 5.99602 4.82561 5.92001 4.76792C5.84432 4.7106 5.64928 4.73316 5.55633 4.79523C5.4815 4.84518 5.4266 4.92326 5.37115 5.00211C5.34581 5.03819 5.32035 5.07444 5.2928 5.10822C5.27882 5.12533 5.26431 5.14182 5.24904 5.15732C5.09975 5.3089 4.91637 5.34036 4.72938 5.22602C4.53292 5.10584 4.45724 4.9115 4.54127 4.70747C4.78806 4.10864 5.40754 3.59425 6.17899 3.89601C6.92221 4.18671 7.16891 5.07221 6.67956 5.70985C6.54555 5.88433 6.39617 6.04702 6.22912 6.22895C6.14768 6.31763 6.06204 6.41087 5.97196 6.51229ZM3.58018 6.50382C3.5344 6.49966 3.48649 6.4953 3.4358 6.48926V6.19129C3.43574 5.58114 3.43924 4.97105 3.43425 4.36091C3.43143 4.02035 3.2965 3.84273 3.0034 3.81338C2.79552 3.79257 2.58242 3.79425 2.37436 3.81386C2.14003 3.83599 1.97788 3.97698 1.96211 4.21739C1.94654 4.45516 2.07838 4.61251 2.31375 4.67164C2.38743 4.69016 2.4628 4.70183 2.53046 4.7153V6.49419C2.48626 6.49878 2.44371 6.50189 2.40247 6.50491C2.31557 6.51126 2.23457 6.51718 2.1565 6.53558C1.93576 6.58755 1.81253 6.73088 1.81626 6.96467C1.81975 7.18481 1.94017 7.35714 2.14678 7.36539C2.71402 7.38806 3.28364 7.3871 3.8507 7.36069C4.05972 7.35094 4.17033 7.16942 4.16927 6.95156C4.16813 6.73304 4.05318 6.59181 3.84471 6.54069C3.7616 6.52033 3.67543 6.51249 3.58018 6.50382Z" fill="currentColor"/>
</svg>
