<svg width="16" height="16" viewBox="0 0 16 16" fill="none" xmlns="http://www.w3.org/2000/svg">
<path fill-rule="evenodd" clip-rule="evenodd" d="M0.000144041 7.9781C0.0266574 3.55368 3.62484 -0.0249176 8.02194 0.000130695C12.4424 0.0252791 16.0261 3.62872 15.9999 8.02189C15.9732 12.4459 12.3732 16.0265 7.97806 15.9999C3.55585 15.9732 -0.0261685 12.3715 0.000144041 7.9781ZM8.11173 13.0204C8.75488 12.9816 9.35756 12.6634 9.73648 12.0053C10.1359 11.3112 10.1269 10.5855 9.68807 9.92155C9.49796 9.63399 9.52839 9.4339 9.65312 9.15827C10.2238 7.89785 10.7804 6.63101 11.3328 5.36246C11.4179 5.16699 11.5436 4.92392 11.4919 4.74978C11.415 4.49098 11.2445 4.17317 11.0244 4.06937C10.829 3.97729 10.481 4.08811 10.2585 4.21265C10.0952 4.30412 10.0051 4.5534 9.91795 4.74828C9.36047 5.99638 8.80138 7.24389 8.27021 8.50321C8.13383 8.82674 7.96872 8.97843 7.60577 9.04916C6.55919 9.25306 5.89244 10.1916 6.00562 11.2041C6.12112 12.2389 6.97919 13.0204 8.11173 13.0204ZM6.99395 2.99039C6.99395 3.5672 7.4259 4.00114 7.99995 4.00114C8.57391 4.00114 9.00605 3.567 9.00605 2.99039C9.00595 2.41368 8.57391 1.97964 7.99985 1.97964C7.4258 1.97964 6.99395 2.41368 6.99395 2.99039ZM5.49092 4.48477C5.4863 3.90816 5.05094 3.47833 4.47628 3.48294C3.90223 3.48765 3.4742 3.92479 3.47882 4.5018C3.48344 5.07861 3.9186 5.50824 4.49336 5.50363C5.06731 5.49903 5.49554 5.06158 5.49092 4.48477ZM3.98448 7.98842C3.97815 7.41181 3.54179 6.98368 2.96683 6.9899C2.39278 6.99611 1.96625 7.43455 1.97248 8.01166C1.97881 8.58827 2.41507 9.0164 2.99013 9.01019C3.56398 9.00408 3.99081 8.56553 3.98448 7.98842ZM12.0202 7.93201C11.9847 8.51453 12.3801 8.97061 12.9528 9.00728C13.53 9.04425 13.9873 8.64278 14.0225 8.06797C14.0582 7.48555 13.6625 7.02937 13.0898 6.9927C12.5126 6.95573 12.0554 7.35731 12.0202 7.93201Z" fill="currentColor"/>
</svg>
