<svg width="24" height="25" viewBox="0 0 24 25" fill="none" xmlns="http://www.w3.org/2000/svg">
<path d="M7.47694 0.729109C7.13511 0.857914 6.89237 1.0858 6.66943 1.50194C6.58026 1.66543 6.57531 1.85368 6.55054 4.42484L6.52576 7.17434L5.98082 7.19911C5.33184 7.22883 5.09404 7.31801 4.78194 7.65984C4.37075 8.1057 4.39552 7.87782 4.39552 11.3357C4.39552 14.0852 4.40543 14.4469 4.48469 14.7887C4.84634 16.3988 5.63899 17.5927 6.94686 18.5043C7.74446 19.0591 8.98298 19.4852 9.81526 19.4852C10.2165 19.4852 10.1868 19.183 10.1918 22.9877C10.1918 23.6844 10.5689 24.2215 11.2569 24.5415C11.4897 24.6554 11.5987 24.6703 12.0248 24.6703C12.4706 24.6703 12.5449 24.6604 12.7877 24.5316C13.3867 24.2191 13.81 23.6929 13.8082 23.1133C13.7983 19.9279 13.7587 19.4852 14.2194 19.4852C15.017 19.4852 16.206 19.074 17.0779 18.4894C18.044 17.8404 19.0001 16.5722 19.3072 15.5318C19.3518 15.3783 19.4113 15.195 19.4311 15.1256C19.5896 14.6302 19.6045 14.3379 19.6045 11.311C19.6045 7.88277 19.6293 8.1057 19.2181 7.65984C18.906 7.31801 18.6682 7.22883 18.0192 7.19911L17.4742 7.17434L17.4495 4.42484C17.4247 1.71001 17.4247 1.67038 17.3157 1.47222C17.1522 1.17002 16.9689 0.971858 16.7113 0.818282C16.5131 0.704339 16.4289 0.684523 16.0821 0.684523C15.6214 0.684523 15.3192 0.808374 15.0616 1.10066C14.7099 1.49699 14.7247 1.40286 14.7148 4.36043C14.7148 5.85656 14.695 7.06535 14.6653 7.10994C14.6257 7.19415 14.4473 7.19911 11.9802 7.19911C9.61214 7.19911 9.32976 7.1892 9.30499 7.11984C9.29013 7.07526 9.27527 5.83179 9.27527 4.35548V1.67038L9.15142 1.42268C9.0127 1.1403 8.84426 0.966904 8.55693 0.80342C8.30923 0.664706 7.75437 0.625073 7.47694 0.729109Z" fill="currentColor"/>
</svg>
