<svg width="24" height="24" viewBox="0 0 24 24" fill="none" xmlns="http://www.w3.org/2000/svg">
<path fill-rule="evenodd" clip-rule="evenodd" d="M0.000216061 11.9672C0.0399861 5.33052 5.43726 -0.0373763 12.0329 0.000196043C18.6637 0.0379187 24.0391 5.44308 23.9998 12.0328C23.9599 18.6689 18.5597 24.0398 11.9671 23.9998C5.33378 23.9598 -0.0392527 18.5572 0.000216061 11.9672ZM12.1676 19.5306C13.1323 19.4725 14.0363 18.9951 14.6047 18.0079C15.2038 16.9668 15.1904 15.8783 14.5321 14.8823C14.2469 14.451 14.2926 14.1509 14.4797 13.7374C15.3356 11.8468 16.1707 9.94651 16.9992 8.0437C17.1268 7.75048 17.3154 7.38587 17.2378 7.12467C17.1224 6.73647 16.8668 6.25976 16.5366 6.10406C16.2436 5.96594 15.7214 6.13216 15.3878 6.31897C15.1428 6.45618 15.0077 6.83011 14.8769 7.12242C14.0407 8.99458 13.2021 10.8658 12.4053 12.7548C12.2007 13.2401 11.9531 13.4676 11.4087 13.5737C9.83879 13.8796 8.83866 15.2873 9.00844 16.8062C9.18168 18.3584 10.4688 19.5306 12.1676 19.5306ZM10.4909 4.48559C10.4909 5.3508 11.1388 6.00171 11.9999 6.00171C12.8609 6.00171 13.5091 5.3505 13.5091 4.48559C13.5089 3.62052 12.8609 2.96947 11.9998 2.96947C11.1387 2.96947 10.4909 3.62052 10.4909 4.48559ZM8.23638 6.72716C8.22945 5.86224 7.57641 5.2175 6.71443 5.22441C5.85334 5.23148 5.2113 5.88719 5.21823 6.7527C5.22516 7.61792 5.8779 8.26237 6.74004 8.25545C7.60097 8.24854 8.24331 7.59237 8.23638 6.72716ZM5.97672 11.9826C5.96723 11.1177 5.31268 10.4755 4.45025 10.4848C3.58916 10.4942 2.94938 11.1518 2.95872 12.0175C2.96821 12.8824 3.62261 13.5246 4.48519 13.5153C5.34597 13.5061 5.98621 12.8483 5.97672 11.9826ZM18.0304 11.898C17.977 12.7718 18.5701 13.4559 19.4292 13.5109C20.295 13.5664 20.9809 12.9642 21.0338 12.102C21.0872 11.2283 20.4937 10.5441 19.6347 10.4891C18.769 10.4336 18.0831 11.036 18.0304 11.898Z" fill="currentColor"/>
</svg>
