<svg width="16" height="16" viewBox="0 0 16 16" fill="none" xmlns="http://www.w3.org/2000/svg">
<path fill-rule="evenodd" clip-rule="evenodd" d="M14.146 11.375C9.71308 11.375 5.49679 11.375 1.0625 11.375C1.0625 9.10996 1.0625 6.89038 1.0625 4.625C5.4954 4.625 9.71169 4.625 14.146 4.625C14.146 6.89004 14.146 9.10944 14.146 11.375Z" fill="#6AD09D"/>
<path fill-rule="evenodd" clip-rule="evenodd" d="M7.55744 12.45C5.86471 12.45 4.17188 12.4521 2.47914 12.4494C0.887971 12.447 0.0174339 11.5929 0.00664358 10.0118C-0.00245238 8.67555 -0.00191586 7.33898 0.00646668 6.00258C0.016276 4.41686 0.88369 3.55791 2.47058 3.55667C5.85614 3.55408 9.2418 3.57129 12.6272 3.54891C14.1564 3.53883 15.144 4.48615 15.1136 5.88915C15.1086 6.11575 15.171 6.23694 15.4075 6.29651C15.7794 6.39032 15.9844 6.65714 15.9914 7.04149C16.0029 7.67936 16.0025 8.31777 15.9925 8.95574C15.9865 9.33919 15.7885 9.616 15.4154 9.70517C15.146 9.76956 15.123 9.92321 15.1113 10.1523C15.0349 11.6435 14.184 12.4452 12.6804 12.4489C10.9727 12.4532 9.26508 12.45 7.55744 12.45ZM7.55825 11.1358C9.26588 11.1358 10.9736 11.1375 12.6812 11.1351C13.4971 11.134 13.817 10.8288 13.8236 10.0103C13.8342 8.67403 13.8338 7.33746 13.8238 6.00107C13.8176 5.17949 13.4992 4.8713 12.6868 4.87085C9.27141 4.86907 5.85606 4.86916 2.4407 4.87085C1.62457 4.87121 1.30505 5.17681 1.29854 5.99563C1.28784 7.33193 1.28828 8.6685 1.29836 10.0049C1.30451 10.8267 1.6226 11.1339 2.43526 11.1351C4.1429 11.1376 5.85053 11.1358 7.55825 11.1358Z" fill="currentColor"/>
</svg>
