<svg width="16" height="17" viewBox="0 0 16 17" fill="none" xmlns="http://www.w3.org/2000/svg">
<path d="M4.98463 0.709501C4.75675 0.795372 4.59492 0.947296 4.44629 1.22472C4.38684 1.33371 4.38354 1.45922 4.36703 3.17332L4.35051 5.00632L3.98722 5.02284C3.55456 5.04265 3.39603 5.1021 3.18796 5.32999C2.91384 5.62723 2.93035 5.47531 2.93035 7.78059C2.93035 9.6136 2.93696 9.85469 2.9898 10.0826C3.2309 11.156 3.75933 11.9519 4.63124 12.5596C5.16298 12.9295 5.98866 13.2135 6.54351 13.2135C6.81103 13.2135 6.79121 13.0121 6.79452 15.5486C6.79452 16.013 7.04591 16.3711 7.5046 16.5844C7.65983 16.6604 7.73249 16.6703 8.01652 16.6703C8.31376 16.6703 8.3633 16.6637 8.52514 16.5778C8.92445 16.3695 9.20669 16.0187 9.20549 15.6323C9.19889 13.5087 9.17247 13.2135 9.47962 13.2135C10.0114 13.2135 10.804 12.9394 11.3853 12.5497C12.0293 12.117 12.6667 11.2716 12.8715 10.578C12.9012 10.4756 12.9409 10.3534 12.9541 10.3072C13.0598 9.97689 13.0697 9.78203 13.0697 7.76408C13.0697 5.47861 13.0862 5.62723 12.812 5.32999C12.604 5.1021 12.4454 5.04265 12.0128 5.02284L11.6495 5.00632L11.633 3.17332C11.6165 1.36344 11.6165 1.33702 11.5438 1.20491C11.4348 1.00344 11.3126 0.871334 11.1409 0.768951C11.0088 0.692988 10.9526 0.679778 10.7214 0.679778C10.4143 0.679778 10.2128 0.762345 10.0411 0.957205C9.80658 1.22142 9.81649 1.15867 9.80989 3.13039C9.80989 4.1278 9.79668 4.93366 9.77686 4.96339C9.75044 5.01953 9.63154 5.02284 7.98679 5.02284C6.4081 5.02284 6.21985 5.01623 6.20333 4.96999C6.19342 4.94027 6.18352 4.11129 6.18352 3.12708V1.33702L6.10095 1.17188C6.00847 0.983626 5.89618 0.868031 5.70462 0.759042C5.53949 0.666566 5.16959 0.640145 4.98463 0.709501Z" fill="currentColor"/>
</svg>
