<svg width="16" height="16" viewBox="0 0 16 16" fill="none" xmlns="http://www.w3.org/2000/svg">
<path fill-rule="evenodd" clip-rule="evenodd" d="M8.89183 3.6826V2.76521C9.19503 2.76521 9.44711 2.77396 9.69846 2.76361C10.3107 2.73808 10.6475 2.41416 10.6405 1.86942C10.6341 1.34852 10.3013 1.02889 9.71157 1.00845C9.37908 0.996972 9.04615 0.999652 8.71318 1.00233C8.58509 1.00336 8.457 1.00438 8.32896 1.00461C7.39633 1.00604 7.13384 1.26372 7.13222 2.19289C7.13183 2.42337 7.1317 2.65384 7.1317 2.88433C7.13174 3.13518 7.13192 3.38604 7.13209 3.6369V3.64635C7.13292 4.7825 7.13375 5.91866 7.11893 7.05456C7.11658 7.23316 6.98888 7.47763 6.84196 7.57591C5.97197 8.15777 5.60082 9.09542 5.88912 10.0949C6.16743 11.06 7.01233 11.6951 8.00898 11.6885C8.99617 11.682 9.82288 11.0625 10.1023 10.1196C10.4044 9.10087 10.0418 8.15805 9.13755 7.57225C9.02733 7.50084 8.88808 7.36794 8.88333 7.25842C8.86485 6.82179 8.86725 6.38428 8.86973 5.92918C8.8706 5.76961 8.87148 5.60788 8.87148 5.44328C8.97045 5.44328 9.06367 5.44403 9.15302 5.44474C9.33838 5.44623 9.50704 5.44758 9.6754 5.44186C10.2981 5.4208 10.6374 5.11089 10.6405 4.57C10.6438 4.02615 10.3065 3.70777 9.6897 3.68429C9.51153 3.67746 9.33297 3.67918 9.14958 3.68095C9.06485 3.68177 8.97908 3.6826 8.89183 3.6826ZM14.9354 15.2088C15.4976 15.3637 15.9834 14.9537 15.9902 14.1719C15.9883 13.9312 15.7313 13.6878 15.335 13.5311C15.2871 13.5121 15.2386 13.4937 15.1898 13.4756C15.1514 13.4613 15.1129 13.4471 15.0742 13.433L15.0734 13.4327C14.7667 13.3201 14.4562 13.2062 14.2121 13.0126C13.6307 12.5516 13.1308 12.5731 12.5123 12.9511C11.4439 13.6041 10.2566 13.7648 9.16522 13.1111C8.32443 12.6074 7.68542 12.6306 6.84889 13.116C5.71954 13.7715 4.52498 13.5754 3.41563 12.9212C3.00002 12.6761 2.60399 12.5183 2.1261 12.7915C1.62726 13.0767 1.10627 13.3253 0.584803 13.5681C0.12104 13.7841 -0.0983546 14.1917 0.0419379 14.6453C0.178177 15.0856 0.623112 15.3442 1.10575 15.1986C1.36851 15.1193 1.62342 15.0146 1.87851 14.9097C2.07546 14.8288 2.2725 14.7478 2.47333 14.6785C2.62007 14.6278 2.82517 14.6022 2.95387 14.6657C4.54633 15.4522 6.12485 15.4157 7.71523 14.6577C7.87213 14.5829 8.1266 14.5827 8.28333 14.6578C9.87348 15.4185 11.4527 15.4448 13.0483 14.6758C13.1878 14.6087 13.407 14.6398 13.566 14.6937C13.7614 14.7599 13.9529 14.8392 14.1441 14.9185C14.4049 15.0266 14.6654 15.1345 14.9354 15.2088ZM10.6918 11.3403C10.737 11.1629 10.7787 10.9952 10.8187 10.8347C10.9233 10.4144 11.0157 10.0436 11.1251 9.6781C11.1588 9.56564 11.292 9.45353 11.4067 9.40024C11.5897 9.31506 11.7773 9.23879 11.9647 9.16257C12.2432 9.04928 12.5216 8.93608 12.7844 8.79383C13.2158 8.56042 13.5734 8.57782 13.9866 8.84203C14.3944 9.10266 14.8428 9.30804 15.2918 9.49316C15.8427 9.72032 16.1091 10.1354 15.9583 10.6272C15.8097 11.1113 15.3471 11.3271 14.7642 11.1536L14.7078 11.137L14.6711 11.1261C14.3594 11.0344 14.0378 10.9397 13.7736 10.7666C13.4215 10.5359 13.1585 10.6169 12.7996 10.7495C12.3258 10.9246 11.8332 11.0487 11.3312 11.1751C11.1905 11.2106 11.0491 11.2462 10.9071 11.2832C10.8355 11.3018 10.7637 11.3208 10.6918 11.3403ZM2.99174 10.6708C3.72907 11.0204 4.49774 11.2047 5.28118 11.2363C5.24457 11.0926 5.2091 10.9506 5.17401 10.8101C5.07752 10.4239 4.98369 10.0485 4.8763 9.67693C4.8457 9.57134 4.73805 9.45603 4.63638 9.40854C4.40826 9.30203 4.17654 9.20319 3.94485 9.10437C3.67407 8.98888 3.40334 8.87341 3.13848 8.74572C2.80285 8.58398 2.50392 8.56613 2.16759 8.75063C1.6375 9.04161 1.09163 9.30474 0.546058 9.56662C0.112629 9.77467 -0.0931683 10.1874 0.0411534 10.6265C0.170943 11.0507 0.609515 11.3244 1.06107 11.1944C1.31887 11.1201 1.56907 11.02 1.81941 10.9199C2.02338 10.8383 2.22743 10.7567 2.43576 10.6889C2.60782 10.6329 2.84108 10.5993 2.99174 10.6708Z" fill="currentColor"/>
</svg>
