<svg width="16" height="16" viewBox="0 0 16 16" fill="none" xmlns="http://www.w3.org/2000/svg">
<path fill-rule="evenodd" clip-rule="evenodd" d="M4.49523 3.17879C4.48419 1.41996 5.91216 -0.0125417 7.66428 8.28085e-05C9.35864 0.0123102 10.7856 1.44324 10.7933 3.13817C10.8016 4.8897 9.36396 6.31846 7.60612 6.30584C5.88179 6.29362 4.50607 4.9108 4.49523 3.17879ZM5.66727 12.7935C7.15978 11.0016 8.56066 9.31965 10.0113 7.57804C3.75127 6.11891 1.24238 9.72254 1.00222 14.725C0.972448 15.3445 1.23863 15.9007 1.99757 15.9611C2.76559 16.0224 3.36973 15.8071 3.5543 14.9596C3.58792 14.805 3.61388 14.6488 3.63984 14.4926C3.66759 14.3257 3.69549 14.1584 3.73255 13.9936C3.85022 13.4698 3.97407 12.9475 4.09793 12.4253C4.14811 12.2137 4.19861 12.0008 4.24837 11.7892C4.34971 11.8057 4.45126 11.8225 4.55261 11.8392V14.1318L5.66727 12.7935ZM6.45117 13.1173C5.66591 14.0615 4.87008 15.0184 4.05927 15.9932C4.3364 15.9932 4.59504 15.9951 4.84041 15.9969C5.45219 16.0013 5.98147 16.0051 6.50922 15.9778C6.70205 15.9678 6.93235 15.8069 7.06525 15.6482C9.27542 13.0125 11.4761 10.3689 13.6697 7.71922C14.1112 7.18605 14.1343 6.62527 13.5625 6.1694C12.9861 5.70997 12.4638 5.8892 12.0243 6.41745C10.1948 8.61612 8.36569 10.8154 6.47555 13.088L6.45117 13.1173ZM13.3113 9.94811C13.4091 10.3842 13.5118 10.8195 13.6145 11.2548C13.8672 12.3258 14.12 13.3974 14.3001 14.4805C14.4147 15.1704 14.1954 15.8782 13.2716 15.9636C12.3717 16.047 11.8496 15.6339 11.6879 14.7447C11.6262 14.4055 11.56 14.0671 11.4938 13.7286C11.4099 13.2996 11.326 12.8705 11.2511 12.4399C11.2196 12.2581 11.1904 12.0059 11.2858 11.8834C11.6756 11.3817 12.0866 10.8967 12.4976 10.4117C12.6409 10.2426 12.7849 10.0726 12.9274 9.90276C13.0553 9.91814 13.1833 9.93313 13.3113 9.94811ZM7.87014 15.9496H10.6868V12.5548C9.67767 13.771 8.81778 14.8074 7.87014 15.9496Z" fill="currentColor"/>
</svg>
